<svg width="252" height="236" viewBox="0 0 252 236" fill="none" xmlns="http://www.w3.org/2000/svg">
<path d="M14.128 19.548C13.868 17.754 13.166 14.66 12.516 12.268L10.28 13.074C10.852 15.518 11.476 18.69 11.71 20.588L14.128 19.548ZM18.678 18.742C19.432 17.182 20.264 14.66 21.122 12.606L18.418 11.67C18.184 13.308 17.612 15.492 17.092 17.156V8.29H14.232V17.208C14.232 21.758 13.816 26.698 10.254 30.26C10.878 30.754 11.892 31.872 12.36 32.574C14.31 30.624 15.48 28.362 16.13 25.97C16.988 27.296 17.924 28.778 18.418 29.844L20.602 27.556C20.056 26.828 17.742 23.578 16.832 22.512C17.014 21.056 17.066 19.548 17.092 18.066L18.678 18.742ZM34.616 14.998V12.138H25.152C25.516 10.942 25.828 9.772 26.062 8.55L23.072 7.978C22.344 11.774 20.966 15.674 19.198 18.066C19.9 18.482 21.174 19.444 21.694 19.938C22.63 18.612 23.436 16.896 24.19 14.998H24.476V32.288H27.57V26.204H34.07V23.396H27.57V20.458H34.018V17.676H27.57V14.998H34.616ZM48.942 22.798C48.552 21.654 47.694 19.912 46.784 18.638L44.704 19.496C44.938 19.86 45.172 20.25 45.354 20.64L41.818 20.926C43.56 19.782 45.302 18.456 46.966 16.922L45.146 15.518C44.47 16.194 43.742 16.87 43.014 17.494L40.752 17.52C41.558 16.896 42.364 16.194 43.04 15.492L42.234 14.894L44.184 14.062C44.028 13.36 43.586 12.268 43.17 11.488C45.042 11.202 46.81 10.864 48.266 10.396L47.122 8.186C44.522 9.018 40.284 9.616 36.644 9.902C36.878 10.5 37.138 11.436 37.216 12.086C39.088 11.982 41.168 11.8 43.17 11.488L41.142 12.32C41.506 13.074 41.87 14.062 42.026 14.764L41.194 14.166C40.206 15.466 38.828 16.558 38.386 16.87C37.97 17.182 37.58 17.39 37.268 17.494C37.45 18.144 37.762 19.34 37.866 19.86C38.178 19.73 38.62 19.626 40.284 19.548C39.738 19.938 39.296 20.224 39.01 20.38C38.126 20.926 37.528 21.264 36.93 21.342C37.138 22.018 37.424 23.24 37.502 23.708C37.97 23.526 38.568 23.396 41.298 23.11C41.246 23.63 41.22 24.072 41.168 24.514H36.67V26.75H40.674C40.05 28.31 38.828 29.376 36.254 30.104C36.8 30.598 37.502 31.612 37.736 32.288C40.128 31.508 41.61 30.468 42.52 29.012C44.106 30.052 45.822 31.3 46.706 32.21L48.448 30.338C47.356 29.298 45.198 27.92 43.43 26.906L43.456 26.75H48.344V24.514H43.846C43.898 23.968 43.95 23.448 43.976 22.85H43.872L46.316 22.616C46.498 23.058 46.628 23.448 46.732 23.786L48.942 22.798ZM40.154 14.764C39.998 14.01 39.556 12.892 39.088 12.06L37.086 12.866C37.476 13.724 37.892 14.946 37.996 15.7L40.154 14.764ZM46.732 15.362C47.278 14.478 47.902 13.23 48.5 11.904L46.472 11.15C46.108 12.216 45.432 13.698 44.938 14.66L46.732 15.362ZM52.452 25.892H54.662V28.362H52.452V25.892ZM54.662 18.196H52.452V15.934H54.662V18.196ZM54.662 23.292H52.452V20.796H54.662V23.292ZM60.616 28.362H57.418V25.892H59.914V23.292H57.418V20.796H59.914V18.196H57.418V15.934H60.278V13.178H57.522L58.718 12.762C58.354 11.696 57.6 10.032 56.924 8.784L54.376 9.538C54.922 10.682 55.52 12.086 55.884 13.178H52.556C53.128 11.748 53.622 10.214 54.038 8.706L51.1 8.004C50.294 11.566 48.786 15.076 46.862 17.26C47.46 17.832 48.5 19.106 48.89 19.704C49.176 19.392 49.436 19.054 49.696 18.69V32.262H52.452V31.17H60.616V28.362ZM85.212 19.782C84.666 20.354 83.808 21.108 83.028 21.706C82.248 20.874 81.546 20.198 81.156 19.86L79.7 20.978C81.052 22.564 83.964 26.126 85.03 27.894L86.876 25.892C86.512 25.45 85.55 24.384 84.484 23.266C85.212 22.824 86.044 22.304 86.772 21.758L85.212 19.782ZM82.716 11.462V13.022H79.206V11.462H82.716ZM79.206 17.026V15.388H82.716V17.026H79.206ZM79.206 25.06V19.47H85.316V9.018H76.658V24.826C76.658 25.658 76.398 25.788 76.008 25.892C76.346 26.49 76.632 27.634 76.71 28.284C77.178 27.998 77.984 27.686 82.17 26.672C82.144 26.126 82.17 25.164 82.248 24.462L79.206 25.06ZM75.02 12.45C74.734 11.332 74.266 9.616 73.876 8.264L71.536 8.81C71.874 10.188 72.368 11.956 72.628 13.126L75.02 12.45ZM65.946 16.402C66.466 17.078 66.934 17.78 67.22 18.248L67.948 17.754V20.51C67.168 21.056 66.466 21.55 65.868 21.94C65.92 20.588 65.946 19.288 65.946 18.17V16.402ZM67.948 11.67V15.648C67.584 15.232 67.22 14.79 66.856 14.4L65.946 14.998V11.67H67.948ZM75.28 19.834L74.864 19.912H74.188C74.708 18.066 75.28 15.882 75.748 14.036H70.86V16.714H72.784C72.29 18.69 71.692 20.77 71.198 22.252H73.564C73.2 23.994 72.706 25.814 72.108 27.192C71.562 27.504 70.938 27.998 70.34 28.57V8.888H63.528V18.196C63.528 21.914 63.424 27.062 62.072 30.65C62.592 30.962 63.632 31.794 64.048 32.288C65.14 29.636 65.634 26.022 65.816 22.694L66.622 24.592L67.948 23.318V29.35C67.948 29.688 67.87 29.766 67.584 29.766C67.298 29.766 66.44 29.792 65.556 29.74C65.894 30.442 66.206 31.586 66.258 32.288C67.792 32.288 68.754 32.236 69.456 31.768C69.794 31.56 70.002 31.274 70.158 30.91L71.198 32.392C71.848 30.962 72.784 29.272 73.408 29.272C73.902 29.272 74.682 30.026 75.618 30.65C77.1 31.586 78.712 32.002 81.026 32.002C82.716 32.002 85.238 31.924 86.538 31.82C86.564 31.066 86.928 29.662 87.214 28.934C85.446 29.168 82.768 29.324 81.078 29.324C78.946 29.324 77.334 29.038 75.982 28.18C75.384 27.816 74.916 27.4 74.474 27.14C75.332 25.164 75.982 22.616 76.398 20.224L75.28 19.834Z" fill="#1E1E1E"/>
<path d="M96.2 33.71L97.172 33.188C95.048 31.01 93.788 28.328 93.788 25.16C93.788 21.992 95.048 19.31 97.172 17.132L96.2 16.61C94.004 18.86 92.618 21.704 92.618 25.16C92.618 28.616 94.004 31.46 96.2 33.71ZM111.896 30.2C110.87 29.228 108.836 27.734 107.234 26.654C107.486 26.006 107.666 25.34 107.81 24.656H106.568C106.118 26.834 105.074 29.084 101.762 30.182C102.032 30.38 102.338 30.812 102.464 31.064C104.642 30.272 105.92 29.084 106.73 27.662C108.296 28.76 110.096 30.164 111.032 31.082L111.896 30.2ZM114.182 19.634H107.648C107.81 18.824 107.9 17.942 107.972 17.024H106.712C106.64 17.96 106.55 18.824 106.388 19.634H99.818V33.368H101.006V20.804H106.118C105.488 22.676 104.336 24.116 101.852 25.016C102.104 25.214 102.428 25.628 102.554 25.898C104.624 25.124 105.884 23.99 106.676 22.55C108.332 23.522 110.24 24.818 111.23 25.664L112.04 24.746C110.924 23.864 108.836 22.514 107.126 21.542C107.234 21.308 107.306 21.074 107.36 20.804H113.012V31.748C113.012 32.09 112.922 32.18 112.598 32.198C112.256 32.216 111.122 32.216 109.898 32.162C110.06 32.522 110.222 33.044 110.276 33.404C111.788 33.404 112.868 33.386 113.444 33.17C114.002 32.972 114.182 32.576 114.182 31.766V19.634ZM129.572 19.328H120.392V18.284H129.572V19.328ZM129.572 21.128H120.392V20.066H129.572V21.128ZM130.742 17.546H119.24V21.884H130.742V17.546ZM133.01 22.676H117.008V23.594H133.01V22.676ZM120.05 28.148V27.05H124.406V28.148H120.05ZM120.05 25.25H124.406V26.312H120.05V25.25ZM130.112 26.312H125.54V25.25H130.112V26.312ZM130.112 28.148H125.54V27.05H130.112V28.148ZM125.54 31.964V30.848H131.696V29.984H125.54V28.922H131.282V24.458H118.916V28.922H124.406V29.984H118.376V30.848H124.406V31.964H116.9V32.9H133.118V31.964H125.54ZM143 22.118C143.684 22.118 144.296 21.614 144.296 20.84C144.296 20.03 143.684 19.544 143 19.544C142.316 19.544 141.704 20.03 141.704 20.84C141.704 21.614 142.316 22.118 143 22.118ZM143 30.974C143.684 30.974 144.296 30.47 144.296 29.678C144.296 28.886 143.684 28.382 143 28.382C142.316 28.382 141.704 28.886 141.704 29.678C141.704 30.47 142.316 30.974 143 30.974ZM160.208 17.186C158.552 17.726 155.528 18.086 153.062 18.266C153.17 18.518 153.278 18.896 153.314 19.166C155.798 19.022 158.858 18.68 160.712 18.068L160.208 17.186ZM159.614 21.56C160.028 20.93 160.55 19.976 160.946 19.094L160.1 18.716C159.812 19.472 159.29 20.552 158.912 21.218L159.614 21.56ZM157.724 20.966C157.616 20.426 157.292 19.598 156.986 18.986L156.158 19.328C156.464 19.958 156.77 20.804 156.878 21.344L157.724 20.966ZM155.024 21.308C154.916 20.786 154.574 19.958 154.232 19.364L153.404 19.688C153.728 20.318 154.052 21.164 154.16 21.722L155.024 21.308ZM156.572 26.996C156.536 27.482 156.5 27.968 156.428 28.382H152.954V29.318H156.23C155.798 30.884 154.844 31.91 152.666 32.522C152.9 32.72 153.206 33.116 153.314 33.386C155.186 32.81 156.23 31.946 156.86 30.704C158.066 31.478 159.362 32.486 160.028 33.188L160.73 32.432C159.974 31.676 158.48 30.596 157.202 29.822C157.256 29.66 157.292 29.498 157.328 29.318H160.928V28.382H157.508C157.58 27.95 157.616 27.482 157.652 26.996H156.572ZM158.48 24.458C158.75 24.782 159.002 25.178 159.254 25.574L155.366 25.934C156.806 24.998 158.246 23.828 159.632 22.46L158.858 21.866C158.354 22.406 157.796 22.946 157.238 23.414L154.898 23.504C155.582 22.946 156.302 22.208 156.95 21.434L156.122 20.894C155.438 21.92 154.394 22.874 154.106 23.09C153.818 23.342 153.548 23.486 153.35 23.54C153.458 23.828 153.566 24.35 153.602 24.584C153.818 24.494 154.178 24.422 156.158 24.314C155.474 24.854 154.898 25.286 154.61 25.466C154.034 25.844 153.584 26.096 153.224 26.15C153.332 26.456 153.458 26.978 153.494 27.212C153.854 27.032 154.412 26.96 159.758 26.42C159.938 26.762 160.1 27.122 160.208 27.392L161.108 26.978C160.784 26.168 160.046 24.962 159.326 24.08L158.48 24.458ZM162.962 28.796H165.338V31.388H162.962V28.796ZM165.338 24.134H162.962V21.65H165.338V24.134ZM165.338 27.752H162.962V25.178H165.338V27.752ZM169.19 31.388H166.436V28.796H168.668V27.752H166.436V25.178H168.668V24.134H166.436V21.65H169.01V20.552H166.382L167.228 20.228C166.94 19.472 166.346 18.302 165.806 17.42L164.816 17.744C165.302 18.608 165.896 19.778 166.166 20.552H163.052C163.466 19.49 163.826 18.356 164.114 17.24L162.98 16.97C162.368 19.58 161.324 22.154 159.974 23.828C160.244 24.044 160.658 24.512 160.838 24.728C161.216 24.26 161.54 23.702 161.882 23.09V33.35H162.962V32.486H169.19V31.388ZM182.546 25.574C183.464 26.528 185.948 29.372 186.704 30.452L187.496 29.66C187.154 29.264 186.272 28.292 185.372 27.32C185.93 26.888 186.578 26.348 187.154 25.808L186.47 25.052C186.056 25.538 185.354 26.204 184.76 26.708C184.094 25.97 183.482 25.34 183.176 25.052L182.546 25.574ZM185.084 18.734V20.552H181.826V18.734H185.084ZM181.826 23.432V21.542H185.084V23.432H181.826ZM181.826 29.426V24.44H186.128V17.726H180.8V29.156C180.8 29.732 180.548 29.822 180.314 29.894C180.476 30.128 180.638 30.614 180.674 30.902C180.926 30.722 181.376 30.542 184.454 29.678C184.418 29.462 184.4 29.084 184.4 28.814L181.826 29.426ZM179.036 19.994C178.838 19.238 178.478 18.086 178.208 17.168L177.254 17.366C177.506 18.284 177.884 19.49 178.064 20.264L179.036 19.994ZM172.772 18.734H174.986V22.91C174.626 22.406 174.05 21.722 173.51 21.164L172.808 21.632C173.348 22.208 173.996 23.054 174.338 23.612L174.986 23.126V25.592C174.104 26.132 173.276 26.636 172.682 26.96C172.754 25.898 172.772 24.872 172.772 23.972V18.734ZM179.54 25.412L179.36 25.448H178.37C178.82 24.206 179.342 22.64 179.756 21.344H176.642V22.406H178.46C178.046 23.81 177.506 25.358 177.074 26.42H178.892C178.604 27.77 178.154 29.318 177.614 30.38C177.11 30.65 176.552 31.244 175.976 32.018V31.946V17.618H171.782V23.972C171.782 26.582 171.692 30.128 170.594 32.666C170.828 32.774 171.242 33.152 171.386 33.368C172.214 31.532 172.556 29.156 172.682 26.978L173.168 27.95C173.762 27.518 174.374 27.068 174.986 26.636V31.928C174.986 32.18 174.896 32.27 174.68 32.27C174.464 32.27 173.744 32.288 172.898 32.252C173.042 32.558 173.168 33.008 173.204 33.278C174.374 33.278 175.022 33.26 175.436 33.08C175.616 32.99 175.742 32.846 175.832 32.702L176.444 33.44C177.056 32.27 177.704 31.208 178.154 31.208C178.55 31.208 179.072 31.748 179.72 32.234C180.764 32.954 181.916 33.224 183.572 33.224C184.76 33.224 186.776 33.17 187.64 33.098C187.658 32.792 187.82 32.234 187.946 31.946C186.686 32.09 184.868 32.162 183.59 32.162C182.042 32.162 180.962 31.946 179.99 31.316C179.378 30.902 179 30.524 178.604 30.326C179.252 29.03 179.756 27.194 180.062 25.61L179.54 25.412ZM201.896 30.2C200.87 29.228 198.836 27.734 197.234 26.654C197.486 26.006 197.666 25.34 197.81 24.656H196.568C196.118 26.834 195.074 29.084 191.762 30.182C192.032 30.38 192.338 30.812 192.464 31.064C194.642 30.272 195.92 29.084 196.73 27.662C198.296 28.76 200.096 30.164 201.032 31.082L201.896 30.2ZM204.182 19.634H197.648C197.81 18.824 197.9 17.942 197.972 17.024H196.712C196.64 17.96 196.55 18.824 196.388 19.634H189.818V33.368H191.006V20.804H196.118C195.488 22.676 194.336 24.116 191.852 25.016C192.104 25.214 192.428 25.628 192.554 25.898C194.624 25.124 195.884 23.99 196.676 22.55C198.332 23.522 200.24 24.818 201.23 25.664L202.04 24.746C200.924 23.864 198.836 22.514 197.126 21.542C197.234 21.308 197.306 21.074 197.36 20.804H203.012V31.748C203.012 32.09 202.922 32.18 202.598 32.198C202.256 32.216 201.122 32.216 199.898 32.162C200.06 32.522 200.222 33.044 200.276 33.404C201.788 33.404 202.868 33.386 203.444 33.17C204.002 32.972 204.182 32.576 204.182 31.766V19.634ZM210.716 32.234C213.02 32.234 214.856 30.83 214.856 28.49C214.856 26.672 213.596 25.484 212.048 25.124V25.052C213.452 24.548 214.406 23.486 214.406 21.848C214.406 19.76 212.822 18.59 210.662 18.572C209.15 18.59 207.998 19.256 207.026 20.138L207.836 21.092C208.574 20.336 209.528 19.778 210.608 19.76C212.03 19.778 212.912 20.642 212.912 21.956C212.912 23.432 211.958 24.566 209.204 24.566V25.718C212.264 25.718 213.38 26.816 213.38 28.454C213.38 30.02 212.228 31.01 210.626 31.01C209.06 31.01 208.07 30.272 207.296 29.48L206.54 30.434C207.386 31.352 208.664 32.234 210.716 32.234ZM229.145 24.998C228.191 26.834 226.751 28.256 224.951 29.372C223.205 28.22 221.855 26.762 220.919 24.998H229.145ZM230.063 23.792L229.829 23.828H225.473V20.948H232.385V19.778H225.473V16.97H224.249V19.778H217.337V20.948H224.249V23.828H218.147V24.998H220.037L219.695 25.124C220.685 27.122 222.053 28.742 223.799 30.002C221.693 31.1 219.227 31.802 216.635 32.234C216.851 32.486 217.175 33.044 217.301 33.368C220.037 32.828 222.647 32.018 224.897 30.74C226.985 31.982 229.505 32.828 232.439 33.278C232.601 32.936 232.925 32.432 233.177 32.144C230.441 31.784 228.065 31.064 226.067 30.02C228.155 28.616 229.829 26.744 230.873 24.296L230.063 23.792ZM235.679 16.61L234.707 17.132C236.831 19.31 238.091 21.992 238.091 25.16C238.091 28.328 236.831 31.01 234.707 33.188L235.679 33.71C237.875 31.46 239.261 28.616 239.261 25.16C239.261 21.704 237.875 18.86 235.679 16.61Z" fill="#1E1E1E"/>
<path d="M19.598 72.844V68.974H23.666V72.844H19.598ZM13.28 72.844V68.974H17.33V72.844H13.28ZM19.598 66.868V63.754H17.33V66.868H11.12V75.94H13.28V74.95H17.33V80.566H19.598V74.95H23.666V75.85H25.916V66.868H19.598ZM34.538 72.808H33.332V71.656H34.538V72.808ZM35.978 70.522H31.964V73.942H35.978V70.522ZM30.848 77.956V66.436H39.542L38.696 67.282C39.164 67.534 39.704 67.912 40.082 68.236H38.138C38.102 67.732 38.084 67.228 38.066 66.706H36.302C36.338 67.228 36.356 67.732 36.392 68.236H31.514V69.748H36.518C36.68 71.53 36.914 73.168 37.292 74.464C37.004 74.788 36.716 75.094 36.392 75.364L36.356 74.464C34.484 74.716 32.612 74.932 31.298 75.076L31.496 76.642C32.684 76.444 34.088 76.246 35.528 76.03C35.348 76.156 35.15 76.282 34.952 76.39C35.312 76.678 35.888 77.362 36.122 77.686C36.806 77.254 37.418 76.732 37.994 76.156C38.354 76.75 38.804 77.164 39.344 77.344C40.532 77.884 41.468 77.2 41.756 74.986C41.396 74.788 40.748 74.302 40.424 73.978C40.352 75.022 40.208 75.724 40.01 75.652C39.686 75.58 39.416 75.238 39.182 74.698C39.992 73.51 40.64 72.142 41.072 70.576L39.434 70.252C39.218 71.062 38.948 71.8 38.588 72.502C38.444 71.692 38.336 70.756 38.246 69.748H41.468V68.236H40.604L41.324 67.48C41 67.138 40.388 66.724 39.812 66.436H42.044V77.956H30.848ZM28.814 64.51V80.62H30.848V79.864H42.044V80.62H44.168V64.51H28.814ZM26.222 122.12V120.302H19.202C19.256 119.996 19.31 119.69 19.346 119.366H26.744V117.512H19.58V116.558H25.088V114.758H19.58V113.84H25.952V111.95H22.496C22.892 111.428 23.306 110.834 23.702 110.204L21.398 109.61C21.11 110.312 20.57 111.248 20.12 111.95H16.16L16.682 111.716C16.448 111.104 15.89 110.24 15.332 109.61L13.424 110.366C13.784 110.834 14.162 111.41 14.432 111.95H11.012V113.84H17.366V114.758H12.038V116.558H17.366V117.512H10.454V119.366H17.078C17.042 119.69 16.988 120.014 16.934 120.302H10.868V122.12H16.232C15.386 123.326 13.694 124.136 10.076 124.622C10.49 125.072 10.994 125.972 11.138 126.548C15.944 125.756 17.87 124.334 18.734 122.12H19.382L18.572 123.47C20.894 124.316 24.188 125.702 25.772 126.602L26.78 124.766C25.286 123.974 22.442 122.876 20.282 122.12H26.222ZM34.538 118.808H33.332V117.656H34.538V118.808ZM35.978 116.522H31.964V119.942H35.978V116.522ZM30.848 123.956V112.436H39.542L38.696 113.282C39.164 113.534 39.704 113.912 40.082 114.236H38.138C38.102 113.732 38.084 113.228 38.066 112.706H36.302C36.338 113.228 36.356 113.732 36.392 114.236H31.514V115.748H36.518C36.68 117.53 36.914 119.168 37.292 120.464C37.004 120.788 36.716 121.094 36.392 121.364L36.356 120.464C34.484 120.716 32.612 120.932 31.298 121.076L31.496 122.642C32.684 122.444 34.088 122.246 35.528 122.03C35.348 122.156 35.15 122.282 34.952 122.39C35.312 122.678 35.888 123.362 36.122 123.686C36.806 123.254 37.418 122.732 37.994 122.156C38.354 122.75 38.804 123.164 39.344 123.344C40.532 123.884 41.468 123.2 41.756 120.986C41.396 120.788 40.748 120.302 40.424 119.978C40.352 121.022 40.208 121.724 40.01 121.652C39.686 121.58 39.416 121.238 39.182 120.698C39.992 119.51 40.64 118.142 41.072 116.576L39.434 116.252C39.218 117.062 38.948 117.8 38.588 118.502C38.444 117.692 38.336 116.756 38.246 115.748H41.468V114.236H40.604L41.324 113.48C41 113.138 40.388 112.724 39.812 112.436H42.044V123.956H30.848ZM28.814 110.51V126.62H30.848V125.864H42.044V126.62H44.168V110.51H28.814ZM14.504 169.02V164.988H22.496V169.02H14.504ZM22.496 158.994V162.864H14.504V158.994H22.496ZM12.29 156.834V172.35H14.504V171.18H22.496V172.314H24.8V156.834H12.29ZM37.634 167.346V161.424H37.706C38.498 163.62 39.56 165.654 40.838 167.346H37.634ZM32.054 167.346C33.35 165.654 34.448 163.62 35.24 161.424H35.366V167.346H32.054ZM44.42 161.424V159.246H37.634V155.772H35.366V159.246H28.616V161.424H33.026C31.91 164.142 30.074 166.716 27.986 168.156C28.49 168.552 29.174 169.362 29.552 169.902C30.272 169.326 30.956 168.66 31.586 167.922V169.524H35.366V172.566H37.634V169.524H41.342V167.958C41.936 168.66 42.566 169.29 43.25 169.812C43.628 169.218 44.384 168.372 44.942 167.94C42.836 166.518 41.018 164.052 39.884 161.424H44.42ZM21.272 206.596H23.45V205.12H26.33V203.302H23.45V201.772H21.272V203.302H18.914V205.12H21.272V206.596ZM13.658 206.668H15.818V205.138H18.122V203.32H15.818V201.772H13.658V203.32H10.688V205.138H13.658V206.668ZM14.216 211.546V209.206H17.312V211.042C17.312 211.204 17.312 211.384 17.294 211.546H14.216ZM22.784 209.206V211.546H19.49C19.508 211.384 19.508 211.24 19.508 211.078V209.206H22.784ZM26.6 213.526V211.546H24.962V207.352H19.508V205.786H17.312V207.352H12.146V211.546H10.346V213.526H16.718C15.908 214.876 14.054 216.046 10.022 216.784C10.49 217.252 11.084 218.098 11.318 218.566C16.25 217.486 18.374 215.668 19.13 213.526H26.6ZM18.788 215.092C21.092 216.046 24.188 217.594 25.718 218.602L26.798 216.856C25.214 215.848 22.01 214.426 19.796 213.598L18.788 215.092ZM34.538 210.808H33.332V209.656H34.538V210.808ZM35.978 208.522H31.964V211.942H35.978V208.522ZM30.848 215.956V204.436H39.542L38.696 205.282C39.164 205.534 39.704 205.912 40.082 206.236H38.138C38.102 205.732 38.084 205.228 38.066 204.706H36.302C36.338 205.228 36.356 205.732 36.392 206.236H31.514V207.748H36.518C36.68 209.53 36.914 211.168 37.292 212.464C37.004 212.788 36.716 213.094 36.392 213.364L36.356 212.464C34.484 212.716 32.612 212.932 31.298 213.076L31.496 214.642C32.684 214.444 34.088 214.246 35.528 214.03C35.348 214.156 35.15 214.282 34.952 214.39C35.312 214.678 35.888 215.362 36.122 215.686C36.806 215.254 37.418 214.732 37.994 214.156C38.354 214.75 38.804 215.164 39.344 215.344C40.532 215.884 41.468 215.2 41.756 212.986C41.396 212.788 40.748 212.302 40.424 211.978C40.352 213.022 40.208 213.724 40.01 213.652C39.686 213.58 39.416 213.238 39.182 212.698C39.992 211.51 40.64 210.142 41.072 208.576L39.434 208.252C39.218 209.062 38.948 209.8 38.588 210.502C38.444 209.692 38.336 208.756 38.246 207.748H41.468V206.236H40.604L41.324 205.48C41 205.138 40.388 204.724 39.812 204.436H42.044V215.956H30.848ZM28.814 202.51V218.62H30.848V217.864H42.044V218.62H44.168V202.51H28.814Z" fill="#E11C1C"/>
<path d="M83.83 67.03H86.134C88.258 67.03 89.428 67.678 89.428 69.478C89.428 71.242 88.258 72.088 86.134 72.088H83.83V67.03ZM91.264 79L87.862 73.168C89.716 72.754 90.922 71.548 90.922 69.478C90.922 66.778 89.05 65.824 86.368 65.824H82.336V79H83.83V73.312H86.296L89.59 79H91.264ZM93.6212 79H94.9712V71.386C94.9712 70.27 94.8632 68.722 94.7912 67.57H94.8632L95.9072 70.558L98.4992 77.65H99.5252L102.099 70.558L103.143 67.57H103.215C103.143 68.722 103.035 70.27 103.035 71.386V79H104.421V65.824H102.585L100.011 73.024C99.7052 73.96 99.4172 74.896 99.0932 75.832H99.0032C98.6792 74.896 98.3732 73.96 98.0492 73.024L95.4572 65.824H93.6212V79ZM108.088 79H112.192C115.144 79 117.178 77.722 117.178 75.148C117.178 73.348 116.062 72.286 114.442 71.98V71.908C115.702 71.494 116.404 70.36 116.404 69.046C116.404 66.76 114.586 65.824 111.904 65.824H108.088V79ZM109.582 71.476V67.012H111.688C113.83 67.012 114.928 67.606 114.928 69.226C114.928 70.612 113.974 71.476 111.598 71.476H109.582ZM109.582 77.812V72.628H111.958C114.352 72.628 115.72 73.402 115.72 75.094C115.72 76.966 114.298 77.812 111.958 77.812H109.582ZM123.478 79H131.488V76.858H128.986V65.68H127.024C126.178 66.202 125.26 66.544 123.928 66.796V68.434H126.34V76.858H123.478V79ZM137.912 79.252C140.612 79.252 142.412 76.876 142.412 72.286C142.412 67.696 140.612 65.428 137.912 65.428C135.194 65.428 133.394 67.678 133.394 72.286C133.394 76.876 135.194 79.252 137.912 79.252ZM137.912 77.182C136.76 77.182 135.896 76.03 135.896 72.286C135.896 68.56 136.76 67.48 137.912 67.48C139.046 67.48 139.91 68.56 139.91 72.286C139.91 76.03 139.046 77.182 137.912 77.182ZM146.117 79.252C147.071 79.252 147.773 78.496 147.773 77.524C147.773 76.552 147.071 75.796 146.117 75.796C145.181 75.796 144.479 76.552 144.479 77.524C144.479 78.496 145.181 79.252 146.117 79.252ZM154.365 79.252C157.065 79.252 158.865 76.876 158.865 72.286C158.865 67.696 157.065 65.428 154.365 65.428C151.647 65.428 149.847 67.678 149.847 72.286C149.847 76.876 151.647 79.252 154.365 79.252ZM154.365 77.182C153.213 77.182 152.349 76.03 152.349 72.286C152.349 68.56 153.213 67.48 154.365 67.48C155.499 67.48 156.363 68.56 156.363 72.286C156.363 76.03 155.499 77.182 154.365 77.182ZM83.83 113.03H86.134C88.258 113.03 89.428 113.678 89.428 115.478C89.428 117.242 88.258 118.088 86.134 118.088H83.83V113.03ZM91.264 125L87.862 119.168C89.716 118.754 90.922 117.548 90.922 115.478C90.922 112.778 89.05 111.824 86.368 111.824H82.336V125H83.83V119.312H86.296L89.59 125H91.264ZM93.6212 125H94.9712V117.386C94.9712 116.27 94.8632 114.722 94.7912 113.57H94.8632L95.9072 116.558L98.4992 123.65H99.5252L102.099 116.558L103.143 113.57H103.215C103.143 114.722 103.035 116.27 103.035 117.386V125H104.421V111.824H102.585L100.011 119.024C99.7052 119.96 99.4172 120.896 99.0932 121.832H99.0032C98.6792 120.896 98.3732 119.96 98.0492 119.024L95.4572 111.824H93.6212V125ZM108.088 125H112.192C115.144 125 117.178 123.722 117.178 121.148C117.178 119.348 116.062 118.286 114.442 117.98V117.908C115.702 117.494 116.404 116.36 116.404 115.046C116.404 112.76 114.586 111.824 111.904 111.824H108.088V125ZM109.582 117.476V113.012H111.688C113.83 113.012 114.928 113.606 114.928 115.226C114.928 116.612 113.974 117.476 111.598 117.476H109.582ZM109.582 123.812V118.628H111.958C114.352 118.628 115.72 119.402 115.72 121.094C115.72 122.966 114.298 123.812 111.958 123.812H109.582ZM123.478 125H131.488V122.858H128.986V111.68H127.024C126.178 112.202 125.26 112.544 123.928 112.796V114.434H126.34V122.858H123.478V125ZM137.912 125.252C140.612 125.252 142.412 122.876 142.412 118.286C142.412 113.696 140.612 111.428 137.912 111.428C135.194 111.428 133.394 113.678 133.394 118.286C133.394 122.876 135.194 125.252 137.912 125.252ZM137.912 123.182C136.76 123.182 135.896 122.03 135.896 118.286C135.896 114.56 136.76 113.48 137.912 113.48C139.046 113.48 139.91 114.56 139.91 118.286C139.91 122.03 139.046 123.182 137.912 123.182ZM146.117 125.252C147.071 125.252 147.773 124.496 147.773 123.524C147.773 122.552 147.071 121.796 146.117 121.796C145.181 121.796 144.479 122.552 144.479 123.524C144.479 124.496 145.181 125.252 146.117 125.252ZM154.689 123.254C153.573 123.254 152.673 122.318 152.421 119.888C153.087 118.862 153.879 118.484 154.599 118.484C155.751 118.484 156.489 119.222 156.489 120.806C156.489 122.426 155.679 123.254 154.689 123.254ZM158.721 112.94C157.911 112.112 156.723 111.428 155.103 111.428C152.421 111.428 149.955 113.552 149.955 118.52C149.955 123.218 152.205 125.252 154.743 125.252C157.011 125.252 158.919 123.542 158.919 120.806C158.919 117.944 157.335 116.612 155.103 116.612C154.239 116.612 153.087 117.152 152.367 118.034C152.475 114.704 153.735 113.552 155.265 113.552C156.039 113.552 156.849 113.984 157.317 114.524L158.721 112.94ZM83.83 159.03H86.134C88.258 159.03 89.428 159.678 89.428 161.478C89.428 163.242 88.258 164.088 86.134 164.088H83.83V159.03ZM91.264 171L87.862 165.168C89.716 164.754 90.922 163.548 90.922 161.478C90.922 158.778 89.05 157.824 86.368 157.824H82.336V171H83.83V165.312H86.296L89.59 171H91.264ZM93.6212 171H94.9712V163.386C94.9712 162.27 94.8632 160.722 94.7912 159.57H94.8632L95.9072 162.558L98.4992 169.65H99.5252L102.099 162.558L103.143 159.57H103.215C103.143 160.722 103.035 162.27 103.035 163.386V171H104.421V157.824H102.585L100.011 165.024C99.7052 165.96 99.4172 166.896 99.0932 167.832H99.0032C98.6792 166.896 98.3732 165.96 98.0492 165.024L95.4572 157.824H93.6212V171ZM108.088 171H112.192C115.144 171 117.178 169.722 117.178 167.148C117.178 165.348 116.062 164.286 114.442 163.98V163.908C115.702 163.494 116.404 162.36 116.404 161.046C116.404 158.76 114.586 157.824 111.904 157.824H108.088V171ZM109.582 163.476V159.012H111.688C113.83 159.012 114.928 159.606 114.928 161.226C114.928 162.612 113.974 163.476 111.598 163.476H109.582ZM109.582 169.812V164.628H111.958C114.352 164.628 115.72 165.402 115.72 167.094C115.72 168.966 114.298 169.812 111.958 169.812H109.582ZM123.478 171H131.488V168.858H128.986V157.68H127.024C126.178 158.202 125.26 158.544 123.928 158.796V160.434H126.34V168.858H123.478V171ZM138.236 169.254C137.12 169.254 136.22 168.318 135.968 165.888C136.634 164.862 137.426 164.484 138.146 164.484C139.298 164.484 140.036 165.222 140.036 166.806C140.036 168.426 139.226 169.254 138.236 169.254ZM142.268 158.94C141.458 158.112 140.27 157.428 138.65 157.428C135.968 157.428 133.502 159.552 133.502 164.52C133.502 169.218 135.752 171.252 138.29 171.252C140.558 171.252 142.466 169.542 142.466 166.806C142.466 163.944 140.882 162.612 138.65 162.612C137.786 162.612 136.634 163.152 135.914 164.034C136.022 160.704 137.282 159.552 138.812 159.552C139.586 159.552 140.396 159.984 140.864 160.524L142.268 158.94ZM146.117 171.252C147.071 171.252 147.773 170.496 147.773 169.524C147.773 168.552 147.071 167.796 146.117 167.796C145.181 167.796 144.479 168.552 144.479 169.524C144.479 170.496 145.181 171.252 146.117 171.252ZM154.365 171.252C157.065 171.252 158.865 168.876 158.865 164.286C158.865 159.696 157.065 157.428 154.365 157.428C151.647 157.428 149.847 159.678 149.847 164.286C149.847 168.876 151.647 171.252 154.365 171.252ZM154.365 169.182C153.213 169.182 152.349 168.03 152.349 164.286C152.349 160.56 153.213 159.48 154.365 159.48C155.499 159.48 156.363 160.56 156.363 164.286C156.363 168.03 155.499 169.182 154.365 169.182ZM83.83 205.03H86.134C88.258 205.03 89.428 205.678 89.428 207.478C89.428 209.242 88.258 210.088 86.134 210.088H83.83V205.03ZM91.264 217L87.862 211.168C89.716 210.754 90.922 209.548 90.922 207.478C90.922 204.778 89.05 203.824 86.368 203.824H82.336V217H83.83V211.312H86.296L89.59 217H91.264ZM93.6212 217H94.9712V209.386C94.9712 208.27 94.8632 206.722 94.7912 205.57H94.8632L95.9072 208.558L98.4992 215.65H99.5252L102.099 208.558L103.143 205.57H103.215C103.143 206.722 103.035 208.27 103.035 209.386V217H104.421V203.824H102.585L100.011 211.024C99.7052 211.96 99.4172 212.896 99.0932 213.832H99.0032C98.6792 212.896 98.3732 211.96 98.0492 211.024L95.4572 203.824H93.6212V217ZM108.088 217H112.192C115.144 217 117.178 215.722 117.178 213.148C117.178 211.348 116.062 210.286 114.442 209.98V209.908C115.702 209.494 116.404 208.36 116.404 207.046C116.404 204.76 114.586 203.824 111.904 203.824H108.088V217ZM109.582 209.476V205.012H111.688C113.83 205.012 114.928 205.606 114.928 207.226C114.928 208.612 113.974 209.476 111.598 209.476H109.582ZM109.582 215.812V210.628H111.958C114.352 210.628 115.72 211.402 115.72 213.094C115.72 214.966 114.298 215.812 111.958 215.812H109.582ZM127.294 217.252C129.994 217.252 131.776 215.704 131.776 213.688C131.776 211.87 130.768 210.79 129.544 210.124V210.034C130.426 209.404 131.254 208.306 131.254 206.992C131.254 204.868 129.742 203.446 127.384 203.446C125.062 203.446 123.37 204.814 123.37 206.956C123.37 208.378 124.108 209.386 125.134 210.124V210.214C123.892 210.88 122.848 211.978 122.848 213.688C122.848 215.776 124.756 217.252 127.294 217.252ZM128.14 209.386C126.736 208.828 125.71 208.216 125.71 206.956C125.71 205.894 126.43 205.3 127.33 205.3C128.446 205.3 129.094 206.074 129.094 207.154C129.094 207.946 128.788 208.702 128.14 209.386ZM127.366 215.38C126.124 215.38 125.134 214.606 125.134 213.4C125.134 212.41 125.638 211.51 126.358 210.934C128.086 211.636 129.31 212.212 129.31 213.598C129.31 214.75 128.482 215.38 127.366 215.38ZM135.518 217.252C136.472 217.252 137.174 216.496 137.174 215.524C137.174 214.552 136.472 213.796 135.518 213.796C134.582 213.796 133.88 214.552 133.88 215.524C133.88 216.496 134.582 217.252 135.518 217.252ZM143.387 217.252C145.925 217.252 148.067 215.83 148.067 213.382C148.067 211.636 146.915 210.52 145.403 210.106V210.016C146.825 209.458 147.635 208.414 147.635 206.974C147.635 204.688 145.889 203.428 143.315 203.428C141.749 203.428 140.471 204.058 139.319 205.066L140.669 206.686C141.461 205.966 142.235 205.516 143.189 205.498C144.323 205.516 144.971 206.128 144.971 207.172C144.971 208.36 144.179 209.206 141.731 209.206V211.114C144.629 211.114 145.403 211.924 145.403 213.238C145.403 214.426 144.485 215.092 143.135 215.092C141.929 215.092 140.957 214.498 140.165 213.724L138.923 215.398C139.859 216.46 141.281 217.252 143.387 217.252Z" fill="#1E1E1E"/>
<path d="M0 95H207" stroke="#E11C1C"/>
<path d="M0 140H207" stroke="#E11C1C"/>
<path d="M0 186H207" stroke="#E11C1C"/>
<path d="M66 47L66 236" stroke="#E11C1C"/>
</svg>
