<svg width="651" height="236" viewBox="0 0 651 236" fill="none" xmlns="http://www.w3.org/2000/svg">
<path d="M0.666667 90C0.666667 92.9455 3.05448 95.3333 6 95.3333C8.94552 95.3333 11.3333 92.9455 11.3333 90C11.3333 87.0545 8.94552 84.6667 6 84.6667C3.05448 84.6667 0.666667 87.0545 0.666667 90ZM31.762 22V21H31.0715L30.8269 21.6457L31.762 22ZM6.93514 90.3543L32.6972 22.3543L30.8269 21.6457L5.06486 89.6457L6.93514 90.3543ZM31.762 23H390V21H31.762V23Z" fill="#1E1E1E"/>
<path d="M413.128 19.548C412.868 17.754 412.166 14.66 411.516 12.268L409.28 13.074C409.852 15.518 410.476 18.69 410.71 20.588L413.128 19.548ZM417.678 18.742C418.432 17.182 419.264 14.66 420.122 12.606L417.418 11.67C417.184 13.308 416.612 15.492 416.092 17.156V8.29H413.232V17.208C413.232 21.758 412.816 26.698 409.254 30.26C409.878 30.754 410.892 31.872 411.36 32.574C413.31 30.624 414.48 28.362 415.13 25.97C415.988 27.296 416.924 28.778 417.418 29.844L419.602 27.556C419.056 26.828 416.742 23.578 415.832 22.512C416.014 21.056 416.066 19.548 416.092 18.066L417.678 18.742ZM433.616 14.998V12.138H424.152C424.516 10.942 424.828 9.772 425.062 8.55L422.072 7.978C421.344 11.774 419.966 15.674 418.198 18.066C418.9 18.482 420.174 19.444 420.694 19.938C421.63 18.612 422.436 16.896 423.19 14.998H423.476V32.288H426.57V26.204H433.07V23.396H426.57V20.458H433.018V17.676H426.57V14.998H433.616ZM447.942 22.798C447.552 21.654 446.694 19.912 445.784 18.638L443.704 19.496C443.938 19.86 444.172 20.25 444.354 20.64L440.818 20.926C442.56 19.782 444.302 18.456 445.966 16.922L444.146 15.518C443.47 16.194 442.742 16.87 442.014 17.494L439.752 17.52C440.558 16.896 441.364 16.194 442.04 15.492L441.234 14.894L443.184 14.062C443.028 13.36 442.586 12.268 442.17 11.488C444.042 11.202 445.81 10.864 447.266 10.396L446.122 8.186C443.522 9.018 439.284 9.616 435.644 9.902C435.878 10.5 436.138 11.436 436.216 12.086C438.088 11.982 440.168 11.8 442.17 11.488L440.142 12.32C440.506 13.074 440.87 14.062 441.026 14.764L440.194 14.166C439.206 15.466 437.828 16.558 437.386 16.87C436.97 17.182 436.58 17.39 436.268 17.494C436.45 18.144 436.762 19.34 436.866 19.86C437.178 19.73 437.62 19.626 439.284 19.548C438.738 19.938 438.296 20.224 438.01 20.38C437.126 20.926 436.528 21.264 435.93 21.342C436.138 22.018 436.424 23.24 436.502 23.708C436.97 23.526 437.568 23.396 440.298 23.11C440.246 23.63 440.22 24.072 440.168 24.514H435.67V26.75H439.674C439.05 28.31 437.828 29.376 435.254 30.104C435.8 30.598 436.502 31.612 436.736 32.288C439.128 31.508 440.61 30.468 441.52 29.012C443.106 30.052 444.822 31.3 445.706 32.21L447.448 30.338C446.356 29.298 444.198 27.92 442.43 26.906L442.456 26.75H447.344V24.514H442.846C442.898 23.968 442.95 23.448 442.976 22.85H442.872L445.316 22.616C445.498 23.058 445.628 23.448 445.732 23.786L447.942 22.798ZM439.154 14.764C438.998 14.01 438.556 12.892 438.088 12.06L436.086 12.866C436.476 13.724 436.892 14.946 436.996 15.7L439.154 14.764ZM445.732 15.362C446.278 14.478 446.902 13.23 447.5 11.904L445.472 11.15C445.108 12.216 444.432 13.698 443.938 14.66L445.732 15.362ZM451.452 25.892H453.662V28.362H451.452V25.892ZM453.662 18.196H451.452V15.934H453.662V18.196ZM453.662 23.292H451.452V20.796H453.662V23.292ZM459.616 28.362H456.418V25.892H458.914V23.292H456.418V20.796H458.914V18.196H456.418V15.934H459.278V13.178H456.522L457.718 12.762C457.354 11.696 456.6 10.032 455.924 8.784L453.376 9.538C453.922 10.682 454.52 12.086 454.884 13.178H451.556C452.128 11.748 452.622 10.214 453.038 8.706L450.1 8.004C449.294 11.566 447.786 15.076 445.862 17.26C446.46 17.832 447.5 19.106 447.89 19.704C448.176 19.392 448.436 19.054 448.696 18.69V32.262H451.452V31.17H459.616V28.362ZM484.212 19.782C483.666 20.354 482.808 21.108 482.028 21.706C481.248 20.874 480.546 20.198 480.156 19.86L478.7 20.978C480.052 22.564 482.964 26.126 484.03 27.894L485.876 25.892C485.512 25.45 484.55 24.384 483.484 23.266C484.212 22.824 485.044 22.304 485.772 21.758L484.212 19.782ZM481.716 11.462V13.022H478.206V11.462H481.716ZM478.206 17.026V15.388H481.716V17.026H478.206ZM478.206 25.06V19.47H484.316V9.018H475.658V24.826C475.658 25.658 475.398 25.788 475.008 25.892C475.346 26.49 475.632 27.634 475.71 28.284C476.178 27.998 476.984 27.686 481.17 26.672C481.144 26.126 481.17 25.164 481.248 24.462L478.206 25.06ZM474.02 12.45C473.734 11.332 473.266 9.616 472.876 8.264L470.536 8.81C470.874 10.188 471.368 11.956 471.628 13.126L474.02 12.45ZM464.946 16.402C465.466 17.078 465.934 17.78 466.22 18.248L466.948 17.754V20.51C466.168 21.056 465.466 21.55 464.868 21.94C464.92 20.588 464.946 19.288 464.946 18.17V16.402ZM466.948 11.67V15.648C466.584 15.232 466.22 14.79 465.856 14.4L464.946 14.998V11.67H466.948ZM474.28 19.834L473.864 19.912H473.188C473.708 18.066 474.28 15.882 474.748 14.036H469.86V16.714H471.784C471.29 18.69 470.692 20.77 470.198 22.252H472.564C472.2 23.994 471.706 25.814 471.108 27.192C470.562 27.504 469.938 27.998 469.34 28.57V8.888H462.528V18.196C462.528 21.914 462.424 27.062 461.072 30.65C461.592 30.962 462.632 31.794 463.048 32.288C464.14 29.636 464.634 26.022 464.816 22.694L465.622 24.592L466.948 23.318V29.35C466.948 29.688 466.87 29.766 466.584 29.766C466.298 29.766 465.44 29.792 464.556 29.74C464.894 30.442 465.206 31.586 465.258 32.288C466.792 32.288 467.754 32.236 468.456 31.768C468.794 31.56 469.002 31.274 469.158 30.91L470.198 32.392C470.848 30.962 471.784 29.272 472.408 29.272C472.902 29.272 473.682 30.026 474.618 30.65C476.1 31.586 477.712 32.002 480.026 32.002C481.716 32.002 484.238 31.924 485.538 31.82C485.564 31.066 485.928 29.662 486.214 28.934C484.446 29.168 481.768 29.324 480.078 29.324C477.946 29.324 476.334 29.038 474.982 28.18C474.384 27.816 473.916 27.4 473.474 27.14C474.332 25.164 474.982 22.616 475.398 20.224L474.28 19.834Z" fill="#1E1E1E"/>
<path d="M495.2 33.71L496.172 33.188C494.048 31.01 492.788 28.328 492.788 25.16C492.788 21.992 494.048 19.31 496.172 17.132L495.2 16.61C493.004 18.86 491.618 21.704 491.618 25.16C491.618 28.616 493.004 31.46 495.2 33.71ZM510.896 30.2C509.87 29.228 507.836 27.734 506.234 26.654C506.486 26.006 506.666 25.34 506.81 24.656H505.568C505.118 26.834 504.074 29.084 500.762 30.182C501.032 30.38 501.338 30.812 501.464 31.064C503.642 30.272 504.92 29.084 505.73 27.662C507.296 28.76 509.096 30.164 510.032 31.082L510.896 30.2ZM513.182 19.634H506.648C506.81 18.824 506.9 17.942 506.972 17.024H505.712C505.64 17.96 505.55 18.824 505.388 19.634H498.818V33.368H500.006V20.804H505.118C504.488 22.676 503.336 24.116 500.852 25.016C501.104 25.214 501.428 25.628 501.554 25.898C503.624 25.124 504.884 23.99 505.676 22.55C507.332 23.522 509.24 24.818 510.23 25.664L511.04 24.746C509.924 23.864 507.836 22.514 506.126 21.542C506.234 21.308 506.306 21.074 506.36 20.804H512.012V31.748C512.012 32.09 511.922 32.18 511.598 32.198C511.256 32.216 510.122 32.216 508.898 32.162C509.06 32.522 509.222 33.044 509.276 33.404C510.788 33.404 511.868 33.386 512.444 33.17C513.002 32.972 513.182 32.576 513.182 31.766V19.634ZM528.572 19.328H519.392V18.284H528.572V19.328ZM528.572 21.128H519.392V20.066H528.572V21.128ZM529.742 17.546H518.24V21.884H529.742V17.546ZM532.01 22.676H516.008V23.594H532.01V22.676ZM519.05 28.148V27.05H523.406V28.148H519.05ZM519.05 25.25H523.406V26.312H519.05V25.25ZM529.112 26.312H524.54V25.25H529.112V26.312ZM529.112 28.148H524.54V27.05H529.112V28.148ZM524.54 31.964V30.848H530.696V29.984H524.54V28.922H530.282V24.458H517.916V28.922H523.406V29.984H517.376V30.848H523.406V31.964H515.9V32.9H532.118V31.964H524.54ZM542 22.118C542.684 22.118 543.296 21.614 543.296 20.84C543.296 20.03 542.684 19.544 542 19.544C541.316 19.544 540.704 20.03 540.704 20.84C540.704 21.614 541.316 22.118 542 22.118ZM542 30.974C542.684 30.974 543.296 30.47 543.296 29.678C543.296 28.886 542.684 28.382 542 28.382C541.316 28.382 540.704 28.886 540.704 29.678C540.704 30.47 541.316 30.974 542 30.974ZM559.208 17.186C557.552 17.726 554.528 18.086 552.062 18.266C552.17 18.518 552.278 18.896 552.314 19.166C554.798 19.022 557.858 18.68 559.712 18.068L559.208 17.186ZM558.614 21.56C559.028 20.93 559.55 19.976 559.946 19.094L559.1 18.716C558.812 19.472 558.29 20.552 557.912 21.218L558.614 21.56ZM556.724 20.966C556.616 20.426 556.292 19.598 555.986 18.986L555.158 19.328C555.464 19.958 555.77 20.804 555.878 21.344L556.724 20.966ZM554.024 21.308C553.916 20.786 553.574 19.958 553.232 19.364L552.404 19.688C552.728 20.318 553.052 21.164 553.16 21.722L554.024 21.308ZM555.572 26.996C555.536 27.482 555.5 27.968 555.428 28.382H551.954V29.318H555.23C554.798 30.884 553.844 31.91 551.666 32.522C551.9 32.72 552.206 33.116 552.314 33.386C554.186 32.81 555.23 31.946 555.86 30.704C557.066 31.478 558.362 32.486 559.028 33.188L559.73 32.432C558.974 31.676 557.48 30.596 556.202 29.822C556.256 29.66 556.292 29.498 556.328 29.318H559.928V28.382H556.508C556.58 27.95 556.616 27.482 556.652 26.996H555.572ZM557.48 24.458C557.75 24.782 558.002 25.178 558.254 25.574L554.366 25.934C555.806 24.998 557.246 23.828 558.632 22.46L557.858 21.866C557.354 22.406 556.796 22.946 556.238 23.414L553.898 23.504C554.582 22.946 555.302 22.208 555.95 21.434L555.122 20.894C554.438 21.92 553.394 22.874 553.106 23.09C552.818 23.342 552.548 23.486 552.35 23.54C552.458 23.828 552.566 24.35 552.602 24.584C552.818 24.494 553.178 24.422 555.158 24.314C554.474 24.854 553.898 25.286 553.61 25.466C553.034 25.844 552.584 26.096 552.224 26.15C552.332 26.456 552.458 26.978 552.494 27.212C552.854 27.032 553.412 26.96 558.758 26.42C558.938 26.762 559.1 27.122 559.208 27.392L560.108 26.978C559.784 26.168 559.046 24.962 558.326 24.08L557.48 24.458ZM561.962 28.796H564.338V31.388H561.962V28.796ZM564.338 24.134H561.962V21.65H564.338V24.134ZM564.338 27.752H561.962V25.178H564.338V27.752ZM568.19 31.388H565.436V28.796H567.668V27.752H565.436V25.178H567.668V24.134H565.436V21.65H568.01V20.552H565.382L566.228 20.228C565.94 19.472 565.346 18.302 564.806 17.42L563.816 17.744C564.302 18.608 564.896 19.778 565.166 20.552H562.052C562.466 19.49 562.826 18.356 563.114 17.24L561.98 16.97C561.368 19.58 560.324 22.154 558.974 23.828C559.244 24.044 559.658 24.512 559.838 24.728C560.216 24.26 560.54 23.702 560.882 23.09V33.35H561.962V32.486H568.19V31.388ZM581.546 25.574C582.464 26.528 584.948 29.372 585.704 30.452L586.496 29.66C586.154 29.264 585.272 28.292 584.372 27.32C584.93 26.888 585.578 26.348 586.154 25.808L585.47 25.052C585.056 25.538 584.354 26.204 583.76 26.708C583.094 25.97 582.482 25.34 582.176 25.052L581.546 25.574ZM584.084 18.734V20.552H580.826V18.734H584.084ZM580.826 23.432V21.542H584.084V23.432H580.826ZM580.826 29.426V24.44H585.128V17.726H579.8V29.156C579.8 29.732 579.548 29.822 579.314 29.894C579.476 30.128 579.638 30.614 579.674 30.902C579.926 30.722 580.376 30.542 583.454 29.678C583.418 29.462 583.4 29.084 583.4 28.814L580.826 29.426ZM578.036 19.994C577.838 19.238 577.478 18.086 577.208 17.168L576.254 17.366C576.506 18.284 576.884 19.49 577.064 20.264L578.036 19.994ZM571.772 18.734H573.986V22.91C573.626 22.406 573.05 21.722 572.51 21.164L571.808 21.632C572.348 22.208 572.996 23.054 573.338 23.612L573.986 23.126V25.592C573.104 26.132 572.276 26.636 571.682 26.96C571.754 25.898 571.772 24.872 571.772 23.972V18.734ZM578.54 25.412L578.36 25.448H577.37C577.82 24.206 578.342 22.64 578.756 21.344H575.642V22.406H577.46C577.046 23.81 576.506 25.358 576.074 26.42H577.892C577.604 27.77 577.154 29.318 576.614 30.38C576.11 30.65 575.552 31.244 574.976 32.018V31.946V17.618H570.782V23.972C570.782 26.582 570.692 30.128 569.594 32.666C569.828 32.774 570.242 33.152 570.386 33.368C571.214 31.532 571.556 29.156 571.682 26.978L572.168 27.95C572.762 27.518 573.374 27.068 573.986 26.636V31.928C573.986 32.18 573.896 32.27 573.68 32.27C573.464 32.27 572.744 32.288 571.898 32.252C572.042 32.558 572.168 33.008 572.204 33.278C573.374 33.278 574.022 33.26 574.436 33.08C574.616 32.99 574.742 32.846 574.832 32.702L575.444 33.44C576.056 32.27 576.704 31.208 577.154 31.208C577.55 31.208 578.072 31.748 578.72 32.234C579.764 32.954 580.916 33.224 582.572 33.224C583.76 33.224 585.776 33.17 586.64 33.098C586.658 32.792 586.82 32.234 586.946 31.946C585.686 32.09 583.868 32.162 582.59 32.162C581.042 32.162 579.962 31.946 578.99 31.316C578.378 30.902 578 30.524 577.604 30.326C578.252 29.03 578.756 27.194 579.062 25.61L578.54 25.412ZM600.896 30.2C599.87 29.228 597.836 27.734 596.234 26.654C596.486 26.006 596.666 25.34 596.81 24.656H595.568C595.118 26.834 594.074 29.084 590.762 30.182C591.032 30.38 591.338 30.812 591.464 31.064C593.642 30.272 594.92 29.084 595.73 27.662C597.296 28.76 599.096 30.164 600.032 31.082L600.896 30.2ZM603.182 19.634H596.648C596.81 18.824 596.9 17.942 596.972 17.024H595.712C595.64 17.96 595.55 18.824 595.388 19.634H588.818V33.368H590.006V20.804H595.118C594.488 22.676 593.336 24.116 590.852 25.016C591.104 25.214 591.428 25.628 591.554 25.898C593.624 25.124 594.884 23.99 595.676 22.55C597.332 23.522 599.24 24.818 600.23 25.664L601.04 24.746C599.924 23.864 597.836 22.514 596.126 21.542C596.234 21.308 596.306 21.074 596.36 20.804H602.012V31.748C602.012 32.09 601.922 32.18 601.598 32.198C601.256 32.216 600.122 32.216 598.898 32.162C599.06 32.522 599.222 33.044 599.276 33.404C600.788 33.404 601.868 33.386 602.444 33.17C603.002 32.972 603.182 32.576 603.182 31.766V19.634ZM609.716 32.234C612.02 32.234 613.856 30.83 613.856 28.49C613.856 26.672 612.596 25.484 611.048 25.124V25.052C612.452 24.548 613.406 23.486 613.406 21.848C613.406 19.76 611.822 18.59 609.662 18.572C608.15 18.59 606.998 19.256 606.026 20.138L606.836 21.092C607.574 20.336 608.528 19.778 609.608 19.76C611.03 19.778 611.912 20.642 611.912 21.956C611.912 23.432 610.958 24.566 608.204 24.566V25.718C611.264 25.718 612.38 26.816 612.38 28.454C612.38 30.02 611.228 31.01 609.626 31.01C608.06 31.01 607.07 30.272 606.296 29.48L605.54 30.434C606.386 31.352 607.664 32.234 609.716 32.234ZM628.145 24.998C627.191 26.834 625.751 28.256 623.951 29.372C622.205 28.22 620.855 26.762 619.919 24.998H628.145ZM629.063 23.792L628.829 23.828H624.473V20.948H631.385V19.778H624.473V16.97H623.249V19.778H616.337V20.948H623.249V23.828H617.147V24.998H619.037L618.695 25.124C619.685 27.122 621.053 28.742 622.799 30.002C620.693 31.1 618.227 31.802 615.635 32.234C615.851 32.486 616.175 33.044 616.301 33.368C619.037 32.828 621.647 32.018 623.897 30.74C625.985 31.982 628.505 32.828 631.439 33.278C631.601 32.936 631.925 32.432 632.177 32.144C629.441 31.784 627.065 31.064 625.067 30.02C627.155 28.616 628.829 26.744 629.873 24.296L629.063 23.792ZM634.679 16.61L633.707 17.132C635.831 19.31 637.091 21.992 637.091 25.16C637.091 28.328 635.831 31.01 633.707 33.188L634.679 33.71C636.875 31.46 638.261 28.616 638.261 25.16C638.261 21.704 636.875 18.86 634.679 16.61Z" fill="#1E1E1E"/>
<path d="M418.598 72.844V68.974H422.666V72.844H418.598ZM412.28 72.844V68.974H416.33V72.844H412.28ZM418.598 66.868V63.754H416.33V66.868H410.12V75.94H412.28V74.95H416.33V80.566H418.598V74.95H422.666V75.85H424.916V66.868H418.598ZM433.538 72.808H432.332V71.656H433.538V72.808ZM434.978 70.522H430.964V73.942H434.978V70.522ZM429.848 77.956V66.436H438.542L437.696 67.282C438.164 67.534 438.704 67.912 439.082 68.236H437.138C437.102 67.732 437.084 67.228 437.066 66.706H435.302C435.338 67.228 435.356 67.732 435.392 68.236H430.514V69.748H435.518C435.68 71.53 435.914 73.168 436.292 74.464C436.004 74.788 435.716 75.094 435.392 75.364L435.356 74.464C433.484 74.716 431.612 74.932 430.298 75.076L430.496 76.642C431.684 76.444 433.088 76.246 434.528 76.03C434.348 76.156 434.15 76.282 433.952 76.39C434.312 76.678 434.888 77.362 435.122 77.686C435.806 77.254 436.418 76.732 436.994 76.156C437.354 76.75 437.804 77.164 438.344 77.344C439.532 77.884 440.468 77.2 440.756 74.986C440.396 74.788 439.748 74.302 439.424 73.978C439.352 75.022 439.208 75.724 439.01 75.652C438.686 75.58 438.416 75.238 438.182 74.698C438.992 73.51 439.64 72.142 440.072 70.576L438.434 70.252C438.218 71.062 437.948 71.8 437.588 72.502C437.444 71.692 437.336 70.756 437.246 69.748H440.468V68.236H439.604L440.324 67.48C440 67.138 439.388 66.724 438.812 66.436H441.044V77.956H429.848ZM427.814 64.51V80.62H429.848V79.864H441.044V80.62H443.168V64.51H427.814ZM425.222 122.12V120.302H418.202C418.256 119.996 418.31 119.69 418.346 119.366H425.744V117.512H418.58V116.558H424.088V114.758H418.58V113.84H424.952V111.95H421.496C421.892 111.428 422.306 110.834 422.702 110.204L420.398 109.61C420.11 110.312 419.57 111.248 419.12 111.95H415.16L415.682 111.716C415.448 111.104 414.89 110.24 414.332 109.61L412.424 110.366C412.784 110.834 413.162 111.41 413.432 111.95H410.012V113.84H416.366V114.758H411.038V116.558H416.366V117.512H409.454V119.366H416.078C416.042 119.69 415.988 120.014 415.934 120.302H409.868V122.12H415.232C414.386 123.326 412.694 124.136 409.076 124.622C409.49 125.072 409.994 125.972 410.138 126.548C414.944 125.756 416.87 124.334 417.734 122.12H418.382L417.572 123.47C419.894 124.316 423.188 125.702 424.772 126.602L425.78 124.766C424.286 123.974 421.442 122.876 419.282 122.12H425.222ZM433.538 118.808H432.332V117.656H433.538V118.808ZM434.978 116.522H430.964V119.942H434.978V116.522ZM429.848 123.956V112.436H438.542L437.696 113.282C438.164 113.534 438.704 113.912 439.082 114.236H437.138C437.102 113.732 437.084 113.228 437.066 112.706H435.302C435.338 113.228 435.356 113.732 435.392 114.236H430.514V115.748H435.518C435.68 117.53 435.914 119.168 436.292 120.464C436.004 120.788 435.716 121.094 435.392 121.364L435.356 120.464C433.484 120.716 431.612 120.932 430.298 121.076L430.496 122.642C431.684 122.444 433.088 122.246 434.528 122.03C434.348 122.156 434.15 122.282 433.952 122.39C434.312 122.678 434.888 123.362 435.122 123.686C435.806 123.254 436.418 122.732 436.994 122.156C437.354 122.75 437.804 123.164 438.344 123.344C439.532 123.884 440.468 123.2 440.756 120.986C440.396 120.788 439.748 120.302 439.424 119.978C439.352 121.022 439.208 121.724 439.01 121.652C438.686 121.58 438.416 121.238 438.182 120.698C438.992 119.51 439.64 118.142 440.072 116.576L438.434 116.252C438.218 117.062 437.948 117.8 437.588 118.502C437.444 117.692 437.336 116.756 437.246 115.748H440.468V114.236H439.604L440.324 113.48C440 113.138 439.388 112.724 438.812 112.436H441.044V123.956H429.848ZM427.814 110.51V126.62H429.848V125.864H441.044V126.62H443.168V110.51H427.814ZM413.504 169.02V164.988H421.496V169.02H413.504ZM421.496 158.994V162.864H413.504V158.994H421.496ZM411.29 156.834V172.35H413.504V171.18H421.496V172.314H423.8V156.834H411.29ZM436.634 167.346V161.424H436.706C437.498 163.62 438.56 165.654 439.838 167.346H436.634ZM431.054 167.346C432.35 165.654 433.448 163.62 434.24 161.424H434.366V167.346H431.054ZM443.42 161.424V159.246H436.634V155.772H434.366V159.246H427.616V161.424H432.026C430.91 164.142 429.074 166.716 426.986 168.156C427.49 168.552 428.174 169.362 428.552 169.902C429.272 169.326 429.956 168.66 430.586 167.922V169.524H434.366V172.566H436.634V169.524H440.342V167.958C440.936 168.66 441.566 169.29 442.25 169.812C442.628 169.218 443.384 168.372 443.942 167.94C441.836 166.518 440.018 164.052 438.884 161.424H443.42ZM420.272 206.596H422.45V205.12H425.33V203.302H422.45V201.772H420.272V203.302H417.914V205.12H420.272V206.596ZM412.658 206.668H414.818V205.138H417.122V203.32H414.818V201.772H412.658V203.32H409.688V205.138H412.658V206.668ZM413.216 211.546V209.206H416.312V211.042C416.312 211.204 416.312 211.384 416.294 211.546H413.216ZM421.784 209.206V211.546H418.49C418.508 211.384 418.508 211.24 418.508 211.078V209.206H421.784ZM425.6 213.526V211.546H423.962V207.352H418.508V205.786H416.312V207.352H411.146V211.546H409.346V213.526H415.718C414.908 214.876 413.054 216.046 409.022 216.784C409.49 217.252 410.084 218.098 410.318 218.566C415.25 217.486 417.374 215.668 418.13 213.526H425.6ZM417.788 215.092C420.092 216.046 423.188 217.594 424.718 218.602L425.798 216.856C424.214 215.848 421.01 214.426 418.796 213.598L417.788 215.092ZM433.538 210.808H432.332V209.656H433.538V210.808ZM434.978 208.522H430.964V211.942H434.978V208.522ZM429.848 215.956V204.436H438.542L437.696 205.282C438.164 205.534 438.704 205.912 439.082 206.236H437.138C437.102 205.732 437.084 205.228 437.066 204.706H435.302C435.338 205.228 435.356 205.732 435.392 206.236H430.514V207.748H435.518C435.68 209.53 435.914 211.168 436.292 212.464C436.004 212.788 435.716 213.094 435.392 213.364L435.356 212.464C433.484 212.716 431.612 212.932 430.298 213.076L430.496 214.642C431.684 214.444 433.088 214.246 434.528 214.03C434.348 214.156 434.15 214.282 433.952 214.39C434.312 214.678 434.888 215.362 435.122 215.686C435.806 215.254 436.418 214.732 436.994 214.156C437.354 214.75 437.804 215.164 438.344 215.344C439.532 215.884 440.468 215.2 440.756 212.986C440.396 212.788 439.748 212.302 439.424 211.978C439.352 213.022 439.208 213.724 439.01 213.652C438.686 213.58 438.416 213.238 438.182 212.698C438.992 211.51 439.64 210.142 440.072 208.576L438.434 208.252C438.218 209.062 437.948 209.8 437.588 210.502C437.444 209.692 437.336 208.756 437.246 207.748H440.468V206.236H439.604L440.324 205.48C440 205.138 439.388 204.724 438.812 204.436H441.044V215.956H429.848ZM427.814 202.51V218.62H429.848V217.864H441.044V218.62H443.168V202.51H427.814Z" fill="#E11C1C"/>
<path d="M482.83 67.03H485.134C487.258 67.03 488.428 67.678 488.428 69.478C488.428 71.242 487.258 72.088 485.134 72.088H482.83V67.03ZM490.264 79L486.862 73.168C488.716 72.754 489.922 71.548 489.922 69.478C489.922 66.778 488.05 65.824 485.368 65.824H481.336V79H482.83V73.312H485.296L488.59 79H490.264ZM492.621 79H493.971V71.386C493.971 70.27 493.863 68.722 493.791 67.57H493.863L494.907 70.558L497.499 77.65H498.525L501.099 70.558L502.143 67.57H502.215C502.143 68.722 502.035 70.27 502.035 71.386V79H503.421V65.824H501.585L499.011 73.024C498.705 73.96 498.417 74.896 498.093 75.832H498.003C497.679 74.896 497.373 73.96 497.049 73.024L494.457 65.824H492.621V79ZM507.088 79H511.192C514.144 79 516.178 77.722 516.178 75.148C516.178 73.348 515.062 72.286 513.442 71.98V71.908C514.702 71.494 515.404 70.36 515.404 69.046C515.404 66.76 513.586 65.824 510.904 65.824H507.088V79ZM508.582 71.476V67.012H510.688C512.83 67.012 513.928 67.606 513.928 69.226C513.928 70.612 512.974 71.476 510.598 71.476H508.582ZM508.582 77.812V72.628H510.958C513.352 72.628 514.72 73.402 514.72 75.094C514.72 76.966 513.298 77.812 510.958 77.812H508.582ZM522.478 79H530.488V76.858H527.986V65.68H526.024C525.178 66.202 524.26 66.544 522.928 66.796V68.434H525.34V76.858H522.478V79ZM536.912 79.252C539.612 79.252 541.412 76.876 541.412 72.286C541.412 67.696 539.612 65.428 536.912 65.428C534.194 65.428 532.394 67.678 532.394 72.286C532.394 76.876 534.194 79.252 536.912 79.252ZM536.912 77.182C535.76 77.182 534.896 76.03 534.896 72.286C534.896 68.56 535.76 67.48 536.912 67.48C538.046 67.48 538.91 68.56 538.91 72.286C538.91 76.03 538.046 77.182 536.912 77.182ZM545.117 79.252C546.071 79.252 546.773 78.496 546.773 77.524C546.773 76.552 546.071 75.796 545.117 75.796C544.181 75.796 543.479 76.552 543.479 77.524C543.479 78.496 544.181 79.252 545.117 79.252ZM553.365 79.252C556.065 79.252 557.865 76.876 557.865 72.286C557.865 67.696 556.065 65.428 553.365 65.428C550.647 65.428 548.847 67.678 548.847 72.286C548.847 76.876 550.647 79.252 553.365 79.252ZM553.365 77.182C552.213 77.182 551.349 76.03 551.349 72.286C551.349 68.56 552.213 67.48 553.365 67.48C554.499 67.48 555.363 68.56 555.363 72.286C555.363 76.03 554.499 77.182 553.365 77.182ZM482.83 113.03H485.134C487.258 113.03 488.428 113.678 488.428 115.478C488.428 117.242 487.258 118.088 485.134 118.088H482.83V113.03ZM490.264 125L486.862 119.168C488.716 118.754 489.922 117.548 489.922 115.478C489.922 112.778 488.05 111.824 485.368 111.824H481.336V125H482.83V119.312H485.296L488.59 125H490.264ZM492.621 125H493.971V117.386C493.971 116.27 493.863 114.722 493.791 113.57H493.863L494.907 116.558L497.499 123.65H498.525L501.099 116.558L502.143 113.57H502.215C502.143 114.722 502.035 116.27 502.035 117.386V125H503.421V111.824H501.585L499.011 119.024C498.705 119.96 498.417 120.896 498.093 121.832H498.003C497.679 120.896 497.373 119.96 497.049 119.024L494.457 111.824H492.621V125ZM507.088 125H511.192C514.144 125 516.178 123.722 516.178 121.148C516.178 119.348 515.062 118.286 513.442 117.98V117.908C514.702 117.494 515.404 116.36 515.404 115.046C515.404 112.76 513.586 111.824 510.904 111.824H507.088V125ZM508.582 117.476V113.012H510.688C512.83 113.012 513.928 113.606 513.928 115.226C513.928 116.612 512.974 117.476 510.598 117.476H508.582ZM508.582 123.812V118.628H510.958C513.352 118.628 514.72 119.402 514.72 121.094C514.72 122.966 513.298 123.812 510.958 123.812H508.582ZM522.478 125H530.488V122.858H527.986V111.68H526.024C525.178 112.202 524.26 112.544 522.928 112.796V114.434H525.34V122.858H522.478V125ZM536.912 125.252C539.612 125.252 541.412 122.876 541.412 118.286C541.412 113.696 539.612 111.428 536.912 111.428C534.194 111.428 532.394 113.678 532.394 118.286C532.394 122.876 534.194 125.252 536.912 125.252ZM536.912 123.182C535.76 123.182 534.896 122.03 534.896 118.286C534.896 114.56 535.76 113.48 536.912 113.48C538.046 113.48 538.91 114.56 538.91 118.286C538.91 122.03 538.046 123.182 536.912 123.182ZM545.117 125.252C546.071 125.252 546.773 124.496 546.773 123.524C546.773 122.552 546.071 121.796 545.117 121.796C544.181 121.796 543.479 122.552 543.479 123.524C543.479 124.496 544.181 125.252 545.117 125.252ZM553.689 123.254C552.573 123.254 551.673 122.318 551.421 119.888C552.087 118.862 552.879 118.484 553.599 118.484C554.751 118.484 555.489 119.222 555.489 120.806C555.489 122.426 554.679 123.254 553.689 123.254ZM557.721 112.94C556.911 112.112 555.723 111.428 554.103 111.428C551.421 111.428 548.955 113.552 548.955 118.52C548.955 123.218 551.205 125.252 553.743 125.252C556.011 125.252 557.919 123.542 557.919 120.806C557.919 117.944 556.335 116.612 554.103 116.612C553.239 116.612 552.087 117.152 551.367 118.034C551.475 114.704 552.735 113.552 554.265 113.552C555.039 113.552 555.849 113.984 556.317 114.524L557.721 112.94ZM482.83 159.03H485.134C487.258 159.03 488.428 159.678 488.428 161.478C488.428 163.242 487.258 164.088 485.134 164.088H482.83V159.03ZM490.264 171L486.862 165.168C488.716 164.754 489.922 163.548 489.922 161.478C489.922 158.778 488.05 157.824 485.368 157.824H481.336V171H482.83V165.312H485.296L488.59 171H490.264ZM492.621 171H493.971V163.386C493.971 162.27 493.863 160.722 493.791 159.57H493.863L494.907 162.558L497.499 169.65H498.525L501.099 162.558L502.143 159.57H502.215C502.143 160.722 502.035 162.27 502.035 163.386V171H503.421V157.824H501.585L499.011 165.024C498.705 165.96 498.417 166.896 498.093 167.832H498.003C497.679 166.896 497.373 165.96 497.049 165.024L494.457 157.824H492.621V171ZM507.088 171H511.192C514.144 171 516.178 169.722 516.178 167.148C516.178 165.348 515.062 164.286 513.442 163.98V163.908C514.702 163.494 515.404 162.36 515.404 161.046C515.404 158.76 513.586 157.824 510.904 157.824H507.088V171ZM508.582 163.476V159.012H510.688C512.83 159.012 513.928 159.606 513.928 161.226C513.928 162.612 512.974 163.476 510.598 163.476H508.582ZM508.582 169.812V164.628H510.958C513.352 164.628 514.72 165.402 514.72 167.094C514.72 168.966 513.298 169.812 510.958 169.812H508.582ZM522.478 171H530.488V168.858H527.986V157.68H526.024C525.178 158.202 524.26 158.544 522.928 158.796V160.434H525.34V168.858H522.478V171ZM537.236 169.254C536.12 169.254 535.22 168.318 534.968 165.888C535.634 164.862 536.426 164.484 537.146 164.484C538.298 164.484 539.036 165.222 539.036 166.806C539.036 168.426 538.226 169.254 537.236 169.254ZM541.268 158.94C540.458 158.112 539.27 157.428 537.65 157.428C534.968 157.428 532.502 159.552 532.502 164.52C532.502 169.218 534.752 171.252 537.29 171.252C539.558 171.252 541.466 169.542 541.466 166.806C541.466 163.944 539.882 162.612 537.65 162.612C536.786 162.612 535.634 163.152 534.914 164.034C535.022 160.704 536.282 159.552 537.812 159.552C538.586 159.552 539.396 159.984 539.864 160.524L541.268 158.94ZM545.117 171.252C546.071 171.252 546.773 170.496 546.773 169.524C546.773 168.552 546.071 167.796 545.117 167.796C544.181 167.796 543.479 168.552 543.479 169.524C543.479 170.496 544.181 171.252 545.117 171.252ZM553.365 171.252C556.065 171.252 557.865 168.876 557.865 164.286C557.865 159.696 556.065 157.428 553.365 157.428C550.647 157.428 548.847 159.678 548.847 164.286C548.847 168.876 550.647 171.252 553.365 171.252ZM553.365 169.182C552.213 169.182 551.349 168.03 551.349 164.286C551.349 160.56 552.213 159.48 553.365 159.48C554.499 159.48 555.363 160.56 555.363 164.286C555.363 168.03 554.499 169.182 553.365 169.182ZM482.83 205.03H485.134C487.258 205.03 488.428 205.678 488.428 207.478C488.428 209.242 487.258 210.088 485.134 210.088H482.83V205.03ZM490.264 217L486.862 211.168C488.716 210.754 489.922 209.548 489.922 207.478C489.922 204.778 488.05 203.824 485.368 203.824H481.336V217H482.83V211.312H485.296L488.59 217H490.264ZM492.621 217H493.971V209.386C493.971 208.27 493.863 206.722 493.791 205.57H493.863L494.907 208.558L497.499 215.65H498.525L501.099 208.558L502.143 205.57H502.215C502.143 206.722 502.035 208.27 502.035 209.386V217H503.421V203.824H501.585L499.011 211.024C498.705 211.96 498.417 212.896 498.093 213.832H498.003C497.679 212.896 497.373 211.96 497.049 211.024L494.457 203.824H492.621V217ZM507.088 217H511.192C514.144 217 516.178 215.722 516.178 213.148C516.178 211.348 515.062 210.286 513.442 209.98V209.908C514.702 209.494 515.404 208.36 515.404 207.046C515.404 204.76 513.586 203.824 510.904 203.824H507.088V217ZM508.582 209.476V205.012H510.688C512.83 205.012 513.928 205.606 513.928 207.226C513.928 208.612 512.974 209.476 510.598 209.476H508.582ZM508.582 215.812V210.628H510.958C513.352 210.628 514.72 211.402 514.72 213.094C514.72 214.966 513.298 215.812 510.958 215.812H508.582ZM526.294 217.252C528.994 217.252 530.776 215.704 530.776 213.688C530.776 211.87 529.768 210.79 528.544 210.124V210.034C529.426 209.404 530.254 208.306 530.254 206.992C530.254 204.868 528.742 203.446 526.384 203.446C524.062 203.446 522.37 204.814 522.37 206.956C522.37 208.378 523.108 209.386 524.134 210.124V210.214C522.892 210.88 521.848 211.978 521.848 213.688C521.848 215.776 523.756 217.252 526.294 217.252ZM527.14 209.386C525.736 208.828 524.71 208.216 524.71 206.956C524.71 205.894 525.43 205.3 526.33 205.3C527.446 205.3 528.094 206.074 528.094 207.154C528.094 207.946 527.788 208.702 527.14 209.386ZM526.366 215.38C525.124 215.38 524.134 214.606 524.134 213.4C524.134 212.41 524.638 211.51 525.358 210.934C527.086 211.636 528.31 212.212 528.31 213.598C528.31 214.75 527.482 215.38 526.366 215.38ZM534.518 217.252C535.472 217.252 536.174 216.496 536.174 215.524C536.174 214.552 535.472 213.796 534.518 213.796C533.582 213.796 532.88 214.552 532.88 215.524C532.88 216.496 533.582 217.252 534.518 217.252ZM542.387 217.252C544.925 217.252 547.067 215.83 547.067 213.382C547.067 211.636 545.915 210.52 544.403 210.106V210.016C545.825 209.458 546.635 208.414 546.635 206.974C546.635 204.688 544.889 203.428 542.315 203.428C540.749 203.428 539.471 204.058 538.319 205.066L539.669 206.686C540.461 205.966 541.235 205.516 542.189 205.498C543.323 205.516 543.971 206.128 543.971 207.172C543.971 208.36 543.179 209.206 540.731 209.206V211.114C543.629 211.114 544.403 211.924 544.403 213.238C544.403 214.426 543.485 215.092 542.135 215.092C540.929 215.092 539.957 214.498 539.165 213.724L537.923 215.398C538.859 216.46 540.281 217.252 542.387 217.252Z" fill="#1E1E1E"/>
<path d="M399 95H606" stroke="#E11C1C"/>
<path d="M399 140H606" stroke="#E11C1C"/>
<path d="M399 186H606" stroke="#E11C1C"/>
<path d="M465 47L465 236" stroke="#E11C1C"/>
</svg>
