<svg width="283" height="264" viewBox="0 0 283 264" fill="none" xmlns="http://www.w3.org/2000/svg">
<path d="M13.972 20.12H18.86V21.81H13.972V20.12ZM13.972 16.636H18.86V18.352H13.972V16.636ZM18.002 24.15H21.694V15.7C22.422 16.168 23.41 16.87 23.904 17.312C24.554 16.532 25.204 15.57 25.802 14.504H34.304V11.566H27.258C27.648 10.656 27.986 9.746 28.272 8.81L25.282 8.082C24.554 10.708 23.228 13.334 21.694 15.154V14.322H17.924V12.372H22.266V9.98H17.924V7.978H14.934V9.98H10.722V12.372H14.934V14.322H11.268V24.15H15.038V25.996H10.592V28.414H15.038V31.924H18.002V28.414H22.136V25.996H18.002V24.15ZM27.258 28.934C26.452 28.934 25.984 28.726 25.984 28.18C25.984 27.322 26.452 26.126 32.978 18.846C33.108 18.638 33.212 18.404 33.29 18.196L31.288 17.416L30.612 17.468H23.488V20.302H27.778C23.098 26.022 22.864 27.374 22.864 28.674C22.864 30.598 24.216 31.872 27.18 31.872H31.002C33.446 31.872 34.46 30.962 34.772 26.646C33.914 26.49 32.978 26.126 32.172 25.684C32.094 28.57 31.834 28.934 31.106 28.934H27.258ZM60.668 18.898C60.226 16.974 59.16 14.062 58.042 11.826L55.364 12.71C56.404 14.946 57.47 17.962 57.808 19.938L60.668 18.898ZM54.584 7.978H51.646V24.02H54.584V7.978ZM47.876 12.398C47.564 15.076 46.966 18.04 46.16 19.912C46.888 20.172 48.162 20.744 48.76 21.134C49.592 19.106 50.32 15.882 50.71 12.918L47.876 12.398ZM39.946 19.522C39.712 17.728 39.062 14.686 38.464 12.32L36.124 12.918C36.67 15.31 37.242 18.43 37.45 20.276L39.946 19.522ZM46.732 26.1C46.16 25.476 43.82 22.902 42.884 22.122C43.066 20.718 43.118 19.314 43.144 17.91L44.782 18.612C45.484 17.312 46.342 15.154 47.148 13.334L44.392 12.294C44.132 13.62 43.638 15.336 43.144 16.766V8.238H40.232V17.078C40.232 21.576 39.79 26.516 35.994 30.052C36.644 30.546 37.658 31.664 38.126 32.392C40.388 30.312 41.662 27.816 42.338 25.164C43.222 26.23 44.21 27.504 44.756 28.336L46.732 26.1ZM56.95 20.718C55.052 25.918 51.074 28.258 44.782 29.324C45.406 30.052 46.108 31.222 46.394 32.132C53.388 30.546 57.704 27.712 59.862 21.55L56.95 20.718ZM86.33 20.588H76.476V15.388H84.848V12.346H76.476V7.978H73.2V12.346H68.962C69.326 11.306 69.638 10.24 69.924 9.148L66.726 8.524C65.894 12.086 64.308 15.648 62.28 17.754C63.086 18.118 64.594 18.872 65.27 19.314C66.128 18.248 66.934 16.896 67.688 15.388H73.2V20.588H62.696V23.656H73.2V32.262H76.476V23.656H86.33V20.588ZM91.4 31.95C92.96 29.428 94.598 26.464 95.976 23.76L93.688 21.68C92.154 24.696 90.178 27.92 88.774 29.87L91.4 31.95ZM94.65 17.936C93.506 17.234 91.192 16.116 89.762 15.414L88.072 17.702C89.632 18.534 91.868 19.756 92.934 20.51L94.65 17.936ZM102.58 18.014V22.096H99.616V18.014H102.58ZM105.414 24.852V15.258H96.834V26.568H99.616V24.852H105.414ZM112.642 9.486H95.742V10.994C94.624 10.24 92.466 9.07 91.01 8.342L89.242 10.552C90.75 11.436 92.934 12.736 93.974 13.516L95.742 11.124V12.502H107.65V28.284C107.65 28.856 107.416 29.038 106.792 29.064C106.168 29.064 103.854 29.09 101.8 28.96C102.268 29.818 102.84 31.3 102.996 32.21C105.882 32.21 107.806 32.184 109.08 31.664C110.302 31.144 110.744 30.234 110.744 28.336V12.502H112.642V9.486Z" fill="#1E1E1E"/>
<path d="M125.2 33.71L126.172 33.188C124.048 31.01 122.788 28.328 122.788 25.16C122.788 21.992 124.048 19.31 126.172 17.132L125.2 16.61C123.004 18.86 121.618 21.704 121.618 25.16C121.618 28.616 123.004 31.46 125.2 33.71ZM140.896 30.2C139.87 29.228 137.836 27.734 136.234 26.654C136.486 26.006 136.666 25.34 136.81 24.656H135.568C135.118 26.834 134.074 29.084 130.762 30.182C131.032 30.38 131.338 30.812 131.464 31.064C133.642 30.272 134.92 29.084 135.73 27.662C137.296 28.76 139.096 30.164 140.032 31.082L140.896 30.2ZM143.182 19.634H136.648C136.81 18.824 136.9 17.942 136.972 17.024H135.712C135.64 17.96 135.55 18.824 135.388 19.634H128.818V33.368H130.006V20.804H135.118C134.488 22.676 133.336 24.116 130.852 25.016C131.104 25.214 131.428 25.628 131.554 25.898C133.624 25.124 134.884 23.99 135.676 22.55C137.332 23.522 139.24 24.818 140.23 25.664L141.04 24.746C139.924 23.864 137.836 22.514 136.126 21.542C136.234 21.308 136.306 21.074 136.36 20.804H142.012V31.748C142.012 32.09 141.922 32.18 141.598 32.198C141.256 32.216 140.122 32.216 138.898 32.162C139.06 32.522 139.222 33.044 139.276 33.404C140.788 33.404 141.868 33.386 142.444 33.17C143.002 32.972 143.182 32.576 143.182 31.766V19.634ZM158.572 19.328H149.392V18.284H158.572V19.328ZM158.572 21.128H149.392V20.066H158.572V21.128ZM159.742 17.546H148.24V21.884H159.742V17.546ZM162.01 22.676H146.008V23.594H162.01V22.676ZM149.05 28.148V27.05H153.406V28.148H149.05ZM149.05 25.25H153.406V26.312H149.05V25.25ZM159.112 26.312H154.54V25.25H159.112V26.312ZM159.112 28.148H154.54V27.05H159.112V28.148ZM154.54 31.964V30.848H160.696V29.984H154.54V28.922H160.282V24.458H147.916V28.922H153.406V29.984H147.376V30.848H153.406V31.964H145.9V32.9H162.118V31.964H154.54ZM172 22.118C172.684 22.118 173.296 21.614 173.296 20.84C173.296 20.03 172.684 19.544 172 19.544C171.316 19.544 170.704 20.03 170.704 20.84C170.704 21.614 171.316 22.118 172 22.118ZM172 30.974C172.684 30.974 173.296 30.47 173.296 29.678C173.296 28.886 172.684 28.382 172 28.382C171.316 28.382 170.704 28.886 170.704 29.678C170.704 30.47 171.316 30.974 172 30.974ZM198.028 25.844H190.81V21.452H197.038V20.264H190.81V16.952H189.568V20.264H185.608C185.95 19.436 186.274 18.59 186.508 17.708L185.32 17.456C184.636 19.886 183.484 22.28 182.08 23.792C182.368 23.936 182.944 24.26 183.178 24.458C183.844 23.648 184.492 22.604 185.068 21.452H189.568V25.844H182.008V27.014H189.568V33.332H190.81V27.014H198.028V25.844ZM212.896 30.2C211.87 29.228 209.836 27.734 208.234 26.654C208.486 26.006 208.666 25.34 208.81 24.656H207.568C207.118 26.834 206.074 29.084 202.762 30.182C203.032 30.38 203.338 30.812 203.464 31.064C205.642 30.272 206.92 29.084 207.73 27.662C209.296 28.76 211.096 30.164 212.032 31.082L212.896 30.2ZM215.182 19.634H208.648C208.81 18.824 208.9 17.942 208.972 17.024H207.712C207.64 17.96 207.55 18.824 207.388 19.634H200.818V33.368H202.006V20.804H207.118C206.488 22.676 205.336 24.116 202.852 25.016C203.104 25.214 203.428 25.628 203.554 25.898C205.624 25.124 206.884 23.99 207.676 22.55C209.332 23.522 211.24 24.818 212.23 25.664L213.04 24.746C211.924 23.864 209.836 22.514 208.126 21.542C208.234 21.308 208.306 21.074 208.36 20.804H214.012V31.748C214.012 32.09 213.922 32.18 213.598 32.198C213.256 32.216 212.122 32.216 210.898 32.162C211.06 32.522 211.222 33.044 211.276 33.404C212.788 33.404 213.868 33.386 214.444 33.17C215.002 32.972 215.182 32.576 215.182 31.766V19.634ZM217.81 32H225.964V30.74H222.184C221.518 30.74 220.726 30.776 220.024 30.848C223.246 27.824 225.334 25.106 225.334 22.442C225.334 20.102 223.894 18.59 221.554 18.59C219.916 18.59 218.782 19.364 217.72 20.516L218.584 21.344C219.34 20.462 220.294 19.778 221.392 19.778C223.084 19.778 223.894 20.948 223.894 22.496C223.894 24.782 222.022 27.446 217.81 31.118V32ZM231.829 32.234C234.295 32.234 235.843 29.966 235.843 25.358C235.843 20.804 234.295 18.59 231.829 18.59C229.345 18.59 227.779 20.786 227.779 25.358C227.779 29.966 229.345 32.234 231.829 32.234ZM231.829 31.046C230.263 31.046 229.201 29.282 229.201 25.358C229.201 21.506 230.263 19.778 231.829 19.778C233.377 19.778 234.421 21.506 234.421 25.358C234.421 29.282 233.377 31.046 231.829 31.046ZM241.708 32.234C244.174 32.234 245.722 29.966 245.722 25.358C245.722 20.804 244.174 18.59 241.708 18.59C239.224 18.59 237.658 20.786 237.658 25.358C237.658 29.966 239.224 32.234 241.708 32.234ZM241.708 31.046C240.142 31.046 239.08 29.282 239.08 25.358C239.08 21.506 240.142 19.778 241.708 19.778C243.256 19.778 244.3 21.506 244.3 25.358C244.3 29.282 243.256 31.046 241.708 31.046ZM251.101 23.09H260.209V26.15H251.101V23.09ZM259.021 32.054C258.229 32.054 258.085 31.964 258.085 31.442V27.23H261.415V22.01H256.195V19.904H263.395V18.806H256.195V16.952H254.989V18.806H247.933V19.904H254.989V22.01H249.949V27.23H252.811C252.469 29.822 251.479 31.496 247.519 32.306C247.753 32.576 248.095 33.08 248.221 33.404C252.505 32.378 253.657 30.362 254.089 27.23H256.879V31.442C256.879 32.81 257.311 33.188 258.913 33.188H261.847C263.323 33.188 263.683 32.54 263.827 29.876C263.485 29.786 262.981 29.588 262.711 29.372C262.639 31.694 262.513 32.054 261.757 32.054H259.021ZM266.437 16.61L265.465 17.132C267.589 19.31 268.849 21.992 268.849 25.16C268.849 28.328 267.589 31.01 265.465 33.188L266.437 33.71C268.633 31.46 270.019 28.616 270.019 25.16C270.019 21.704 268.633 18.86 266.437 16.61Z" fill="#1E1E1E"/>
<path d="M19.598 72.844V68.974H23.666V72.844H19.598ZM13.28 72.844V68.974H17.33V72.844H13.28ZM19.598 66.868V63.754H17.33V66.868H11.12V75.94H13.28V74.95H17.33V80.566H19.598V74.95H23.666V75.85H25.916V66.868H19.598ZM34.538 72.808H33.332V71.656H34.538V72.808ZM35.978 70.522H31.964V73.942H35.978V70.522ZM30.848 77.956V66.436H39.542L38.696 67.282C39.164 67.534 39.704 67.912 40.082 68.236H38.138C38.102 67.732 38.084 67.228 38.066 66.706H36.302C36.338 67.228 36.356 67.732 36.392 68.236H31.514V69.748H36.518C36.68 71.53 36.914 73.168 37.292 74.464C37.004 74.788 36.716 75.094 36.392 75.364L36.356 74.464C34.484 74.716 32.612 74.932 31.298 75.076L31.496 76.642C32.684 76.444 34.088 76.246 35.528 76.03C35.348 76.156 35.15 76.282 34.952 76.39C35.312 76.678 35.888 77.362 36.122 77.686C36.806 77.254 37.418 76.732 37.994 76.156C38.354 76.75 38.804 77.164 39.344 77.344C40.532 77.884 41.468 77.2 41.756 74.986C41.396 74.788 40.748 74.302 40.424 73.978C40.352 75.022 40.208 75.724 40.01 75.652C39.686 75.58 39.416 75.238 39.182 74.698C39.992 73.51 40.64 72.142 41.072 70.576L39.434 70.252C39.218 71.062 38.948 71.8 38.588 72.502C38.444 71.692 38.336 70.756 38.246 69.748H41.468V68.236H40.604L41.324 67.48C41 67.138 40.388 66.724 39.812 66.436H42.044V77.956H30.848ZM28.814 64.51V80.62H30.848V79.864H42.044V80.62H44.168V64.51H28.814ZM26.222 122.12V120.302H19.202C19.256 119.996 19.31 119.69 19.346 119.366H26.744V117.512H19.58V116.558H25.088V114.758H19.58V113.84H25.952V111.95H22.496C22.892 111.428 23.306 110.834 23.702 110.204L21.398 109.61C21.11 110.312 20.57 111.248 20.12 111.95H16.16L16.682 111.716C16.448 111.104 15.89 110.24 15.332 109.61L13.424 110.366C13.784 110.834 14.162 111.41 14.432 111.95H11.012V113.84H17.366V114.758H12.038V116.558H17.366V117.512H10.454V119.366H17.078C17.042 119.69 16.988 120.014 16.934 120.302H10.868V122.12H16.232C15.386 123.326 13.694 124.136 10.076 124.622C10.49 125.072 10.994 125.972 11.138 126.548C15.944 125.756 17.87 124.334 18.734 122.12H19.382L18.572 123.47C20.894 124.316 24.188 125.702 25.772 126.602L26.78 124.766C25.286 123.974 22.442 122.876 20.282 122.12H26.222ZM34.538 118.808H33.332V117.656H34.538V118.808ZM35.978 116.522H31.964V119.942H35.978V116.522ZM30.848 123.956V112.436H39.542L38.696 113.282C39.164 113.534 39.704 113.912 40.082 114.236H38.138C38.102 113.732 38.084 113.228 38.066 112.706H36.302C36.338 113.228 36.356 113.732 36.392 114.236H31.514V115.748H36.518C36.68 117.53 36.914 119.168 37.292 120.464C37.004 120.788 36.716 121.094 36.392 121.364L36.356 120.464C34.484 120.716 32.612 120.932 31.298 121.076L31.496 122.642C32.684 122.444 34.088 122.246 35.528 122.03C35.348 122.156 35.15 122.282 34.952 122.39C35.312 122.678 35.888 123.362 36.122 123.686C36.806 123.254 37.418 122.732 37.994 122.156C38.354 122.75 38.804 123.164 39.344 123.344C40.532 123.884 41.468 123.2 41.756 120.986C41.396 120.788 40.748 120.302 40.424 119.978C40.352 121.022 40.208 121.724 40.01 121.652C39.686 121.58 39.416 121.238 39.182 120.698C39.992 119.51 40.64 118.142 41.072 116.576L39.434 116.252C39.218 117.062 38.948 117.8 38.588 118.502C38.444 117.692 38.336 116.756 38.246 115.748H41.468V114.236H40.604L41.324 113.48C41 113.138 40.388 112.724 39.812 112.436H42.044V123.956H30.848ZM28.814 110.51V126.62H30.848V125.864H42.044V126.62H44.168V110.51H28.814ZM14.504 169.02V164.988H22.496V169.02H14.504ZM22.496 158.994V162.864H14.504V158.994H22.496ZM12.29 156.834V172.35H14.504V171.18H22.496V172.314H24.8V156.834H12.29ZM37.634 167.346V161.424H37.706C38.498 163.62 39.56 165.654 40.838 167.346H37.634ZM32.054 167.346C33.35 165.654 34.448 163.62 35.24 161.424H35.366V167.346H32.054ZM44.42 161.424V159.246H37.634V155.772H35.366V159.246H28.616V161.424H33.026C31.91 164.142 30.074 166.716 27.986 168.156C28.49 168.552 29.174 169.362 29.552 169.902C30.272 169.326 30.956 168.66 31.586 167.922V169.524H35.366V172.566H37.634V169.524H41.342V167.958C41.936 168.66 42.566 169.29 43.25 169.812C43.628 169.218 44.384 168.372 44.942 167.94C42.836 166.518 41.018 164.052 39.884 161.424H44.42ZM21.272 206.596H23.45V205.12H26.33V203.302H23.45V201.772H21.272V203.302H18.914V205.12H21.272V206.596ZM13.658 206.668H15.818V205.138H18.122V203.32H15.818V201.772H13.658V203.32H10.688V205.138H13.658V206.668ZM14.216 211.546V209.206H17.312V211.042C17.312 211.204 17.312 211.384 17.294 211.546H14.216ZM22.784 209.206V211.546H19.49C19.508 211.384 19.508 211.24 19.508 211.078V209.206H22.784ZM26.6 213.526V211.546H24.962V207.352H19.508V205.786H17.312V207.352H12.146V211.546H10.346V213.526H16.718C15.908 214.876 14.054 216.046 10.022 216.784C10.49 217.252 11.084 218.098 11.318 218.566C16.25 217.486 18.374 215.668 19.13 213.526H26.6ZM18.788 215.092C21.092 216.046 24.188 217.594 25.718 218.602L26.798 216.856C25.214 215.848 22.01 214.426 19.796 213.598L18.788 215.092ZM34.538 210.808H33.332V209.656H34.538V210.808ZM35.978 208.522H31.964V211.942H35.978V208.522ZM30.848 215.956V204.436H39.542L38.696 205.282C39.164 205.534 39.704 205.912 40.082 206.236H38.138C38.102 205.732 38.084 205.228 38.066 204.706H36.302C36.338 205.228 36.356 205.732 36.392 206.236H31.514V207.748H36.518C36.68 209.53 36.914 211.168 37.292 212.464C37.004 212.788 36.716 213.094 36.392 213.364L36.356 212.464C34.484 212.716 32.612 212.932 31.298 213.076L31.496 214.642C32.684 214.444 34.088 214.246 35.528 214.03C35.348 214.156 35.15 214.282 34.952 214.39C35.312 214.678 35.888 215.362 36.122 215.686C36.806 215.254 37.418 214.732 37.994 214.156C38.354 214.75 38.804 215.164 39.344 215.344C40.532 215.884 41.468 215.2 41.756 212.986C41.396 212.788 40.748 212.302 40.424 211.978C40.352 213.022 40.208 213.724 40.01 213.652C39.686 213.58 39.416 213.238 39.182 212.698C39.992 211.51 40.64 210.142 41.072 208.576L39.434 208.252C39.218 209.062 38.948 209.8 38.588 210.502C38.444 209.692 38.336 208.756 38.246 207.748H41.468V206.236H40.604L41.324 205.48C41 205.138 40.388 204.724 39.812 204.436H42.044V215.956H30.848ZM28.814 202.51V218.62H30.848V217.864H42.044V218.62H44.168V202.51H28.814Z" fill="#E05778"/>
<path d="M83.83 67.03H86.134C88.258 67.03 89.428 67.678 89.428 69.478C89.428 71.242 88.258 72.088 86.134 72.088H83.83V67.03ZM91.264 79L87.862 73.168C89.716 72.754 90.922 71.548 90.922 69.478C90.922 66.778 89.05 65.824 86.368 65.824H82.336V79H83.83V73.312H86.296L89.59 79H91.264ZM93.6212 79H94.9712V71.386C94.9712 70.27 94.8632 68.722 94.7912 67.57H94.8632L95.9072 70.558L98.4992 77.65H99.5252L102.099 70.558L103.143 67.57H103.215C103.143 68.722 103.035 70.27 103.035 71.386V79H104.421V65.824H102.585L100.011 73.024C99.7052 73.96 99.4172 74.896 99.0932 75.832H99.0032C98.6792 74.896 98.3732 73.96 98.0492 73.024L95.4572 65.824H93.6212V79ZM108.088 79H112.192C115.144 79 117.178 77.722 117.178 75.148C117.178 73.348 116.062 72.286 114.442 71.98V71.908C115.702 71.494 116.404 70.36 116.404 69.046C116.404 66.76 114.586 65.824 111.904 65.824H108.088V79ZM109.582 71.476V67.012H111.688C113.83 67.012 114.928 67.606 114.928 69.226C114.928 70.612 113.974 71.476 111.598 71.476H109.582ZM109.582 77.812V72.628H111.958C114.352 72.628 115.72 73.402 115.72 75.094C115.72 76.966 114.298 77.812 111.958 77.812H109.582ZM126.382 67.462C125.68 66.706 124.852 66.094 123.574 65.968V63.988H122.476V65.986C120.766 66.238 119.578 67.516 119.578 69.28C119.578 73.24 125.23 72.43 125.23 75.85C125.23 77.164 124.438 78.01 122.89 78.01C121.63 78.01 120.604 77.398 119.776 76.66L119.074 77.668C119.902 78.442 121.18 79.09 122.476 79.216V81.196H123.574V79.198C125.464 78.946 126.67 77.65 126.67 75.742C126.67 71.368 121.018 72.268 121.018 69.208C121.018 68.02 121.846 67.192 123.106 67.192C124.24 67.192 124.852 67.606 125.59 68.344L126.382 67.462ZM133.357 79H141.367V76.858H138.865V65.68H136.903C136.057 66.202 135.139 66.544 133.807 66.796V68.434H136.219V76.858H133.357V79ZM148.114 77.254C146.998 77.254 146.098 76.318 145.846 73.888C146.512 72.862 147.304 72.484 148.024 72.484C149.176 72.484 149.914 73.222 149.914 74.806C149.914 76.426 149.104 77.254 148.114 77.254ZM152.146 66.94C151.336 66.112 150.148 65.428 148.528 65.428C145.846 65.428 143.38 67.552 143.38 72.52C143.38 77.218 145.63 79.252 148.168 79.252C150.436 79.252 152.344 77.542 152.344 74.806C152.344 71.944 150.76 70.612 148.528 70.612C147.664 70.612 146.512 71.152 145.792 72.034C145.9 68.704 147.16 67.552 148.69 67.552C149.464 67.552 150.274 67.984 150.742 68.524L152.146 66.94ZM155.996 79.252C156.95 79.252 157.652 78.496 157.652 77.524C157.652 76.552 156.95 75.796 155.996 75.796C155.06 75.796 154.358 76.552 154.358 77.524C154.358 78.496 155.06 79.252 155.996 79.252ZM164.226 79.252C166.926 79.252 168.708 77.704 168.708 75.688C168.708 73.87 167.7 72.79 166.476 72.124V72.034C167.358 71.404 168.186 70.306 168.186 68.992C168.186 66.868 166.674 65.446 164.316 65.446C161.994 65.446 160.302 66.814 160.302 68.956C160.302 70.378 161.04 71.386 162.066 72.124V72.214C160.824 72.88 159.78 73.978 159.78 75.688C159.78 77.776 161.688 79.252 164.226 79.252ZM165.072 71.386C163.668 70.828 162.642 70.216 162.642 68.956C162.642 67.894 163.362 67.3 164.262 67.3C165.378 67.3 166.026 68.074 166.026 69.154C166.026 69.946 165.72 70.702 165.072 71.386ZM164.298 77.38C163.056 77.38 162.066 76.606 162.066 75.4C162.066 74.41 162.57 73.51 163.29 72.934C165.018 73.636 166.242 74.212 166.242 75.598C166.242 76.75 165.414 77.38 164.298 77.38ZM83.83 113.03H86.134C88.258 113.03 89.428 113.678 89.428 115.478C89.428 117.242 88.258 118.088 86.134 118.088H83.83V113.03ZM91.264 125L87.862 119.168C89.716 118.754 90.922 117.548 90.922 115.478C90.922 112.778 89.05 111.824 86.368 111.824H82.336V125H83.83V119.312H86.296L89.59 125H91.264ZM93.6212 125H94.9712V117.386C94.9712 116.27 94.8632 114.722 94.7912 113.57H94.8632L95.9072 116.558L98.4992 123.65H99.5252L102.099 116.558L103.143 113.57H103.215C103.143 114.722 103.035 116.27 103.035 117.386V125H104.421V111.824H102.585L100.011 119.024C99.7052 119.96 99.4172 120.896 99.0932 121.832H99.0032C98.6792 120.896 98.3732 119.96 98.0492 119.024L95.4572 111.824H93.6212V125ZM108.088 125H112.192C115.144 125 117.178 123.722 117.178 121.148C117.178 119.348 116.062 118.286 114.442 117.98V117.908C115.702 117.494 116.404 116.36 116.404 115.046C116.404 112.76 114.586 111.824 111.904 111.824H108.088V125ZM109.582 117.476V113.012H111.688C113.83 113.012 114.928 113.606 114.928 115.226C114.928 116.612 113.974 117.476 111.598 117.476H109.582ZM109.582 123.812V118.628H111.958C114.352 118.628 115.72 119.402 115.72 121.094C115.72 122.966 114.298 123.812 111.958 123.812H109.582ZM126.382 113.462C125.68 112.706 124.852 112.094 123.574 111.968V109.988H122.476V111.986C120.766 112.238 119.578 113.516 119.578 115.28C119.578 119.24 125.23 118.43 125.23 121.85C125.23 123.164 124.438 124.01 122.89 124.01C121.63 124.01 120.604 123.398 119.776 122.66L119.074 123.668C119.902 124.442 121.18 125.09 122.476 125.216V127.196H123.574V125.198C125.464 124.946 126.67 123.65 126.67 121.742C126.67 117.368 121.018 118.268 121.018 115.208C121.018 114.02 121.846 113.192 123.106 113.192C124.24 113.192 124.852 113.606 125.59 114.344L126.382 113.462ZM132.655 125H141.583V122.768H138.685C138.073 122.768 137.191 122.84 136.525 122.912C138.955 120.536 140.953 117.944 140.953 115.532C140.953 113.048 139.279 111.428 136.759 111.428C134.941 111.428 133.753 112.148 132.529 113.444L133.969 114.884C134.635 114.146 135.445 113.516 136.417 113.516C137.677 113.516 138.415 114.326 138.415 115.676C138.415 117.728 136.273 120.23 132.655 123.47V125ZM147.79 125.252C150.49 125.252 152.29 122.876 152.29 118.286C152.29 113.696 150.49 111.428 147.79 111.428C145.072 111.428 143.272 113.678 143.272 118.286C143.272 122.876 145.072 125.252 147.79 125.252ZM147.79 123.182C146.638 123.182 145.774 122.03 145.774 118.286C145.774 114.56 146.638 113.48 147.79 113.48C148.924 113.48 149.788 114.56 149.788 118.286C149.788 122.03 148.924 123.182 147.79 123.182ZM155.996 125.252C156.95 125.252 157.652 124.496 157.652 123.524C157.652 122.552 156.95 121.796 155.996 121.796C155.06 121.796 154.358 122.552 154.358 123.524C154.358 124.496 155.06 125.252 155.996 125.252ZM164.226 125.252C166.926 125.252 168.708 123.704 168.708 121.688C168.708 119.87 167.7 118.79 166.476 118.124V118.034C167.358 117.404 168.186 116.306 168.186 114.992C168.186 112.868 166.674 111.446 164.316 111.446C161.994 111.446 160.302 112.814 160.302 114.956C160.302 116.378 161.04 117.386 162.066 118.124V118.214C160.824 118.88 159.78 119.978 159.78 121.688C159.78 123.776 161.688 125.252 164.226 125.252ZM165.072 117.386C163.668 116.828 162.642 116.216 162.642 114.956C162.642 113.894 163.362 113.3 164.262 113.3C165.378 113.3 166.026 114.074 166.026 115.154C166.026 115.946 165.72 116.702 165.072 117.386ZM164.298 123.38C163.056 123.38 162.066 122.606 162.066 121.4C162.066 120.41 162.57 119.51 163.29 118.934C165.018 119.636 166.242 120.212 166.242 121.598C166.242 122.75 165.414 123.38 164.298 123.38ZM83.83 159.03H86.134C88.258 159.03 89.428 159.678 89.428 161.478C89.428 163.242 88.258 164.088 86.134 164.088H83.83V159.03ZM91.264 171L87.862 165.168C89.716 164.754 90.922 163.548 90.922 161.478C90.922 158.778 89.05 157.824 86.368 157.824H82.336V171H83.83V165.312H86.296L89.59 171H91.264ZM93.6212 171H94.9712V163.386C94.9712 162.27 94.8632 160.722 94.7912 159.57H94.8632L95.9072 162.558L98.4992 169.65H99.5252L102.099 162.558L103.143 159.57H103.215C103.143 160.722 103.035 162.27 103.035 163.386V171H104.421V157.824H102.585L100.011 165.024C99.7052 165.96 99.4172 166.896 99.0932 167.832H99.0032C98.6792 166.896 98.3732 165.96 98.0492 165.024L95.4572 157.824H93.6212V171ZM108.088 171H112.192C115.144 171 117.178 169.722 117.178 167.148C117.178 165.348 116.062 164.286 114.442 163.98V163.908C115.702 163.494 116.404 162.36 116.404 161.046C116.404 158.76 114.586 157.824 111.904 157.824H108.088V171ZM109.582 163.476V159.012H111.688C113.83 159.012 114.928 159.606 114.928 161.226C114.928 162.612 113.974 163.476 111.598 163.476H109.582ZM109.582 169.812V164.628H111.958C114.352 164.628 115.72 165.402 115.72 167.094C115.72 168.966 114.298 169.812 111.958 169.812H109.582ZM126.382 159.462C125.68 158.706 124.852 158.094 123.574 157.968V155.988H122.476V157.986C120.766 158.238 119.578 159.516 119.578 161.28C119.578 165.24 125.23 164.43 125.23 167.85C125.23 169.164 124.438 170.01 122.89 170.01C121.63 170.01 120.604 169.398 119.776 168.66L119.074 169.668C119.902 170.442 121.18 171.09 122.476 171.216V173.196H123.574V171.198C125.464 170.946 126.67 169.65 126.67 167.742C126.67 163.368 121.018 164.268 121.018 161.208C121.018 160.02 121.846 159.192 123.106 159.192C124.24 159.192 124.852 159.606 125.59 160.344L126.382 159.462ZM134.833 165.528L136.903 162.216C137.281 161.496 137.641 160.758 137.965 160.056H138.037C138.001 160.83 137.929 162.036 137.929 162.81V165.528H134.833ZM141.979 165.528H140.395V157.68H137.227L132.259 165.744V167.544H137.929V171H140.395V167.544H141.979V165.528ZM147.79 171.252C150.49 171.252 152.29 168.876 152.29 164.286C152.29 159.696 150.49 157.428 147.79 157.428C145.072 157.428 143.272 159.678 143.272 164.286C143.272 168.876 145.072 171.252 147.79 171.252ZM147.79 169.182C146.638 169.182 145.774 168.03 145.774 164.286C145.774 160.56 146.638 159.48 147.79 159.48C148.924 159.48 149.788 160.56 149.788 164.286C149.788 168.03 148.924 169.182 147.79 169.182ZM155.996 171.252C156.95 171.252 157.652 170.496 157.652 169.524C157.652 168.552 156.95 167.796 155.996 167.796C155.06 167.796 154.358 168.552 154.358 169.524C154.358 170.496 155.06 171.252 155.996 171.252ZM164.568 169.254C163.452 169.254 162.552 168.318 162.3 165.888C162.966 164.862 163.758 164.484 164.478 164.484C165.63 164.484 166.368 165.222 166.368 166.806C166.368 168.426 165.558 169.254 164.568 169.254ZM168.6 158.94C167.79 158.112 166.602 157.428 164.982 157.428C162.3 157.428 159.834 159.552 159.834 164.52C159.834 169.218 162.084 171.252 164.622 171.252C166.89 171.252 168.798 169.542 168.798 166.806C168.798 163.944 167.214 162.612 164.982 162.612C164.118 162.612 162.966 163.152 162.246 164.034C162.354 160.704 163.614 159.552 165.144 159.552C165.918 159.552 166.728 159.984 167.196 160.524L168.6 158.94ZM83.83 205.03H86.134C88.258 205.03 89.428 205.678 89.428 207.478C89.428 209.242 88.258 210.088 86.134 210.088H83.83V205.03ZM91.264 217L87.862 211.168C89.716 210.754 90.922 209.548 90.922 207.478C90.922 204.778 89.05 203.824 86.368 203.824H82.336V217H83.83V211.312H86.296L89.59 217H91.264ZM93.6212 217H94.9712V209.386C94.9712 208.27 94.8632 206.722 94.7912 205.57H94.8632L95.9072 208.558L98.4992 215.65H99.5252L102.099 208.558L103.143 205.57H103.215C103.143 206.722 103.035 208.27 103.035 209.386V217H104.421V203.824H102.585L100.011 211.024C99.7052 211.96 99.4172 212.896 99.0932 213.832H99.0032C98.6792 212.896 98.3732 211.96 98.0492 211.024L95.4572 203.824H93.6212V217ZM108.088 217H112.192C115.144 217 117.178 215.722 117.178 213.148C117.178 211.348 116.062 210.286 114.442 209.98V209.908C115.702 209.494 116.404 208.36 116.404 207.046C116.404 204.76 114.586 203.824 111.904 203.824H108.088V217ZM109.582 209.476V205.012H111.688C113.83 205.012 114.928 205.606 114.928 207.226C114.928 208.612 113.974 209.476 111.598 209.476H109.582ZM109.582 215.812V210.628H111.958C114.352 210.628 115.72 211.402 115.72 213.094C115.72 214.966 114.298 215.812 111.958 215.812H109.582ZM126.382 205.462C125.68 204.706 124.852 204.094 123.574 203.968V201.988H122.476V203.986C120.766 204.238 119.578 205.516 119.578 207.28C119.578 211.24 125.23 210.43 125.23 213.85C125.23 215.164 124.438 216.01 122.89 216.01C121.63 216.01 120.604 215.398 119.776 214.66L119.074 215.668C119.902 216.442 121.18 217.09 122.476 217.216V219.196H123.574V217.198C125.464 216.946 126.67 215.65 126.67 213.742C126.67 209.368 121.018 210.268 121.018 207.208C121.018 206.02 121.846 205.192 123.106 205.192C124.24 205.192 124.852 205.606 125.59 206.344L126.382 205.462ZM136.849 217.252C139.315 217.252 141.511 215.542 141.511 212.572C141.511 209.674 139.639 208.342 137.407 208.342C136.795 208.342 136.327 208.468 135.805 208.72L136.057 205.894H140.899V203.68H133.771L133.411 210.142L134.617 210.934C135.391 210.43 135.823 210.232 136.615 210.232C137.965 210.232 138.865 211.096 138.865 212.644C138.865 214.21 137.893 215.092 136.507 215.092C135.265 215.092 134.329 214.48 133.573 213.742L132.349 215.434C133.339 216.424 134.743 217.252 136.849 217.252ZM145.828 217H148.51C148.726 211.78 149.14 209.062 152.236 205.282V203.68H143.38V205.894H149.374C146.836 209.422 146.062 212.374 145.828 217ZM155.996 217.252C156.95 217.252 157.652 216.496 157.652 215.524C157.652 214.552 156.95 213.796 155.996 213.796C155.06 213.796 154.358 214.552 154.358 215.524C154.358 216.496 155.06 217.252 155.996 217.252ZM163.974 210.178C162.822 210.178 162.084 209.44 162.084 207.874C162.084 206.236 162.894 205.426 163.884 205.426C165.018 205.426 165.936 206.326 166.17 208.756C165.522 209.782 164.694 210.178 163.974 210.178ZM159.87 215.74C160.662 216.55 161.868 217.252 163.524 217.252C166.17 217.252 168.636 215.074 168.636 210.034C168.636 205.408 166.368 203.428 163.848 203.428C161.562 203.428 159.654 205.138 159.654 207.874C159.654 210.7 161.256 212.068 163.47 212.068C164.388 212.068 165.522 211.51 166.206 210.61C166.098 213.958 164.856 215.092 163.362 215.092C162.57 215.092 161.742 214.678 161.256 214.156L159.87 215.74Z" fill="#1E1E1E"/>
<path d="M0 95H208" stroke="#E05778"/>
<path d="M0 140H208" stroke="#E05778"/>
<path d="M0 186H208" stroke="#E05778"/>
<path d="M66 47L66 264" stroke="#E05778"/>
</svg>
