<svg width="290" height="232" viewBox="0 0 290 232" fill="none" xmlns="http://www.w3.org/2000/svg">
<path d="M17.924 10.578C16.91 9.72 14.882 8.654 13.348 8.056L11.632 10.396C13.192 11.046 15.168 12.242 16.078 13.126L17.924 10.578ZM16.52 17.39C15.532 16.584 13.504 15.596 11.97 15.05L10.306 17.39C11.866 18.04 13.79 19.132 14.752 19.99L16.52 17.39ZM13.712 31.95C15.064 29.428 16.468 26.412 17.638 23.63L15.22 21.784C13.868 24.826 12.152 28.128 10.93 30.13L13.712 31.95ZM27.986 17.91C27.44 19.054 26.738 20.198 25.958 21.264C24.892 20.38 23.748 19.496 22.682 18.768L21.096 20.094C22.24 20.926 23.488 21.914 24.632 22.954C23.436 24.358 22.084 25.58 20.68 26.542C21.226 26.88 22.11 27.66 22.5 28.076C23.774 27.088 25.048 25.84 26.244 24.436C27.284 25.476 28.168 26.464 28.766 27.322L30.508 25.84C29.832 24.904 28.792 23.812 27.596 22.72C28.558 21.394 29.442 19.99 30.144 18.56L27.986 17.91ZM26.66 28.544L27.752 27.764C27.414 27.14 26.712 26.23 26.036 25.606L24.476 26.62C25.022 27.166 25.568 27.946 25.932 28.544H20.602V23.318C21.07 23.838 21.486 24.384 21.72 24.8L23.202 23.396C22.812 22.798 22.058 21.992 21.33 21.42L20.602 22.096V17.312H24.58L23.54 18.222C24.242 18.768 25.074 19.678 25.438 20.276L26.946 18.846C26.608 18.404 26.01 17.806 25.36 17.312H31.002V21.914C30.664 21.576 30.274 21.238 29.884 20.952L28.558 22.252C29.286 22.876 30.092 23.76 30.482 24.384L31.002 23.812V28.544H26.66ZM27.128 14.66V12.814H33.472V10.11H27.128V7.978H24.06V14.66H17.898V32.21H20.602V31.196H31.002V32.028H33.836V14.66H27.128ZM59.264 11.644H50.138C50.268 10.5 50.346 9.33 50.424 8.056H47.122C47.07 9.356 47.018 10.526 46.888 11.644H37.736V32.262H40.83V14.66H46.238C45.51 16.792 44.054 18.456 41.22 19.652C41.896 20.172 42.728 21.238 43.066 21.966C45.51 20.9 47.122 19.522 48.214 17.832C50.164 19.08 52.322 20.666 53.466 21.758L55.572 19.392C54.22 18.196 51.49 16.428 49.384 15.232C49.436 15.05 49.488 14.868 49.54 14.66H56.196V28.726C56.196 29.168 56.066 29.272 55.65 29.298C55.286 29.298 54.246 29.298 53.154 29.246L55.312 27.218C54.064 25.97 51.542 24.072 49.644 22.772C49.956 21.888 50.164 20.978 50.346 20.094H47.148C46.628 22.694 45.666 25.502 41.246 27.14C41.896 27.686 42.702 28.752 43.04 29.48C45.614 28.388 47.252 26.984 48.344 25.398C49.956 26.672 51.776 28.154 52.79 29.246L52.53 29.22C52.946 30.078 53.362 31.43 53.466 32.314C55.52 32.314 57.002 32.262 57.964 31.742C58.978 31.248 59.264 30.364 59.264 28.804V11.644ZM66.908 13.022C67.35 12.554 67.792 12.06 68.182 11.566C68.936 12.008 69.768 12.528 70.522 13.022H66.908ZM66.05 14.946H70.626V13.1C71.276 13.516 71.822 13.932 72.238 14.244L73.642 11.982C72.732 11.306 71.042 10.318 69.586 9.538C69.768 9.252 69.95 8.966 70.106 8.68L67.558 7.744C66.414 9.824 64.308 11.748 62.254 12.97C62.644 13.672 63.32 15.232 63.502 15.908C64.386 15.336 65.218 14.634 66.05 13.88V14.946ZM75.748 29.74C76.684 26.802 76.996 23.318 77.074 20.354C77.698 22.512 78.426 24.488 79.388 26.256C78.374 27.712 77.126 28.908 75.748 29.74ZM82.794 17.936C82.378 19.938 81.78 21.81 81.052 23.422C80.22 21.758 79.57 19.886 79.076 17.936H82.794ZM69.95 18.092V19.34H66.518V18.092H69.95ZM66.518 22.954V21.472H69.95V22.954H66.518ZM84.12 15.154L83.626 15.232H77.1V12.19H85.498V9.408H74.37V12.19H74.396V18.508C74.396 21.862 74.266 26.36 72.81 29.74C72.342 28.44 71.64 26.672 71.068 25.294L68.858 26.074C69.014 26.49 69.196 26.932 69.378 27.426L66.518 28.362V25.164H72.42V15.856H63.84V28.18C63.84 29.168 63.268 29.558 62.774 29.766C63.164 30.364 63.606 31.612 63.736 32.288C64.308 31.872 65.166 31.456 70.158 29.662C70.392 30.338 70.574 30.988 70.704 31.508L72.29 30.832C72.94 31.118 74.11 31.872 74.63 32.314C74.968 31.768 75.254 31.144 75.488 30.468C76.034 31.066 76.58 31.846 76.918 32.392C78.504 31.456 79.882 30.26 81.078 28.804C82.17 30.182 83.444 31.326 84.952 32.236C85.394 31.456 86.304 30.338 86.928 29.792C85.316 28.96 83.938 27.738 82.794 26.256C84.328 23.474 85.394 19.964 85.94 15.674L84.12 15.154Z" fill="#1E1E1E"/>
<path d="M96.2 33.71L97.172 33.188C95.048 31.01 93.788 28.328 93.788 25.16C93.788 21.992 95.048 19.31 97.172 17.132L96.2 16.61C94.004 18.86 92.618 21.704 92.618 25.16C92.618 28.616 94.004 31.46 96.2 33.71ZM111.896 30.2C110.87 29.228 108.836 27.734 107.234 26.654C107.486 26.006 107.666 25.34 107.81 24.656H106.568C106.118 26.834 105.074 29.084 101.762 30.182C102.032 30.38 102.338 30.812 102.464 31.064C104.642 30.272 105.92 29.084 106.73 27.662C108.296 28.76 110.096 30.164 111.032 31.082L111.896 30.2ZM114.182 19.634H107.648C107.81 18.824 107.9 17.942 107.972 17.024H106.712C106.64 17.96 106.55 18.824 106.388 19.634H99.818V33.368H101.006V20.804H106.118C105.488 22.676 104.336 24.116 101.852 25.016C102.104 25.214 102.428 25.628 102.554 25.898C104.624 25.124 105.884 23.99 106.676 22.55C108.332 23.522 110.24 24.818 111.23 25.664L112.04 24.746C110.924 23.864 108.836 22.514 107.126 21.542C107.234 21.308 107.306 21.074 107.36 20.804H113.012V31.748C113.012 32.09 112.922 32.18 112.598 32.198C112.256 32.216 111.122 32.216 109.898 32.162C110.06 32.522 110.222 33.044 110.276 33.404C111.788 33.404 112.868 33.386 113.444 33.17C114.002 32.972 114.182 32.576 114.182 31.766V19.634ZM129.572 19.328H120.392V18.284H129.572V19.328ZM129.572 21.128H120.392V20.066H129.572V21.128ZM130.742 17.546H119.24V21.884H130.742V17.546ZM133.01 22.676H117.008V23.594H133.01V22.676ZM120.05 28.148V27.05H124.406V28.148H120.05ZM120.05 25.25H124.406V26.312H120.05V25.25ZM130.112 26.312H125.54V25.25H130.112V26.312ZM130.112 28.148H125.54V27.05H130.112V28.148ZM125.54 31.964V30.848H131.696V29.984H125.54V28.922H131.282V24.458H118.916V28.922H124.406V29.984H118.376V30.848H124.406V31.964H116.9V32.9H133.118V31.964H125.54ZM143 22.118C143.684 22.118 144.296 21.614 144.296 20.84C144.296 20.03 143.684 19.544 143 19.544C142.316 19.544 141.704 20.03 141.704 20.84C141.704 21.614 142.316 22.118 143 22.118ZM143 30.974C143.684 30.974 144.296 30.47 144.296 29.678C144.296 28.886 143.684 28.382 143 28.382C142.316 28.382 141.704 28.886 141.704 29.678C141.704 30.47 142.316 30.974 143 30.974ZM157.958 24.116C158.498 24.728 159.002 25.448 159.254 25.97L159.974 25.412C159.686 24.854 159.128 24.098 158.552 23.522C159.11 22.874 159.704 22.154 160.226 21.47L159.254 20.894C158.804 21.632 158.066 22.64 157.418 23.396C157.076 22.46 156.662 21.596 156.086 20.894C156.644 20.354 157.112 19.76 157.508 19.13H160.118V18.05H152.9V19.13H156.266C155.438 20.264 154.178 21.254 152.918 21.884C153.116 22.136 153.404 22.658 153.494 22.892C154.124 22.514 154.79 22.064 155.384 21.542C155.708 22.028 155.978 22.532 156.194 23.108C155.438 24.152 154.034 25.304 152.846 25.88C153.044 26.114 153.296 26.546 153.404 26.816C154.466 26.186 155.708 25.142 156.572 24.134C156.734 24.746 156.878 25.412 156.968 26.06C156.014 27.536 154.232 29.048 152.666 29.768C152.864 30.02 153.134 30.506 153.224 30.794C154.592 30.038 156.05 28.778 157.13 27.446C157.274 29.516 157.022 31.334 156.59 31.838C156.302 32.234 156.014 32.27 155.6 32.27C155.33 32.27 154.826 32.252 154.322 32.198C154.484 32.522 154.574 32.954 154.574 33.278C155.042 33.314 155.546 33.314 155.852 33.314C156.572 33.296 157.04 33.116 157.49 32.558C158.372 31.55 158.624 27.716 157.706 24.386L157.958 24.116ZM163.988 20.282H166.31C165.698 21.11 165.032 21.902 164.294 22.64H163.988V20.282ZM166.76 28.58H162.062V26.726H166.76V28.58ZM162.062 31.532V29.534H166.76V31.532H162.062ZM169.172 23.702V22.64H165.752C166.814 21.47 167.75 20.21 168.524 18.842L167.48 18.464C167.174 19.004 166.832 19.544 166.472 20.048V19.238H163.988V16.988H162.836V19.238H160.55V20.282H162.836V22.64H159.74V23.702H163.178C161.828 24.89 160.352 25.916 158.822 26.726C159.038 26.96 159.38 27.464 159.506 27.734C159.974 27.446 160.46 27.176 160.91 26.852V33.35H162.062V32.54H166.76V33.278H167.948V25.754H162.44C163.25 25.124 164.024 24.44 164.762 23.702H169.172ZM182.618 25.106C182.492 26.798 182.258 29.21 182.042 31.172H176.804C177.128 29.516 177.524 27.338 177.884 25.106H182.618ZM183.266 31.172C183.554 28.832 183.824 25.934 183.932 23.972L183.032 23.882L182.834 23.936H178.082C178.298 22.55 178.514 21.164 178.694 19.904H185.66V18.716H172.232V19.904H177.416C177.254 21.146 177.038 22.55 176.822 23.936H173.222V25.106H176.624C176.264 27.32 175.868 29.498 175.508 31.172H171.08V32.36H186.974V31.172H183.266ZM193.508 21.758C192.41 24.026 190.628 26.24 188.756 27.644C189.026 27.842 189.53 28.256 189.746 28.472C190.502 27.842 191.24 27.086 191.96 26.24V33.368H193.148V24.674C193.706 23.846 194.21 22.982 194.66 22.1L193.508 21.758ZM194.696 16.952H193.508V18.806H189.152V19.94H193.508V21.668H194.696V19.94H196.64V18.806H194.696V16.952ZM199.358 21.776H200.546V19.94H204.812V18.806H200.546V16.952H199.358V18.806H197.306V19.94H199.358V21.776ZM199.664 31.982C198.728 31.982 198.566 31.82 198.566 31.1V26.15H204.776V25.016H198.566V21.92H197.378V31.082C197.378 32.684 197.882 33.116 199.574 33.116H203.03C204.632 33.116 204.974 32.342 205.154 29.696C204.812 29.606 204.344 29.408 204.056 29.192C203.948 31.514 203.804 31.982 202.958 31.982H199.664ZM219.896 30.2C218.87 29.228 216.836 27.734 215.234 26.654C215.486 26.006 215.666 25.34 215.81 24.656H214.568C214.118 26.834 213.074 29.084 209.762 30.182C210.032 30.38 210.338 30.812 210.464 31.064C212.642 30.272 213.92 29.084 214.73 27.662C216.296 28.76 218.096 30.164 219.032 31.082L219.896 30.2ZM222.182 19.634H215.648C215.81 18.824 215.9 17.942 215.972 17.024H214.712C214.64 17.96 214.55 18.824 214.388 19.634H207.818V33.368H209.006V20.804H214.118C213.488 22.676 212.336 24.116 209.852 25.016C210.104 25.214 210.428 25.628 210.554 25.898C212.624 25.124 213.884 23.99 214.676 22.55C216.332 23.522 218.24 24.818 219.23 25.664L220.04 24.746C218.924 23.864 216.836 22.514 215.126 21.542C215.234 21.308 215.306 21.074 215.36 20.804H221.012V31.748C221.012 32.09 220.922 32.18 220.598 32.198C220.256 32.216 219.122 32.216 217.898 32.162C218.06 32.522 218.222 33.044 218.276 33.404C219.788 33.404 220.868 33.386 221.444 33.17C222.002 32.972 222.182 32.576 222.182 31.766V19.634ZM224.81 32H232.964V30.74H229.184C228.518 30.74 227.726 30.776 227.024 30.848C230.246 27.824 232.334 25.106 232.334 22.442C232.334 20.102 230.894 18.59 228.554 18.59C226.916 18.59 225.782 19.364 224.72 20.516L225.584 21.344C226.34 20.462 227.294 19.778 228.392 19.778C230.084 19.778 230.894 20.948 230.894 22.496C230.894 24.782 229.022 27.446 224.81 31.118V32ZM238.541 32.234C240.719 32.234 242.789 30.596 242.789 27.734C242.789 24.818 241.025 23.522 238.847 23.522C238.019 23.522 237.407 23.738 236.795 24.08L237.155 20.084H242.159V18.824H235.859L235.445 24.944L236.255 25.448C237.011 24.944 237.587 24.656 238.487 24.656C240.197 24.656 241.313 25.826 241.313 27.77C241.313 29.75 239.999 31.01 238.415 31.01C236.849 31.01 235.877 30.29 235.121 29.516L234.383 30.488C235.265 31.37 236.489 32.234 238.541 32.234ZM248.708 32.234C251.174 32.234 252.722 29.966 252.722 25.358C252.722 20.804 251.174 18.59 248.708 18.59C246.224 18.59 244.658 20.786 244.658 25.358C244.658 29.966 246.224 32.234 248.708 32.234ZM248.708 31.046C247.142 31.046 246.08 29.282 246.08 25.358C246.08 21.506 247.142 19.778 248.708 19.778C250.256 19.778 251.3 21.506 251.3 25.358C251.3 29.282 250.256 31.046 248.708 31.046ZM258.101 23.09H267.209V26.15H258.101V23.09ZM266.021 32.054C265.229 32.054 265.085 31.964 265.085 31.442V27.23H268.415V22.01H263.195V19.904H270.395V18.806H263.195V16.952H261.989V18.806H254.933V19.904H261.989V22.01H256.949V27.23H259.811C259.469 29.822 258.479 31.496 254.519 32.306C254.753 32.576 255.095 33.08 255.221 33.404C259.505 32.378 260.657 30.362 261.089 27.23H263.879V31.442C263.879 32.81 264.311 33.188 265.913 33.188H268.847C270.323 33.188 270.683 32.54 270.827 29.876C270.485 29.786 269.981 29.588 269.711 29.372C269.639 31.694 269.513 32.054 268.757 32.054H266.021ZM273.437 16.61L272.465 17.132C274.589 19.31 275.849 21.992 275.849 25.16C275.849 28.328 274.589 31.01 272.465 33.188L273.437 33.71C275.633 31.46 277.019 28.616 277.019 25.16C277.019 21.704 275.633 18.86 273.437 16.61Z" fill="#1E1E1E"/>
<path d="M19.598 72.844V68.974H23.666V72.844H19.598ZM13.28 72.844V68.974H17.33V72.844H13.28ZM19.598 66.868V63.754H17.33V66.868H11.12V75.94H13.28V74.95H17.33V80.566H19.598V74.95H23.666V75.85H25.916V66.868H19.598ZM34.538 72.808H33.332V71.656H34.538V72.808ZM35.978 70.522H31.964V73.942H35.978V70.522ZM30.848 77.956V66.436H39.542L38.696 67.282C39.164 67.534 39.704 67.912 40.082 68.236H38.138C38.102 67.732 38.084 67.228 38.066 66.706H36.302C36.338 67.228 36.356 67.732 36.392 68.236H31.514V69.748H36.518C36.68 71.53 36.914 73.168 37.292 74.464C37.004 74.788 36.716 75.094 36.392 75.364L36.356 74.464C34.484 74.716 32.612 74.932 31.298 75.076L31.496 76.642C32.684 76.444 34.088 76.246 35.528 76.03C35.348 76.156 35.15 76.282 34.952 76.39C35.312 76.678 35.888 77.362 36.122 77.686C36.806 77.254 37.418 76.732 37.994 76.156C38.354 76.75 38.804 77.164 39.344 77.344C40.532 77.884 41.468 77.2 41.756 74.986C41.396 74.788 40.748 74.302 40.424 73.978C40.352 75.022 40.208 75.724 40.01 75.652C39.686 75.58 39.416 75.238 39.182 74.698C39.992 73.51 40.64 72.142 41.072 70.576L39.434 70.252C39.218 71.062 38.948 71.8 38.588 72.502C38.444 71.692 38.336 70.756 38.246 69.748H41.468V68.236H40.604L41.324 67.48C41 67.138 40.388 66.724 39.812 66.436H42.044V77.956H30.848ZM28.814 64.51V80.62H30.848V79.864H42.044V80.62H44.168V64.51H28.814ZM26.222 122.12V120.302H19.202C19.256 119.996 19.31 119.69 19.346 119.366H26.744V117.512H19.58V116.558H25.088V114.758H19.58V113.84H25.952V111.95H22.496C22.892 111.428 23.306 110.834 23.702 110.204L21.398 109.61C21.11 110.312 20.57 111.248 20.12 111.95H16.16L16.682 111.716C16.448 111.104 15.89 110.24 15.332 109.61L13.424 110.366C13.784 110.834 14.162 111.41 14.432 111.95H11.012V113.84H17.366V114.758H12.038V116.558H17.366V117.512H10.454V119.366H17.078C17.042 119.69 16.988 120.014 16.934 120.302H10.868V122.12H16.232C15.386 123.326 13.694 124.136 10.076 124.622C10.49 125.072 10.994 125.972 11.138 126.548C15.944 125.756 17.87 124.334 18.734 122.12H19.382L18.572 123.47C20.894 124.316 24.188 125.702 25.772 126.602L26.78 124.766C25.286 123.974 22.442 122.876 20.282 122.12H26.222ZM34.538 118.808H33.332V117.656H34.538V118.808ZM35.978 116.522H31.964V119.942H35.978V116.522ZM30.848 123.956V112.436H39.542L38.696 113.282C39.164 113.534 39.704 113.912 40.082 114.236H38.138C38.102 113.732 38.084 113.228 38.066 112.706H36.302C36.338 113.228 36.356 113.732 36.392 114.236H31.514V115.748H36.518C36.68 117.53 36.914 119.168 37.292 120.464C37.004 120.788 36.716 121.094 36.392 121.364L36.356 120.464C34.484 120.716 32.612 120.932 31.298 121.076L31.496 122.642C32.684 122.444 34.088 122.246 35.528 122.03C35.348 122.156 35.15 122.282 34.952 122.39C35.312 122.678 35.888 123.362 36.122 123.686C36.806 123.254 37.418 122.732 37.994 122.156C38.354 122.75 38.804 123.164 39.344 123.344C40.532 123.884 41.468 123.2 41.756 120.986C41.396 120.788 40.748 120.302 40.424 119.978C40.352 121.022 40.208 121.724 40.01 121.652C39.686 121.58 39.416 121.238 39.182 120.698C39.992 119.51 40.64 118.142 41.072 116.576L39.434 116.252C39.218 117.062 38.948 117.8 38.588 118.502C38.444 117.692 38.336 116.756 38.246 115.748H41.468V114.236H40.604L41.324 113.48C41 113.138 40.388 112.724 39.812 112.436H42.044V123.956H30.848ZM28.814 110.51V126.62H30.848V125.864H42.044V126.62H44.168V110.51H28.814ZM14.504 169.02V164.988H22.496V169.02H14.504ZM22.496 158.994V162.864H14.504V158.994H22.496ZM12.29 156.834V172.35H14.504V171.18H22.496V172.314H24.8V156.834H12.29ZM37.634 167.346V161.424H37.706C38.498 163.62 39.56 165.654 40.838 167.346H37.634ZM32.054 167.346C33.35 165.654 34.448 163.62 35.24 161.424H35.366V167.346H32.054ZM44.42 161.424V159.246H37.634V155.772H35.366V159.246H28.616V161.424H33.026C31.91 164.142 30.074 166.716 27.986 168.156C28.49 168.552 29.174 169.362 29.552 169.902C30.272 169.326 30.956 168.66 31.586 167.922V169.524H35.366V172.566H37.634V169.524H41.342V167.958C41.936 168.66 42.566 169.29 43.25 169.812C43.628 169.218 44.384 168.372 44.942 167.94C42.836 166.518 41.018 164.052 39.884 161.424H44.42ZM21.272 206.596H23.45V205.12H26.33V203.302H23.45V201.772H21.272V203.302H18.914V205.12H21.272V206.596ZM13.658 206.668H15.818V205.138H18.122V203.32H15.818V201.772H13.658V203.32H10.688V205.138H13.658V206.668ZM14.216 211.546V209.206H17.312V211.042C17.312 211.204 17.312 211.384 17.294 211.546H14.216ZM22.784 209.206V211.546H19.49C19.508 211.384 19.508 211.24 19.508 211.078V209.206H22.784ZM26.6 213.526V211.546H24.962V207.352H19.508V205.786H17.312V207.352H12.146V211.546H10.346V213.526H16.718C15.908 214.876 14.054 216.046 10.022 216.784C10.49 217.252 11.084 218.098 11.318 218.566C16.25 217.486 18.374 215.668 19.13 213.526H26.6ZM18.788 215.092C21.092 216.046 24.188 217.594 25.718 218.602L26.798 216.856C25.214 215.848 22.01 214.426 19.796 213.598L18.788 215.092ZM34.538 210.808H33.332V209.656H34.538V210.808ZM35.978 208.522H31.964V211.942H35.978V208.522ZM30.848 215.956V204.436H39.542L38.696 205.282C39.164 205.534 39.704 205.912 40.082 206.236H38.138C38.102 205.732 38.084 205.228 38.066 204.706H36.302C36.338 205.228 36.356 205.732 36.392 206.236H31.514V207.748H36.518C36.68 209.53 36.914 211.168 37.292 212.464C37.004 212.788 36.716 213.094 36.392 213.364L36.356 212.464C34.484 212.716 32.612 212.932 31.298 213.076L31.496 214.642C32.684 214.444 34.088 214.246 35.528 214.03C35.348 214.156 35.15 214.282 34.952 214.39C35.312 214.678 35.888 215.362 36.122 215.686C36.806 215.254 37.418 214.732 37.994 214.156C38.354 214.75 38.804 215.164 39.344 215.344C40.532 215.884 41.468 215.2 41.756 212.986C41.396 212.788 40.748 212.302 40.424 211.978C40.352 213.022 40.208 213.724 40.01 213.652C39.686 213.58 39.416 213.238 39.182 212.698C39.992 211.51 40.64 210.142 41.072 208.576L39.434 208.252C39.218 209.062 38.948 209.8 38.588 210.502C38.444 209.692 38.336 208.756 38.246 207.748H41.468V206.236H40.604L41.324 205.48C41 205.138 40.388 204.724 39.812 204.436H42.044V215.956H30.848ZM28.814 202.51V218.62H30.848V217.864H42.044V218.62H44.168V202.51H28.814Z" fill="#E11C1C"/>
<path d="M83.33 67.03H85.634C87.758 67.03 88.928 67.678 88.928 69.478C88.928 71.242 87.758 72.088 85.634 72.088H83.33V67.03ZM90.764 79L87.362 73.168C89.216 72.754 90.422 71.548 90.422 69.478C90.422 66.778 88.55 65.824 85.868 65.824H81.836V79H83.33V73.312H85.796L89.09 79H90.764ZM93.1212 79H94.4712V71.386C94.4712 70.27 94.3632 68.722 94.2912 67.57H94.3632L95.4072 70.558L97.9992 77.65H99.0252L101.599 70.558L102.643 67.57H102.715C102.643 68.722 102.535 70.27 102.535 71.386V79H103.921V65.824H102.085L99.5112 73.024C99.2052 73.96 98.9172 74.896 98.5932 75.832H98.5032C98.1792 74.896 97.8732 73.96 97.5492 73.024L94.9572 65.824H93.1212V79ZM107.588 79H111.692C114.644 79 116.678 77.722 116.678 75.148C116.678 73.348 115.562 72.286 113.942 71.98V71.908C115.202 71.494 115.904 70.36 115.904 69.046C115.904 66.76 114.086 65.824 111.404 65.824H107.588V79ZM109.082 71.476V67.012H111.188C113.33 67.012 114.428 67.606 114.428 69.226C114.428 70.612 113.474 71.476 111.098 71.476H109.082ZM109.082 77.812V72.628H111.458C113.852 72.628 115.22 73.402 115.22 75.094C115.22 76.966 113.798 77.812 111.458 77.812H109.082ZM125.882 67.462C125.18 66.706 124.352 66.094 123.074 65.968V63.988H121.976V65.986C120.266 66.238 119.078 67.516 119.078 69.28C119.078 73.24 124.73 72.43 124.73 75.85C124.73 77.164 123.938 78.01 122.39 78.01C121.13 78.01 120.104 77.398 119.276 76.66L118.574 77.668C119.402 78.442 120.68 79.09 121.976 79.216V81.196H123.074V79.198C124.964 78.946 126.17 77.65 126.17 75.742C126.17 71.368 120.518 72.268 120.518 69.208C120.518 68.02 121.346 67.192 122.606 67.192C123.74 67.192 124.352 67.606 125.09 68.344L125.882 67.462ZM132.857 79H140.867V76.858H138.365V65.68H136.403C135.557 66.202 134.639 66.544 133.307 66.796V68.434H135.719V76.858H132.857V79ZM146.912 79.252C149.45 79.252 151.592 77.83 151.592 75.382C151.592 73.636 150.44 72.52 148.928 72.106V72.016C150.35 71.458 151.16 70.414 151.16 68.974C151.16 66.688 149.414 65.428 146.84 65.428C145.274 65.428 143.996 66.058 142.844 67.066L144.194 68.686C144.986 67.966 145.76 67.516 146.714 67.498C147.848 67.516 148.496 68.128 148.496 69.172C148.496 70.36 147.704 71.206 145.256 71.206V73.114C148.154 73.114 148.928 73.924 148.928 75.238C148.928 76.426 148.01 77.092 146.66 77.092C145.454 77.092 144.482 76.498 143.69 75.724L142.448 77.398C143.384 78.46 144.806 79.252 146.912 79.252ZM155.496 79.252C156.45 79.252 157.152 78.496 157.152 77.524C157.152 76.552 156.45 75.796 155.496 75.796C154.56 75.796 153.858 76.552 153.858 77.524C153.858 78.496 154.56 79.252 155.496 79.252ZM163.366 79.252C165.904 79.252 168.046 77.83 168.046 75.382C168.046 73.636 166.894 72.52 165.382 72.106V72.016C166.804 71.458 167.614 70.414 167.614 68.974C167.614 66.688 165.868 65.428 163.294 65.428C161.728 65.428 160.45 66.058 159.298 67.066L160.648 68.686C161.44 67.966 162.214 67.516 163.168 67.498C164.302 67.516 164.95 68.128 164.95 69.172C164.95 70.36 164.158 71.206 161.71 71.206V73.114C164.608 73.114 165.382 73.924 165.382 75.238C165.382 76.426 164.464 77.092 163.114 77.092C161.908 77.092 160.936 76.498 160.144 75.724L158.902 77.398C159.838 78.46 161.26 79.252 163.366 79.252ZM83.33 113.03H85.634C87.758 113.03 88.928 113.678 88.928 115.478C88.928 117.242 87.758 118.088 85.634 118.088H83.33V113.03ZM90.764 125L87.362 119.168C89.216 118.754 90.422 117.548 90.422 115.478C90.422 112.778 88.55 111.824 85.868 111.824H81.836V125H83.33V119.312H85.796L89.09 125H90.764ZM93.1212 125H94.4712V117.386C94.4712 116.27 94.3632 114.722 94.2912 113.57H94.3632L95.4072 116.558L97.9992 123.65H99.0252L101.599 116.558L102.643 113.57H102.715C102.643 114.722 102.535 116.27 102.535 117.386V125H103.921V111.824H102.085L99.5112 119.024C99.2052 119.96 98.9172 120.896 98.5932 121.832H98.5032C98.1792 120.896 97.8732 119.96 97.5492 119.024L94.9572 111.824H93.1212V125ZM107.588 125H111.692C114.644 125 116.678 123.722 116.678 121.148C116.678 119.348 115.562 118.286 113.942 117.98V117.908C115.202 117.494 115.904 116.36 115.904 115.046C115.904 112.76 114.086 111.824 111.404 111.824H107.588V125ZM109.082 117.476V113.012H111.188C113.33 113.012 114.428 113.606 114.428 115.226C114.428 116.612 113.474 117.476 111.098 117.476H109.082ZM109.082 123.812V118.628H111.458C113.852 118.628 115.22 119.402 115.22 121.094C115.22 122.966 113.798 123.812 111.458 123.812H109.082ZM125.882 113.462C125.18 112.706 124.352 112.094 123.074 111.968V109.988H121.976V111.986C120.266 112.238 119.078 113.516 119.078 115.28C119.078 119.24 124.73 118.43 124.73 121.85C124.73 123.164 123.938 124.01 122.39 124.01C121.13 124.01 120.104 123.398 119.276 122.66L118.574 123.668C119.402 124.442 120.68 125.09 121.976 125.216V127.196H123.074V125.198C124.964 124.946 126.17 123.65 126.17 121.742C126.17 117.368 120.518 118.268 120.518 115.208C120.518 114.02 121.346 113.192 122.606 113.192C123.74 113.192 124.352 113.606 125.09 114.344L125.882 113.462ZM132.857 125H140.867V122.858H138.365V111.68H136.403C135.557 112.202 134.639 112.544 133.307 112.796V114.434H135.719V122.858H132.857V125ZM144.932 119.528L147.002 116.216C147.38 115.496 147.74 114.758 148.064 114.056H148.136C148.1 114.83 148.028 116.036 148.028 116.81V119.528H144.932ZM152.078 119.528H150.494V111.68H147.326L142.358 119.744V121.544H148.028V125H150.494V121.544H152.078V119.528ZM155.496 125.252C156.45 125.252 157.152 124.496 157.152 123.524C157.152 122.552 156.45 121.796 155.496 121.796C154.56 121.796 153.858 122.552 153.858 123.524C153.858 124.496 154.56 125.252 155.496 125.252ZM159.208 125H168.136V122.768H165.238C164.626 122.768 163.744 122.84 163.078 122.912C165.508 120.536 167.506 117.944 167.506 115.532C167.506 113.048 165.832 111.428 163.312 111.428C161.494 111.428 160.306 112.148 159.082 113.444L160.522 114.884C161.188 114.146 161.998 113.516 162.97 113.516C164.23 113.516 164.968 114.326 164.968 115.676C164.968 117.728 162.826 120.23 159.208 123.47V125ZM83.33 159.03H85.634C87.758 159.03 88.928 159.678 88.928 161.478C88.928 163.242 87.758 164.088 85.634 164.088H83.33V159.03ZM90.764 171L87.362 165.168C89.216 164.754 90.422 163.548 90.422 161.478C90.422 158.778 88.55 157.824 85.868 157.824H81.836V171H83.33V165.312H85.796L89.09 171H90.764ZM93.1212 171H94.4712V163.386C94.4712 162.27 94.3632 160.722 94.2912 159.57H94.3632L95.4072 162.558L97.9992 169.65H99.0252L101.599 162.558L102.643 159.57H102.715C102.643 160.722 102.535 162.27 102.535 163.386V171H103.921V157.824H102.085L99.5112 165.024C99.2052 165.96 98.9172 166.896 98.5932 167.832H98.5032C98.1792 166.896 97.8732 165.96 97.5492 165.024L94.9572 157.824H93.1212V171ZM107.588 171H111.692C114.644 171 116.678 169.722 116.678 167.148C116.678 165.348 115.562 164.286 113.942 163.98V163.908C115.202 163.494 115.904 162.36 115.904 161.046C115.904 158.76 114.086 157.824 111.404 157.824H107.588V171ZM109.082 163.476V159.012H111.188C113.33 159.012 114.428 159.606 114.428 161.226C114.428 162.612 113.474 163.476 111.098 163.476H109.082ZM109.082 169.812V164.628H111.458C113.852 164.628 115.22 165.402 115.22 167.094C115.22 168.966 113.798 169.812 111.458 169.812H109.082ZM125.882 159.462C125.18 158.706 124.352 158.094 123.074 157.968V155.988H121.976V157.986C120.266 158.238 119.078 159.516 119.078 161.28C119.078 165.24 124.73 164.43 124.73 167.85C124.73 169.164 123.938 170.01 122.39 170.01C121.13 170.01 120.104 169.398 119.276 168.66L118.574 169.668C119.402 170.442 120.68 171.09 121.976 171.216V173.196H123.074V171.198C124.964 170.946 126.17 169.65 126.17 167.742C126.17 163.368 120.518 164.268 120.518 161.208C120.518 160.02 121.346 159.192 122.606 159.192C123.74 159.192 124.352 159.606 125.09 160.344L125.882 159.462ZM132.155 171H141.083V168.768H138.185C137.573 168.768 136.691 168.84 136.025 168.912C138.455 166.536 140.453 163.944 140.453 161.532C140.453 159.048 138.779 157.428 136.259 157.428C134.441 157.428 133.253 158.148 132.029 159.444L133.469 160.884C134.135 160.146 134.945 159.516 135.917 159.516C137.177 159.516 137.915 160.326 137.915 161.676C137.915 163.728 135.773 166.23 132.155 169.47V171ZM142.754 171H151.682V168.768H148.784C148.172 168.768 147.29 168.84 146.624 168.912C149.054 166.536 151.052 163.944 151.052 161.532C151.052 159.048 149.378 157.428 146.858 157.428C145.04 157.428 143.852 158.148 142.628 159.444L144.068 160.884C144.734 160.146 145.544 159.516 146.516 159.516C147.776 159.516 148.514 160.326 148.514 161.676C148.514 163.728 146.372 166.23 142.754 169.47V171ZM155.496 171.252C156.45 171.252 157.152 170.496 157.152 169.524C157.152 168.552 156.45 167.796 155.496 167.796C154.56 167.796 153.858 168.552 153.858 169.524C153.858 170.496 154.56 171.252 155.496 171.252ZM161.782 171H164.464C164.68 165.78 165.094 163.062 168.19 159.282V157.68H159.334V159.894H165.328C162.79 163.422 162.016 166.374 161.782 171ZM83.33 205.03H85.634C87.758 205.03 88.928 205.678 88.928 207.478C88.928 209.242 87.758 210.088 85.634 210.088H83.33V205.03ZM90.764 217L87.362 211.168C89.216 210.754 90.422 209.548 90.422 207.478C90.422 204.778 88.55 203.824 85.868 203.824H81.836V217H83.33V211.312H85.796L89.09 217H90.764ZM93.1212 217H94.4712V209.386C94.4712 208.27 94.3632 206.722 94.2912 205.57H94.3632L95.4072 208.558L97.9992 215.65H99.0252L101.599 208.558L102.643 205.57H102.715C102.643 206.722 102.535 208.27 102.535 209.386V217H103.921V203.824H102.085L99.5112 211.024C99.2052 211.96 98.9172 212.896 98.5932 213.832H98.5032C98.1792 212.896 97.8732 211.96 97.5492 211.024L94.9572 203.824H93.1212V217ZM107.588 217H111.692C114.644 217 116.678 215.722 116.678 213.148C116.678 211.348 115.562 210.286 113.942 209.98V209.908C115.202 209.494 115.904 208.36 115.904 207.046C115.904 204.76 114.086 203.824 111.404 203.824H107.588V217ZM109.082 209.476V205.012H111.188C113.33 205.012 114.428 205.606 114.428 207.226C114.428 208.612 113.474 209.476 111.098 209.476H109.082ZM109.082 215.812V210.628H111.458C113.852 210.628 115.22 211.402 115.22 213.094C115.22 214.966 113.798 215.812 111.458 215.812H109.082ZM125.882 205.462C125.18 204.706 124.352 204.094 123.074 203.968V201.988H121.976V203.986C120.266 204.238 119.078 205.516 119.078 207.28C119.078 211.24 124.73 210.43 124.73 213.85C124.73 215.164 123.938 216.01 122.39 216.01C121.13 216.01 120.104 215.398 119.276 214.66L118.574 215.668C119.402 216.442 120.68 217.09 121.976 217.216V219.196H123.074V217.198C124.964 216.946 126.17 215.65 126.17 213.742C126.17 209.368 120.518 210.268 120.518 207.208C120.518 206.02 121.346 205.192 122.606 205.192C123.74 205.192 124.352 205.606 125.09 206.344L125.882 205.462ZM132.857 217H140.867V214.858H138.365V203.68H136.403C135.557 204.202 134.639 204.544 133.307 204.796V206.434H135.719V214.858H132.857V217ZM145.328 217H148.01C148.226 211.78 148.64 209.062 151.736 205.282V203.68H142.88V205.894H148.874C146.336 209.422 145.562 212.374 145.328 217ZM155.496 217.252C156.45 217.252 157.152 216.496 157.152 215.524C157.152 214.552 156.45 213.796 155.496 213.796C154.56 213.796 153.858 214.552 153.858 215.524C153.858 216.496 154.56 217.252 155.496 217.252ZM159.208 217H168.136V214.768H165.238C164.626 214.768 163.744 214.84 163.078 214.912C165.508 212.536 167.506 209.944 167.506 207.532C167.506 205.048 165.832 203.428 163.312 203.428C161.494 203.428 160.306 204.148 159.082 205.444L160.522 206.884C161.188 206.146 161.998 205.516 162.97 205.516C164.23 205.516 164.968 206.326 164.968 207.676C164.968 209.728 162.826 212.23 159.208 215.47V217Z" fill="#1E1E1E"/>
<path d="M0 95H207" stroke="#E11C1C"/>
<path d="M0 140H207" stroke="#E11C1C"/>
<path d="M0 186H207" stroke="#E11C1C"/>
<path d="M66 47L66 232" stroke="#E11C1C"/>
</svg>
