<svg width="644" height="264" viewBox="0 0 644 264" fill="none" xmlns="http://www.w3.org/2000/svg">
<path d="M0.666667 90C0.666667 92.9455 3.05448 95.3333 6 95.3333C8.94552 95.3333 11.3333 92.9455 11.3333 90C11.3333 87.0545 8.94552 84.6667 6 84.6667C3.05448 84.6667 0.666667 87.0545 0.666667 90ZM29.2127 22V21H28.4974L28.2663 21.6769L29.2127 22ZM6.94638 90.3231L30.159 22.3231L28.2663 21.6769L5.05362 89.6769L6.94638 90.3231ZM29.2127 23H352V21H29.2127V23Z" fill="#1E1E1E"/>
<path d="M374.972 20.12H379.86V21.81H374.972V20.12ZM374.972 16.636H379.86V18.352H374.972V16.636ZM379.002 24.15H382.694V15.7C383.422 16.168 384.41 16.87 384.904 17.312C385.554 16.532 386.204 15.57 386.802 14.504H395.304V11.566H388.258C388.648 10.656 388.986 9.746 389.272 8.81L386.282 8.082C385.554 10.708 384.228 13.334 382.694 15.154V14.322H378.924V12.372H383.266V9.98H378.924V7.978H375.934V9.98H371.722V12.372H375.934V14.322H372.268V24.15H376.038V25.996H371.592V28.414H376.038V31.924H379.002V28.414H383.136V25.996H379.002V24.15ZM388.258 28.934C387.452 28.934 386.984 28.726 386.984 28.18C386.984 27.322 387.452 26.126 393.978 18.846C394.108 18.638 394.212 18.404 394.29 18.196L392.288 17.416L391.612 17.468H384.488V20.302H388.778C384.098 26.022 383.864 27.374 383.864 28.674C383.864 30.598 385.216 31.872 388.18 31.872H392.002C394.446 31.872 395.46 30.962 395.772 26.646C394.914 26.49 393.978 26.126 393.172 25.684C393.094 28.57 392.834 28.934 392.106 28.934H388.258ZM421.668 18.898C421.226 16.974 420.16 14.062 419.042 11.826L416.364 12.71C417.404 14.946 418.47 17.962 418.808 19.938L421.668 18.898ZM415.584 7.978H412.646V24.02H415.584V7.978ZM408.876 12.398C408.564 15.076 407.966 18.04 407.16 19.912C407.888 20.172 409.162 20.744 409.76 21.134C410.592 19.106 411.32 15.882 411.71 12.918L408.876 12.398ZM400.946 19.522C400.712 17.728 400.062 14.686 399.464 12.32L397.124 12.918C397.67 15.31 398.242 18.43 398.45 20.276L400.946 19.522ZM407.732 26.1C407.16 25.476 404.82 22.902 403.884 22.122C404.066 20.718 404.118 19.314 404.144 17.91L405.782 18.612C406.484 17.312 407.342 15.154 408.148 13.334L405.392 12.294C405.132 13.62 404.638 15.336 404.144 16.766V8.238H401.232V17.078C401.232 21.576 400.79 26.516 396.994 30.052C397.644 30.546 398.658 31.664 399.126 32.392C401.388 30.312 402.662 27.816 403.338 25.164C404.222 26.23 405.21 27.504 405.756 28.336L407.732 26.1ZM417.95 20.718C416.052 25.918 412.074 28.258 405.782 29.324C406.406 30.052 407.108 31.222 407.394 32.132C414.388 30.546 418.704 27.712 420.862 21.55L417.95 20.718ZM447.33 20.588H437.476V15.388H445.848V12.346H437.476V7.978H434.2V12.346H429.962C430.326 11.306 430.638 10.24 430.924 9.148L427.726 8.524C426.894 12.086 425.308 15.648 423.28 17.754C424.086 18.118 425.594 18.872 426.27 19.314C427.128 18.248 427.934 16.896 428.688 15.388H434.2V20.588H423.696V23.656H434.2V32.262H437.476V23.656H447.33V20.588ZM452.4 31.95C453.96 29.428 455.598 26.464 456.976 23.76L454.688 21.68C453.154 24.696 451.178 27.92 449.774 29.87L452.4 31.95ZM455.65 17.936C454.506 17.234 452.192 16.116 450.762 15.414L449.072 17.702C450.632 18.534 452.868 19.756 453.934 20.51L455.65 17.936ZM463.58 18.014V22.096H460.616V18.014H463.58ZM466.414 24.852V15.258H457.834V26.568H460.616V24.852H466.414ZM473.642 9.486H456.742V10.994C455.624 10.24 453.466 9.07 452.01 8.342L450.242 10.552C451.75 11.436 453.934 12.736 454.974 13.516L456.742 11.124V12.502H468.65V28.284C468.65 28.856 468.416 29.038 467.792 29.064C467.168 29.064 464.854 29.09 462.8 28.96C463.268 29.818 463.84 31.3 463.996 32.21C466.882 32.21 468.806 32.184 470.08 31.664C471.302 31.144 471.744 30.234 471.744 28.336V12.502H473.642V9.486Z" fill="#1E1E1E"/>
<path d="M486.2 33.71L487.172 33.188C485.048 31.01 483.788 28.328 483.788 25.16C483.788 21.992 485.048 19.31 487.172 17.132L486.2 16.61C484.004 18.86 482.618 21.704 482.618 25.16C482.618 28.616 484.004 31.46 486.2 33.71ZM501.896 30.2C500.87 29.228 498.836 27.734 497.234 26.654C497.486 26.006 497.666 25.34 497.81 24.656H496.568C496.118 26.834 495.074 29.084 491.762 30.182C492.032 30.38 492.338 30.812 492.464 31.064C494.642 30.272 495.92 29.084 496.73 27.662C498.296 28.76 500.096 30.164 501.032 31.082L501.896 30.2ZM504.182 19.634H497.648C497.81 18.824 497.9 17.942 497.972 17.024H496.712C496.64 17.96 496.55 18.824 496.388 19.634H489.818V33.368H491.006V20.804H496.118C495.488 22.676 494.336 24.116 491.852 25.016C492.104 25.214 492.428 25.628 492.554 25.898C494.624 25.124 495.884 23.99 496.676 22.55C498.332 23.522 500.24 24.818 501.23 25.664L502.04 24.746C500.924 23.864 498.836 22.514 497.126 21.542C497.234 21.308 497.306 21.074 497.36 20.804H503.012V31.748C503.012 32.09 502.922 32.18 502.598 32.198C502.256 32.216 501.122 32.216 499.898 32.162C500.06 32.522 500.222 33.044 500.276 33.404C501.788 33.404 502.868 33.386 503.444 33.17C504.002 32.972 504.182 32.576 504.182 31.766V19.634ZM519.572 19.328H510.392V18.284H519.572V19.328ZM519.572 21.128H510.392V20.066H519.572V21.128ZM520.742 17.546H509.24V21.884H520.742V17.546ZM523.01 22.676H507.008V23.594H523.01V22.676ZM510.05 28.148V27.05H514.406V28.148H510.05ZM510.05 25.25H514.406V26.312H510.05V25.25ZM520.112 26.312H515.54V25.25H520.112V26.312ZM520.112 28.148H515.54V27.05H520.112V28.148ZM515.54 31.964V30.848H521.696V29.984H515.54V28.922H521.282V24.458H508.916V28.922H514.406V29.984H508.376V30.848H514.406V31.964H506.9V32.9H523.118V31.964H515.54ZM533 22.118C533.684 22.118 534.296 21.614 534.296 20.84C534.296 20.03 533.684 19.544 533 19.544C532.316 19.544 531.704 20.03 531.704 20.84C531.704 21.614 532.316 22.118 533 22.118ZM533 30.974C533.684 30.974 534.296 30.47 534.296 29.678C534.296 28.886 533.684 28.382 533 28.382C532.316 28.382 531.704 28.886 531.704 29.678C531.704 30.47 532.316 30.974 533 30.974ZM559.028 25.844H551.81V21.452H558.038V20.264H551.81V16.952H550.568V20.264H546.608C546.95 19.436 547.274 18.59 547.508 17.708L546.32 17.456C545.636 19.886 544.484 22.28 543.08 23.792C543.368 23.936 543.944 24.26 544.178 24.458C544.844 23.648 545.492 22.604 546.068 21.452H550.568V25.844H543.008V27.014H550.568V33.332H551.81V27.014H559.028V25.844ZM573.896 30.2C572.87 29.228 570.836 27.734 569.234 26.654C569.486 26.006 569.666 25.34 569.81 24.656H568.568C568.118 26.834 567.074 29.084 563.762 30.182C564.032 30.38 564.338 30.812 564.464 31.064C566.642 30.272 567.92 29.084 568.73 27.662C570.296 28.76 572.096 30.164 573.032 31.082L573.896 30.2ZM576.182 19.634H569.648C569.81 18.824 569.9 17.942 569.972 17.024H568.712C568.64 17.96 568.55 18.824 568.388 19.634H561.818V33.368H563.006V20.804H568.118C567.488 22.676 566.336 24.116 563.852 25.016C564.104 25.214 564.428 25.628 564.554 25.898C566.624 25.124 567.884 23.99 568.676 22.55C570.332 23.522 572.24 24.818 573.23 25.664L574.04 24.746C572.924 23.864 570.836 22.514 569.126 21.542C569.234 21.308 569.306 21.074 569.36 20.804H575.012V31.748C575.012 32.09 574.922 32.18 574.598 32.198C574.256 32.216 573.122 32.216 571.898 32.162C572.06 32.522 572.222 33.044 572.276 33.404C573.788 33.404 574.868 33.386 575.444 33.17C576.002 32.972 576.182 32.576 576.182 31.766V19.634ZM578.81 32H586.964V30.74H583.184C582.518 30.74 581.726 30.776 581.024 30.848C584.246 27.824 586.334 25.106 586.334 22.442C586.334 20.102 584.894 18.59 582.554 18.59C580.916 18.59 579.782 19.364 578.72 20.516L579.584 21.344C580.34 20.462 581.294 19.778 582.392 19.778C584.084 19.778 584.894 20.948 584.894 22.496C584.894 24.782 583.022 27.446 578.81 31.118V32ZM592.829 32.234C595.295 32.234 596.843 29.966 596.843 25.358C596.843 20.804 595.295 18.59 592.829 18.59C590.345 18.59 588.779 20.786 588.779 25.358C588.779 29.966 590.345 32.234 592.829 32.234ZM592.829 31.046C591.263 31.046 590.201 29.282 590.201 25.358C590.201 21.506 591.263 19.778 592.829 19.778C594.377 19.778 595.421 21.506 595.421 25.358C595.421 29.282 594.377 31.046 592.829 31.046ZM602.708 32.234C605.174 32.234 606.722 29.966 606.722 25.358C606.722 20.804 605.174 18.59 602.708 18.59C600.224 18.59 598.658 20.786 598.658 25.358C598.658 29.966 600.224 32.234 602.708 32.234ZM602.708 31.046C601.142 31.046 600.08 29.282 600.08 25.358C600.08 21.506 601.142 19.778 602.708 19.778C604.256 19.778 605.3 21.506 605.3 25.358C605.3 29.282 604.256 31.046 602.708 31.046ZM612.101 23.09H621.209V26.15H612.101V23.09ZM620.021 32.054C619.229 32.054 619.085 31.964 619.085 31.442V27.23H622.415V22.01H617.195V19.904H624.395V18.806H617.195V16.952H615.989V18.806H608.933V19.904H615.989V22.01H610.949V27.23H613.811C613.469 29.822 612.479 31.496 608.519 32.306C608.753 32.576 609.095 33.08 609.221 33.404C613.505 32.378 614.657 30.362 615.089 27.23H617.879V31.442C617.879 32.81 618.311 33.188 619.913 33.188H622.847C624.323 33.188 624.683 32.54 624.827 29.876C624.485 29.786 623.981 29.588 623.711 29.372C623.639 31.694 623.513 32.054 622.757 32.054H620.021ZM627.437 16.61L626.465 17.132C628.589 19.31 629.849 21.992 629.849 25.16C629.849 28.328 628.589 31.01 626.465 33.188L627.437 33.71C629.633 31.46 631.019 28.616 631.019 25.16C631.019 21.704 629.633 18.86 627.437 16.61Z" fill="#1E1E1E"/>
<path d="M380.598 72.844V68.974H384.666V72.844H380.598ZM374.28 72.844V68.974H378.33V72.844H374.28ZM380.598 66.868V63.754H378.33V66.868H372.12V75.94H374.28V74.95H378.33V80.566H380.598V74.95H384.666V75.85H386.916V66.868H380.598ZM395.538 72.808H394.332V71.656H395.538V72.808ZM396.978 70.522H392.964V73.942H396.978V70.522ZM391.848 77.956V66.436H400.542L399.696 67.282C400.164 67.534 400.704 67.912 401.082 68.236H399.138C399.102 67.732 399.084 67.228 399.066 66.706H397.302C397.338 67.228 397.356 67.732 397.392 68.236H392.514V69.748H397.518C397.68 71.53 397.914 73.168 398.292 74.464C398.004 74.788 397.716 75.094 397.392 75.364L397.356 74.464C395.484 74.716 393.612 74.932 392.298 75.076L392.496 76.642C393.684 76.444 395.088 76.246 396.528 76.03C396.348 76.156 396.15 76.282 395.952 76.39C396.312 76.678 396.888 77.362 397.122 77.686C397.806 77.254 398.418 76.732 398.994 76.156C399.354 76.75 399.804 77.164 400.344 77.344C401.532 77.884 402.468 77.2 402.756 74.986C402.396 74.788 401.748 74.302 401.424 73.978C401.352 75.022 401.208 75.724 401.01 75.652C400.686 75.58 400.416 75.238 400.182 74.698C400.992 73.51 401.64 72.142 402.072 70.576L400.434 70.252C400.218 71.062 399.948 71.8 399.588 72.502C399.444 71.692 399.336 70.756 399.246 69.748H402.468V68.236H401.604L402.324 67.48C402 67.138 401.388 66.724 400.812 66.436H403.044V77.956H391.848ZM389.814 64.51V80.62H391.848V79.864H403.044V80.62H405.168V64.51H389.814ZM387.222 122.12V120.302H380.202C380.256 119.996 380.31 119.69 380.346 119.366H387.744V117.512H380.58V116.558H386.088V114.758H380.58V113.84H386.952V111.95H383.496C383.892 111.428 384.306 110.834 384.702 110.204L382.398 109.61C382.11 110.312 381.57 111.248 381.12 111.95H377.16L377.682 111.716C377.448 111.104 376.89 110.24 376.332 109.61L374.424 110.366C374.784 110.834 375.162 111.41 375.432 111.95H372.012V113.84H378.366V114.758H373.038V116.558H378.366V117.512H371.454V119.366H378.078C378.042 119.69 377.988 120.014 377.934 120.302H371.868V122.12H377.232C376.386 123.326 374.694 124.136 371.076 124.622C371.49 125.072 371.994 125.972 372.138 126.548C376.944 125.756 378.87 124.334 379.734 122.12H380.382L379.572 123.47C381.894 124.316 385.188 125.702 386.772 126.602L387.78 124.766C386.286 123.974 383.442 122.876 381.282 122.12H387.222ZM395.538 118.808H394.332V117.656H395.538V118.808ZM396.978 116.522H392.964V119.942H396.978V116.522ZM391.848 123.956V112.436H400.542L399.696 113.282C400.164 113.534 400.704 113.912 401.082 114.236H399.138C399.102 113.732 399.084 113.228 399.066 112.706H397.302C397.338 113.228 397.356 113.732 397.392 114.236H392.514V115.748H397.518C397.68 117.53 397.914 119.168 398.292 120.464C398.004 120.788 397.716 121.094 397.392 121.364L397.356 120.464C395.484 120.716 393.612 120.932 392.298 121.076L392.496 122.642C393.684 122.444 395.088 122.246 396.528 122.03C396.348 122.156 396.15 122.282 395.952 122.39C396.312 122.678 396.888 123.362 397.122 123.686C397.806 123.254 398.418 122.732 398.994 122.156C399.354 122.75 399.804 123.164 400.344 123.344C401.532 123.884 402.468 123.2 402.756 120.986C402.396 120.788 401.748 120.302 401.424 119.978C401.352 121.022 401.208 121.724 401.01 121.652C400.686 121.58 400.416 121.238 400.182 120.698C400.992 119.51 401.64 118.142 402.072 116.576L400.434 116.252C400.218 117.062 399.948 117.8 399.588 118.502C399.444 117.692 399.336 116.756 399.246 115.748H402.468V114.236H401.604L402.324 113.48C402 113.138 401.388 112.724 400.812 112.436H403.044V123.956H391.848ZM389.814 110.51V126.62H391.848V125.864H403.044V126.62H405.168V110.51H389.814ZM375.504 169.02V164.988H383.496V169.02H375.504ZM383.496 158.994V162.864H375.504V158.994H383.496ZM373.29 156.834V172.35H375.504V171.18H383.496V172.314H385.8V156.834H373.29ZM398.634 167.346V161.424H398.706C399.498 163.62 400.56 165.654 401.838 167.346H398.634ZM393.054 167.346C394.35 165.654 395.448 163.62 396.24 161.424H396.366V167.346H393.054ZM405.42 161.424V159.246H398.634V155.772H396.366V159.246H389.616V161.424H394.026C392.91 164.142 391.074 166.716 388.986 168.156C389.49 168.552 390.174 169.362 390.552 169.902C391.272 169.326 391.956 168.66 392.586 167.922V169.524H396.366V172.566H398.634V169.524H402.342V167.958C402.936 168.66 403.566 169.29 404.25 169.812C404.628 169.218 405.384 168.372 405.942 167.94C403.836 166.518 402.018 164.052 400.884 161.424H405.42ZM382.272 206.596H384.45V205.12H387.33V203.302H384.45V201.772H382.272V203.302H379.914V205.12H382.272V206.596ZM374.658 206.668H376.818V205.138H379.122V203.32H376.818V201.772H374.658V203.32H371.688V205.138H374.658V206.668ZM375.216 211.546V209.206H378.312V211.042C378.312 211.204 378.312 211.384 378.294 211.546H375.216ZM383.784 209.206V211.546H380.49C380.508 211.384 380.508 211.24 380.508 211.078V209.206H383.784ZM387.6 213.526V211.546H385.962V207.352H380.508V205.786H378.312V207.352H373.146V211.546H371.346V213.526H377.718C376.908 214.876 375.054 216.046 371.022 216.784C371.49 217.252 372.084 218.098 372.318 218.566C377.25 217.486 379.374 215.668 380.13 213.526H387.6ZM379.788 215.092C382.092 216.046 385.188 217.594 386.718 218.602L387.798 216.856C386.214 215.848 383.01 214.426 380.796 213.598L379.788 215.092ZM395.538 210.808H394.332V209.656H395.538V210.808ZM396.978 208.522H392.964V211.942H396.978V208.522ZM391.848 215.956V204.436H400.542L399.696 205.282C400.164 205.534 400.704 205.912 401.082 206.236H399.138C399.102 205.732 399.084 205.228 399.066 204.706H397.302C397.338 205.228 397.356 205.732 397.392 206.236H392.514V207.748H397.518C397.68 209.53 397.914 211.168 398.292 212.464C398.004 212.788 397.716 213.094 397.392 213.364L397.356 212.464C395.484 212.716 393.612 212.932 392.298 213.076L392.496 214.642C393.684 214.444 395.088 214.246 396.528 214.03C396.348 214.156 396.15 214.282 395.952 214.39C396.312 214.678 396.888 215.362 397.122 215.686C397.806 215.254 398.418 214.732 398.994 214.156C399.354 214.75 399.804 215.164 400.344 215.344C401.532 215.884 402.468 215.2 402.756 212.986C402.396 212.788 401.748 212.302 401.424 211.978C401.352 213.022 401.208 213.724 401.01 213.652C400.686 213.58 400.416 213.238 400.182 212.698C400.992 211.51 401.64 210.142 402.072 208.576L400.434 208.252C400.218 209.062 399.948 209.8 399.588 210.502C399.444 209.692 399.336 208.756 399.246 207.748H402.468V206.236H401.604L402.324 205.48C402 205.138 401.388 204.724 400.812 204.436H403.044V215.956H391.848ZM389.814 202.51V218.62H391.848V217.864H403.044V218.62H405.168V202.51H389.814Z" fill="#E05778"/>
<path d="M444.83 67.03H447.134C449.258 67.03 450.428 67.678 450.428 69.478C450.428 71.242 449.258 72.088 447.134 72.088H444.83V67.03ZM452.264 79L448.862 73.168C450.716 72.754 451.922 71.548 451.922 69.478C451.922 66.778 450.05 65.824 447.368 65.824H443.336V79H444.83V73.312H447.296L450.59 79H452.264ZM454.621 79H455.971V71.386C455.971 70.27 455.863 68.722 455.791 67.57H455.863L456.907 70.558L459.499 77.65H460.525L463.099 70.558L464.143 67.57H464.215C464.143 68.722 464.035 70.27 464.035 71.386V79H465.421V65.824H463.585L461.011 73.024C460.705 73.96 460.417 74.896 460.093 75.832H460.003C459.679 74.896 459.373 73.96 459.049 73.024L456.457 65.824H454.621V79ZM469.088 79H473.192C476.144 79 478.178 77.722 478.178 75.148C478.178 73.348 477.062 72.286 475.442 71.98V71.908C476.702 71.494 477.404 70.36 477.404 69.046C477.404 66.76 475.586 65.824 472.904 65.824H469.088V79ZM470.582 71.476V67.012H472.688C474.83 67.012 475.928 67.606 475.928 69.226C475.928 70.612 474.974 71.476 472.598 71.476H470.582ZM470.582 77.812V72.628H472.958C475.352 72.628 476.72 73.402 476.72 75.094C476.72 76.966 475.298 77.812 472.958 77.812H470.582ZM484.478 79H492.488V76.858H489.986V65.68H488.024C487.178 66.202 486.26 66.544 484.928 66.796V68.434H487.34V76.858H484.478V79ZM499.236 77.254C498.12 77.254 497.22 76.318 496.968 73.888C497.634 72.862 498.426 72.484 499.146 72.484C500.298 72.484 501.036 73.222 501.036 74.806C501.036 76.426 500.226 77.254 499.236 77.254ZM503.268 66.94C502.458 66.112 501.27 65.428 499.65 65.428C496.968 65.428 494.502 67.552 494.502 72.52C494.502 77.218 496.752 79.252 499.29 79.252C501.558 79.252 503.466 77.542 503.466 74.806C503.466 71.944 501.882 70.612 499.65 70.612C498.786 70.612 497.634 71.152 496.914 72.034C497.022 68.704 498.282 67.552 499.812 67.552C500.586 67.552 501.396 67.984 501.864 68.524L503.268 66.94ZM507.117 79.252C508.071 79.252 508.773 78.496 508.773 77.524C508.773 76.552 508.071 75.796 507.117 75.796C506.181 75.796 505.479 76.552 505.479 77.524C505.479 78.496 506.181 79.252 507.117 79.252ZM515.347 79.252C518.047 79.252 519.829 77.704 519.829 75.688C519.829 73.87 518.821 72.79 517.597 72.124V72.034C518.479 71.404 519.307 70.306 519.307 68.992C519.307 66.868 517.795 65.446 515.437 65.446C513.115 65.446 511.423 66.814 511.423 68.956C511.423 70.378 512.161 71.386 513.187 72.124V72.214C511.945 72.88 510.901 73.978 510.901 75.688C510.901 77.776 512.809 79.252 515.347 79.252ZM516.193 71.386C514.789 70.828 513.763 70.216 513.763 68.956C513.763 67.894 514.483 67.3 515.383 67.3C516.499 67.3 517.147 68.074 517.147 69.154C517.147 69.946 516.841 70.702 516.193 71.386ZM515.419 77.38C514.177 77.38 513.187 76.606 513.187 75.4C513.187 74.41 513.691 73.51 514.411 72.934C516.139 73.636 517.363 74.212 517.363 75.598C517.363 76.75 516.535 77.38 515.419 77.38ZM444.83 113.03H447.134C449.258 113.03 450.428 113.678 450.428 115.478C450.428 117.242 449.258 118.088 447.134 118.088H444.83V113.03ZM452.264 125L448.862 119.168C450.716 118.754 451.922 117.548 451.922 115.478C451.922 112.778 450.05 111.824 447.368 111.824H443.336V125H444.83V119.312H447.296L450.59 125H452.264ZM454.621 125H455.971V117.386C455.971 116.27 455.863 114.722 455.791 113.57H455.863L456.907 116.558L459.499 123.65H460.525L463.099 116.558L464.143 113.57H464.215C464.143 114.722 464.035 116.27 464.035 117.386V125H465.421V111.824H463.585L461.011 119.024C460.705 119.96 460.417 120.896 460.093 121.832H460.003C459.679 120.896 459.373 119.96 459.049 119.024L456.457 111.824H454.621V125ZM469.088 125H473.192C476.144 125 478.178 123.722 478.178 121.148C478.178 119.348 477.062 118.286 475.442 117.98V117.908C476.702 117.494 477.404 116.36 477.404 115.046C477.404 112.76 475.586 111.824 472.904 111.824H469.088V125ZM470.582 117.476V113.012H472.688C474.83 113.012 475.928 113.606 475.928 115.226C475.928 116.612 474.974 117.476 472.598 117.476H470.582ZM470.582 123.812V118.628H472.958C475.352 118.628 476.72 119.402 476.72 121.094C476.72 122.966 475.298 123.812 472.958 123.812H470.582ZM483.776 125H492.704V122.768H489.806C489.194 122.768 488.312 122.84 487.646 122.912C490.076 120.536 492.074 117.944 492.074 115.532C492.074 113.048 490.4 111.428 487.88 111.428C486.062 111.428 484.874 112.148 483.65 113.444L485.09 114.884C485.756 114.146 486.566 113.516 487.538 113.516C488.798 113.516 489.536 114.326 489.536 115.676C489.536 117.728 487.394 120.23 483.776 123.47V125ZM498.912 125.252C501.612 125.252 503.412 122.876 503.412 118.286C503.412 113.696 501.612 111.428 498.912 111.428C496.194 111.428 494.394 113.678 494.394 118.286C494.394 122.876 496.194 125.252 498.912 125.252ZM498.912 123.182C497.76 123.182 496.896 122.03 496.896 118.286C496.896 114.56 497.76 113.48 498.912 113.48C500.046 113.48 500.91 114.56 500.91 118.286C500.91 122.03 500.046 123.182 498.912 123.182ZM507.117 125.252C508.071 125.252 508.773 124.496 508.773 123.524C508.773 122.552 508.071 121.796 507.117 121.796C506.181 121.796 505.479 122.552 505.479 123.524C505.479 124.496 506.181 125.252 507.117 125.252ZM515.347 125.252C518.047 125.252 519.829 123.704 519.829 121.688C519.829 119.87 518.821 118.79 517.597 118.124V118.034C518.479 117.404 519.307 116.306 519.307 114.992C519.307 112.868 517.795 111.446 515.437 111.446C513.115 111.446 511.423 112.814 511.423 114.956C511.423 116.378 512.161 117.386 513.187 118.124V118.214C511.945 118.88 510.901 119.978 510.901 121.688C510.901 123.776 512.809 125.252 515.347 125.252ZM516.193 117.386C514.789 116.828 513.763 116.216 513.763 114.956C513.763 113.894 514.483 113.3 515.383 113.3C516.499 113.3 517.147 114.074 517.147 115.154C517.147 115.946 516.841 116.702 516.193 117.386ZM515.419 123.38C514.177 123.38 513.187 122.606 513.187 121.4C513.187 120.41 513.691 119.51 514.411 118.934C516.139 119.636 517.363 120.212 517.363 121.598C517.363 122.75 516.535 123.38 515.419 123.38ZM444.83 159.03H447.134C449.258 159.03 450.428 159.678 450.428 161.478C450.428 163.242 449.258 164.088 447.134 164.088H444.83V159.03ZM452.264 171L448.862 165.168C450.716 164.754 451.922 163.548 451.922 161.478C451.922 158.778 450.05 157.824 447.368 157.824H443.336V171H444.83V165.312H447.296L450.59 171H452.264ZM454.621 171H455.971V163.386C455.971 162.27 455.863 160.722 455.791 159.57H455.863L456.907 162.558L459.499 169.65H460.525L463.099 162.558L464.143 159.57H464.215C464.143 160.722 464.035 162.27 464.035 163.386V171H465.421V157.824H463.585L461.011 165.024C460.705 165.96 460.417 166.896 460.093 167.832H460.003C459.679 166.896 459.373 165.96 459.049 165.024L456.457 157.824H454.621V171ZM469.088 171H473.192C476.144 171 478.178 169.722 478.178 167.148C478.178 165.348 477.062 164.286 475.442 163.98V163.908C476.702 163.494 477.404 162.36 477.404 161.046C477.404 158.76 475.586 157.824 472.904 157.824H469.088V171ZM470.582 163.476V159.012H472.688C474.83 159.012 475.928 159.606 475.928 161.226C475.928 162.612 474.974 163.476 472.598 163.476H470.582ZM470.582 169.812V164.628H472.958C475.352 164.628 476.72 165.402 476.72 167.094C476.72 168.966 475.298 169.812 472.958 169.812H470.582ZM485.954 165.528L488.024 162.216C488.402 161.496 488.762 160.758 489.086 160.056H489.158C489.122 160.83 489.05 162.036 489.05 162.81V165.528H485.954ZM493.1 165.528H491.516V157.68H488.348L483.38 165.744V167.544H489.05V171H491.516V167.544H493.1V165.528ZM498.912 171.252C501.612 171.252 503.412 168.876 503.412 164.286C503.412 159.696 501.612 157.428 498.912 157.428C496.194 157.428 494.394 159.678 494.394 164.286C494.394 168.876 496.194 171.252 498.912 171.252ZM498.912 169.182C497.76 169.182 496.896 168.03 496.896 164.286C496.896 160.56 497.76 159.48 498.912 159.48C500.046 159.48 500.91 160.56 500.91 164.286C500.91 168.03 500.046 169.182 498.912 169.182ZM507.117 171.252C508.071 171.252 508.773 170.496 508.773 169.524C508.773 168.552 508.071 167.796 507.117 167.796C506.181 167.796 505.479 168.552 505.479 169.524C505.479 170.496 506.181 171.252 507.117 171.252ZM515.689 169.254C514.573 169.254 513.673 168.318 513.421 165.888C514.087 164.862 514.879 164.484 515.599 164.484C516.751 164.484 517.489 165.222 517.489 166.806C517.489 168.426 516.679 169.254 515.689 169.254ZM519.721 158.94C518.911 158.112 517.723 157.428 516.103 157.428C513.421 157.428 510.955 159.552 510.955 164.52C510.955 169.218 513.205 171.252 515.743 171.252C518.011 171.252 519.919 169.542 519.919 166.806C519.919 163.944 518.335 162.612 516.103 162.612C515.239 162.612 514.087 163.152 513.367 164.034C513.475 160.704 514.735 159.552 516.265 159.552C517.039 159.552 517.849 159.984 518.317 160.524L519.721 158.94ZM444.83 205.03H447.134C449.258 205.03 450.428 205.678 450.428 207.478C450.428 209.242 449.258 210.088 447.134 210.088H444.83V205.03ZM452.264 217L448.862 211.168C450.716 210.754 451.922 209.548 451.922 207.478C451.922 204.778 450.05 203.824 447.368 203.824H443.336V217H444.83V211.312H447.296L450.59 217H452.264ZM454.621 217H455.971V209.386C455.971 208.27 455.863 206.722 455.791 205.57H455.863L456.907 208.558L459.499 215.65H460.525L463.099 208.558L464.143 205.57H464.215C464.143 206.722 464.035 208.27 464.035 209.386V217H465.421V203.824H463.585L461.011 211.024C460.705 211.96 460.417 212.896 460.093 213.832H460.003C459.679 212.896 459.373 211.96 459.049 211.024L456.457 203.824H454.621V217ZM469.088 217H473.192C476.144 217 478.178 215.722 478.178 213.148C478.178 211.348 477.062 210.286 475.442 209.98V209.908C476.702 209.494 477.404 208.36 477.404 207.046C477.404 204.76 475.586 203.824 472.904 203.824H469.088V217ZM470.582 209.476V205.012H472.688C474.83 205.012 475.928 205.606 475.928 207.226C475.928 208.612 474.974 209.476 472.598 209.476H470.582ZM470.582 215.812V210.628H472.958C475.352 210.628 476.72 211.402 476.72 213.094C476.72 214.966 475.298 215.812 472.958 215.812H470.582ZM487.97 217.252C490.436 217.252 492.632 215.542 492.632 212.572C492.632 209.674 490.76 208.342 488.528 208.342C487.916 208.342 487.448 208.468 486.926 208.72L487.178 205.894H492.02V203.68H484.892L484.532 210.142L485.738 210.934C486.512 210.43 486.944 210.232 487.736 210.232C489.086 210.232 489.986 211.096 489.986 212.644C489.986 214.21 489.014 215.092 487.628 215.092C486.386 215.092 485.45 214.48 484.694 213.742L483.47 215.434C484.46 216.424 485.864 217.252 487.97 217.252ZM496.95 217H499.632C499.848 211.78 500.262 209.062 503.358 205.282V203.68H494.502V205.894H500.496C497.958 209.422 497.184 212.374 496.95 217ZM507.117 217.252C508.071 217.252 508.773 216.496 508.773 215.524C508.773 214.552 508.071 213.796 507.117 213.796C506.181 213.796 505.479 214.552 505.479 215.524C505.479 216.496 506.181 217.252 507.117 217.252ZM515.095 210.178C513.943 210.178 513.205 209.44 513.205 207.874C513.205 206.236 514.015 205.426 515.005 205.426C516.139 205.426 517.057 206.326 517.291 208.756C516.643 209.782 515.815 210.178 515.095 210.178ZM510.991 215.74C511.783 216.55 512.989 217.252 514.645 217.252C517.291 217.252 519.757 215.074 519.757 210.034C519.757 205.408 517.489 203.428 514.969 203.428C512.683 203.428 510.775 205.138 510.775 207.874C510.775 210.7 512.377 212.068 514.591 212.068C515.509 212.068 516.643 211.51 517.327 210.61C517.219 213.958 515.977 215.092 514.483 215.092C513.691 215.092 512.863 214.678 512.377 214.156L510.991 215.74Z" fill="#1E1E1E"/>
<path d="M361 95H569" stroke="#E05778"/>
<path d="M361 140H569" stroke="#E05778"/>
<path d="M361 186H569" stroke="#E05778"/>
<path d="M427 47L427 264" stroke="#E05778"/>
</svg>
