<svg width="651" height="232" viewBox="0 0 651 232" fill="none" xmlns="http://www.w3.org/2000/svg">
<path d="M0.666667 90C0.666667 92.9455 3.05448 95.3333 6 95.3333C8.94552 95.3333 11.3333 92.9455 11.3333 90C11.3333 87.0545 8.94552 84.6667 6 84.6667C3.05448 84.6667 0.666667 87.0545 0.666667 90ZM29.2127 22V21H28.4974L28.2663 21.6769L29.2127 22ZM6.94638 90.3231L30.159 22.3231L28.2663 21.6769L5.05362 89.6769L6.94638 90.3231ZM29.2127 23H352V21H29.2127V23Z" fill="#1E1E1E"/>
<path d="M378.924 10.578C377.91 9.72 375.882 8.654 374.348 8.056L372.632 10.396C374.192 11.046 376.168 12.242 377.078 13.126L378.924 10.578ZM377.52 17.39C376.532 16.584 374.504 15.596 372.97 15.05L371.306 17.39C372.866 18.04 374.79 19.132 375.752 19.99L377.52 17.39ZM374.712 31.95C376.064 29.428 377.468 26.412 378.638 23.63L376.22 21.784C374.868 24.826 373.152 28.128 371.93 30.13L374.712 31.95ZM388.986 17.91C388.44 19.054 387.738 20.198 386.958 21.264C385.892 20.38 384.748 19.496 383.682 18.768L382.096 20.094C383.24 20.926 384.488 21.914 385.632 22.954C384.436 24.358 383.084 25.58 381.68 26.542C382.226 26.88 383.11 27.66 383.5 28.076C384.774 27.088 386.048 25.84 387.244 24.436C388.284 25.476 389.168 26.464 389.766 27.322L391.508 25.84C390.832 24.904 389.792 23.812 388.596 22.72C389.558 21.394 390.442 19.99 391.144 18.56L388.986 17.91ZM387.66 28.544L388.752 27.764C388.414 27.14 387.712 26.23 387.036 25.606L385.476 26.62C386.022 27.166 386.568 27.946 386.932 28.544H381.602V23.318C382.07 23.838 382.486 24.384 382.72 24.8L384.202 23.396C383.812 22.798 383.058 21.992 382.33 21.42L381.602 22.096V17.312H385.58L384.54 18.222C385.242 18.768 386.074 19.678 386.438 20.276L387.946 18.846C387.608 18.404 387.01 17.806 386.36 17.312H392.002V21.914C391.664 21.576 391.274 21.238 390.884 20.952L389.558 22.252C390.286 22.876 391.092 23.76 391.482 24.384L392.002 23.812V28.544H387.66ZM388.128 14.66V12.814H394.472V10.11H388.128V7.978H385.06V14.66H378.898V32.21H381.602V31.196H392.002V32.028H394.836V14.66H388.128ZM420.264 11.644H411.138C411.268 10.5 411.346 9.33 411.424 8.056H408.122C408.07 9.356 408.018 10.526 407.888 11.644H398.736V32.262H401.83V14.66H407.238C406.51 16.792 405.054 18.456 402.22 19.652C402.896 20.172 403.728 21.238 404.066 21.966C406.51 20.9 408.122 19.522 409.214 17.832C411.164 19.08 413.322 20.666 414.466 21.758L416.572 19.392C415.22 18.196 412.49 16.428 410.384 15.232C410.436 15.05 410.488 14.868 410.54 14.66H417.196V28.726C417.196 29.168 417.066 29.272 416.65 29.298C416.286 29.298 415.246 29.298 414.154 29.246L416.312 27.218C415.064 25.97 412.542 24.072 410.644 22.772C410.956 21.888 411.164 20.978 411.346 20.094H408.148C407.628 22.694 406.666 25.502 402.246 27.14C402.896 27.686 403.702 28.752 404.04 29.48C406.614 28.388 408.252 26.984 409.344 25.398C410.956 26.672 412.776 28.154 413.79 29.246L413.53 29.22C413.946 30.078 414.362 31.43 414.466 32.314C416.52 32.314 418.002 32.262 418.964 31.742C419.978 31.248 420.264 30.364 420.264 28.804V11.644ZM427.908 13.022C428.35 12.554 428.792 12.06 429.182 11.566C429.936 12.008 430.768 12.528 431.522 13.022H427.908ZM427.05 14.946H431.626V13.1C432.276 13.516 432.822 13.932 433.238 14.244L434.642 11.982C433.732 11.306 432.042 10.318 430.586 9.538C430.768 9.252 430.95 8.966 431.106 8.68L428.558 7.744C427.414 9.824 425.308 11.748 423.254 12.97C423.644 13.672 424.32 15.232 424.502 15.908C425.386 15.336 426.218 14.634 427.05 13.88V14.946ZM436.748 29.74C437.684 26.802 437.996 23.318 438.074 20.354C438.698 22.512 439.426 24.488 440.388 26.256C439.374 27.712 438.126 28.908 436.748 29.74ZM443.794 17.936C443.378 19.938 442.78 21.81 442.052 23.422C441.22 21.758 440.57 19.886 440.076 17.936H443.794ZM430.95 18.092V19.34H427.518V18.092H430.95ZM427.518 22.954V21.472H430.95V22.954H427.518ZM445.12 15.154L444.626 15.232H438.1V12.19H446.498V9.408H435.37V12.19H435.396V18.508C435.396 21.862 435.266 26.36 433.81 29.74C433.342 28.44 432.64 26.672 432.068 25.294L429.858 26.074C430.014 26.49 430.196 26.932 430.378 27.426L427.518 28.362V25.164H433.42V15.856H424.84V28.18C424.84 29.168 424.268 29.558 423.774 29.766C424.164 30.364 424.606 31.612 424.736 32.288C425.308 31.872 426.166 31.456 431.158 29.662C431.392 30.338 431.574 30.988 431.704 31.508L433.29 30.832C433.94 31.118 435.11 31.872 435.63 32.314C435.968 31.768 436.254 31.144 436.488 30.468C437.034 31.066 437.58 31.846 437.918 32.392C439.504 31.456 440.882 30.26 442.078 28.804C443.17 30.182 444.444 31.326 445.952 32.236C446.394 31.456 447.304 30.338 447.928 29.792C446.316 28.96 444.938 27.738 443.794 26.256C445.328 23.474 446.394 19.964 446.94 15.674L445.12 15.154Z" fill="#1E1E1E"/>
<path d="M457.2 33.71L458.172 33.188C456.048 31.01 454.788 28.328 454.788 25.16C454.788 21.992 456.048 19.31 458.172 17.132L457.2 16.61C455.004 18.86 453.618 21.704 453.618 25.16C453.618 28.616 455.004 31.46 457.2 33.71ZM472.896 30.2C471.87 29.228 469.836 27.734 468.234 26.654C468.486 26.006 468.666 25.34 468.81 24.656H467.568C467.118 26.834 466.074 29.084 462.762 30.182C463.032 30.38 463.338 30.812 463.464 31.064C465.642 30.272 466.92 29.084 467.73 27.662C469.296 28.76 471.096 30.164 472.032 31.082L472.896 30.2ZM475.182 19.634H468.648C468.81 18.824 468.9 17.942 468.972 17.024H467.712C467.64 17.96 467.55 18.824 467.388 19.634H460.818V33.368H462.006V20.804H467.118C466.488 22.676 465.336 24.116 462.852 25.016C463.104 25.214 463.428 25.628 463.554 25.898C465.624 25.124 466.884 23.99 467.676 22.55C469.332 23.522 471.24 24.818 472.23 25.664L473.04 24.746C471.924 23.864 469.836 22.514 468.126 21.542C468.234 21.308 468.306 21.074 468.36 20.804H474.012V31.748C474.012 32.09 473.922 32.18 473.598 32.198C473.256 32.216 472.122 32.216 470.898 32.162C471.06 32.522 471.222 33.044 471.276 33.404C472.788 33.404 473.868 33.386 474.444 33.17C475.002 32.972 475.182 32.576 475.182 31.766V19.634ZM490.572 19.328H481.392V18.284H490.572V19.328ZM490.572 21.128H481.392V20.066H490.572V21.128ZM491.742 17.546H480.24V21.884H491.742V17.546ZM494.01 22.676H478.008V23.594H494.01V22.676ZM481.05 28.148V27.05H485.406V28.148H481.05ZM481.05 25.25H485.406V26.312H481.05V25.25ZM491.112 26.312H486.54V25.25H491.112V26.312ZM491.112 28.148H486.54V27.05H491.112V28.148ZM486.54 31.964V30.848H492.696V29.984H486.54V28.922H492.282V24.458H479.916V28.922H485.406V29.984H479.376V30.848H485.406V31.964H477.9V32.9H494.118V31.964H486.54ZM504 22.118C504.684 22.118 505.296 21.614 505.296 20.84C505.296 20.03 504.684 19.544 504 19.544C503.316 19.544 502.704 20.03 502.704 20.84C502.704 21.614 503.316 22.118 504 22.118ZM504 30.974C504.684 30.974 505.296 30.47 505.296 29.678C505.296 28.886 504.684 28.382 504 28.382C503.316 28.382 502.704 28.886 502.704 29.678C502.704 30.47 503.316 30.974 504 30.974ZM518.958 24.116C519.498 24.728 520.002 25.448 520.254 25.97L520.974 25.412C520.686 24.854 520.128 24.098 519.552 23.522C520.11 22.874 520.704 22.154 521.226 21.47L520.254 20.894C519.804 21.632 519.066 22.64 518.418 23.396C518.076 22.46 517.662 21.596 517.086 20.894C517.644 20.354 518.112 19.76 518.508 19.13H521.118V18.05H513.9V19.13H517.266C516.438 20.264 515.178 21.254 513.918 21.884C514.116 22.136 514.404 22.658 514.494 22.892C515.124 22.514 515.79 22.064 516.384 21.542C516.708 22.028 516.978 22.532 517.194 23.108C516.438 24.152 515.034 25.304 513.846 25.88C514.044 26.114 514.296 26.546 514.404 26.816C515.466 26.186 516.708 25.142 517.572 24.134C517.734 24.746 517.878 25.412 517.968 26.06C517.014 27.536 515.232 29.048 513.666 29.768C513.864 30.02 514.134 30.506 514.224 30.794C515.592 30.038 517.05 28.778 518.13 27.446C518.274 29.516 518.022 31.334 517.59 31.838C517.302 32.234 517.014 32.27 516.6 32.27C516.33 32.27 515.826 32.252 515.322 32.198C515.484 32.522 515.574 32.954 515.574 33.278C516.042 33.314 516.546 33.314 516.852 33.314C517.572 33.296 518.04 33.116 518.49 32.558C519.372 31.55 519.624 27.716 518.706 24.386L518.958 24.116ZM524.988 20.282H527.31C526.698 21.11 526.032 21.902 525.294 22.64H524.988V20.282ZM527.76 28.58H523.062V26.726H527.76V28.58ZM523.062 31.532V29.534H527.76V31.532H523.062ZM530.172 23.702V22.64H526.752C527.814 21.47 528.75 20.21 529.524 18.842L528.48 18.464C528.174 19.004 527.832 19.544 527.472 20.048V19.238H524.988V16.988H523.836V19.238H521.55V20.282H523.836V22.64H520.74V23.702H524.178C522.828 24.89 521.352 25.916 519.822 26.726C520.038 26.96 520.38 27.464 520.506 27.734C520.974 27.446 521.46 27.176 521.91 26.852V33.35H523.062V32.54H527.76V33.278H528.948V25.754H523.44C524.25 25.124 525.024 24.44 525.762 23.702H530.172ZM543.618 25.106C543.492 26.798 543.258 29.21 543.042 31.172H537.804C538.128 29.516 538.524 27.338 538.884 25.106H543.618ZM544.266 31.172C544.554 28.832 544.824 25.934 544.932 23.972L544.032 23.882L543.834 23.936H539.082C539.298 22.55 539.514 21.164 539.694 19.904H546.66V18.716H533.232V19.904H538.416C538.254 21.146 538.038 22.55 537.822 23.936H534.222V25.106H537.624C537.264 27.32 536.868 29.498 536.508 31.172H532.08V32.36H547.974V31.172H544.266ZM554.508 21.758C553.41 24.026 551.628 26.24 549.756 27.644C550.026 27.842 550.53 28.256 550.746 28.472C551.502 27.842 552.24 27.086 552.96 26.24V33.368H554.148V24.674C554.706 23.846 555.21 22.982 555.66 22.1L554.508 21.758ZM555.696 16.952H554.508V18.806H550.152V19.94H554.508V21.668H555.696V19.94H557.64V18.806H555.696V16.952ZM560.358 21.776H561.546V19.94H565.812V18.806H561.546V16.952H560.358V18.806H558.306V19.94H560.358V21.776ZM560.664 31.982C559.728 31.982 559.566 31.82 559.566 31.1V26.15H565.776V25.016H559.566V21.92H558.378V31.082C558.378 32.684 558.882 33.116 560.574 33.116H564.03C565.632 33.116 565.974 32.342 566.154 29.696C565.812 29.606 565.344 29.408 565.056 29.192C564.948 31.514 564.804 31.982 563.958 31.982H560.664ZM580.896 30.2C579.87 29.228 577.836 27.734 576.234 26.654C576.486 26.006 576.666 25.34 576.81 24.656H575.568C575.118 26.834 574.074 29.084 570.762 30.182C571.032 30.38 571.338 30.812 571.464 31.064C573.642 30.272 574.92 29.084 575.73 27.662C577.296 28.76 579.096 30.164 580.032 31.082L580.896 30.2ZM583.182 19.634H576.648C576.81 18.824 576.9 17.942 576.972 17.024H575.712C575.64 17.96 575.55 18.824 575.388 19.634H568.818V33.368H570.006V20.804H575.118C574.488 22.676 573.336 24.116 570.852 25.016C571.104 25.214 571.428 25.628 571.554 25.898C573.624 25.124 574.884 23.99 575.676 22.55C577.332 23.522 579.24 24.818 580.23 25.664L581.04 24.746C579.924 23.864 577.836 22.514 576.126 21.542C576.234 21.308 576.306 21.074 576.36 20.804H582.012V31.748C582.012 32.09 581.922 32.18 581.598 32.198C581.256 32.216 580.122 32.216 578.898 32.162C579.06 32.522 579.222 33.044 579.276 33.404C580.788 33.404 581.868 33.386 582.444 33.17C583.002 32.972 583.182 32.576 583.182 31.766V19.634ZM585.81 32H593.964V30.74H590.184C589.518 30.74 588.726 30.776 588.024 30.848C591.246 27.824 593.334 25.106 593.334 22.442C593.334 20.102 591.894 18.59 589.554 18.59C587.916 18.59 586.782 19.364 585.72 20.516L586.584 21.344C587.34 20.462 588.294 19.778 589.392 19.778C591.084 19.778 591.894 20.948 591.894 22.496C591.894 24.782 590.022 27.446 585.81 31.118V32ZM599.541 32.234C601.719 32.234 603.789 30.596 603.789 27.734C603.789 24.818 602.025 23.522 599.847 23.522C599.019 23.522 598.407 23.738 597.795 24.08L598.155 20.084H603.159V18.824H596.859L596.445 24.944L597.255 25.448C598.011 24.944 598.587 24.656 599.487 24.656C601.197 24.656 602.313 25.826 602.313 27.77C602.313 29.75 600.999 31.01 599.415 31.01C597.849 31.01 596.877 30.29 596.121 29.516L595.383 30.488C596.265 31.37 597.489 32.234 599.541 32.234ZM609.708 32.234C612.174 32.234 613.722 29.966 613.722 25.358C613.722 20.804 612.174 18.59 609.708 18.59C607.224 18.59 605.658 20.786 605.658 25.358C605.658 29.966 607.224 32.234 609.708 32.234ZM609.708 31.046C608.142 31.046 607.08 29.282 607.08 25.358C607.08 21.506 608.142 19.778 609.708 19.778C611.256 19.778 612.3 21.506 612.3 25.358C612.3 29.282 611.256 31.046 609.708 31.046ZM619.101 23.09H628.209V26.15H619.101V23.09ZM627.021 32.054C626.229 32.054 626.085 31.964 626.085 31.442V27.23H629.415V22.01H624.195V19.904H631.395V18.806H624.195V16.952H622.989V18.806H615.933V19.904H622.989V22.01H617.949V27.23H620.811C620.469 29.822 619.479 31.496 615.519 32.306C615.753 32.576 616.095 33.08 616.221 33.404C620.505 32.378 621.657 30.362 622.089 27.23H624.879V31.442C624.879 32.81 625.311 33.188 626.913 33.188H629.847C631.323 33.188 631.683 32.54 631.827 29.876C631.485 29.786 630.981 29.588 630.711 29.372C630.639 31.694 630.513 32.054 629.757 32.054H627.021ZM634.437 16.61L633.465 17.132C635.589 19.31 636.849 21.992 636.849 25.16C636.849 28.328 635.589 31.01 633.465 33.188L634.437 33.71C636.633 31.46 638.019 28.616 638.019 25.16C638.019 21.704 636.633 18.86 634.437 16.61Z" fill="#1E1E1E"/>
<path d="M380.598 72.844V68.974H384.666V72.844H380.598ZM374.28 72.844V68.974H378.33V72.844H374.28ZM380.598 66.868V63.754H378.33V66.868H372.12V75.94H374.28V74.95H378.33V80.566H380.598V74.95H384.666V75.85H386.916V66.868H380.598ZM395.538 72.808H394.332V71.656H395.538V72.808ZM396.978 70.522H392.964V73.942H396.978V70.522ZM391.848 77.956V66.436H400.542L399.696 67.282C400.164 67.534 400.704 67.912 401.082 68.236H399.138C399.102 67.732 399.084 67.228 399.066 66.706H397.302C397.338 67.228 397.356 67.732 397.392 68.236H392.514V69.748H397.518C397.68 71.53 397.914 73.168 398.292 74.464C398.004 74.788 397.716 75.094 397.392 75.364L397.356 74.464C395.484 74.716 393.612 74.932 392.298 75.076L392.496 76.642C393.684 76.444 395.088 76.246 396.528 76.03C396.348 76.156 396.15 76.282 395.952 76.39C396.312 76.678 396.888 77.362 397.122 77.686C397.806 77.254 398.418 76.732 398.994 76.156C399.354 76.75 399.804 77.164 400.344 77.344C401.532 77.884 402.468 77.2 402.756 74.986C402.396 74.788 401.748 74.302 401.424 73.978C401.352 75.022 401.208 75.724 401.01 75.652C400.686 75.58 400.416 75.238 400.182 74.698C400.992 73.51 401.64 72.142 402.072 70.576L400.434 70.252C400.218 71.062 399.948 71.8 399.588 72.502C399.444 71.692 399.336 70.756 399.246 69.748H402.468V68.236H401.604L402.324 67.48C402 67.138 401.388 66.724 400.812 66.436H403.044V77.956H391.848ZM389.814 64.51V80.62H391.848V79.864H403.044V80.62H405.168V64.51H389.814ZM387.222 122.12V120.302H380.202C380.256 119.996 380.31 119.69 380.346 119.366H387.744V117.512H380.58V116.558H386.088V114.758H380.58V113.84H386.952V111.95H383.496C383.892 111.428 384.306 110.834 384.702 110.204L382.398 109.61C382.11 110.312 381.57 111.248 381.12 111.95H377.16L377.682 111.716C377.448 111.104 376.89 110.24 376.332 109.61L374.424 110.366C374.784 110.834 375.162 111.41 375.432 111.95H372.012V113.84H378.366V114.758H373.038V116.558H378.366V117.512H371.454V119.366H378.078C378.042 119.69 377.988 120.014 377.934 120.302H371.868V122.12H377.232C376.386 123.326 374.694 124.136 371.076 124.622C371.49 125.072 371.994 125.972 372.138 126.548C376.944 125.756 378.87 124.334 379.734 122.12H380.382L379.572 123.47C381.894 124.316 385.188 125.702 386.772 126.602L387.78 124.766C386.286 123.974 383.442 122.876 381.282 122.12H387.222ZM395.538 118.808H394.332V117.656H395.538V118.808ZM396.978 116.522H392.964V119.942H396.978V116.522ZM391.848 123.956V112.436H400.542L399.696 113.282C400.164 113.534 400.704 113.912 401.082 114.236H399.138C399.102 113.732 399.084 113.228 399.066 112.706H397.302C397.338 113.228 397.356 113.732 397.392 114.236H392.514V115.748H397.518C397.68 117.53 397.914 119.168 398.292 120.464C398.004 120.788 397.716 121.094 397.392 121.364L397.356 120.464C395.484 120.716 393.612 120.932 392.298 121.076L392.496 122.642C393.684 122.444 395.088 122.246 396.528 122.03C396.348 122.156 396.15 122.282 395.952 122.39C396.312 122.678 396.888 123.362 397.122 123.686C397.806 123.254 398.418 122.732 398.994 122.156C399.354 122.75 399.804 123.164 400.344 123.344C401.532 123.884 402.468 123.2 402.756 120.986C402.396 120.788 401.748 120.302 401.424 119.978C401.352 121.022 401.208 121.724 401.01 121.652C400.686 121.58 400.416 121.238 400.182 120.698C400.992 119.51 401.64 118.142 402.072 116.576L400.434 116.252C400.218 117.062 399.948 117.8 399.588 118.502C399.444 117.692 399.336 116.756 399.246 115.748H402.468V114.236H401.604L402.324 113.48C402 113.138 401.388 112.724 400.812 112.436H403.044V123.956H391.848ZM389.814 110.51V126.62H391.848V125.864H403.044V126.62H405.168V110.51H389.814ZM375.504 169.02V164.988H383.496V169.02H375.504ZM383.496 158.994V162.864H375.504V158.994H383.496ZM373.29 156.834V172.35H375.504V171.18H383.496V172.314H385.8V156.834H373.29ZM398.634 167.346V161.424H398.706C399.498 163.62 400.56 165.654 401.838 167.346H398.634ZM393.054 167.346C394.35 165.654 395.448 163.62 396.24 161.424H396.366V167.346H393.054ZM405.42 161.424V159.246H398.634V155.772H396.366V159.246H389.616V161.424H394.026C392.91 164.142 391.074 166.716 388.986 168.156C389.49 168.552 390.174 169.362 390.552 169.902C391.272 169.326 391.956 168.66 392.586 167.922V169.524H396.366V172.566H398.634V169.524H402.342V167.958C402.936 168.66 403.566 169.29 404.25 169.812C404.628 169.218 405.384 168.372 405.942 167.94C403.836 166.518 402.018 164.052 400.884 161.424H405.42ZM382.272 206.596H384.45V205.12H387.33V203.302H384.45V201.772H382.272V203.302H379.914V205.12H382.272V206.596ZM374.658 206.668H376.818V205.138H379.122V203.32H376.818V201.772H374.658V203.32H371.688V205.138H374.658V206.668ZM375.216 211.546V209.206H378.312V211.042C378.312 211.204 378.312 211.384 378.294 211.546H375.216ZM383.784 209.206V211.546H380.49C380.508 211.384 380.508 211.24 380.508 211.078V209.206H383.784ZM387.6 213.526V211.546H385.962V207.352H380.508V205.786H378.312V207.352H373.146V211.546H371.346V213.526H377.718C376.908 214.876 375.054 216.046 371.022 216.784C371.49 217.252 372.084 218.098 372.318 218.566C377.25 217.486 379.374 215.668 380.13 213.526H387.6ZM379.788 215.092C382.092 216.046 385.188 217.594 386.718 218.602L387.798 216.856C386.214 215.848 383.01 214.426 380.796 213.598L379.788 215.092ZM395.538 210.808H394.332V209.656H395.538V210.808ZM396.978 208.522H392.964V211.942H396.978V208.522ZM391.848 215.956V204.436H400.542L399.696 205.282C400.164 205.534 400.704 205.912 401.082 206.236H399.138C399.102 205.732 399.084 205.228 399.066 204.706H397.302C397.338 205.228 397.356 205.732 397.392 206.236H392.514V207.748H397.518C397.68 209.53 397.914 211.168 398.292 212.464C398.004 212.788 397.716 213.094 397.392 213.364L397.356 212.464C395.484 212.716 393.612 212.932 392.298 213.076L392.496 214.642C393.684 214.444 395.088 214.246 396.528 214.03C396.348 214.156 396.15 214.282 395.952 214.39C396.312 214.678 396.888 215.362 397.122 215.686C397.806 215.254 398.418 214.732 398.994 214.156C399.354 214.75 399.804 215.164 400.344 215.344C401.532 215.884 402.468 215.2 402.756 212.986C402.396 212.788 401.748 212.302 401.424 211.978C401.352 213.022 401.208 213.724 401.01 213.652C400.686 213.58 400.416 213.238 400.182 212.698C400.992 211.51 401.64 210.142 402.072 208.576L400.434 208.252C400.218 209.062 399.948 209.8 399.588 210.502C399.444 209.692 399.336 208.756 399.246 207.748H402.468V206.236H401.604L402.324 205.48C402 205.138 401.388 204.724 400.812 204.436H403.044V215.956H391.848ZM389.814 202.51V218.62H391.848V217.864H403.044V218.62H405.168V202.51H389.814Z" fill="#E11C1C"/>
<path d="M444.33 67.03H446.634C448.758 67.03 449.928 67.678 449.928 69.478C449.928 71.242 448.758 72.088 446.634 72.088H444.33V67.03ZM451.764 79L448.362 73.168C450.216 72.754 451.422 71.548 451.422 69.478C451.422 66.778 449.55 65.824 446.868 65.824H442.836V79H444.33V73.312H446.796L450.09 79H451.764ZM454.121 79H455.471V71.386C455.471 70.27 455.363 68.722 455.291 67.57H455.363L456.407 70.558L458.999 77.65H460.025L462.599 70.558L463.643 67.57H463.715C463.643 68.722 463.535 70.27 463.535 71.386V79H464.921V65.824H463.085L460.511 73.024C460.205 73.96 459.917 74.896 459.593 75.832H459.503C459.179 74.896 458.873 73.96 458.549 73.024L455.957 65.824H454.121V79ZM468.588 79H472.692C475.644 79 477.678 77.722 477.678 75.148C477.678 73.348 476.562 72.286 474.942 71.98V71.908C476.202 71.494 476.904 70.36 476.904 69.046C476.904 66.76 475.086 65.824 472.404 65.824H468.588V79ZM470.082 71.476V67.012H472.188C474.33 67.012 475.428 67.606 475.428 69.226C475.428 70.612 474.474 71.476 472.098 71.476H470.082ZM470.082 77.812V72.628H472.458C474.852 72.628 476.22 73.402 476.22 75.094C476.22 76.966 474.798 77.812 472.458 77.812H470.082ZM483.978 79H491.988V76.858H489.486V65.68H487.524C486.678 66.202 485.76 66.544 484.428 66.796V68.434H486.84V76.858H483.978V79ZM498.412 79.252C501.112 79.252 502.912 76.876 502.912 72.286C502.912 67.696 501.112 65.428 498.412 65.428C495.694 65.428 493.894 67.678 493.894 72.286C493.894 76.876 495.694 79.252 498.412 79.252ZM498.412 77.182C497.26 77.182 496.396 76.03 496.396 72.286C496.396 68.56 497.26 67.48 498.412 67.48C499.546 67.48 500.41 68.56 500.41 72.286C500.41 76.03 499.546 77.182 498.412 77.182ZM506.617 79.252C507.571 79.252 508.273 78.496 508.273 77.524C508.273 76.552 507.571 75.796 506.617 75.796C505.681 75.796 504.979 76.552 504.979 77.524C504.979 78.496 505.681 79.252 506.617 79.252ZM514.523 79.252C516.989 79.252 519.185 77.542 519.185 74.572C519.185 71.674 517.313 70.342 515.081 70.342C514.469 70.342 514.001 70.468 513.479 70.72L513.731 67.894H518.573V65.68H511.445L511.085 72.142L512.291 72.934C513.065 72.43 513.497 72.232 514.289 72.232C515.639 72.232 516.539 73.096 516.539 74.644C516.539 76.21 515.567 77.092 514.181 77.092C512.939 77.092 512.003 76.48 511.247 75.742L510.023 77.434C511.013 78.424 512.417 79.252 514.523 79.252ZM444.33 113.03H446.634C448.758 113.03 449.928 113.678 449.928 115.478C449.928 117.242 448.758 118.088 446.634 118.088H444.33V113.03ZM451.764 125L448.362 119.168C450.216 118.754 451.422 117.548 451.422 115.478C451.422 112.778 449.55 111.824 446.868 111.824H442.836V125H444.33V119.312H446.796L450.09 125H451.764ZM454.121 125H455.471V117.386C455.471 116.27 455.363 114.722 455.291 113.57H455.363L456.407 116.558L458.999 123.65H460.025L462.599 116.558L463.643 113.57H463.715C463.643 114.722 463.535 116.27 463.535 117.386V125H464.921V111.824H463.085L460.511 119.024C460.205 119.96 459.917 120.896 459.593 121.832H459.503C459.179 120.896 458.873 119.96 458.549 119.024L455.957 111.824H454.121V125ZM468.588 125H472.692C475.644 125 477.678 123.722 477.678 121.148C477.678 119.348 476.562 118.286 474.942 117.98V117.908C476.202 117.494 476.904 116.36 476.904 115.046C476.904 112.76 475.086 111.824 472.404 111.824H468.588V125ZM470.082 117.476V113.012H472.188C474.33 113.012 475.428 113.606 475.428 115.226C475.428 116.612 474.474 117.476 472.098 117.476H470.082ZM470.082 123.812V118.628H472.458C474.852 118.628 476.22 119.402 476.22 121.094C476.22 122.966 474.798 123.812 472.458 123.812H470.082ZM483.978 125H491.988V122.858H489.486V111.68H487.524C486.678 112.202 485.76 112.544 484.428 112.796V114.434H486.84V122.858H483.978V125ZM496.054 119.528L498.124 116.216C498.502 115.496 498.862 114.758 499.186 114.056H499.258C499.222 114.83 499.15 116.036 499.15 116.81V119.528H496.054ZM503.2 119.528H501.616V111.68H498.448L493.48 119.744V121.544H499.15V125H501.616V121.544H503.2V119.528ZM506.617 125.252C507.571 125.252 508.273 124.496 508.273 123.524C508.273 122.552 507.571 121.796 506.617 121.796C505.681 121.796 504.979 122.552 504.979 123.524C504.979 124.496 505.681 125.252 506.617 125.252ZM514.847 125.252C517.547 125.252 519.329 123.704 519.329 121.688C519.329 119.87 518.321 118.79 517.097 118.124V118.034C517.979 117.404 518.807 116.306 518.807 114.992C518.807 112.868 517.295 111.446 514.937 111.446C512.615 111.446 510.923 112.814 510.923 114.956C510.923 116.378 511.661 117.386 512.687 118.124V118.214C511.445 118.88 510.401 119.978 510.401 121.688C510.401 123.776 512.309 125.252 514.847 125.252ZM515.693 117.386C514.289 116.828 513.263 116.216 513.263 114.956C513.263 113.894 513.983 113.3 514.883 113.3C515.999 113.3 516.647 114.074 516.647 115.154C516.647 115.946 516.341 116.702 515.693 117.386ZM514.919 123.38C513.677 123.38 512.687 122.606 512.687 121.4C512.687 120.41 513.191 119.51 513.911 118.934C515.639 119.636 516.863 120.212 516.863 121.598C516.863 122.75 516.035 123.38 514.919 123.38ZM444.33 159.03H446.634C448.758 159.03 449.928 159.678 449.928 161.478C449.928 163.242 448.758 164.088 446.634 164.088H444.33V159.03ZM451.764 171L448.362 165.168C450.216 164.754 451.422 163.548 451.422 161.478C451.422 158.778 449.55 157.824 446.868 157.824H442.836V171H444.33V165.312H446.796L450.09 171H451.764ZM454.121 171H455.471V163.386C455.471 162.27 455.363 160.722 455.291 159.57H455.363L456.407 162.558L458.999 169.65H460.025L462.599 162.558L463.643 159.57H463.715C463.643 160.722 463.535 162.27 463.535 163.386V171H464.921V157.824H463.085L460.511 165.024C460.205 165.96 459.917 166.896 459.593 167.832H459.503C459.179 166.896 458.873 165.96 458.549 165.024L455.957 157.824H454.121V171ZM468.588 171H472.692C475.644 171 477.678 169.722 477.678 167.148C477.678 165.348 476.562 164.286 474.942 163.98V163.908C476.202 163.494 476.904 162.36 476.904 161.046C476.904 158.76 475.086 157.824 472.404 157.824H468.588V171ZM470.082 163.476V159.012H472.188C474.33 159.012 475.428 159.606 475.428 161.226C475.428 162.612 474.474 163.476 472.098 163.476H470.082ZM470.082 169.812V164.628H472.458C474.852 164.628 476.22 165.402 476.22 167.094C476.22 168.966 474.798 169.812 472.458 169.812H470.082ZM483.276 171H492.204V168.768H489.306C488.694 168.768 487.812 168.84 487.146 168.912C489.576 166.536 491.574 163.944 491.574 161.532C491.574 159.048 489.9 157.428 487.38 157.428C485.562 157.428 484.374 158.148 483.15 159.444L484.59 160.884C485.256 160.146 486.066 159.516 487.038 159.516C488.298 159.516 489.036 160.326 489.036 161.676C489.036 163.728 486.894 166.23 483.276 169.47V171ZM493.876 171H502.804V168.768H499.906C499.294 168.768 498.412 168.84 497.746 168.912C500.176 166.536 502.174 163.944 502.174 161.532C502.174 159.048 500.5 157.428 497.98 157.428C496.162 157.428 494.974 158.148 493.75 159.444L495.19 160.884C495.856 160.146 496.666 159.516 497.638 159.516C498.898 159.516 499.636 160.326 499.636 161.676C499.636 163.728 497.494 166.23 493.876 169.47V171ZM506.617 171.252C507.571 171.252 508.273 170.496 508.273 169.524C508.273 168.552 507.571 167.796 506.617 167.796C505.681 167.796 504.979 168.552 504.979 169.524C504.979 170.496 505.681 171.252 506.617 171.252ZM512.903 171H515.585C515.801 165.78 516.215 163.062 519.311 159.282V157.68H510.455V159.894H516.449C513.911 163.422 513.137 166.374 512.903 171ZM444.33 205.03H446.634C448.758 205.03 449.928 205.678 449.928 207.478C449.928 209.242 448.758 210.088 446.634 210.088H444.33V205.03ZM451.764 217L448.362 211.168C450.216 210.754 451.422 209.548 451.422 207.478C451.422 204.778 449.55 203.824 446.868 203.824H442.836V217H444.33V211.312H446.796L450.09 217H451.764ZM454.121 217H455.471V209.386C455.471 208.27 455.363 206.722 455.291 205.57H455.363L456.407 208.558L458.999 215.65H460.025L462.599 208.558L463.643 205.57H463.715C463.643 206.722 463.535 208.27 463.535 209.386V217H464.921V203.824H463.085L460.511 211.024C460.205 211.96 459.917 212.896 459.593 213.832H459.503C459.179 212.896 458.873 211.96 458.549 211.024L455.957 203.824H454.121V217ZM468.588 217H472.692C475.644 217 477.678 215.722 477.678 213.148C477.678 211.348 476.562 210.286 474.942 209.98V209.908C476.202 209.494 476.904 208.36 476.904 207.046C476.904 204.76 475.086 203.824 472.404 203.824H468.588V217ZM470.082 209.476V205.012H472.188C474.33 205.012 475.428 205.606 475.428 207.226C475.428 208.612 474.474 209.476 472.098 209.476H470.082ZM470.082 215.812V210.628H472.458C474.852 210.628 476.22 211.402 476.22 213.094C476.22 214.966 474.798 215.812 472.458 215.812H470.082ZM483.978 217H491.988V214.858H489.486V203.68H487.524C486.678 204.202 485.76 204.544 484.428 204.796V206.434H486.84V214.858H483.978V217ZM496.45 217H499.132C499.348 211.78 499.762 209.062 502.858 205.282V203.68H494.002V205.894H499.996C497.458 209.422 496.684 212.374 496.45 217ZM506.617 217.252C507.571 217.252 508.273 216.496 508.273 215.524C508.273 214.552 507.571 213.796 506.617 213.796C505.681 213.796 504.979 214.552 504.979 215.524C504.979 216.496 505.681 217.252 506.617 217.252ZM510.329 217H519.257V214.768H516.359C515.747 214.768 514.865 214.84 514.199 214.912C516.629 212.536 518.627 209.944 518.627 207.532C518.627 205.048 516.953 203.428 514.433 203.428C512.615 203.428 511.427 204.148 510.203 205.444L511.643 206.884C512.309 206.146 513.119 205.516 514.091 205.516C515.351 205.516 516.089 206.326 516.089 207.676C516.089 209.728 513.947 212.23 510.329 215.47V217Z" fill="#1E1E1E"/>
<path d="M361 95H568" stroke="#E11C1C"/>
<path d="M361 140H568" stroke="#E11C1C"/>
<path d="M361 186H568" stroke="#E11C1C"/>
<path d="M427 47L427 232" stroke="#E11C1C"/>
</svg>
