<svg width="613" height="236" viewBox="0 0 613 236" fill="none" xmlns="http://www.w3.org/2000/svg">
<path d="M0.666667 90C0.666667 92.9455 3.05448 95.3333 6 95.3333C8.94552 95.3333 11.3333 92.9455 11.3333 90C11.3333 87.0545 8.94552 84.6667 6 84.6667C3.05448 84.6667 0.666667 87.0545 0.666667 90ZM29.2127 22V21H28.4974L28.2663 21.6769L29.2127 22ZM6.94638 90.3231L30.159 22.3231L28.2663 21.6769L5.05362 89.6769L6.94638 90.3231ZM29.2127 23H352V21H29.2127V23Z" fill="#1E1E1E"/>
<path d="M375.128 19.548C374.868 17.754 374.166 14.66 373.516 12.268L371.28 13.074C371.852 15.518 372.476 18.69 372.71 20.588L375.128 19.548ZM379.678 18.742C380.432 17.182 381.264 14.66 382.122 12.606L379.418 11.67C379.184 13.308 378.612 15.492 378.092 17.156V8.29H375.232V17.208C375.232 21.758 374.816 26.698 371.254 30.26C371.878 30.754 372.892 31.872 373.36 32.574C375.31 30.624 376.48 28.362 377.13 25.97C377.988 27.296 378.924 28.778 379.418 29.844L381.602 27.556C381.056 26.828 378.742 23.578 377.832 22.512C378.014 21.056 378.066 19.548 378.092 18.066L379.678 18.742ZM395.616 14.998V12.138H386.152C386.516 10.942 386.828 9.772 387.062 8.55L384.072 7.978C383.344 11.774 381.966 15.674 380.198 18.066C380.9 18.482 382.174 19.444 382.694 19.938C383.63 18.612 384.436 16.896 385.19 14.998H385.476V32.288H388.57V26.204H395.07V23.396H388.57V20.458H395.018V17.676H388.57V14.998H395.616ZM409.942 22.798C409.552 21.654 408.694 19.912 407.784 18.638L405.704 19.496C405.938 19.86 406.172 20.25 406.354 20.64L402.818 20.926C404.56 19.782 406.302 18.456 407.966 16.922L406.146 15.518C405.47 16.194 404.742 16.87 404.014 17.494L401.752 17.52C402.558 16.896 403.364 16.194 404.04 15.492L403.234 14.894L405.184 14.062C405.028 13.36 404.586 12.268 404.17 11.488C406.042 11.202 407.81 10.864 409.266 10.396L408.122 8.186C405.522 9.018 401.284 9.616 397.644 9.902C397.878 10.5 398.138 11.436 398.216 12.086C400.088 11.982 402.168 11.8 404.17 11.488L402.142 12.32C402.506 13.074 402.87 14.062 403.026 14.764L402.194 14.166C401.206 15.466 399.828 16.558 399.386 16.87C398.97 17.182 398.58 17.39 398.268 17.494C398.45 18.144 398.762 19.34 398.866 19.86C399.178 19.73 399.62 19.626 401.284 19.548C400.738 19.938 400.296 20.224 400.01 20.38C399.126 20.926 398.528 21.264 397.93 21.342C398.138 22.018 398.424 23.24 398.502 23.708C398.97 23.526 399.568 23.396 402.298 23.11C402.246 23.63 402.22 24.072 402.168 24.514H397.67V26.75H401.674C401.05 28.31 399.828 29.376 397.254 30.104C397.8 30.598 398.502 31.612 398.736 32.288C401.128 31.508 402.61 30.468 403.52 29.012C405.106 30.052 406.822 31.3 407.706 32.21L409.448 30.338C408.356 29.298 406.198 27.92 404.43 26.906L404.456 26.75H409.344V24.514H404.846C404.898 23.968 404.95 23.448 404.976 22.85H404.872L407.316 22.616C407.498 23.058 407.628 23.448 407.732 23.786L409.942 22.798ZM401.154 14.764C400.998 14.01 400.556 12.892 400.088 12.06L398.086 12.866C398.476 13.724 398.892 14.946 398.996 15.7L401.154 14.764ZM407.732 15.362C408.278 14.478 408.902 13.23 409.5 11.904L407.472 11.15C407.108 12.216 406.432 13.698 405.938 14.66L407.732 15.362ZM413.452 25.892H415.662V28.362H413.452V25.892ZM415.662 18.196H413.452V15.934H415.662V18.196ZM415.662 23.292H413.452V20.796H415.662V23.292ZM421.616 28.362H418.418V25.892H420.914V23.292H418.418V20.796H420.914V18.196H418.418V15.934H421.278V13.178H418.522L419.718 12.762C419.354 11.696 418.6 10.032 417.924 8.784L415.376 9.538C415.922 10.682 416.52 12.086 416.884 13.178H413.556C414.128 11.748 414.622 10.214 415.038 8.706L412.1 8.004C411.294 11.566 409.786 15.076 407.862 17.26C408.46 17.832 409.5 19.106 409.89 19.704C410.176 19.392 410.436 19.054 410.696 18.69V32.262H413.452V31.17H421.616V28.362ZM446.212 19.782C445.666 20.354 444.808 21.108 444.028 21.706C443.248 20.874 442.546 20.198 442.156 19.86L440.7 20.978C442.052 22.564 444.964 26.126 446.03 27.894L447.876 25.892C447.512 25.45 446.55 24.384 445.484 23.266C446.212 22.824 447.044 22.304 447.772 21.758L446.212 19.782ZM443.716 11.462V13.022H440.206V11.462H443.716ZM440.206 17.026V15.388H443.716V17.026H440.206ZM440.206 25.06V19.47H446.316V9.018H437.658V24.826C437.658 25.658 437.398 25.788 437.008 25.892C437.346 26.49 437.632 27.634 437.71 28.284C438.178 27.998 438.984 27.686 443.17 26.672C443.144 26.126 443.17 25.164 443.248 24.462L440.206 25.06ZM436.02 12.45C435.734 11.332 435.266 9.616 434.876 8.264L432.536 8.81C432.874 10.188 433.368 11.956 433.628 13.126L436.02 12.45ZM426.946 16.402C427.466 17.078 427.934 17.78 428.22 18.248L428.948 17.754V20.51C428.168 21.056 427.466 21.55 426.868 21.94C426.92 20.588 426.946 19.288 426.946 18.17V16.402ZM428.948 11.67V15.648C428.584 15.232 428.22 14.79 427.856 14.4L426.946 14.998V11.67H428.948ZM436.28 19.834L435.864 19.912H435.188C435.708 18.066 436.28 15.882 436.748 14.036H431.86V16.714H433.784C433.29 18.69 432.692 20.77 432.198 22.252H434.564C434.2 23.994 433.706 25.814 433.108 27.192C432.562 27.504 431.938 27.998 431.34 28.57V8.888H424.528V18.196C424.528 21.914 424.424 27.062 423.072 30.65C423.592 30.962 424.632 31.794 425.048 32.288C426.14 29.636 426.634 26.022 426.816 22.694L427.622 24.592L428.948 23.318V29.35C428.948 29.688 428.87 29.766 428.584 29.766C428.298 29.766 427.44 29.792 426.556 29.74C426.894 30.442 427.206 31.586 427.258 32.288C428.792 32.288 429.754 32.236 430.456 31.768C430.794 31.56 431.002 31.274 431.158 30.91L432.198 32.392C432.848 30.962 433.784 29.272 434.408 29.272C434.902 29.272 435.682 30.026 436.618 30.65C438.1 31.586 439.712 32.002 442.026 32.002C443.716 32.002 446.238 31.924 447.538 31.82C447.564 31.066 447.928 29.662 448.214 28.934C446.446 29.168 443.768 29.324 442.078 29.324C439.946 29.324 438.334 29.038 436.982 28.18C436.384 27.816 435.916 27.4 435.474 27.14C436.332 25.164 436.982 22.616 437.398 20.224L436.28 19.834Z" fill="#1E1E1E"/>
<path d="M457.2 33.71L458.172 33.188C456.048 31.01 454.788 28.328 454.788 25.16C454.788 21.992 456.048 19.31 458.172 17.132L457.2 16.61C455.004 18.86 453.618 21.704 453.618 25.16C453.618 28.616 455.004 31.46 457.2 33.71ZM472.896 30.2C471.87 29.228 469.836 27.734 468.234 26.654C468.486 26.006 468.666 25.34 468.81 24.656H467.568C467.118 26.834 466.074 29.084 462.762 30.182C463.032 30.38 463.338 30.812 463.464 31.064C465.642 30.272 466.92 29.084 467.73 27.662C469.296 28.76 471.096 30.164 472.032 31.082L472.896 30.2ZM475.182 19.634H468.648C468.81 18.824 468.9 17.942 468.972 17.024H467.712C467.64 17.96 467.55 18.824 467.388 19.634H460.818V33.368H462.006V20.804H467.118C466.488 22.676 465.336 24.116 462.852 25.016C463.104 25.214 463.428 25.628 463.554 25.898C465.624 25.124 466.884 23.99 467.676 22.55C469.332 23.522 471.24 24.818 472.23 25.664L473.04 24.746C471.924 23.864 469.836 22.514 468.126 21.542C468.234 21.308 468.306 21.074 468.36 20.804H474.012V31.748C474.012 32.09 473.922 32.18 473.598 32.198C473.256 32.216 472.122 32.216 470.898 32.162C471.06 32.522 471.222 33.044 471.276 33.404C472.788 33.404 473.868 33.386 474.444 33.17C475.002 32.972 475.182 32.576 475.182 31.766V19.634ZM490.572 19.328H481.392V18.284H490.572V19.328ZM490.572 21.128H481.392V20.066H490.572V21.128ZM491.742 17.546H480.24V21.884H491.742V17.546ZM494.01 22.676H478.008V23.594H494.01V22.676ZM481.05 28.148V27.05H485.406V28.148H481.05ZM481.05 25.25H485.406V26.312H481.05V25.25ZM491.112 26.312H486.54V25.25H491.112V26.312ZM491.112 28.148H486.54V27.05H491.112V28.148ZM486.54 31.964V30.848H492.696V29.984H486.54V28.922H492.282V24.458H479.916V28.922H485.406V29.984H479.376V30.848H485.406V31.964H477.9V32.9H494.118V31.964H486.54ZM504 22.118C504.684 22.118 505.296 21.614 505.296 20.84C505.296 20.03 504.684 19.544 504 19.544C503.316 19.544 502.704 20.03 502.704 20.84C502.704 21.614 503.316 22.118 504 22.118ZM504 30.974C504.684 30.974 505.296 30.47 505.296 29.678C505.296 28.886 504.684 28.382 504 28.382C503.316 28.382 502.704 28.886 502.704 29.678C502.704 30.47 503.316 30.974 504 30.974ZM521.208 17.186C519.552 17.726 516.528 18.086 514.062 18.266C514.17 18.518 514.278 18.896 514.314 19.166C516.798 19.022 519.858 18.68 521.712 18.068L521.208 17.186ZM520.614 21.56C521.028 20.93 521.55 19.976 521.946 19.094L521.1 18.716C520.812 19.472 520.29 20.552 519.912 21.218L520.614 21.56ZM518.724 20.966C518.616 20.426 518.292 19.598 517.986 18.986L517.158 19.328C517.464 19.958 517.77 20.804 517.878 21.344L518.724 20.966ZM516.024 21.308C515.916 20.786 515.574 19.958 515.232 19.364L514.404 19.688C514.728 20.318 515.052 21.164 515.16 21.722L516.024 21.308ZM517.572 26.996C517.536 27.482 517.5 27.968 517.428 28.382H513.954V29.318H517.23C516.798 30.884 515.844 31.91 513.666 32.522C513.9 32.72 514.206 33.116 514.314 33.386C516.186 32.81 517.23 31.946 517.86 30.704C519.066 31.478 520.362 32.486 521.028 33.188L521.73 32.432C520.974 31.676 519.48 30.596 518.202 29.822C518.256 29.66 518.292 29.498 518.328 29.318H521.928V28.382H518.508C518.58 27.95 518.616 27.482 518.652 26.996H517.572ZM519.48 24.458C519.75 24.782 520.002 25.178 520.254 25.574L516.366 25.934C517.806 24.998 519.246 23.828 520.632 22.46L519.858 21.866C519.354 22.406 518.796 22.946 518.238 23.414L515.898 23.504C516.582 22.946 517.302 22.208 517.95 21.434L517.122 20.894C516.438 21.92 515.394 22.874 515.106 23.09C514.818 23.342 514.548 23.486 514.35 23.54C514.458 23.828 514.566 24.35 514.602 24.584C514.818 24.494 515.178 24.422 517.158 24.314C516.474 24.854 515.898 25.286 515.61 25.466C515.034 25.844 514.584 26.096 514.224 26.15C514.332 26.456 514.458 26.978 514.494 27.212C514.854 27.032 515.412 26.96 520.758 26.42C520.938 26.762 521.1 27.122 521.208 27.392L522.108 26.978C521.784 26.168 521.046 24.962 520.326 24.08L519.48 24.458ZM523.962 28.796H526.338V31.388H523.962V28.796ZM526.338 24.134H523.962V21.65H526.338V24.134ZM526.338 27.752H523.962V25.178H526.338V27.752ZM530.19 31.388H527.436V28.796H529.668V27.752H527.436V25.178H529.668V24.134H527.436V21.65H530.01V20.552H527.382L528.228 20.228C527.94 19.472 527.346 18.302 526.806 17.42L525.816 17.744C526.302 18.608 526.896 19.778 527.166 20.552H524.052C524.466 19.49 524.826 18.356 525.114 17.24L523.98 16.97C523.368 19.58 522.324 22.154 520.974 23.828C521.244 24.044 521.658 24.512 521.838 24.728C522.216 24.26 522.54 23.702 522.882 23.09V33.35H523.962V32.486H530.19V31.388ZM543.546 25.574C544.464 26.528 546.948 29.372 547.704 30.452L548.496 29.66C548.154 29.264 547.272 28.292 546.372 27.32C546.93 26.888 547.578 26.348 548.154 25.808L547.47 25.052C547.056 25.538 546.354 26.204 545.76 26.708C545.094 25.97 544.482 25.34 544.176 25.052L543.546 25.574ZM546.084 18.734V20.552H542.826V18.734H546.084ZM542.826 23.432V21.542H546.084V23.432H542.826ZM542.826 29.426V24.44H547.128V17.726H541.8V29.156C541.8 29.732 541.548 29.822 541.314 29.894C541.476 30.128 541.638 30.614 541.674 30.902C541.926 30.722 542.376 30.542 545.454 29.678C545.418 29.462 545.4 29.084 545.4 28.814L542.826 29.426ZM540.036 19.994C539.838 19.238 539.478 18.086 539.208 17.168L538.254 17.366C538.506 18.284 538.884 19.49 539.064 20.264L540.036 19.994ZM533.772 18.734H535.986V22.91C535.626 22.406 535.05 21.722 534.51 21.164L533.808 21.632C534.348 22.208 534.996 23.054 535.338 23.612L535.986 23.126V25.592C535.104 26.132 534.276 26.636 533.682 26.96C533.754 25.898 533.772 24.872 533.772 23.972V18.734ZM540.54 25.412L540.36 25.448H539.37C539.82 24.206 540.342 22.64 540.756 21.344H537.642V22.406H539.46C539.046 23.81 538.506 25.358 538.074 26.42H539.892C539.604 27.77 539.154 29.318 538.614 30.38C538.11 30.65 537.552 31.244 536.976 32.018V31.946V17.618H532.782V23.972C532.782 26.582 532.692 30.128 531.594 32.666C531.828 32.774 532.242 33.152 532.386 33.368C533.214 31.532 533.556 29.156 533.682 26.978L534.168 27.95C534.762 27.518 535.374 27.068 535.986 26.636V31.928C535.986 32.18 535.896 32.27 535.68 32.27C535.464 32.27 534.744 32.288 533.898 32.252C534.042 32.558 534.168 33.008 534.204 33.278C535.374 33.278 536.022 33.26 536.436 33.08C536.616 32.99 536.742 32.846 536.832 32.702L537.444 33.44C538.056 32.27 538.704 31.208 539.154 31.208C539.55 31.208 540.072 31.748 540.72 32.234C541.764 32.954 542.916 33.224 544.572 33.224C545.76 33.224 547.776 33.17 548.64 33.098C548.658 32.792 548.82 32.234 548.946 31.946C547.686 32.09 545.868 32.162 544.59 32.162C543.042 32.162 541.962 31.946 540.99 31.316C540.378 30.902 540 30.524 539.604 30.326C540.252 29.03 540.756 27.194 541.062 25.61L540.54 25.412ZM562.896 30.2C561.87 29.228 559.836 27.734 558.234 26.654C558.486 26.006 558.666 25.34 558.81 24.656H557.568C557.118 26.834 556.074 29.084 552.762 30.182C553.032 30.38 553.338 30.812 553.464 31.064C555.642 30.272 556.92 29.084 557.73 27.662C559.296 28.76 561.096 30.164 562.032 31.082L562.896 30.2ZM565.182 19.634H558.648C558.81 18.824 558.9 17.942 558.972 17.024H557.712C557.64 17.96 557.55 18.824 557.388 19.634H550.818V33.368H552.006V20.804H557.118C556.488 22.676 555.336 24.116 552.852 25.016C553.104 25.214 553.428 25.628 553.554 25.898C555.624 25.124 556.884 23.99 557.676 22.55C559.332 23.522 561.24 24.818 562.23 25.664L563.04 24.746C561.924 23.864 559.836 22.514 558.126 21.542C558.234 21.308 558.306 21.074 558.36 20.804H564.012V31.748C564.012 32.09 563.922 32.18 563.598 32.198C563.256 32.216 562.122 32.216 560.898 32.162C561.06 32.522 561.222 33.044 561.276 33.404C562.788 33.404 563.868 33.386 564.444 33.17C565.002 32.972 565.182 32.576 565.182 31.766V19.634ZM571.716 32.234C574.02 32.234 575.856 30.83 575.856 28.49C575.856 26.672 574.596 25.484 573.048 25.124V25.052C574.452 24.548 575.406 23.486 575.406 21.848C575.406 19.76 573.822 18.59 571.662 18.572C570.15 18.59 568.998 19.256 568.026 20.138L568.836 21.092C569.574 20.336 570.528 19.778 571.608 19.76C573.03 19.778 573.912 20.642 573.912 21.956C573.912 23.432 572.958 24.566 570.204 24.566V25.718C573.264 25.718 574.38 26.816 574.38 28.454C574.38 30.02 573.228 31.01 571.626 31.01C570.06 31.01 569.07 30.272 568.296 29.48L567.54 30.434C568.386 31.352 569.664 32.234 571.716 32.234ZM590.145 24.998C589.191 26.834 587.751 28.256 585.951 29.372C584.205 28.22 582.855 26.762 581.919 24.998H590.145ZM591.063 23.792L590.829 23.828H586.473V20.948H593.385V19.778H586.473V16.97H585.249V19.778H578.337V20.948H585.249V23.828H579.147V24.998H581.037L580.695 25.124C581.685 27.122 583.053 28.742 584.799 30.002C582.693 31.1 580.227 31.802 577.635 32.234C577.851 32.486 578.175 33.044 578.301 33.368C581.037 32.828 583.647 32.018 585.897 30.74C587.985 31.982 590.505 32.828 593.439 33.278C593.601 32.936 593.925 32.432 594.177 32.144C591.441 31.784 589.065 31.064 587.067 30.02C589.155 28.616 590.829 26.744 591.873 24.296L591.063 23.792ZM596.679 16.61L595.707 17.132C597.831 19.31 599.091 21.992 599.091 25.16C599.091 28.328 597.831 31.01 595.707 33.188L596.679 33.71C598.875 31.46 600.261 28.616 600.261 25.16C600.261 21.704 598.875 18.86 596.679 16.61Z" fill="#1E1E1E"/>
<path d="M380.598 72.844V68.974H384.666V72.844H380.598ZM374.28 72.844V68.974H378.33V72.844H374.28ZM380.598 66.868V63.754H378.33V66.868H372.12V75.94H374.28V74.95H378.33V80.566H380.598V74.95H384.666V75.85H386.916V66.868H380.598ZM395.538 72.808H394.332V71.656H395.538V72.808ZM396.978 70.522H392.964V73.942H396.978V70.522ZM391.848 77.956V66.436H400.542L399.696 67.282C400.164 67.534 400.704 67.912 401.082 68.236H399.138C399.102 67.732 399.084 67.228 399.066 66.706H397.302C397.338 67.228 397.356 67.732 397.392 68.236H392.514V69.748H397.518C397.68 71.53 397.914 73.168 398.292 74.464C398.004 74.788 397.716 75.094 397.392 75.364L397.356 74.464C395.484 74.716 393.612 74.932 392.298 75.076L392.496 76.642C393.684 76.444 395.088 76.246 396.528 76.03C396.348 76.156 396.15 76.282 395.952 76.39C396.312 76.678 396.888 77.362 397.122 77.686C397.806 77.254 398.418 76.732 398.994 76.156C399.354 76.75 399.804 77.164 400.344 77.344C401.532 77.884 402.468 77.2 402.756 74.986C402.396 74.788 401.748 74.302 401.424 73.978C401.352 75.022 401.208 75.724 401.01 75.652C400.686 75.58 400.416 75.238 400.182 74.698C400.992 73.51 401.64 72.142 402.072 70.576L400.434 70.252C400.218 71.062 399.948 71.8 399.588 72.502C399.444 71.692 399.336 70.756 399.246 69.748H402.468V68.236H401.604L402.324 67.48C402 67.138 401.388 66.724 400.812 66.436H403.044V77.956H391.848ZM389.814 64.51V80.62H391.848V79.864H403.044V80.62H405.168V64.51H389.814ZM387.222 122.12V120.302H380.202C380.256 119.996 380.31 119.69 380.346 119.366H387.744V117.512H380.58V116.558H386.088V114.758H380.58V113.84H386.952V111.95H383.496C383.892 111.428 384.306 110.834 384.702 110.204L382.398 109.61C382.11 110.312 381.57 111.248 381.12 111.95H377.16L377.682 111.716C377.448 111.104 376.89 110.24 376.332 109.61L374.424 110.366C374.784 110.834 375.162 111.41 375.432 111.95H372.012V113.84H378.366V114.758H373.038V116.558H378.366V117.512H371.454V119.366H378.078C378.042 119.69 377.988 120.014 377.934 120.302H371.868V122.12H377.232C376.386 123.326 374.694 124.136 371.076 124.622C371.49 125.072 371.994 125.972 372.138 126.548C376.944 125.756 378.87 124.334 379.734 122.12H380.382L379.572 123.47C381.894 124.316 385.188 125.702 386.772 126.602L387.78 124.766C386.286 123.974 383.442 122.876 381.282 122.12H387.222ZM395.538 118.808H394.332V117.656H395.538V118.808ZM396.978 116.522H392.964V119.942H396.978V116.522ZM391.848 123.956V112.436H400.542L399.696 113.282C400.164 113.534 400.704 113.912 401.082 114.236H399.138C399.102 113.732 399.084 113.228 399.066 112.706H397.302C397.338 113.228 397.356 113.732 397.392 114.236H392.514V115.748H397.518C397.68 117.53 397.914 119.168 398.292 120.464C398.004 120.788 397.716 121.094 397.392 121.364L397.356 120.464C395.484 120.716 393.612 120.932 392.298 121.076L392.496 122.642C393.684 122.444 395.088 122.246 396.528 122.03C396.348 122.156 396.15 122.282 395.952 122.39C396.312 122.678 396.888 123.362 397.122 123.686C397.806 123.254 398.418 122.732 398.994 122.156C399.354 122.75 399.804 123.164 400.344 123.344C401.532 123.884 402.468 123.2 402.756 120.986C402.396 120.788 401.748 120.302 401.424 119.978C401.352 121.022 401.208 121.724 401.01 121.652C400.686 121.58 400.416 121.238 400.182 120.698C400.992 119.51 401.64 118.142 402.072 116.576L400.434 116.252C400.218 117.062 399.948 117.8 399.588 118.502C399.444 117.692 399.336 116.756 399.246 115.748H402.468V114.236H401.604L402.324 113.48C402 113.138 401.388 112.724 400.812 112.436H403.044V123.956H391.848ZM389.814 110.51V126.62H391.848V125.864H403.044V126.62H405.168V110.51H389.814ZM375.504 169.02V164.988H383.496V169.02H375.504ZM383.496 158.994V162.864H375.504V158.994H383.496ZM373.29 156.834V172.35H375.504V171.18H383.496V172.314H385.8V156.834H373.29ZM398.634 167.346V161.424H398.706C399.498 163.62 400.56 165.654 401.838 167.346H398.634ZM393.054 167.346C394.35 165.654 395.448 163.62 396.24 161.424H396.366V167.346H393.054ZM405.42 161.424V159.246H398.634V155.772H396.366V159.246H389.616V161.424H394.026C392.91 164.142 391.074 166.716 388.986 168.156C389.49 168.552 390.174 169.362 390.552 169.902C391.272 169.326 391.956 168.66 392.586 167.922V169.524H396.366V172.566H398.634V169.524H402.342V167.958C402.936 168.66 403.566 169.29 404.25 169.812C404.628 169.218 405.384 168.372 405.942 167.94C403.836 166.518 402.018 164.052 400.884 161.424H405.42ZM382.272 206.596H384.45V205.12H387.33V203.302H384.45V201.772H382.272V203.302H379.914V205.12H382.272V206.596ZM374.658 206.668H376.818V205.138H379.122V203.32H376.818V201.772H374.658V203.32H371.688V205.138H374.658V206.668ZM375.216 211.546V209.206H378.312V211.042C378.312 211.204 378.312 211.384 378.294 211.546H375.216ZM383.784 209.206V211.546H380.49C380.508 211.384 380.508 211.24 380.508 211.078V209.206H383.784ZM387.6 213.526V211.546H385.962V207.352H380.508V205.786H378.312V207.352H373.146V211.546H371.346V213.526H377.718C376.908 214.876 375.054 216.046 371.022 216.784C371.49 217.252 372.084 218.098 372.318 218.566C377.25 217.486 379.374 215.668 380.13 213.526H387.6ZM379.788 215.092C382.092 216.046 385.188 217.594 386.718 218.602L387.798 216.856C386.214 215.848 383.01 214.426 380.796 213.598L379.788 215.092ZM395.538 210.808H394.332V209.656H395.538V210.808ZM396.978 208.522H392.964V211.942H396.978V208.522ZM391.848 215.956V204.436H400.542L399.696 205.282C400.164 205.534 400.704 205.912 401.082 206.236H399.138C399.102 205.732 399.084 205.228 399.066 204.706H397.302C397.338 205.228 397.356 205.732 397.392 206.236H392.514V207.748H397.518C397.68 209.53 397.914 211.168 398.292 212.464C398.004 212.788 397.716 213.094 397.392 213.364L397.356 212.464C395.484 212.716 393.612 212.932 392.298 213.076L392.496 214.642C393.684 214.444 395.088 214.246 396.528 214.03C396.348 214.156 396.15 214.282 395.952 214.39C396.312 214.678 396.888 215.362 397.122 215.686C397.806 215.254 398.418 214.732 398.994 214.156C399.354 214.75 399.804 215.164 400.344 215.344C401.532 215.884 402.468 215.2 402.756 212.986C402.396 212.788 401.748 212.302 401.424 211.978C401.352 213.022 401.208 213.724 401.01 213.652C400.686 213.58 400.416 213.238 400.182 212.698C400.992 211.51 401.64 210.142 402.072 208.576L400.434 208.252C400.218 209.062 399.948 209.8 399.588 210.502C399.444 209.692 399.336 208.756 399.246 207.748H402.468V206.236H401.604L402.324 205.48C402 205.138 401.388 204.724 400.812 204.436H403.044V215.956H391.848ZM389.814 202.51V218.62H391.848V217.864H403.044V218.62H405.168V202.51H389.814Z" fill="#E11C1C"/>
<path d="M444.83 67.03H447.134C449.258 67.03 450.428 67.678 450.428 69.478C450.428 71.242 449.258 72.088 447.134 72.088H444.83V67.03ZM452.264 79L448.862 73.168C450.716 72.754 451.922 71.548 451.922 69.478C451.922 66.778 450.05 65.824 447.368 65.824H443.336V79H444.83V73.312H447.296L450.59 79H452.264ZM454.621 79H455.971V71.386C455.971 70.27 455.863 68.722 455.791 67.57H455.863L456.907 70.558L459.499 77.65H460.525L463.099 70.558L464.143 67.57H464.215C464.143 68.722 464.035 70.27 464.035 71.386V79H465.421V65.824H463.585L461.011 73.024C460.705 73.96 460.417 74.896 460.093 75.832H460.003C459.679 74.896 459.373 73.96 459.049 73.024L456.457 65.824H454.621V79ZM469.088 79H473.192C476.144 79 478.178 77.722 478.178 75.148C478.178 73.348 477.062 72.286 475.442 71.98V71.908C476.702 71.494 477.404 70.36 477.404 69.046C477.404 66.76 475.586 65.824 472.904 65.824H469.088V79ZM470.582 71.476V67.012H472.688C474.83 67.012 475.928 67.606 475.928 69.226C475.928 70.612 474.974 71.476 472.598 71.476H470.582ZM470.582 77.812V72.628H472.958C475.352 72.628 476.72 73.402 476.72 75.094C476.72 76.966 475.298 77.812 472.958 77.812H470.582ZM487.382 67.462C486.68 66.706 485.852 66.094 484.574 65.968V63.988H483.476V65.986C481.766 66.238 480.578 67.516 480.578 69.28C480.578 73.24 486.23 72.43 486.23 75.85C486.23 77.164 485.438 78.01 483.89 78.01C482.63 78.01 481.604 77.398 480.776 76.66L480.074 77.668C480.902 78.442 482.18 79.09 483.476 79.216V81.196H484.574V79.198C486.464 78.946 487.67 77.65 487.67 75.742C487.67 71.368 482.018 72.268 482.018 69.208C482.018 68.02 482.846 67.192 484.106 67.192C485.24 67.192 485.852 67.606 486.59 68.344L487.382 67.462ZM494.357 79H502.367V76.858H499.865V65.68H497.903C497.057 66.202 496.139 66.544 494.807 66.796V68.434H497.219V76.858H494.357V79ZM508.79 79.252C511.49 79.252 513.29 76.876 513.29 72.286C513.29 67.696 511.49 65.428 508.79 65.428C506.072 65.428 504.272 67.678 504.272 72.286C504.272 76.876 506.072 79.252 508.79 79.252ZM508.79 77.182C507.638 77.182 506.774 76.03 506.774 72.286C506.774 68.56 507.638 67.48 508.79 67.48C509.924 67.48 510.788 68.56 510.788 72.286C510.788 76.03 509.924 77.182 508.79 77.182ZM516.996 79.252C517.95 79.252 518.652 78.496 518.652 77.524C518.652 76.552 517.95 75.796 516.996 75.796C516.06 75.796 515.358 76.552 515.358 77.524C515.358 78.496 516.06 79.252 516.996 79.252ZM524.902 79.252C527.368 79.252 529.564 77.542 529.564 74.572C529.564 71.674 527.692 70.342 525.46 70.342C524.848 70.342 524.38 70.468 523.858 70.72L524.11 67.894H528.952V65.68H521.824L521.464 72.142L522.67 72.934C523.444 72.43 523.876 72.232 524.668 72.232C526.018 72.232 526.918 73.096 526.918 74.644C526.918 76.21 525.946 77.092 524.56 77.092C523.318 77.092 522.382 76.48 521.626 75.742L520.402 77.434C521.392 78.424 522.796 79.252 524.902 79.252ZM444.83 113.03H447.134C449.258 113.03 450.428 113.678 450.428 115.478C450.428 117.242 449.258 118.088 447.134 118.088H444.83V113.03ZM452.264 125L448.862 119.168C450.716 118.754 451.922 117.548 451.922 115.478C451.922 112.778 450.05 111.824 447.368 111.824H443.336V125H444.83V119.312H447.296L450.59 125H452.264ZM454.621 125H455.971V117.386C455.971 116.27 455.863 114.722 455.791 113.57H455.863L456.907 116.558L459.499 123.65H460.525L463.099 116.558L464.143 113.57H464.215C464.143 114.722 464.035 116.27 464.035 117.386V125H465.421V111.824H463.585L461.011 119.024C460.705 119.96 460.417 120.896 460.093 121.832H460.003C459.679 120.896 459.373 119.96 459.049 119.024L456.457 111.824H454.621V125ZM469.088 125H473.192C476.144 125 478.178 123.722 478.178 121.148C478.178 119.348 477.062 118.286 475.442 117.98V117.908C476.702 117.494 477.404 116.36 477.404 115.046C477.404 112.76 475.586 111.824 472.904 111.824H469.088V125ZM470.582 117.476V113.012H472.688C474.83 113.012 475.928 113.606 475.928 115.226C475.928 116.612 474.974 117.476 472.598 117.476H470.582ZM470.582 123.812V118.628H472.958C475.352 118.628 476.72 119.402 476.72 121.094C476.72 122.966 475.298 123.812 472.958 123.812H470.582ZM487.382 113.462C486.68 112.706 485.852 112.094 484.574 111.968V109.988H483.476V111.986C481.766 112.238 480.578 113.516 480.578 115.28C480.578 119.24 486.23 118.43 486.23 121.85C486.23 123.164 485.438 124.01 483.89 124.01C482.63 124.01 481.604 123.398 480.776 122.66L480.074 123.668C480.902 124.442 482.18 125.09 483.476 125.216V127.196H484.574V125.198C486.464 124.946 487.67 123.65 487.67 121.742C487.67 117.368 482.018 118.268 482.018 115.208C482.018 114.02 482.846 113.192 484.106 113.192C485.24 113.192 485.852 113.606 486.59 114.344L487.382 113.462ZM494.357 125H502.367V122.858H499.865V111.68H497.903C497.057 112.202 496.139 112.544 494.807 112.796V114.434H497.219V122.858H494.357V125ZM508.79 125.252C511.49 125.252 513.29 122.876 513.29 118.286C513.29 113.696 511.49 111.428 508.79 111.428C506.072 111.428 504.272 113.678 504.272 118.286C504.272 122.876 506.072 125.252 508.79 125.252ZM508.79 123.182C507.638 123.182 506.774 122.03 506.774 118.286C506.774 114.56 507.638 113.48 508.79 113.48C509.924 113.48 510.788 114.56 510.788 118.286C510.788 122.03 509.924 123.182 508.79 123.182ZM516.996 125.252C517.95 125.252 518.652 124.496 518.652 123.524C518.652 122.552 517.95 121.796 516.996 121.796C516.06 121.796 515.358 122.552 515.358 123.524C515.358 124.496 516.06 125.252 516.996 125.252ZM522.886 119.528L524.956 116.216C525.334 115.496 525.694 114.758 526.018 114.056H526.09C526.054 114.83 525.982 116.036 525.982 116.81V119.528H522.886ZM530.032 119.528H528.448V111.68H525.28L520.312 119.744V121.544H525.982V125H528.448V121.544H530.032V119.528ZM444.83 159.03H447.134C449.258 159.03 450.428 159.678 450.428 161.478C450.428 163.242 449.258 164.088 447.134 164.088H444.83V159.03ZM452.264 171L448.862 165.168C450.716 164.754 451.922 163.548 451.922 161.478C451.922 158.778 450.05 157.824 447.368 157.824H443.336V171H444.83V165.312H447.296L450.59 171H452.264ZM454.621 171H455.971V163.386C455.971 162.27 455.863 160.722 455.791 159.57H455.863L456.907 162.558L459.499 169.65H460.525L463.099 162.558L464.143 159.57H464.215C464.143 160.722 464.035 162.27 464.035 163.386V171H465.421V157.824H463.585L461.011 165.024C460.705 165.96 460.417 166.896 460.093 167.832H460.003C459.679 166.896 459.373 165.96 459.049 165.024L456.457 157.824H454.621V171ZM469.088 171H473.192C476.144 171 478.178 169.722 478.178 167.148C478.178 165.348 477.062 164.286 475.442 163.98V163.908C476.702 163.494 477.404 162.36 477.404 161.046C477.404 158.76 475.586 157.824 472.904 157.824H469.088V171ZM470.582 163.476V159.012H472.688C474.83 159.012 475.928 159.606 475.928 161.226C475.928 162.612 474.974 163.476 472.598 163.476H470.582ZM470.582 169.812V164.628H472.958C475.352 164.628 476.72 165.402 476.72 167.094C476.72 168.966 475.298 169.812 472.958 169.812H470.582ZM487.382 159.462C486.68 158.706 485.852 158.094 484.574 157.968V155.988H483.476V157.986C481.766 158.238 480.578 159.516 480.578 161.28C480.578 165.24 486.23 164.43 486.23 167.85C486.23 169.164 485.438 170.01 483.89 170.01C482.63 170.01 481.604 169.398 480.776 168.66L480.074 169.668C480.902 170.442 482.18 171.09 483.476 171.216V173.196H484.574V171.198C486.464 170.946 487.67 169.65 487.67 167.742C487.67 163.368 482.018 164.268 482.018 161.208C482.018 160.02 482.846 159.192 484.106 159.192C485.24 159.192 485.852 159.606 486.59 160.344L487.382 159.462ZM494.357 171H502.367V168.858H499.865V157.68H497.903C497.057 158.202 496.139 158.544 494.807 158.796V160.434H497.219V168.858H494.357V171ZM508.79 171.252C511.49 171.252 513.29 168.876 513.29 164.286C513.29 159.696 511.49 157.428 508.79 157.428C506.072 157.428 504.272 159.678 504.272 164.286C504.272 168.876 506.072 171.252 508.79 171.252ZM508.79 169.182C507.638 169.182 506.774 168.03 506.774 164.286C506.774 160.56 507.638 159.48 508.79 159.48C509.924 159.48 510.788 160.56 510.788 164.286C510.788 168.03 509.924 169.182 508.79 169.182ZM516.996 171.252C517.95 171.252 518.652 170.496 518.652 169.524C518.652 168.552 517.95 167.796 516.996 167.796C516.06 167.796 515.358 168.552 515.358 169.524C515.358 170.496 516.06 171.252 516.996 171.252ZM521.41 171H529.42V168.858H526.918V157.68H524.956C524.11 158.202 523.192 158.544 521.86 158.796V160.434H524.272V168.858H521.41V171ZM444.83 205.03H447.134C449.258 205.03 450.428 205.678 450.428 207.478C450.428 209.242 449.258 210.088 447.134 210.088H444.83V205.03ZM452.264 217L448.862 211.168C450.716 210.754 451.922 209.548 451.922 207.478C451.922 204.778 450.05 203.824 447.368 203.824H443.336V217H444.83V211.312H447.296L450.59 217H452.264ZM454.621 217H455.971V209.386C455.971 208.27 455.863 206.722 455.791 205.57H455.863L456.907 208.558L459.499 215.65H460.525L463.099 208.558L464.143 205.57H464.215C464.143 206.722 464.035 208.27 464.035 209.386V217H465.421V203.824H463.585L461.011 211.024C460.705 211.96 460.417 212.896 460.093 213.832H460.003C459.679 212.896 459.373 211.96 459.049 211.024L456.457 203.824H454.621V217ZM469.088 217H473.192C476.144 217 478.178 215.722 478.178 213.148C478.178 211.348 477.062 210.286 475.442 209.98V209.908C476.702 209.494 477.404 208.36 477.404 207.046C477.404 204.76 475.586 203.824 472.904 203.824H469.088V217ZM470.582 209.476V205.012H472.688C474.83 205.012 475.928 205.606 475.928 207.226C475.928 208.612 474.974 209.476 472.598 209.476H470.582ZM470.582 215.812V210.628H472.958C475.352 210.628 476.72 211.402 476.72 213.094C476.72 214.966 475.298 215.812 472.958 215.812H470.582ZM487.382 205.462C486.68 204.706 485.852 204.094 484.574 203.968V201.988H483.476V203.986C481.766 204.238 480.578 205.516 480.578 207.28C480.578 211.24 486.23 210.43 486.23 213.85C486.23 215.164 485.438 216.01 483.89 216.01C482.63 216.01 481.604 215.398 480.776 214.66L480.074 215.668C480.902 216.442 482.18 217.09 483.476 217.216V219.196H484.574V217.198C486.464 216.946 487.67 215.65 487.67 213.742C487.67 209.368 482.018 210.268 482.018 207.208C482.018 206.02 482.846 205.192 484.106 205.192C485.24 205.192 485.852 205.606 486.59 206.344L487.382 205.462ZM498.173 217.252C500.873 217.252 502.655 215.704 502.655 213.688C502.655 211.87 501.647 210.79 500.423 210.124V210.034C501.305 209.404 502.133 208.306 502.133 206.992C502.133 204.868 500.621 203.446 498.263 203.446C495.941 203.446 494.249 204.814 494.249 206.956C494.249 208.378 494.987 209.386 496.013 210.124V210.214C494.771 210.88 493.727 211.978 493.727 213.688C493.727 215.776 495.635 217.252 498.173 217.252ZM499.019 209.386C497.615 208.828 496.589 208.216 496.589 206.956C496.589 205.894 497.309 205.3 498.209 205.3C499.325 205.3 499.973 206.074 499.973 207.154C499.973 207.946 499.667 208.702 499.019 209.386ZM498.245 215.38C497.003 215.38 496.013 214.606 496.013 213.4C496.013 212.41 496.517 211.51 497.237 210.934C498.965 211.636 500.189 212.212 500.189 213.598C500.189 214.75 499.361 215.38 498.245 215.38ZM506.396 217.252C507.35 217.252 508.052 216.496 508.052 215.524C508.052 214.552 507.35 213.796 506.396 213.796C505.46 213.796 504.758 214.552 504.758 215.524C504.758 216.496 505.46 217.252 506.396 217.252ZM514.266 217.252C516.804 217.252 518.946 215.83 518.946 213.382C518.946 211.636 517.794 210.52 516.282 210.106V210.016C517.704 209.458 518.514 208.414 518.514 206.974C518.514 204.688 516.768 203.428 514.194 203.428C512.628 203.428 511.35 204.058 510.198 205.066L511.548 206.686C512.34 205.966 513.114 205.516 514.068 205.498C515.202 205.516 515.85 206.128 515.85 207.172C515.85 208.36 515.058 209.206 512.61 209.206V211.114C515.508 211.114 516.282 211.924 516.282 213.238C516.282 214.426 515.364 215.092 514.014 215.092C512.808 215.092 511.836 214.498 511.044 213.724L509.802 215.398C510.738 216.46 512.16 217.252 514.266 217.252Z" fill="#1E1E1E"/>
<path d="M361 95H568" stroke="#E11C1C"/>
<path d="M361 140H568" stroke="#E11C1C"/>
<path d="M361 186H568" stroke="#E11C1C"/>
<path d="M427 47L427 236" stroke="#E11C1C"/>
</svg>
