<svg width="600" height="237" viewBox="0 0 600 237" fill="none" xmlns="http://www.w3.org/2000/svg">
<rect x="25" width="484" height="50" fill="black" fill-opacity="0.5"/>
<path d="M44.44 16.08C44.36 19.46 44.74 28.42 36.62 32.76C37.42 33.3 38.18 34.06 38.6 34.7C42.76 32.26 44.86 28.64 45.96 25.12C47.12 28.56 49.34 32.46 53.78 34.58C54.1 33.9 54.78 33.1 55.52 32.52C48.54 29.44 47.32 21.9 47.04 19.2C47.12 18 47.16 16.92 47.18 16.08H44.44ZM61.24 27.32V22.92H63.14V20.66H61.24V16.32H59.02V20.66H56.92V22.92H59.02V28.26C58.06 28.62 57.22 28.96 56.52 29.2L57.48 31.6C59.28 30.76 61.5 29.7 63.58 28.66L63.02 26.58L61.24 27.32ZM65.42 29.64H71.52V27.6H65.42V29.64ZM66.4 23.74V25.78H71.08V23.74H66.4ZM75.06 19.06H67.9C68.22 18.24 68.5 17.44 68.74 16.6L66.54 16.06C65.82 18.66 64.62 21.34 63.18 23C63.74 23.28 64.72 23.9 65.16 24.26C65.78 23.42 66.4 22.4 66.96 21.22H72.78C72.6 28.36 72.4 31.56 71.78 32.2C71.54 32.46 71.32 32.52 70.92 32.52C70.34 32.52 69.1 32.52 67.68 32.4C68.12 33.06 68.46 34.08 68.5 34.72C69.7 34.76 71.02 34.78 71.8 34.68C72.64 34.56 73.24 34.32 73.82 33.52C74.62 32.42 74.84 29.28 75.06 20.2V19.06ZM94.28 18.88H87.26C87.36 18 87.42 17.1 87.48 16.12H84.94C84.9 17.12 84.86 18.02 84.76 18.88H77.72V34.74H80.1V21.2H84.26C83.7 22.84 82.58 24.12 80.4 25.04C80.92 25.44 81.56 26.26 81.82 26.82C83.7 26 84.94 24.94 85.78 23.64C87.28 24.6 88.94 25.82 89.82 26.66L91.44 24.84C90.4 23.92 88.3 22.56 86.68 21.64C86.72 21.5 86.76 21.36 86.8 21.2H91.92V32.02C91.92 32.36 91.82 32.44 91.5 32.46C91.22 32.46 90.42 32.46 89.58 32.42L91.24 30.86C90.28 29.9 88.34 28.44 86.88 27.44C87.12 26.76 87.28 26.06 87.42 25.38H84.96C84.56 27.38 83.82 29.54 80.42 30.8C80.92 31.22 81.54 32.04 81.8 32.6C83.78 31.76 85.04 30.68 85.88 29.46C87.12 30.44 88.52 31.58 89.3 32.42L89.1 32.4C89.42 33.06 89.74 34.1 89.82 34.78C91.4 34.78 92.54 34.74 93.28 34.34C94.06 33.96 94.28 33.28 94.28 32.08V18.88ZM109.5 21.82H102.5V19.12H109.5V21.82ZM111.92 16.84H100.2V24.08H111.92V16.84ZM102.68 28.02V31.46H99.7V28.02H102.68ZM97.44 34.74H99.7V33.74H102.68V34.64H105.06V25.74H97.44V34.74ZM109.04 31.46V28.02H112.22V31.46H109.04ZM106.76 25.74V34.74H109.04V33.74H112.22V34.66H114.62V25.74H106.76ZM132.78 16.52C132.38 17.72 131.62 19.32 131.04 20.34L133.1 21.1C133.7 20.16 134.46 18.74 135.1 17.34L132.78 16.52ZM126.84 20.26C126.54 19.22 125.68 17.76 124.88 16.66L122.88 17.54C123.66 18.7 124.44 20.26 124.68 21.24L126.84 20.26ZM122.72 18.48C121.88 17.9 120.2 16.96 119.1 16.36L117.7 18.04C118.84 18.72 120.5 19.74 121.28 20.38L122.72 18.48ZM121.58 23.72C120.7 23.18 118.92 22.32 117.82 21.78L116.52 23.54C117.72 24.18 119.44 25.12 120.26 25.7L121.58 23.72ZM121 26.6C119.82 28.92 118.3 31.4 117.22 32.9L119.24 34.5C120.44 32.56 121.7 30.28 122.76 28.2L121 26.6ZM134.36 21.64H130.14V16.06H127.74V21.64H123.42V27.8C123.42 29.68 123.36 31.96 122.44 33.58C122.96 33.82 123.94 34.5 124.34 34.88C125.44 33.04 125.6 30.04 125.6 27.8V23.8H132.04V27.5C129.68 28.06 127.26 28.6 125.6 28.92L126.3 30.88C127.96 30.46 130.04 29.94 132.04 29.4V32.14C132.04 32.4 131.94 32.48 131.64 32.5C131.32 32.52 130.28 32.52 129.36 32.46C129.68 33.08 130 34.06 130.08 34.7C131.58 34.7 132.66 34.66 133.4 34.3C134.16 33.92 134.36 33.32 134.36 32.16V21.64ZM125.88 25.94C127.38 26.34 129.32 27.12 130.3 27.72L131.32 26.1C130.3 25.52 128.34 24.84 126.84 24.5L125.88 25.94ZM141.8 29.52H150.4V30.36H141.8V29.52ZM147.08 22.78V24.04H143.44C143.84 23.66 144.16 23.24 144.38 22.78H147.08ZM140.78 20.52H142.68C142.66 20.82 142.62 21.12 142.54 21.4H140.64L140.78 20.52ZM144.86 18.34H147.08V19.14H144.86V18.34ZM151.42 18.34V19.14H149.34V18.34H151.42ZM147.08 21.4H144.78C144.82 21.12 144.84 20.82 144.86 20.52H147.08V21.4ZM152.52 22.78C152.5 23.06 152.44 23.22 152.38 23.32C152.26 23.44 152.14 23.44 151.96 23.44C151.74 23.46 151.32 23.44 150.84 23.38C150.96 23.56 151.04 23.8 151.12 24.04H149.34V22.78H152.52ZM150.4 27.44V28.26H141.8V27.44H150.4ZM150.4 25.38V26.18H141.8V25.38H150.4ZM152.82 31.7V24.82C152.94 24.82 153.06 24.8 153.14 24.8C153.58 24.78 154 24.64 154.28 24.32C154.62 23.96 154.74 23.26 154.84 22.02C154.84 21.78 154.86 21.4 154.86 21.4H149.34V20.52H153.58V16.94H149.34V16.06H147.08V16.94H144.86V16.06H142.7V16.94H138.16V18.34H142.7V19.14H138.88C138.76 20.32 138.52 21.78 138.3 22.78H141.52C140.66 23.4 139.24 23.88 136.86 24.18C137.24 24.62 137.8 25.52 138 26.04C138.52 25.96 139.02 25.86 139.48 25.76V31.7H142.1C140.68 32.3 138.7 32.76 136.88 33.06C137.4 33.46 138.24 34.32 138.6 34.78C140.64 34.28 143.22 33.36 144.86 32.38L143.4 31.7H148.28L147.52 32.46C149.68 33.16 151.92 34.12 153.2 34.76L154.94 33.34C153.88 32.86 152.26 32.26 150.62 31.7H152.82ZM170.08 18.54H161.78V17.9H170.08V18.54ZM170.08 20.38H161.78V19.72H170.08V20.38ZM172.48 16.66H159.48V21.6H172.48V16.66ZM175.08 22.2H156.98V23.9H175.08V22.2ZM161.36 28.34V27.64H164.84V28.34H161.36ZM161.36 25.76H164.84V26.46H161.36V25.76ZM170.62 26.46H167.12V25.76H170.62V26.46ZM170.62 28.34H167.12V27.64H170.62V28.34ZM167.12 32.52V31.8H173.32V30.26H167.12V29.62H172.94V24.5H159.12V29.62H164.84V30.26H158.72V31.8H164.84V32.52H156.94V34.24H175.12V32.52H167.12ZM193.2 35L195.1 34.16C193.1 32 191.52 29.24 191.52 25.4C191.52 21.56 193.1 18.8 195.1 16.64L193.2 15.8C191.04 17.92 189.26 21.12 189.26 25.4C189.26 29.68 191.04 32.88 193.2 35ZM205.52 16.54V19H208.72C209.84 21.64 211.62 24.32 213.9 26.06C214.3 25.32 215.16 24.18 215.7 23.66C213.24 22.16 211.42 19.34 210.56 16.54H205.52ZM201.92 16.5C200.72 19.4 198.62 22.3 196.5 24.08C197.1 24.56 198.16 25.6 198.62 26.12C200.78 24.02 203.12 20.64 204.58 17.36L201.92 16.5ZM207.86 27.6C208.48 28.48 209.14 29.52 209.78 30.52L202.44 31C204.38 28.84 206.3 26.16 207.84 23.46L205.06 22.3C203.48 25.62 200.98 29.02 200.14 29.88C199.34 30.76 198.8 31.3 198.14 31.48C198.5 32.18 198.96 33.52 199.12 34.02C200.1 33.66 201.46 33.54 211.12 32.78C211.54 33.5 211.9 34.16 212.16 34.74L214.62 33.44C213.64 31.58 211.8 28.74 210.18 26.54L207.86 27.6ZM234.7 23.14H221.68V23.1V19.84C225.84 19.66 230.34 19.16 233.68 18.16L231.64 16.18C228.68 17.06 223.68 17.56 219.18 17.7V23.08C219.18 26.16 219 30.46 216.8 33.36C217.4 33.64 218.46 34.4 218.92 34.84C220.78 32.38 221.42 28.68 221.6 25.56H227.3V34.56H229.9V25.56H234.7V23.14ZM236.28 36.64H238.24L243.2 16.9H241.24L236.28 36.64ZM250.154 28.2V25.16H253.614V28.2H250.154ZM262.914 28.2H256.074V25.16H261.354V22.96H256.074V20.56H261.814V18.26H250.514C250.774 17.72 250.994 17.18 251.174 16.62L248.754 16C247.894 18.58 246.354 21.14 244.554 22.66C245.134 23 246.154 23.8 246.614 24.2C247.554 23.26 248.514 21.98 249.334 20.56H253.614V22.96H247.774V28.2H244.614V30.48H253.614V34.76H256.074V30.48H262.914V28.2ZM266.554 15.8L264.654 16.64C266.654 18.8 268.234 21.56 268.234 25.4C268.234 29.24 266.654 32 264.654 34.16L266.554 35C268.714 32.88 270.494 29.68 270.494 25.4C270.494 21.12 268.714 17.92 266.554 15.8Z" fill="white"/>
<circle cx="305.5" cy="24.5" r="12.5" fill="#FBFBFB"/>
<circle cx="411.5" cy="24.5" r="12.5" fill="#E05778"/>
<path d="M324.9 33H333.96V31.6H329.76C329.02 31.6 328.14 31.64 327.36 31.72C330.94 28.36 333.26 25.34 333.26 22.38C333.26 19.78 331.66 18.1 329.06 18.1C327.24 18.1 325.98 18.96 324.8 20.24L325.76 21.16C326.6 20.18 327.66 19.42 328.88 19.42C330.76 19.42 331.66 20.72 331.66 22.44C331.66 24.98 329.58 27.94 324.9 32.02V33ZM340.477 33.26C343.217 33.26 344.937 30.74 344.937 25.62C344.937 20.56 343.217 18.1 340.477 18.1C337.717 18.1 335.977 20.54 335.977 25.62C335.977 30.74 337.717 33.26 340.477 33.26ZM340.477 31.94C338.737 31.94 337.557 29.98 337.557 25.62C337.557 21.34 338.737 19.42 340.477 19.42C342.197 19.42 343.357 21.34 343.357 25.62C343.357 29.98 342.197 31.94 340.477 31.94ZM351.453 33.26C354.193 33.26 355.913 30.74 355.913 25.62C355.913 20.56 354.193 18.1 351.453 18.1C348.693 18.1 346.953 20.54 346.953 25.62C346.953 30.74 348.693 33.26 351.453 33.26ZM351.453 31.94C349.713 31.94 348.533 29.98 348.533 25.62C348.533 21.34 349.713 19.42 351.453 19.42C353.173 19.42 354.333 21.34 354.333 25.62C354.333 29.98 353.173 31.94 351.453 31.94ZM362.43 33.26C365.17 33.26 366.89 30.74 366.89 25.62C366.89 20.56 365.17 18.1 362.43 18.1C359.67 18.1 357.93 20.54 357.93 25.62C357.93 30.74 359.67 33.26 362.43 33.26ZM362.43 31.94C360.69 31.94 359.51 29.98 359.51 25.62C359.51 21.34 360.69 19.42 362.43 19.42C364.15 19.42 365.31 21.34 365.31 25.62C365.31 29.98 364.15 31.94 362.43 31.94ZM373.586 28.6V24.46H378.226V28.6H373.586ZM386.906 28.6H379.566V24.46H385.546V23.2H379.566V20.02H385.966V18.74H373.966C374.326 18.04 374.646 17.3 374.926 16.56L373.606 16.24C372.606 18.94 370.926 21.54 369.006 23.18C369.366 23.38 369.906 23.82 370.166 24.02C371.286 22.96 372.346 21.58 373.266 20.02H378.226V23.2H372.246V28.6H368.946V29.88H378.226V34.52H379.566V29.88H386.906V28.6Z" fill="white"/>
<path d="M430.9 33H439.96V31.6H435.76C435.02 31.6 434.14 31.64 433.36 31.72C436.94 28.36 439.26 25.34 439.26 22.38C439.26 19.78 437.66 18.1 435.06 18.1C433.24 18.1 431.98 18.96 430.8 20.24L431.76 21.16C432.6 20.18 433.66 19.42 434.88 19.42C436.76 19.42 437.66 20.72 437.66 22.44C437.66 24.98 435.58 27.94 430.9 32.02V33ZM446.477 33.26C449.217 33.26 450.937 30.74 450.937 25.62C450.937 20.56 449.217 18.1 446.477 18.1C443.717 18.1 441.977 20.54 441.977 25.62C441.977 30.74 443.717 33.26 446.477 33.26ZM446.477 31.94C444.737 31.94 443.557 29.98 443.557 25.62C443.557 21.34 444.737 19.42 446.477 19.42C448.197 19.42 449.357 21.34 449.357 25.62C449.357 29.98 448.197 31.94 446.477 31.94ZM453.733 33H461.613V31.64H458.633V18.36H457.393C456.633 18.82 455.693 19.14 454.433 19.36V20.42H457.013V31.64H453.733V33ZM465.05 27.62L468.59 22.38C468.99 21.68 469.39 20.96 469.75 20.26H469.85C469.79 20.98 469.73 22.14 469.73 22.86V27.62H465.05ZM473.27 27.62H471.27V18.36H469.53L463.31 27.86V28.92H469.73V33H471.27V28.92H473.27V27.62ZM479.586 28.6V24.46H484.226V28.6H479.586ZM492.906 28.6H485.566V24.46H491.546V23.2H485.566V20.02H491.966V18.74H479.966C480.326 18.04 480.646 17.3 480.926 16.56L479.606 16.24C478.606 18.94 476.926 21.54 475.006 23.18C475.366 23.38 475.906 23.82 476.166 24.02C477.286 22.96 478.346 21.58 479.266 20.02H484.226V23.2H478.246V28.6H474.946V29.88H484.226V34.52H485.566V29.88H492.906V28.6Z" fill="#E05778"/>
<path d="M-15 130H624" stroke="#C4C4C4" stroke-width="0.75"/>
<path d="M-15 194H624" stroke="#C4C4C4" stroke-width="0.75"/>
<path d="M524.906 93.9393C524.32 94.5251 524.32 95.4749 524.906 96.0607L534.452 105.607C535.038 106.192 535.988 106.192 536.573 105.607C537.159 105.021 537.159 104.071 536.573 103.485L528.088 95L536.573 86.5147C537.159 85.9289 537.159 84.9792 536.573 84.3934C535.988 83.8076 535.038 83.8076 534.452 84.3934L524.906 93.9393ZM552.681 93.5L525.967 93.5V96.5L552.681 96.5V93.5Z" fill="#FBFBFB"/>
<path d="M277.549 165.061C278.135 164.475 278.135 163.525 277.549 162.939L268.003 153.393C267.417 152.808 266.467 152.808 265.882 153.393C265.296 153.979 265.296 154.929 265.882 155.515L274.367 164L265.882 172.485C265.296 173.071 265.296 174.021 265.882 174.607C266.467 175.192 267.417 175.192 268.003 174.607L277.549 165.061ZM219.439 165.5L276.488 165.5L276.488 162.5L219.439 162.5L219.439 165.5Z" fill="#FBFBFB"/>
<path d="M335.051 224.061C335.637 223.475 335.637 222.525 335.051 221.939L325.505 212.393C324.919 211.808 323.969 211.808 323.384 212.393C322.798 212.979 322.798 213.929 323.384 214.515L331.869 223L323.384 231.485C322.798 232.071 322.798 233.021 323.384 233.607C323.969 234.192 324.919 234.192 325.505 233.607L335.051 224.061ZM176.877 224.5L333.99 224.5V221.5L176.877 221.5V224.5Z" fill="#FBFBFB"/>
<circle cx="564.5" cy="95.5" r="12.5" fill="#FBFBFB"/>
<circle cx="509.5" cy="95.5" r="12.5" fill="#E05778"/>
<path d="M483.386 69.22C481.839 69.22 481.091 68.064 481.091 66.347C481.091 64.613 482.026 63.423 483.267 63.423C484.95 63.423 485.936 64.902 486.072 67.503C485.205 68.727 484.236 69.22 483.386 69.22ZM480.003 73.98C480.683 74.694 481.618 75.221 482.927 75.221C485.239 75.221 487.398 73.3 487.398 68.2C487.398 64.307 485.664 62.335 483.267 62.335C481.363 62.335 479.765 63.967 479.765 66.347C479.765 68.914 481.091 70.257 483.165 70.257C484.253 70.257 485.307 69.628 486.089 68.676C485.97 72.688 484.525 74.065 482.893 74.065C482.06 74.065 481.312 73.708 480.768 73.113L480.003 73.98ZM489.843 75H496.541V73.844H494.008V62.556H492.954C492.308 62.947 491.509 63.219 490.438 63.406V64.307H492.631V73.844H489.843V75ZM499.938 75.221C500.516 75.221 500.992 74.779 500.992 74.133C500.992 73.453 500.516 73.011 499.938 73.011C499.377 73.011 498.901 73.453 498.901 74.133C498.901 74.779 499.377 75.221 499.938 75.221ZM503.007 75H510.708V73.81H507.138C506.509 73.81 505.761 73.844 505.098 73.912C508.141 71.056 510.113 68.489 510.113 65.973C510.113 63.763 508.753 62.335 506.543 62.335C504.996 62.335 503.925 63.066 502.922 64.154L503.738 64.936C504.452 64.103 505.353 63.457 506.39 63.457C507.988 63.457 508.753 64.562 508.753 66.024C508.753 68.183 506.985 70.699 503.007 74.167V75ZM515.958 69.22C514.411 69.22 513.663 68.064 513.663 66.347C513.663 64.613 514.598 63.423 515.839 63.423C517.522 63.423 518.508 64.902 518.644 67.503C517.777 68.727 516.808 69.22 515.958 69.22ZM512.575 73.98C513.255 74.694 514.19 75.221 515.499 75.221C517.811 75.221 519.97 73.3 519.97 68.2C519.97 64.307 518.236 62.335 515.839 62.335C513.935 62.335 512.337 63.967 512.337 66.347C512.337 68.914 513.663 70.257 515.737 70.257C516.825 70.257 517.879 69.628 518.661 68.676C518.542 72.688 517.097 74.065 515.465 74.065C514.632 74.065 513.884 73.708 513.34 73.113L512.575 73.98Z" fill="#E05778"/>
<path d="M538.386 69.22C536.839 69.22 536.091 68.064 536.091 66.347C536.091 64.613 537.026 63.423 538.267 63.423C539.95 63.423 540.936 64.902 541.072 67.503C540.205 68.727 539.236 69.22 538.386 69.22ZM535.003 73.98C535.683 74.694 536.618 75.221 537.927 75.221C540.239 75.221 542.398 73.3 542.398 68.2C542.398 64.307 540.664 62.335 538.267 62.335C536.363 62.335 534.765 63.967 534.765 66.347C534.765 68.914 536.091 70.257 538.165 70.257C539.253 70.257 540.307 69.628 541.089 68.676C540.97 72.688 539.525 74.065 537.893 74.065C537.06 74.065 536.312 73.708 535.768 73.113L535.003 73.98ZM548.039 75.221C550.334 75.221 551.881 73.81 551.881 72.025C551.881 70.325 550.861 69.39 549.773 68.761V68.676C550.504 68.098 551.456 66.959 551.456 65.65C551.456 63.746 550.181 62.369 548.073 62.369C546.169 62.369 544.724 63.644 544.724 65.514C544.724 66.823 545.506 67.758 546.407 68.37V68.438C545.268 69.067 544.095 70.223 544.095 71.906C544.095 73.827 545.761 75.221 548.039 75.221ZM548.889 68.302C547.41 67.724 545.999 67.061 545.999 65.514C545.999 64.273 546.866 63.423 548.039 63.423C549.45 63.423 550.249 64.46 550.249 65.718C550.249 66.67 549.773 67.554 548.889 68.302ZM548.056 74.184C546.509 74.184 545.353 73.164 545.353 71.804C545.353 70.563 546.101 69.543 547.155 68.88C548.957 69.611 550.555 70.257 550.555 71.991C550.555 73.249 549.552 74.184 548.056 74.184ZM554.938 75.221C555.516 75.221 555.992 74.779 555.992 74.133C555.992 73.453 555.516 73.011 554.938 73.011C554.377 73.011 553.901 73.453 553.901 74.133C553.901 74.779 554.377 75.221 554.938 75.221ZM558.007 75H565.708V73.81H562.138C561.509 73.81 560.761 73.844 560.098 73.912C563.141 71.056 565.113 68.489 565.113 65.973C565.113 63.763 563.753 62.335 561.543 62.335C559.996 62.335 558.925 63.066 557.922 64.154L558.738 64.936C559.452 64.103 560.353 63.457 561.39 63.457C562.988 63.457 563.753 64.562 563.753 66.024C563.753 68.183 561.985 70.699 558.007 74.167V75ZM568.085 75H574.783V73.844H572.25V62.556H571.196C570.55 62.947 569.751 63.219 568.68 63.406V64.307H570.873V73.844H568.085V75Z" fill="white"/>
<circle cx="204.5" cy="162.5" r="12.5" fill="#FBFBFB"/>
<circle cx="297.5" cy="162.5" r="12.5" fill="#E05778"/>
<path d="M143.454 170.221C145.63 170.221 147.364 168.895 147.364 166.685C147.364 164.968 146.174 163.846 144.712 163.506V163.438C146.038 162.962 146.939 161.959 146.939 160.412C146.939 158.44 145.443 157.335 143.403 157.318C141.975 157.335 140.887 157.964 139.969 158.797L140.734 159.698C141.431 158.984 142.332 158.457 143.352 158.44C144.695 158.457 145.528 159.273 145.528 160.514C145.528 161.908 144.627 162.979 142.026 162.979V164.067C144.916 164.067 145.97 165.104 145.97 166.651C145.97 168.13 144.882 169.065 143.369 169.065C141.89 169.065 140.955 168.368 140.224 167.62L139.51 168.521C140.309 169.388 141.516 170.221 143.454 170.221ZM153.413 169.116C151.764 169.116 150.812 167.62 150.642 164.985C151.492 163.795 152.461 163.336 153.26 163.336C154.858 163.336 155.589 164.475 155.589 166.209C155.589 167.926 154.654 169.116 153.413 169.116ZM156.694 158.576C156.014 157.862 155.096 157.335 153.855 157.335C151.475 157.335 149.299 159.171 149.299 164.084C149.299 168.147 151.016 170.221 153.413 170.221C155.3 170.221 156.915 168.589 156.915 166.209C156.915 163.608 155.589 162.299 153.481 162.299C152.478 162.299 151.39 162.877 150.608 163.812C150.676 159.834 152.155 158.491 153.906 158.491C154.654 158.491 155.402 158.848 155.912 159.443L156.694 158.576ZM159.938 170.221C160.516 170.221 160.992 169.779 160.992 169.133C160.992 168.453 160.516 168.011 159.938 168.011C159.377 168.011 158.901 168.453 158.901 169.133C158.901 169.779 159.377 170.221 159.938 170.221ZM166.951 170.221C169.246 170.221 170.793 168.81 170.793 167.025C170.793 165.325 169.773 164.39 168.685 163.761V163.676C169.416 163.098 170.368 161.959 170.368 160.65C170.368 158.746 169.093 157.369 166.985 157.369C165.081 157.369 163.636 158.644 163.636 160.514C163.636 161.823 164.418 162.758 165.319 163.37V163.438C164.18 164.067 163.007 165.223 163.007 166.906C163.007 168.827 164.673 170.221 166.951 170.221ZM167.801 163.302C166.322 162.724 164.911 162.061 164.911 160.514C164.911 159.273 165.778 158.423 166.951 158.423C168.362 158.423 169.161 159.46 169.161 160.718C169.161 161.67 168.685 162.554 167.801 163.302ZM166.968 169.184C165.421 169.184 164.265 168.164 164.265 166.804C164.265 165.563 165.013 164.543 166.067 163.88C167.869 164.611 169.467 165.257 169.467 166.991C169.467 168.249 168.464 169.184 166.968 169.184ZM173.374 165.427L176.383 160.973C176.723 160.378 177.063 159.766 177.369 159.171H177.454C177.403 159.783 177.352 160.769 177.352 161.381V165.427H173.374ZM180.361 165.427H178.661V157.556H177.182L171.895 165.631V166.532H177.352V170H178.661V166.532H180.361V165.427Z" fill="white"/>
<path d="M317.802 165.427L320.811 160.973C321.151 160.378 321.491 159.766 321.797 159.171H321.882C321.831 159.783 321.78 160.769 321.78 161.381V165.427H317.802ZM324.789 165.427H323.089V157.556H321.61L316.323 165.631V166.532H321.78V170H323.089V166.532H324.789V165.427ZM329.716 164.22C328.169 164.22 327.421 163.064 327.421 161.347C327.421 159.613 328.356 158.423 329.597 158.423C331.28 158.423 332.266 159.902 332.402 162.503C331.535 163.727 330.566 164.22 329.716 164.22ZM326.333 168.98C327.013 169.694 327.948 170.221 329.257 170.221C331.569 170.221 333.728 168.3 333.728 163.2C333.728 159.307 331.994 157.335 329.597 157.335C327.693 157.335 326.095 158.967 326.095 161.347C326.095 163.914 327.421 165.257 329.495 165.257C330.583 165.257 331.637 164.628 332.419 163.676C332.3 167.688 330.855 169.065 329.223 169.065C328.39 169.065 327.642 168.708 327.098 168.113L326.333 168.98ZM336.938 170.221C337.516 170.221 337.992 169.779 337.992 169.133C337.992 168.453 337.516 168.011 336.938 168.011C336.377 168.011 335.901 168.453 335.901 169.133C335.901 169.779 336.377 170.221 336.938 170.221ZM343.951 170.221C346.246 170.221 347.793 168.81 347.793 167.025C347.793 165.325 346.773 164.39 345.685 163.761V163.676C346.416 163.098 347.368 161.959 347.368 160.65C347.368 158.746 346.093 157.369 343.985 157.369C342.081 157.369 340.636 158.644 340.636 160.514C340.636 161.823 341.418 162.758 342.319 163.37V163.438C341.18 164.067 340.007 165.223 340.007 166.906C340.007 168.827 341.673 170.221 343.951 170.221ZM344.801 163.302C343.322 162.724 341.911 162.061 341.911 160.514C341.911 159.273 342.778 158.423 343.951 158.423C345.362 158.423 346.161 159.46 346.161 160.718C346.161 161.67 345.685 162.554 344.801 163.302ZM343.968 169.184C342.421 169.184 341.265 168.164 341.265 166.804C341.265 165.563 342.013 164.543 343.067 163.88C344.869 164.611 346.467 165.257 346.467 166.991C346.467 168.249 345.464 169.184 343.968 169.184ZM353.026 170.221C355.202 170.221 356.936 168.895 356.936 166.685C356.936 164.968 355.746 163.846 354.284 163.506V163.438C355.61 162.962 356.511 161.959 356.511 160.412C356.511 158.44 355.015 157.335 352.975 157.318C351.547 157.335 350.459 157.964 349.541 158.797L350.306 159.698C351.003 158.984 351.904 158.457 352.924 158.44C354.267 158.457 355.1 159.273 355.1 160.514C355.1 161.908 354.199 162.979 351.598 162.979V164.067C354.488 164.067 355.542 165.104 355.542 166.651C355.542 168.13 354.454 169.065 352.941 169.065C351.462 169.065 350.527 168.368 349.796 167.62L349.082 168.521C349.881 169.388 351.088 170.221 353.026 170.221Z" fill="#E05778"/>
<circle cx="164.5" cy="223.5" r="12.5" fill="#FBFBFB"/>
<circle cx="355.5" cy="223.5" r="12.5" fill="#E05778"/>
<path d="M102.765 231H110.466V229.81H106.896C106.267 229.81 105.519 229.844 104.856 229.912C107.899 227.056 109.871 224.489 109.871 221.973C109.871 219.763 108.511 218.335 106.301 218.335C104.754 218.335 103.683 219.066 102.68 220.154L103.496 220.936C104.21 220.103 105.111 219.457 106.148 219.457C107.746 219.457 108.511 220.562 108.511 222.024C108.511 224.183 106.743 226.699 102.765 230.167V231ZM115.716 225.22C114.169 225.22 113.421 224.064 113.421 222.347C113.421 220.613 114.356 219.423 115.597 219.423C117.28 219.423 118.266 220.902 118.402 223.503C117.535 224.727 116.566 225.22 115.716 225.22ZM112.333 229.98C113.013 230.694 113.948 231.221 115.257 231.221C117.569 231.221 119.728 229.3 119.728 224.2C119.728 220.307 117.994 218.335 115.597 218.335C113.693 218.335 112.095 219.967 112.095 222.347C112.095 224.914 113.421 226.257 115.495 226.257C116.583 226.257 117.637 225.628 118.419 224.676C118.3 228.688 116.855 230.065 115.223 230.065C114.39 230.065 113.642 229.708 113.098 229.113L112.333 229.98ZM122.938 231.221C123.516 231.221 123.992 230.779 123.992 230.133C123.992 229.453 123.516 229.011 122.938 229.011C122.377 229.011 121.901 229.453 121.901 230.133C121.901 230.779 122.377 231.221 122.938 231.221ZM127.044 226.427L130.053 221.973C130.393 221.378 130.733 220.766 131.039 220.171H131.124C131.073 220.783 131.022 221.769 131.022 222.381V226.427H127.044ZM134.031 226.427H132.331V218.556H130.852L125.565 226.631V227.532H131.022V231H132.331V227.532H134.031V226.427ZM137.972 231H139.417C139.621 226.138 140.165 223.18 143.106 219.389V218.556H135.405V219.746H141.508C139.06 223.146 138.176 226.206 137.972 231Z" fill="white"/>
<path d="M378.403 231.221C380.46 231.221 382.415 229.674 382.415 226.971C382.415 224.217 380.749 222.993 378.692 222.993C377.91 222.993 377.332 223.197 376.754 223.52L377.094 219.746H381.82V218.556H375.87L375.479 224.336L376.244 224.812C376.958 224.336 377.502 224.064 378.352 224.064C379.967 224.064 381.021 225.169 381.021 227.005C381.021 228.875 379.78 230.065 378.284 230.065C376.805 230.065 375.887 229.385 375.173 228.654L374.476 229.572C375.309 230.405 376.465 231.221 378.403 231.221ZM388.039 231.221C390.334 231.221 391.881 229.81 391.881 228.025C391.881 226.325 390.861 225.39 389.773 224.761V224.676C390.504 224.098 391.456 222.959 391.456 221.65C391.456 219.746 390.181 218.369 388.073 218.369C386.169 218.369 384.724 219.644 384.724 221.514C384.724 222.823 385.506 223.758 386.407 224.37V224.438C385.268 225.067 384.095 226.223 384.095 227.906C384.095 229.827 385.761 231.221 388.039 231.221ZM388.889 224.302C387.41 223.724 385.999 223.061 385.999 221.514C385.999 220.273 386.866 219.423 388.039 219.423C389.45 219.423 390.249 220.46 390.249 221.718C390.249 222.67 389.773 223.554 388.889 224.302ZM388.056 230.184C386.509 230.184 385.353 229.164 385.353 227.804C385.353 226.563 386.101 225.543 387.155 224.88C388.957 225.611 390.555 226.257 390.555 227.991C390.555 229.249 389.552 230.184 388.056 230.184ZM394.938 231.221C395.516 231.221 395.992 230.779 395.992 230.133C395.992 229.453 395.516 229.011 394.938 229.011C394.377 229.011 393.901 229.453 393.901 230.133C393.901 230.779 394.377 231.221 394.938 231.221ZM401.628 225.22C400.081 225.22 399.333 224.064 399.333 222.347C399.333 220.613 400.268 219.423 401.509 219.423C403.192 219.423 404.178 220.902 404.314 223.503C403.447 224.727 402.478 225.22 401.628 225.22ZM398.245 229.98C398.925 230.694 399.86 231.221 401.169 231.221C403.481 231.221 405.64 229.3 405.64 224.2C405.64 220.307 403.906 218.335 401.509 218.335C399.605 218.335 398.007 219.967 398.007 222.347C398.007 224.914 399.333 226.257 401.407 226.257C402.495 226.257 403.549 225.628 404.331 224.676C404.212 228.688 402.767 230.065 401.135 230.065C400.302 230.065 399.554 229.708 399.01 229.113L398.245 229.98ZM407.337 231H415.038V229.81H411.468C410.839 229.81 410.091 229.844 409.428 229.912C412.471 227.056 414.443 224.489 414.443 221.973C414.443 219.763 413.083 218.335 410.873 218.335C409.326 218.335 408.255 219.066 407.252 220.154L408.068 220.936C408.782 220.103 409.683 219.457 410.72 219.457C412.318 219.457 413.083 220.562 413.083 222.024C413.083 224.183 411.315 226.699 407.337 230.167V231Z" fill="#E05778"/>
<path d="M49.793 100.28V98.563H43.163C43.214 98.274 43.265 97.985 43.299 97.679H50.286V95.928H43.52V95.027H48.722V93.327H43.52V92.46H49.538V90.675H46.274C46.648 90.182 47.039 89.621 47.413 89.026L45.237 88.465C44.965 89.128 44.455 90.012 44.03 90.675H40.29L40.783 90.454C40.562 89.876 40.035 89.06 39.508 88.465L37.706 89.179C38.046 89.621 38.403 90.165 38.658 90.675H35.428V92.46H41.429V93.327H36.397V95.027H41.429V95.928H34.901V97.679H41.157C41.123 97.985 41.072 98.291 41.021 98.563H35.292V100.28H40.358C39.559 101.419 37.961 102.184 34.544 102.643C34.935 103.068 35.411 103.918 35.547 104.462C40.086 103.714 41.905 102.371 42.721 100.28H43.333L42.568 101.555C44.761 102.354 47.872 103.663 49.368 104.513L50.32 102.779C48.909 102.031 46.223 100.994 44.183 100.28H49.793ZM57.647 97.152H56.508V96.064H57.647V97.152ZM59.007 94.993H55.216V98.223H59.007V94.993ZM54.162 102.014V91.134H62.373L61.574 91.933C62.016 92.171 62.526 92.528 62.883 92.834H61.047C61.013 92.358 60.996 91.882 60.979 91.389H59.313C59.347 91.882 59.364 92.358 59.398 92.834H54.791V94.262H59.517C59.67 95.945 59.891 97.492 60.248 98.716C59.976 99.022 59.704 99.311 59.398 99.566L59.364 98.716C57.596 98.954 55.828 99.158 54.587 99.294L54.774 100.773C55.896 100.586 57.222 100.399 58.582 100.195C58.412 100.314 58.225 100.433 58.038 100.535C58.378 100.807 58.922 101.453 59.143 101.759C59.789 101.351 60.367 100.858 60.911 100.314C61.251 100.875 61.676 101.266 62.186 101.436C63.308 101.946 64.192 101.3 64.464 99.209C64.124 99.022 63.512 98.563 63.206 98.257C63.138 99.243 63.002 99.906 62.815 99.838C62.509 99.77 62.254 99.447 62.033 98.937C62.798 97.815 63.41 96.523 63.818 95.044L62.271 94.738C62.067 95.503 61.812 96.2 61.472 96.863C61.336 96.098 61.234 95.214 61.149 94.262H64.192V92.834H63.376L64.056 92.12C63.75 91.797 63.172 91.406 62.628 91.134H64.736V102.014H54.162ZM52.241 89.315V104.53H54.162V103.816H64.736V104.53H66.742V89.315H52.241Z" fill="#FBFBFB"/>
<path d="M43.537 164.186V160.531H47.379V164.186H43.537ZM37.57 164.186V160.531H41.395V164.186H37.57ZM43.537 158.542V155.601H41.395V158.542H35.53V167.11H37.57V166.175H41.395V171.479H43.537V166.175H47.379V167.025H49.504V158.542H43.537ZM57.647 164.152H56.508V163.064H57.647V164.152ZM59.007 161.993H55.216V165.223H59.007V161.993ZM54.162 169.014V158.134H62.373L61.574 158.933C62.016 159.171 62.526 159.528 62.883 159.834H61.047C61.013 159.358 60.996 158.882 60.979 158.389H59.313C59.347 158.882 59.364 159.358 59.398 159.834H54.791V161.262H59.517C59.67 162.945 59.891 164.492 60.248 165.716C59.976 166.022 59.704 166.311 59.398 166.566L59.364 165.716C57.596 165.954 55.828 166.158 54.587 166.294L54.774 167.773C55.896 167.586 57.222 167.399 58.582 167.195C58.412 167.314 58.225 167.433 58.038 167.535C58.378 167.807 58.922 168.453 59.143 168.759C59.789 168.351 60.367 167.858 60.911 167.314C61.251 167.875 61.676 168.266 62.186 168.436C63.308 168.946 64.192 168.3 64.464 166.209C64.124 166.022 63.512 165.563 63.206 165.257C63.138 166.243 63.002 166.906 62.815 166.838C62.509 166.77 62.254 166.447 62.033 165.937C62.798 164.815 63.41 163.523 63.818 162.044L62.271 161.738C62.067 162.503 61.812 163.2 61.472 163.863C61.336 163.098 61.234 162.214 61.149 161.262H64.192V159.834H63.376L64.056 159.12C63.75 158.797 63.172 158.406 62.628 158.134H64.736V169.014H54.162ZM52.241 156.315V171.53H54.162V170.816H64.736V171.53H66.742V156.315H52.241Z" fill="#FBFBFB"/>
<path d="M33.354 221.341C33.116 220.525 32.504 219.233 31.926 218.281L30.447 218.876C30.974 219.879 31.569 221.222 31.79 222.038L33.354 221.341ZM26.061 222.718V220.27C26.775 220.083 27.472 219.845 28.084 219.573C28.084 220.627 28.118 221.698 28.152 222.718H26.061ZM31.331 225.047C31.059 225.761 30.753 226.475 30.379 227.121C30.277 226.322 30.209 225.421 30.141 224.469H33.099V222.718H30.056C30.005 221.171 29.988 219.505 30.022 217.856H28.067C28.067 218.417 28.067 218.961 28.084 219.505L26.673 218.009C25.517 218.57 23.715 219.148 21.998 219.539C22.168 219.08 22.321 218.621 22.474 218.196L20.604 217.635C19.873 220.134 18.615 222.599 17.238 224.18C17.561 224.724 18.071 225.88 18.224 226.373C18.564 225.948 18.921 225.489 19.261 224.996V233.462H21.182V221.511C21.386 221.052 21.59 220.593 21.777 220.134C21.93 220.491 22.066 220.899 22.134 221.188C22.797 221.069 23.46 220.933 24.157 220.78V222.718H21.59V224.469H24.157V226.832C23.171 227.053 22.27 227.24 21.539 227.393L21.998 229.331C22.661 229.178 23.392 228.991 24.157 228.787V231.303C24.157 231.558 24.072 231.626 23.817 231.626C23.562 231.643 22.78 231.643 22.015 231.626C22.27 232.136 22.525 232.952 22.593 233.479C23.817 233.479 24.684 233.411 25.262 233.105C25.874 232.799 26.061 232.323 26.061 231.337V228.294C26.724 228.124 27.421 227.954 28.067 227.784L27.863 225.982L26.061 226.407V224.469H28.237C28.339 226.271 28.526 227.937 28.798 229.331C27.999 230.198 27.098 230.963 26.112 231.558C26.503 231.881 27.132 232.595 27.387 232.969C28.067 232.51 28.73 231.966 29.342 231.354C29.835 232.68 30.532 233.496 31.484 233.496C32.827 233.496 33.354 232.799 33.626 230.215C33.167 230.011 32.555 229.569 32.181 229.127C32.13 230.844 31.977 231.575 31.739 231.575C31.365 231.575 31.042 230.878 30.787 229.705C31.739 228.464 32.538 227.036 33.116 225.489L31.331 225.047ZM35.615 229.875C35.479 230.912 35.241 232.051 34.816 232.765C35.241 232.85 35.989 233.003 36.363 233.122C36.703 232.374 37.026 231.201 37.179 230.096L35.615 229.875ZM37.553 230.096C37.791 230.98 37.978 232.136 37.978 232.884L39.525 232.612C39.491 231.864 39.287 230.725 39.015 229.841L37.553 230.096ZM39.593 229.824C40.001 230.64 40.409 231.728 40.579 232.425L42.041 232.068C41.854 231.354 41.412 230.3 40.987 229.518L39.593 229.824ZM44.37 230.385H46.104V231.32H44.37V230.385ZM46.104 226.577H44.37V225.676H46.104V226.577ZM46.104 228.94H44.37V228.022H46.104V228.94ZM41.412 219.607H43.452V220.763H41.412V219.607ZM39.559 220.763H37.57V219.607H39.559V220.763ZM45.288 219.607H47.379V220.763H45.288V219.607ZM50.32 231.32H47.872V230.385H49.64V228.94H47.872V228.022H49.64V226.577H47.872V225.676H50.099V224.078H47.991C47.804 223.5 47.498 222.871 47.192 222.327L45.645 222.786C45.849 223.177 46.036 223.636 46.206 224.078H44.557C44.812 223.585 45.05 223.092 45.237 222.582L43.707 222.208H49.419V218.162H35.632V222.208H37.604C36.975 223.33 36.108 224.418 35.802 224.707C35.445 225.047 35.156 225.268 34.833 225.319C35.054 225.676 35.36 226.322 35.462 226.611C35.751 226.509 36.159 226.424 37.553 226.305C37.043 226.815 36.618 227.189 36.397 227.376C35.853 227.835 35.445 228.141 35.003 228.209C35.224 228.566 35.53 229.212 35.615 229.484C36.057 229.314 36.72 229.195 40.511 228.77C40.596 229.042 40.664 229.314 40.698 229.535L42.109 228.974C41.973 228.226 41.48 227.07 41.004 226.186L39.678 226.662C39.797 226.934 39.933 227.206 40.052 227.512L38.131 227.699C39.372 226.645 40.545 225.421 41.446 224.231L39.933 223.364C39.627 223.891 39.219 224.401 38.811 224.894L37.587 224.962C38.301 224.231 38.981 223.381 39.491 222.582L38.59 222.208H43.435C42.891 223.636 41.956 225.047 40.868 225.965C41.293 226.22 42.024 226.764 42.364 227.087L42.534 226.917V233.496H44.37V232.935H50.32V231.32ZM54.876 226.526H57.154V227.682H54.876V226.526ZM57.154 221.375V222.378H54.876V221.375H57.154ZM54.876 223.925H57.154V224.979H54.876V223.925ZM60.078 227.682H59.007V221.375H60.01V219.607H59.007V217.788H57.154V219.607H54.876V217.788H53.057V219.607H51.765V221.375H53.057V227.682H51.561V229.45H60.078V227.682ZM53.686 229.569C53.227 230.538 52.394 231.575 51.561 232.221C52.02 232.493 52.802 233.071 53.159 233.411C54.026 232.612 55.012 231.337 55.573 230.113L53.686 229.569ZM67.456 223.177H62.509V220.678C64.226 220.253 66.011 219.658 67.422 218.961L65.807 217.516C64.583 218.247 62.526 218.961 60.656 219.437V225.608C60.656 227.767 60.469 229.892 59.228 231.745C58.905 231.133 58.242 230.249 57.732 229.586L56.117 230.334C56.627 231.031 57.273 232.017 57.545 232.629L59.177 231.83C59.007 232.068 58.82 232.306 58.616 232.544C59.075 232.867 59.704 233.411 60.027 233.853C62.152 231.541 62.509 228.736 62.509 225.608V225.047H64.073V233.462H65.994V225.047H67.456V223.177Z" fill="#FBFBFB"/>
</svg>
