<svg width="600" height="250" viewBox="0 0 600 250" fill="none" xmlns="http://www.w3.org/2000/svg">
<rect x="25" width="413" height="50" fill="black" fill-opacity="0.5"/>
<path d="M44.44 16.08C44.36 19.46 44.74 28.42 36.62 32.76C37.42 33.3 38.18 34.06 38.6 34.7C42.76 32.26 44.86 28.64 45.96 25.12C47.12 28.56 49.34 32.46 53.78 34.58C54.1 33.9 54.78 33.1 55.52 32.52C48.54 29.44 47.32 21.9 47.04 19.2C47.12 18 47.16 16.92 47.18 16.08H44.44ZM61.24 27.32V22.92H63.14V20.66H61.24V16.32H59.02V20.66H56.92V22.92H59.02V28.26C58.06 28.62 57.22 28.96 56.52 29.2L57.48 31.6C59.28 30.76 61.5 29.7 63.58 28.66L63.02 26.58L61.24 27.32ZM65.42 29.64H71.52V27.6H65.42V29.64ZM66.4 23.74V25.78H71.08V23.74H66.4ZM75.06 19.06H67.9C68.22 18.24 68.5 17.44 68.74 16.6L66.54 16.06C65.82 18.66 64.62 21.34 63.18 23C63.74 23.28 64.72 23.9 65.16 24.26C65.78 23.42 66.4 22.4 66.96 21.22H72.78C72.6 28.36 72.4 31.56 71.78 32.2C71.54 32.46 71.32 32.52 70.92 32.52C70.34 32.52 69.1 32.52 67.68 32.4C68.12 33.06 68.46 34.08 68.5 34.72C69.7 34.76 71.02 34.78 71.8 34.68C72.64 34.56 73.24 34.32 73.82 33.52C74.62 32.42 74.84 29.28 75.06 20.2V19.06ZM84.18 33.28C86.24 33.28 87.98 32.48 88.98 31.5V24.82H83.72V27.24H86.34V30.16C85.92 30.52 85.2 30.72 84.48 30.72C81.58 30.72 80.1 28.78 80.1 25.56C80.1 22.38 81.82 20.46 84.28 20.46C85.62 20.46 86.46 21 87.18 21.7L88.76 19.82C87.8 18.84 86.32 17.92 84.18 17.92C80.24 17.92 77.08 20.78 77.08 25.66C77.08 30.6 80.14 33.28 84.18 33.28ZM92.1559 33H96.3759C100.736 33 103.536 30.52 103.536 25.54C103.536 20.54 100.736 18.2 96.2159 18.2H92.1559V33ZM95.1159 30.62V20.56H96.0359C98.7959 20.56 100.516 21.92 100.516 25.54C100.516 29.14 98.7959 30.62 96.0359 30.62H95.1159ZM106.433 33H109.393V27.74H111.373C114.553 27.74 117.093 26.22 117.093 22.84C117.093 19.34 114.573 18.2 111.293 18.2H106.433V33ZM109.393 25.4V20.54H111.073C113.113 20.54 114.193 21.12 114.193 22.84C114.193 24.54 113.213 25.4 111.173 25.4H109.393ZM135.153 35L137.053 34.16C135.053 32 133.473 29.24 133.473 25.4C133.473 21.56 135.053 18.8 137.053 16.64L135.153 15.8C132.993 17.92 131.213 21.12 131.213 25.4C131.213 29.68 132.993 32.88 135.153 35ZM145.773 26.12H144.433V24.84H145.773V26.12ZM147.373 23.58H142.913V27.38H147.373V23.58ZM141.673 31.84V19.04H151.333L150.393 19.98C150.913 20.26 151.513 20.68 151.933 21.04H149.773C149.733 20.48 149.713 19.92 149.693 19.34H147.733C147.773 19.92 147.793 20.48 147.833 21.04H142.413V22.72H147.973C148.153 24.7 148.413 26.52 148.833 27.96C148.513 28.32 148.193 28.66 147.833 28.96L147.793 27.96C145.713 28.24 143.633 28.48 142.173 28.64L142.393 30.38C143.713 30.16 145.273 29.94 146.873 29.7C146.673 29.84 146.453 29.98 146.233 30.1C146.633 30.42 147.273 31.18 147.533 31.54C148.293 31.06 148.973 30.48 149.613 29.84C150.013 30.5 150.513 30.96 151.113 31.16C152.433 31.76 153.473 31 153.793 28.54C153.393 28.32 152.673 27.78 152.313 27.42C152.233 28.58 152.073 29.36 151.853 29.28C151.493 29.2 151.193 28.82 150.933 28.22C151.833 26.9 152.553 25.38 153.033 23.64L151.213 23.28C150.973 24.18 150.673 25 150.273 25.78C150.113 24.88 149.993 23.84 149.893 22.72H153.473V21.04H152.513L153.313 20.2C152.953 19.82 152.273 19.36 151.633 19.04H154.113V31.84H141.673ZM139.413 16.9V34.8H141.673V33.96H154.113V34.8H156.473V16.9H139.413ZM167.253 21.9C166.153 22.02 165.293 22.12 164.473 22.18L164.693 23.64C165.453 23.5 166.113 23.38 166.893 23.24C166.233 24 165.533 24.64 164.753 25.08C164.553 24.4 164.213 23.66 163.673 22.88C163.873 22.3 164.093 21.64 164.273 20.98C164.673 21.28 165.133 21.68 165.373 21.92C165.813 21.52 166.213 21.04 166.593 20.5C167.073 20.9 167.593 21.34 167.993 21.72C167.773 22.08 167.533 22.44 167.293 22.74L167.253 21.9ZM169.173 19.06C169.033 19.5 168.873 19.92 168.693 20.3C168.313 19.98 167.853 19.62 167.433 19.3L167.573 19.06H169.173ZM168.773 23.78C169.753 22.48 170.513 20.88 171.033 19.02C171.573 20.8 172.313 22.44 173.273 23.78H168.773ZM174.593 18.68C174.333 19.36 173.993 20.04 173.633 20.62C173.313 20 173.053 19.36 172.833 18.68H174.593ZM167.933 25.66H173.773V24.44C174.473 25.26 175.233 25.98 176.133 26.54C176.433 26.02 177.033 25.26 177.473 24.88C176.393 24.32 175.433 23.42 174.673 22.36C175.613 21.16 176.533 19.4 177.073 17.76L175.793 17L175.413 17.1H172.253L172.233 18.02L171.233 18.26L171.313 17.9L170.133 17.44L169.813 17.52H168.313C168.473 17.18 168.593 16.84 168.713 16.5L166.973 16.1C166.453 17.66 165.613 19.12 164.513 20.2C164.793 19.32 165.053 18.4 165.273 17.58L163.813 16.76L163.493 16.84H159.293V34.7H161.333V18.96H162.793C162.493 20.26 162.133 21.88 161.753 23.1C162.813 24.54 163.013 25.84 163.013 26.8C163.013 27.38 162.913 27.84 162.693 28.02C162.553 28.14 162.373 28.18 162.173 28.18C161.973 28.2 161.713 28.2 161.373 28.16C161.693 28.72 161.873 29.58 161.893 30.12C162.313 30.14 162.753 30.14 163.093 30.1C163.513 30.02 163.873 29.88 164.153 29.64C164.773 29.18 165.013 28.32 165.013 27.04C165.013 26.48 164.953 25.84 164.773 25.14C165.133 25.5 165.653 26.14 165.893 26.54C166.633 26.06 167.313 25.48 167.933 24.8V25.66ZM166.733 29.64C166.133 30.74 165.153 31.96 164.273 32.78C164.793 33.06 165.713 33.62 166.173 34C167.033 33.08 168.133 31.58 168.873 30.34L166.733 29.64ZM175.773 28.94V27.04H166.093V28.94H169.833V34.7H172.073V28.94H175.773ZM172.953 30.44C173.813 31.5 175.033 32.96 175.573 33.84L177.413 32.66C176.813 31.8 175.553 30.4 174.693 29.42L172.953 30.44ZM195.053 17.46H180.853V19.76H195.053V17.46ZM192.393 32.18C191.733 32.18 191.613 32.06 191.613 31.3V25.18H196.893V22.86H179.053V25.18H183.573C183.333 28.5 182.773 31.2 178.613 32.76C179.153 33.22 179.813 34.1 180.093 34.7C184.873 32.76 185.793 29.34 186.153 25.18H189.153V31.3C189.153 33.64 189.733 34.4 191.993 34.4H194.393C196.433 34.4 197.033 33.36 197.273 29.78C196.613 29.62 195.593 29.2 195.073 28.78C194.973 31.66 194.853 32.18 194.193 32.18H192.393ZM200.753 15.8L198.853 16.64C200.853 18.8 202.433 21.56 202.433 25.4C202.433 29.24 200.853 32 198.853 34.16L200.753 35C202.913 32.88 204.693 29.68 204.693 25.4C204.693 21.12 202.913 17.92 200.753 15.8Z" fill="white"/>
<circle cx="234.5" cy="24.5" r="12.5" fill="#C2C2C2"/>
<circle cx="340.5" cy="24.5" r="12.5" fill="#F0C860"/>
<path d="M253.9 33H262.96V31.6H258.76C258.02 31.6 257.14 31.64 256.36 31.72C259.94 28.36 262.26 25.34 262.26 22.38C262.26 19.78 260.66 18.1 258.06 18.1C256.24 18.1 254.98 18.96 253.8 20.24L254.76 21.16C255.6 20.18 256.66 19.42 257.88 19.42C259.76 19.42 260.66 20.72 260.66 22.44C260.66 24.98 258.58 27.94 253.9 32.02V33ZM269.477 33.26C272.217 33.26 273.937 30.74 273.937 25.62C273.937 20.56 272.217 18.1 269.477 18.1C266.717 18.1 264.977 20.54 264.977 25.62C264.977 30.74 266.717 33.26 269.477 33.26ZM269.477 31.94C267.737 31.94 266.557 29.98 266.557 25.62C266.557 21.34 267.737 19.42 269.477 19.42C271.197 19.42 272.357 21.34 272.357 25.62C272.357 29.98 271.197 31.94 269.477 31.94ZM280.453 33.26C283.193 33.26 284.913 30.74 284.913 25.62C284.913 20.56 283.193 18.1 280.453 18.1C277.693 18.1 275.953 20.54 275.953 25.62C275.953 30.74 277.693 33.26 280.453 33.26ZM280.453 31.94C278.713 31.94 277.533 29.98 277.533 25.62C277.533 21.34 278.713 19.42 280.453 19.42C282.173 19.42 283.333 21.34 283.333 25.62C283.333 29.98 282.173 31.94 280.453 31.94ZM291.43 33.26C294.17 33.26 295.89 30.74 295.89 25.62C295.89 20.56 294.17 18.1 291.43 18.1C288.67 18.1 286.93 20.54 286.93 25.62C286.93 30.74 288.67 33.26 291.43 33.26ZM291.43 31.94C289.69 31.94 288.51 29.98 288.51 25.62C288.51 21.34 289.69 19.42 291.43 19.42C293.15 19.42 294.31 21.34 294.31 25.62C294.31 29.98 293.15 31.94 291.43 31.94ZM302.586 28.6V24.46H307.226V28.6H302.586ZM315.906 28.6H308.566V24.46H314.546V23.2H308.566V20.02H314.966V18.74H302.966C303.326 18.04 303.646 17.3 303.926 16.56L302.606 16.24C301.606 18.94 299.926 21.54 298.006 23.18C298.366 23.38 298.906 23.82 299.166 24.02C300.286 22.96 301.346 21.58 302.266 20.02H307.226V23.2H301.246V28.6H297.946V29.88H307.226V34.52H308.566V29.88H315.906V28.6Z" fill="#C2C2C2"/>
<path d="M359.9 33H368.96V31.6H364.76C364.02 31.6 363.14 31.64 362.36 31.72C365.94 28.36 368.26 25.34 368.26 22.38C368.26 19.78 366.66 18.1 364.06 18.1C362.24 18.1 360.98 18.96 359.8 20.24L360.76 21.16C361.6 20.18 362.66 19.42 363.88 19.42C365.76 19.42 366.66 20.72 366.66 22.44C366.66 24.98 364.58 27.94 359.9 32.02V33ZM375.477 33.26C378.217 33.26 379.937 30.74 379.937 25.62C379.937 20.56 378.217 18.1 375.477 18.1C372.717 18.1 370.977 20.54 370.977 25.62C370.977 30.74 372.717 33.26 375.477 33.26ZM375.477 31.94C373.737 31.94 372.557 29.98 372.557 25.62C372.557 21.34 373.737 19.42 375.477 19.42C377.197 19.42 378.357 21.34 378.357 25.62C378.357 29.98 377.197 31.94 375.477 31.94ZM382.733 33H390.613V31.64H387.633V18.36H386.393C385.633 18.82 384.693 19.14 383.433 19.36V20.42H386.013V31.64H382.733V33ZM394.05 27.62L397.59 22.38C397.99 21.68 398.39 20.96 398.75 20.26H398.85C398.79 20.98 398.73 22.14 398.73 22.86V27.62H394.05ZM402.27 27.62H400.27V18.36H398.53L392.31 27.86V28.92H398.73V33H400.27V28.92H402.27V27.62ZM408.586 28.6V24.46H413.226V28.6H408.586ZM421.906 28.6H414.566V24.46H420.546V23.2H414.566V20.02H420.966V18.74H408.966C409.326 18.04 409.646 17.3 409.926 16.56L408.606 16.24C407.606 18.94 405.926 21.54 404.006 23.18C404.366 23.38 404.906 23.82 405.166 24.02C406.286 22.96 407.346 21.58 408.266 20.02H413.226V23.2H407.246V28.6H403.946V29.88H413.226V34.52H414.566V29.88H421.906V28.6Z" fill="#F0C860"/>
<path d="M-15 142H624" stroke="#C4C4C4" stroke-width="0.75"/>
<path d="M-15 206H624" stroke="#C4C4C4" stroke-width="0.75"/>
<path d="M527.027 108.061C527.613 107.475 527.613 106.525 527.027 105.939L517.482 96.3934C516.896 95.8076 515.946 95.8076 515.36 96.3934C514.774 96.9792 514.774 97.9289 515.36 98.5147L523.845 107L515.36 115.485C514.774 116.071 514.774 117.021 515.36 117.607C515.946 118.192 516.896 118.192 517.482 117.607L527.027 108.061ZM398.737 108.5L525.967 108.5L525.967 105.5L398.737 105.5L398.737 108.5Z" fill="#C2C2C2"/>
<path d="M204.651 177.061C205.237 176.475 205.237 175.525 204.651 174.939L195.106 165.393C194.52 164.808 193.57 164.808 192.984 165.393C192.398 165.979 192.398 166.929 192.984 167.515L201.47 176L192.984 184.485C192.398 185.071 192.398 186.021 192.984 186.607C193.57 187.192 194.52 187.192 195.106 186.607L204.651 177.061ZM151.974 177.5L203.591 177.5L203.591 174.5L151.974 174.5L151.974 177.5Z" fill="#C2C2C2"/>
<path d="M311.96 237.061C312.545 236.475 312.545 235.525 311.96 234.939L302.414 225.393C301.828 224.808 300.878 224.808 300.292 225.393C299.707 225.979 299.707 226.929 300.292 227.515L308.778 236L300.292 244.485C299.707 245.071 299.707 246.021 300.292 246.607C300.878 247.192 301.828 247.192 302.414 246.607L311.96 237.061ZM176.878 237.5L310.899 237.5V234.5L176.878 234.5V237.5Z" fill="#C2C2C2"/>
<path d="M49.793 113.28V111.563H43.163C43.214 111.274 43.265 110.985 43.299 110.679H50.286V108.928H43.52V108.027H48.722V106.327H43.52V105.46H49.538V103.675H46.274C46.648 103.182 47.039 102.621 47.413 102.026L45.237 101.465C44.965 102.128 44.455 103.012 44.03 103.675H40.29L40.783 103.454C40.562 102.876 40.035 102.06 39.508 101.465L37.706 102.179C38.046 102.621 38.403 103.165 38.658 103.675H35.428V105.46H41.429V106.327H36.397V108.027H41.429V108.928H34.901V110.679H41.157C41.123 110.985 41.072 111.291 41.021 111.563H35.292V113.28H40.358C39.559 114.419 37.961 115.184 34.544 115.643C34.935 116.068 35.411 116.918 35.547 117.462C40.086 116.714 41.905 115.371 42.721 113.28H43.333L42.568 114.555C44.761 115.354 47.872 116.663 49.368 117.513L50.32 115.779C48.909 115.031 46.223 113.994 44.183 113.28H49.793ZM57.647 110.152H56.508V109.064H57.647V110.152ZM59.007 107.993H55.216V111.223H59.007V107.993ZM54.162 115.014V104.134H62.373L61.574 104.933C62.016 105.171 62.526 105.528 62.883 105.834H61.047C61.013 105.358 60.996 104.882 60.979 104.389H59.313C59.347 104.882 59.364 105.358 59.398 105.834H54.791V107.262H59.517C59.67 108.945 59.891 110.492 60.248 111.716C59.976 112.022 59.704 112.311 59.398 112.566L59.364 111.716C57.596 111.954 55.828 112.158 54.587 112.294L54.774 113.773C55.896 113.586 57.222 113.399 58.582 113.195C58.412 113.314 58.225 113.433 58.038 113.535C58.378 113.807 58.922 114.453 59.143 114.759C59.789 114.351 60.367 113.858 60.911 113.314C61.251 113.875 61.676 114.266 62.186 114.436C63.308 114.946 64.192 114.3 64.464 112.209C64.124 112.022 63.512 111.563 63.206 111.257C63.138 112.243 63.002 112.906 62.815 112.838C62.509 112.77 62.254 112.447 62.033 111.937C62.798 110.815 63.41 109.523 63.818 108.044L62.271 107.738C62.067 108.503 61.812 109.2 61.472 109.863C61.336 109.098 61.234 108.214 61.149 107.262H64.192V105.834H63.376L64.056 105.12C63.75 104.797 63.172 104.406 62.628 104.134H64.736V115.014H54.162ZM52.241 102.315V117.53H54.162V116.816H64.736V117.53H66.742V102.315H52.241Z" fill="#FBFBFB"/>
<path d="M43.537 177.186V173.531H47.379V177.186H43.537ZM37.57 177.186V173.531H41.395V177.186H37.57ZM43.537 171.542V168.601H41.395V171.542H35.53V180.11H37.57V179.175H41.395V184.479H43.537V179.175H47.379V180.025H49.504V171.542H43.537ZM57.647 177.152H56.508V176.064H57.647V177.152ZM59.007 174.993H55.216V178.223H59.007V174.993ZM54.162 182.014V171.134H62.373L61.574 171.933C62.016 172.171 62.526 172.528 62.883 172.834H61.047C61.013 172.358 60.996 171.882 60.979 171.389H59.313C59.347 171.882 59.364 172.358 59.398 172.834H54.791V174.262H59.517C59.67 175.945 59.891 177.492 60.248 178.716C59.976 179.022 59.704 179.311 59.398 179.566L59.364 178.716C57.596 178.954 55.828 179.158 54.587 179.294L54.774 180.773C55.896 180.586 57.222 180.399 58.582 180.195C58.412 180.314 58.225 180.433 58.038 180.535C58.378 180.807 58.922 181.453 59.143 181.759C59.789 181.351 60.367 180.858 60.911 180.314C61.251 180.875 61.676 181.266 62.186 181.436C63.308 181.946 64.192 181.3 64.464 179.209C64.124 179.022 63.512 178.563 63.206 178.257C63.138 179.243 63.002 179.906 62.815 179.838C62.509 179.77 62.254 179.447 62.033 178.937C62.798 177.815 63.41 176.523 63.818 175.044L62.271 174.738C62.067 175.503 61.812 176.2 61.472 176.863C61.336 176.098 61.234 175.214 61.149 174.262H64.192V172.834H63.376L64.056 172.12C63.75 171.797 63.172 171.406 62.628 171.134H64.736V182.014H54.162ZM52.241 169.315V184.53H54.162V183.816H64.736V184.53H66.742V169.315H52.241Z" fill="#FBFBFB"/>
<path d="M33.354 234.341C33.116 233.525 32.504 232.233 31.926 231.281L30.447 231.876C30.974 232.879 31.569 234.222 31.79 235.038L33.354 234.341ZM26.061 235.718V233.27C26.775 233.083 27.472 232.845 28.084 232.573C28.084 233.627 28.118 234.698 28.152 235.718H26.061ZM31.331 238.047C31.059 238.761 30.753 239.475 30.379 240.121C30.277 239.322 30.209 238.421 30.141 237.469H33.099V235.718H30.056C30.005 234.171 29.988 232.505 30.022 230.856H28.067C28.067 231.417 28.067 231.961 28.084 232.505L26.673 231.009C25.517 231.57 23.715 232.148 21.998 232.539C22.168 232.08 22.321 231.621 22.474 231.196L20.604 230.635C19.873 233.134 18.615 235.599 17.238 237.18C17.561 237.724 18.071 238.88 18.224 239.373C18.564 238.948 18.921 238.489 19.261 237.996V246.462H21.182V234.511C21.386 234.052 21.59 233.593 21.777 233.134C21.93 233.491 22.066 233.899 22.134 234.188C22.797 234.069 23.46 233.933 24.157 233.78V235.718H21.59V237.469H24.157V239.832C23.171 240.053 22.27 240.24 21.539 240.393L21.998 242.331C22.661 242.178 23.392 241.991 24.157 241.787V244.303C24.157 244.558 24.072 244.626 23.817 244.626C23.562 244.643 22.78 244.643 22.015 244.626C22.27 245.136 22.525 245.952 22.593 246.479C23.817 246.479 24.684 246.411 25.262 246.105C25.874 245.799 26.061 245.323 26.061 244.337V241.294C26.724 241.124 27.421 240.954 28.067 240.784L27.863 238.982L26.061 239.407V237.469H28.237C28.339 239.271 28.526 240.937 28.798 242.331C27.999 243.198 27.098 243.963 26.112 244.558C26.503 244.881 27.132 245.595 27.387 245.969C28.067 245.51 28.73 244.966 29.342 244.354C29.835 245.68 30.532 246.496 31.484 246.496C32.827 246.496 33.354 245.799 33.626 243.215C33.167 243.011 32.555 242.569 32.181 242.127C32.13 243.844 31.977 244.575 31.739 244.575C31.365 244.575 31.042 243.878 30.787 242.705C31.739 241.464 32.538 240.036 33.116 238.489L31.331 238.047ZM35.615 242.875C35.479 243.912 35.241 245.051 34.816 245.765C35.241 245.85 35.989 246.003 36.363 246.122C36.703 245.374 37.026 244.201 37.179 243.096L35.615 242.875ZM37.553 243.096C37.791 243.98 37.978 245.136 37.978 245.884L39.525 245.612C39.491 244.864 39.287 243.725 39.015 242.841L37.553 243.096ZM39.593 242.824C40.001 243.64 40.409 244.728 40.579 245.425L42.041 245.068C41.854 244.354 41.412 243.3 40.987 242.518L39.593 242.824ZM44.37 243.385H46.104V244.32H44.37V243.385ZM46.104 239.577H44.37V238.676H46.104V239.577ZM46.104 241.94H44.37V241.022H46.104V241.94ZM41.412 232.607H43.452V233.763H41.412V232.607ZM39.559 233.763H37.57V232.607H39.559V233.763ZM45.288 232.607H47.379V233.763H45.288V232.607ZM50.32 244.32H47.872V243.385H49.64V241.94H47.872V241.022H49.64V239.577H47.872V238.676H50.099V237.078H47.991C47.804 236.5 47.498 235.871 47.192 235.327L45.645 235.786C45.849 236.177 46.036 236.636 46.206 237.078H44.557C44.812 236.585 45.05 236.092 45.237 235.582L43.707 235.208H49.419V231.162H35.632V235.208H37.604C36.975 236.33 36.108 237.418 35.802 237.707C35.445 238.047 35.156 238.268 34.833 238.319C35.054 238.676 35.36 239.322 35.462 239.611C35.751 239.509 36.159 239.424 37.553 239.305C37.043 239.815 36.618 240.189 36.397 240.376C35.853 240.835 35.445 241.141 35.003 241.209C35.224 241.566 35.53 242.212 35.615 242.484C36.057 242.314 36.72 242.195 40.511 241.77C40.596 242.042 40.664 242.314 40.698 242.535L42.109 241.974C41.973 241.226 41.48 240.07 41.004 239.186L39.678 239.662C39.797 239.934 39.933 240.206 40.052 240.512L38.131 240.699C39.372 239.645 40.545 238.421 41.446 237.231L39.933 236.364C39.627 236.891 39.219 237.401 38.811 237.894L37.587 237.962C38.301 237.231 38.981 236.381 39.491 235.582L38.59 235.208H43.435C42.891 236.636 41.956 238.047 40.868 238.965C41.293 239.22 42.024 239.764 42.364 240.087L42.534 239.917V246.496H44.37V245.935H50.32V244.32ZM54.876 239.526H57.154V240.682H54.876V239.526ZM57.154 234.375V235.378H54.876V234.375H57.154ZM54.876 236.925H57.154V237.979H54.876V236.925ZM60.078 240.682H59.007V234.375H60.01V232.607H59.007V230.788H57.154V232.607H54.876V230.788H53.057V232.607H51.765V234.375H53.057V240.682H51.561V242.45H60.078V240.682ZM53.686 242.569C53.227 243.538 52.394 244.575 51.561 245.221C52.02 245.493 52.802 246.071 53.159 246.411C54.026 245.612 55.012 244.337 55.573 243.113L53.686 242.569ZM67.456 236.177H62.509V233.678C64.226 233.253 66.011 232.658 67.422 231.961L65.807 230.516C64.583 231.247 62.526 231.961 60.656 232.437V238.608C60.656 240.767 60.469 242.892 59.228 244.745C58.905 244.133 58.242 243.249 57.732 242.586L56.117 243.334C56.627 244.031 57.273 245.017 57.545 245.629L59.177 244.83C59.007 245.068 58.82 245.306 58.616 245.544C59.075 245.867 59.704 246.411 60.027 246.853C62.152 244.541 62.509 241.736 62.509 238.608V238.047H64.073V246.462H65.994V238.047H67.456V236.177Z" fill="#FBFBFB"/>
<circle cx="386.5" cy="107.5" r="12.5" fill="#C2C2C2"/>
<circle cx="542.5" cy="107.5" r="12.5" fill="#F0C860"/>
<circle cx="139.5" cy="176.5" r="12.5" fill="#C2C2C2"/>
<circle cx="223.5" cy="175.5" r="12.5" fill="#F0C860"/>
<circle cx="168.5" cy="237.5" r="12.5" fill="#C2C2C2"/>
<circle cx="330.5" cy="236.5" r="12.5" fill="#F0C860"/>
<path d="M356.454 86.221C358.63 86.221 360.364 84.895 360.364 82.685C360.364 80.968 359.174 79.846 357.712 79.506V79.438C359.038 78.962 359.939 77.959 359.939 76.412C359.939 74.44 358.443 73.335 356.403 73.318C354.975 73.335 353.887 73.964 352.969 74.797L353.734 75.698C354.431 74.984 355.332 74.457 356.352 74.44C357.695 74.457 358.528 75.273 358.528 76.514C358.528 77.908 357.627 78.979 355.026 78.979V80.067C357.916 80.067 358.97 81.104 358.97 82.651C358.97 84.13 357.882 85.065 356.369 85.065C354.89 85.065 353.955 84.368 353.224 83.62L352.51 84.521C353.309 85.388 354.516 86.221 356.454 86.221ZM366.413 85.116C364.764 85.116 363.812 83.62 363.642 80.985C364.492 79.795 365.461 79.336 366.26 79.336C367.858 79.336 368.589 80.475 368.589 82.209C368.589 83.926 367.654 85.116 366.413 85.116ZM369.694 74.576C369.014 73.862 368.096 73.335 366.855 73.335C364.475 73.335 362.299 75.171 362.299 80.084C362.299 84.147 364.016 86.221 366.413 86.221C368.3 86.221 369.915 84.589 369.915 82.209C369.915 79.608 368.589 78.299 366.481 78.299C365.478 78.299 364.39 78.877 363.608 79.812C363.676 75.834 365.155 74.491 366.906 74.491C367.654 74.491 368.402 74.848 368.912 75.443L369.694 74.576ZM375.114 86.221C377.29 86.221 379.024 84.895 379.024 82.685C379.024 80.968 377.834 79.846 376.372 79.506V79.438C377.698 78.962 378.599 77.959 378.599 76.412C378.599 74.44 377.103 73.335 375.063 73.318C373.635 73.335 372.547 73.964 371.629 74.797L372.394 75.698C373.091 74.984 373.992 74.457 375.012 74.44C376.355 74.457 377.188 75.273 377.188 76.514C377.188 77.908 376.287 78.979 373.686 78.979V80.067C376.576 80.067 377.63 81.104 377.63 82.651C377.63 84.13 376.542 85.065 375.029 85.065C373.55 85.065 372.615 84.368 371.884 83.62L371.17 84.521C371.969 85.388 373.176 86.221 375.114 86.221ZM384.444 86.221C386.62 86.221 388.354 84.895 388.354 82.685C388.354 80.968 387.164 79.846 385.702 79.506V79.438C387.028 78.962 387.929 77.959 387.929 76.412C387.929 74.44 386.433 73.335 384.393 73.318C382.965 73.335 381.877 73.964 380.959 74.797L381.724 75.698C382.421 74.984 383.322 74.457 384.342 74.44C385.685 74.457 386.518 75.273 386.518 76.514C386.518 77.908 385.617 78.979 383.016 78.979V80.067C385.906 80.067 386.96 81.104 386.96 82.651C386.96 84.13 385.872 85.065 384.359 85.065C382.88 85.065 381.945 84.368 381.214 83.62L380.5 84.521C381.299 85.388 382.506 86.221 384.444 86.221ZM393.995 86.221C396.324 86.221 397.786 84.079 397.786 79.727C397.786 75.426 396.324 73.335 393.995 73.335C391.649 73.335 390.17 75.409 390.17 79.727C390.17 84.079 391.649 86.221 393.995 86.221ZM393.995 85.099C392.516 85.099 391.513 83.433 391.513 79.727C391.513 76.089 392.516 74.457 393.995 74.457C395.457 74.457 396.443 76.089 396.443 79.727C396.443 83.433 395.457 85.099 393.995 85.099Z" fill="#C2C2C2"/>
<path d="M533.403 86.221C535.46 86.221 537.415 84.674 537.415 81.971C537.415 79.217 535.749 77.993 533.692 77.993C532.91 77.993 532.332 78.197 531.754 78.52L532.094 74.746H536.82V73.556H530.87L530.479 79.336L531.244 79.812C531.958 79.336 532.502 79.064 533.352 79.064C534.967 79.064 536.021 80.169 536.021 82.005C536.021 83.875 534.78 85.065 533.284 85.065C531.805 85.065 530.887 84.385 530.173 83.654L529.476 84.572C530.309 85.405 531.465 86.221 533.403 86.221ZM542.733 86.221C544.79 86.221 546.745 84.674 546.745 81.971C546.745 79.217 545.079 77.993 543.022 77.993C542.24 77.993 541.662 78.197 541.084 78.52L541.424 74.746H546.15V73.556H540.2L539.809 79.336L540.574 79.812C541.288 79.336 541.832 79.064 542.682 79.064C544.297 79.064 545.351 80.169 545.351 82.005C545.351 83.875 544.11 85.065 542.614 85.065C541.135 85.065 540.217 84.385 539.503 83.654L538.806 84.572C539.639 85.405 540.795 86.221 542.733 86.221ZM549.173 86H555.871V84.844H553.338V73.556H552.284C551.638 73.947 550.839 74.219 549.768 74.406V75.307H551.961V84.844H549.173V86ZM557.755 86H565.456V84.81H561.886C561.257 84.81 560.509 84.844 559.846 84.912C562.889 82.056 564.861 79.489 564.861 76.973C564.861 74.763 563.501 73.335 561.291 73.335C559.744 73.335 558.673 74.066 557.67 75.154L558.486 75.936C559.2 75.103 560.101 74.457 561.138 74.457C562.736 74.457 563.501 75.562 563.501 77.024C563.501 79.183 561.733 81.699 557.755 85.167V86ZM568.122 81.427L571.131 76.973C571.471 76.378 571.811 75.766 572.117 75.171H572.202C572.151 75.783 572.1 76.769 572.1 77.381V81.427H568.122ZM575.109 81.427H573.409V73.556H571.93L566.643 81.631V82.532H572.1V86H573.409V82.532H575.109V81.427Z" fill="#F0C860"/>
<path d="M86.765 183H94.466V181.81H90.896C90.267 181.81 89.519 181.844 88.856 181.912C91.899 179.056 93.871 176.489 93.871 173.973C93.871 171.763 92.511 170.335 90.301 170.335C88.754 170.335 87.683 171.066 86.68 172.154L87.496 172.936C88.21 172.103 89.111 171.457 90.148 171.457C91.746 171.457 92.511 172.562 92.511 174.024C92.511 176.183 90.743 178.699 86.765 182.167V183ZM99.7161 177.22C98.1691 177.22 97.4211 176.064 97.4211 174.347C97.4211 172.613 98.3561 171.423 99.5971 171.423C101.28 171.423 102.266 172.902 102.402 175.503C101.535 176.727 100.566 177.22 99.7161 177.22ZM96.3331 181.98C97.0131 182.694 97.9481 183.221 99.2571 183.221C101.569 183.221 103.728 181.3 103.728 176.2C103.728 172.307 101.994 170.335 99.5971 170.335C97.6931 170.335 96.0951 171.967 96.0951 174.347C96.0951 176.914 97.4211 178.257 99.4951 178.257C100.583 178.257 101.637 177.628 102.419 176.676C102.3 180.688 100.855 182.065 99.2231 182.065C98.3901 182.065 97.6421 181.708 97.0981 181.113L96.3331 181.98ZM106.173 183H112.871V181.844H110.338V170.556H109.284C108.638 170.947 107.839 171.219 106.768 171.406V172.307H108.961V181.844H106.173V183ZM117.39 183H118.835C119.039 178.138 119.583 175.18 122.524 171.389V170.556H114.823V171.746H120.926C118.478 175.146 117.594 178.206 117.39 183Z" fill="#C2C2C2"/>
<path d="M244.513 182H251.211V180.844H248.678V169.556H247.624C246.978 169.947 246.179 170.219 245.108 170.406V171.307H247.301V180.844H244.513V182ZM253.095 182H260.796V180.81H257.226C256.597 180.81 255.849 180.844 255.186 180.912C258.229 178.056 260.201 175.489 260.201 172.973C260.201 170.763 258.841 169.335 256.631 169.335C255.084 169.335 254.013 170.066 253.01 171.154L253.826 171.936C254.54 171.103 255.441 170.457 256.478 170.457C258.076 170.457 258.841 171.562 258.841 173.024C258.841 175.183 257.073 177.699 253.095 181.167V182ZM263.462 177.427L266.471 172.973C266.811 172.378 267.151 171.766 267.457 171.171H267.542C267.491 171.783 267.44 172.769 267.44 173.381V177.427H263.462ZM270.449 177.427H268.749V169.556H267.27L261.983 177.631V178.532H267.44V182H268.749V178.532H270.449V177.427ZM275.699 182.221C277.994 182.221 279.541 180.81 279.541 179.025C279.541 177.325 278.521 176.39 277.433 175.761V175.676C278.164 175.098 279.116 173.959 279.116 172.65C279.116 170.746 277.841 169.369 275.733 169.369C273.829 169.369 272.384 170.644 272.384 172.514C272.384 173.823 273.166 174.758 274.067 175.37V175.438C272.928 176.067 271.755 177.223 271.755 178.906C271.755 180.827 273.421 182.221 275.699 182.221ZM276.549 175.302C275.07 174.724 273.659 174.061 273.659 172.514C273.659 171.273 274.526 170.423 275.699 170.423C277.11 170.423 277.909 171.46 277.909 172.718C277.909 173.67 277.433 174.554 276.549 175.302ZM275.716 181.184C274.169 181.184 273.013 180.164 273.013 178.804C273.013 177.563 273.761 176.543 274.815 175.88C276.617 176.611 278.215 177.257 278.215 178.991C278.215 180.249 277.212 181.184 275.716 181.184ZM284.995 182.221C287.324 182.221 288.786 180.079 288.786 175.727C288.786 171.426 287.324 169.335 284.995 169.335C282.649 169.335 281.17 171.409 281.17 175.727C281.17 180.079 282.649 182.221 284.995 182.221ZM284.995 181.099C283.516 181.099 282.513 179.433 282.513 175.727C282.513 172.089 283.516 170.457 284.995 170.457C286.457 170.457 287.443 172.089 287.443 175.727C287.443 179.433 286.457 181.099 284.995 181.099Z" fill="#F0C860"/>
<path d="M119.083 243.116C117.434 243.116 116.482 241.62 116.312 238.985C117.162 237.795 118.131 237.336 118.93 237.336C120.528 237.336 121.259 238.475 121.259 240.209C121.259 241.926 120.324 243.116 119.083 243.116ZM122.364 232.576C121.684 231.862 120.766 231.335 119.525 231.335C117.145 231.335 114.969 233.171 114.969 238.084C114.969 242.147 116.686 244.221 119.083 244.221C120.97 244.221 122.585 242.589 122.585 240.209C122.585 237.608 121.259 236.299 119.151 236.299C118.148 236.299 117.06 236.877 116.278 237.812C116.346 233.834 117.825 232.491 119.576 232.491C120.324 232.491 121.072 232.848 121.582 233.443L122.364 232.576ZM128.039 244.221C130.334 244.221 131.881 242.81 131.881 241.025C131.881 239.325 130.861 238.39 129.773 237.761V237.676C130.504 237.098 131.456 235.959 131.456 234.65C131.456 232.746 130.181 231.369 128.073 231.369C126.169 231.369 124.724 232.644 124.724 234.514C124.724 235.823 125.506 236.758 126.407 237.37V237.438C125.268 238.067 124.095 239.223 124.095 240.906C124.095 242.827 125.761 244.221 128.039 244.221ZM128.889 237.302C127.41 236.724 125.999 236.061 125.999 234.514C125.999 233.273 126.866 232.423 128.039 232.423C129.45 232.423 130.249 233.46 130.249 234.718C130.249 235.67 129.773 236.554 128.889 237.302ZM128.056 243.184C126.509 243.184 125.353 242.164 125.353 240.804C125.353 239.563 126.101 238.543 127.155 237.88C128.957 238.611 130.555 239.257 130.555 240.991C130.555 242.249 129.552 243.184 128.056 243.184ZM133.425 244H141.126V242.81H137.556C136.927 242.81 136.179 242.844 135.516 242.912C138.559 240.056 140.531 237.489 140.531 234.973C140.531 232.763 139.171 231.335 136.961 231.335C135.414 231.335 134.343 232.066 133.34 233.154L134.156 233.936C134.87 233.103 135.771 232.457 136.808 232.457C138.406 232.457 139.171 233.562 139.171 235.024C139.171 237.183 137.403 239.699 133.425 243.167V244ZM146.393 244.221C148.45 244.221 150.405 242.674 150.405 239.971C150.405 237.217 148.739 235.993 146.682 235.993C145.9 235.993 145.322 236.197 144.744 236.52L145.084 232.746H149.81V231.556H143.86L143.469 237.336L144.234 237.812C144.948 237.336 145.492 237.064 146.342 237.064C147.957 237.064 149.011 238.169 149.011 240.005C149.011 241.875 147.77 243.065 146.274 243.065C144.795 243.065 143.877 242.385 143.163 241.654L142.466 242.572C143.299 243.405 144.455 244.221 146.393 244.221Z" fill="#C2C2C2"/>
<path d="M347.765 244H355.466V242.81H351.896C351.267 242.81 350.519 242.844 349.856 242.912C352.899 240.056 354.871 237.489 354.871 234.973C354.871 232.763 353.511 231.335 351.301 231.335C349.754 231.335 348.683 232.066 347.68 233.154L348.496 233.936C349.21 233.103 350.111 232.457 351.148 232.457C352.746 232.457 353.511 233.562 353.511 235.024C353.511 237.183 351.743 239.699 347.765 243.167V244ZM360.733 244.221C362.79 244.221 364.745 242.674 364.745 239.971C364.745 237.217 363.079 235.993 361.022 235.993C360.24 235.993 359.662 236.197 359.084 236.52L359.424 232.746H364.15V231.556H358.2L357.809 237.336L358.574 237.812C359.288 237.336 359.832 237.064 360.682 237.064C362.297 237.064 363.351 238.169 363.351 240.005C363.351 241.875 362.11 243.065 360.614 243.065C359.135 243.065 358.217 242.385 357.503 241.654L356.806 242.572C357.639 243.405 358.795 244.221 360.733 244.221ZM369.06 244H370.505C370.709 239.138 371.253 236.18 374.194 232.389V231.556H366.493V232.746H372.596C370.148 236.146 369.264 239.206 369.06 244ZM380.073 243.116C378.424 243.116 377.472 241.62 377.302 238.985C378.152 237.795 379.121 237.336 379.92 237.336C381.518 237.336 382.249 238.475 382.249 240.209C382.249 241.926 381.314 243.116 380.073 243.116ZM383.354 232.576C382.674 231.862 381.756 231.335 380.515 231.335C378.135 231.335 375.959 233.171 375.959 238.084C375.959 242.147 377.676 244.221 380.073 244.221C381.96 244.221 383.575 242.589 383.575 240.209C383.575 237.608 382.249 236.299 380.141 236.299C379.138 236.299 378.05 236.877 377.268 237.812C377.336 233.834 378.815 232.491 380.566 232.491C381.314 232.491 382.062 232.848 382.572 233.443L383.354 232.576ZM385.085 244H392.786V242.81H389.216C388.587 242.81 387.839 242.844 387.176 242.912C390.219 240.056 392.191 237.489 392.191 234.973C392.191 232.763 390.831 231.335 388.621 231.335C387.074 231.335 386.003 232.066 385 233.154L385.816 233.936C386.53 233.103 387.431 232.457 388.468 232.457C390.066 232.457 390.831 233.562 390.831 235.024C390.831 237.183 389.063 239.699 385.085 243.167V244Z" fill="#F0C860"/>
</svg>
