<svg width="1082" height="213" viewBox="0 0 1082 213" fill="none" xmlns="http://www.w3.org/2000/svg">
<rect width="484" height="50" fill="black" fill-opacity="0.5"/>
<path d="M19.44 16.08C19.36 19.46 19.74 28.42 11.62 32.76C12.42 33.3 13.18 34.06 13.6 34.7C17.76 32.26 19.86 28.64 20.96 25.12C22.12 28.56 24.34 32.46 28.78 34.58C29.1 33.9 29.78 33.1 30.52 32.52C23.54 29.44 22.32 21.9 22.04 19.2C22.12 18 22.16 16.92 22.18 16.08H19.44ZM36.24 27.32V22.92H38.14V20.66H36.24V16.32H34.02V20.66H31.92V22.92H34.02V28.26C33.06 28.62 32.22 28.96 31.52 29.2L32.48 31.6C34.28 30.76 36.5 29.7 38.58 28.66L38.02 26.58L36.24 27.32ZM40.42 29.64H46.52V27.6H40.42V29.64ZM41.4 23.74V25.78H46.08V23.74H41.4ZM50.06 19.06H42.9C43.22 18.24 43.5 17.44 43.74 16.6L41.54 16.06C40.82 18.66 39.62 21.34 38.18 23C38.74 23.28 39.72 23.9 40.16 24.26C40.78 23.42 41.4 22.4 41.96 21.22H47.78C47.6 28.36 47.4 31.56 46.78 32.2C46.54 32.46 46.32 32.52 45.92 32.52C45.34 32.52 44.1 32.52 42.68 32.4C43.12 33.06 43.46 34.08 43.5 34.72C44.7 34.76 46.02 34.78 46.8 34.68C47.64 34.56 48.24 34.32 48.82 33.52C49.62 32.42 49.84 29.28 50.06 20.2V19.06ZM69.28 18.88H62.26C62.36 18 62.42 17.1 62.48 16.12H59.94C59.9 17.12 59.86 18.02 59.76 18.88H52.72V34.74H55.1V21.2H59.26C58.7 22.84 57.58 24.12 55.4 25.04C55.92 25.44 56.56 26.26 56.82 26.82C58.7 26 59.94 24.94 60.78 23.64C62.28 24.6 63.94 25.82 64.82 26.66L66.44 24.84C65.4 23.92 63.3 22.56 61.68 21.64C61.72 21.5 61.76 21.36 61.8 21.2H66.92V32.02C66.92 32.36 66.82 32.44 66.5 32.46C66.22 32.46 65.42 32.46 64.58 32.42L66.24 30.86C65.28 29.9 63.34 28.44 61.88 27.44C62.12 26.76 62.28 26.06 62.42 25.38H59.96C59.56 27.38 58.82 29.54 55.42 30.8C55.92 31.22 56.54 32.04 56.8 32.6C58.78 31.76 60.04 30.68 60.88 29.46C62.12 30.44 63.52 31.58 64.3 32.42L64.1 32.4C64.42 33.06 64.74 34.1 64.82 34.78C66.4 34.78 67.54 34.74 68.28 34.34C69.06 33.96 69.28 33.28 69.28 32.08V18.88ZM84.5 21.82H77.5V19.12H84.5V21.82ZM86.92 16.84H75.2V24.08H86.92V16.84ZM77.68 28.02V31.46H74.7V28.02H77.68ZM72.44 34.74H74.7V33.74H77.68V34.64H80.06V25.74H72.44V34.74ZM84.04 31.46V28.02H87.22V31.46H84.04ZM81.76 25.74V34.74H84.04V33.74H87.22V34.66H89.62V25.74H81.76ZM107.78 16.52C107.38 17.72 106.62 19.32 106.04 20.34L108.1 21.1C108.7 20.16 109.46 18.74 110.1 17.34L107.78 16.52ZM101.84 20.26C101.54 19.22 100.68 17.76 99.88 16.66L97.88 17.54C98.66 18.7 99.44 20.26 99.68 21.24L101.84 20.26ZM97.72 18.48C96.88 17.9 95.2 16.96 94.1 16.36L92.7 18.04C93.84 18.72 95.5 19.74 96.28 20.38L97.72 18.48ZM96.58 23.72C95.7 23.18 93.92 22.32 92.82 21.78L91.52 23.54C92.72 24.18 94.44 25.12 95.26 25.7L96.58 23.72ZM96 26.6C94.82 28.92 93.3 31.4 92.22 32.9L94.24 34.5C95.44 32.56 96.7 30.28 97.76 28.2L96 26.6ZM109.36 21.64H105.14V16.06H102.74V21.64H98.42V27.8C98.42 29.68 98.36 31.96 97.44 33.58C97.96 33.82 98.94 34.5 99.34 34.88C100.44 33.04 100.6 30.04 100.6 27.8V23.8H107.04V27.5C104.68 28.06 102.26 28.6 100.6 28.92L101.3 30.88C102.96 30.46 105.04 29.94 107.04 29.4V32.14C107.04 32.4 106.94 32.48 106.64 32.5C106.32 32.52 105.28 32.52 104.36 32.46C104.68 33.08 105 34.06 105.08 34.7C106.58 34.7 107.66 34.66 108.4 34.3C109.16 33.92 109.36 33.32 109.36 32.16V21.64ZM100.88 25.94C102.38 26.34 104.32 27.12 105.3 27.72L106.32 26.1C105.3 25.52 103.34 24.84 101.84 24.5L100.88 25.94ZM116.8 29.52H125.4V30.36H116.8V29.52ZM122.08 22.78V24.04H118.44C118.84 23.66 119.16 23.24 119.38 22.78H122.08ZM115.78 20.52H117.68C117.66 20.82 117.62 21.12 117.54 21.4H115.64L115.78 20.52ZM119.86 18.34H122.08V19.14H119.86V18.34ZM126.42 18.34V19.14H124.34V18.34H126.42ZM122.08 21.4H119.78C119.82 21.12 119.84 20.82 119.86 20.52H122.08V21.4ZM127.52 22.78C127.5 23.06 127.44 23.22 127.38 23.32C127.26 23.44 127.14 23.44 126.96 23.44C126.74 23.46 126.32 23.44 125.84 23.38C125.96 23.56 126.04 23.8 126.12 24.04H124.34V22.78H127.52ZM125.4 27.44V28.26H116.8V27.44H125.4ZM125.4 25.38V26.18H116.8V25.38H125.4ZM127.82 31.7V24.82C127.94 24.82 128.06 24.8 128.14 24.8C128.58 24.78 129 24.64 129.28 24.32C129.62 23.96 129.74 23.26 129.84 22.02C129.84 21.78 129.86 21.4 129.86 21.4H124.34V20.52H128.58V16.94H124.34V16.06H122.08V16.94H119.86V16.06H117.7V16.94H113.16V18.34H117.7V19.14H113.88C113.76 20.32 113.52 21.78 113.3 22.78H116.52C115.66 23.4 114.24 23.88 111.86 24.18C112.24 24.62 112.8 25.52 113 26.04C113.52 25.96 114.02 25.86 114.48 25.76V31.7H117.1C115.68 32.3 113.7 32.76 111.88 33.06C112.4 33.46 113.24 34.32 113.6 34.78C115.64 34.28 118.22 33.36 119.86 32.38L118.4 31.7H123.28L122.52 32.46C124.68 33.16 126.92 34.12 128.2 34.76L129.94 33.34C128.88 32.86 127.26 32.26 125.62 31.7H127.82ZM145.08 18.54H136.78V17.9H145.08V18.54ZM145.08 20.38H136.78V19.72H145.08V20.38ZM147.48 16.66H134.48V21.6H147.48V16.66ZM150.08 22.2H131.98V23.9H150.08V22.2ZM136.36 28.34V27.64H139.84V28.34H136.36ZM136.36 25.76H139.84V26.46H136.36V25.76ZM145.62 26.46H142.12V25.76H145.62V26.46ZM145.62 28.34H142.12V27.64H145.62V28.34ZM142.12 32.52V31.8H148.32V30.26H142.12V29.62H147.94V24.5H134.12V29.62H139.84V30.26H133.72V31.8H139.84V32.52H131.94V34.24H150.12V32.52H142.12ZM168.2 35L170.1 34.16C168.1 32 166.52 29.24 166.52 25.4C166.52 21.56 168.1 18.8 170.1 16.64L168.2 15.8C166.04 17.92 164.26 21.12 164.26 25.4C164.26 29.68 166.04 32.88 168.2 35ZM180.52 16.54V19H183.72C184.84 21.64 186.62 24.32 188.9 26.06C189.3 25.32 190.16 24.18 190.7 23.66C188.24 22.16 186.42 19.34 185.56 16.54H180.52ZM176.92 16.5C175.72 19.4 173.62 22.3 171.5 24.08C172.1 24.56 173.16 25.6 173.62 26.12C175.78 24.02 178.12 20.64 179.58 17.36L176.92 16.5ZM182.86 27.6C183.48 28.48 184.14 29.52 184.78 30.52L177.44 31C179.38 28.84 181.3 26.16 182.84 23.46L180.06 22.3C178.48 25.62 175.98 29.02 175.14 29.88C174.34 30.76 173.8 31.3 173.14 31.48C173.5 32.18 173.96 33.52 174.12 34.02C175.1 33.66 176.46 33.54 186.12 32.78C186.54 33.5 186.9 34.16 187.16 34.74L189.62 33.44C188.64 31.58 186.8 28.74 185.18 26.54L182.86 27.6ZM209.7 23.14H196.68V23.1V19.84C200.84 19.66 205.34 19.16 208.68 18.16L206.64 16.18C203.68 17.06 198.68 17.56 194.18 17.7V23.08C194.18 26.16 194 30.46 191.8 33.36C192.4 33.64 193.46 34.4 193.92 34.84C195.78 32.38 196.42 28.68 196.6 25.56H202.3V34.56H204.9V25.56H209.7V23.14ZM211.28 36.64H213.24L218.2 16.9H216.24L211.28 36.64ZM225.154 28.2V25.16H228.614V28.2H225.154ZM237.914 28.2H231.074V25.16H236.354V22.96H231.074V20.56H236.814V18.26H225.514C225.774 17.72 225.994 17.18 226.174 16.62L223.754 16C222.894 18.58 221.354 21.14 219.554 22.66C220.134 23 221.154 23.8 221.614 24.2C222.554 23.26 223.514 21.98 224.334 20.56H228.614V22.96H222.774V28.2H219.614V30.48H228.614V34.76H231.074V30.48H237.914V28.2ZM241.554 15.8L239.654 16.64C241.654 18.8 243.234 21.56 243.234 25.4C243.234 29.24 241.654 32 239.654 34.16L241.554 35C243.714 32.88 245.494 29.68 245.494 25.4C245.494 21.12 243.714 17.92 241.554 15.8Z" fill="white"/>
<path d="M6 106H1033" stroke="#C4C4C4" stroke-width="0.75"/>
<path d="M6 170H1033" stroke="#C4C4C4" stroke-width="0.75"/>
<path d="M41.793 76.28V74.563H35.163C35.214 74.274 35.265 73.985 35.299 73.679H42.286V71.928H35.52V71.027H40.722V69.327H35.52V68.46H41.538V66.675H38.274C38.648 66.182 39.039 65.621 39.413 65.026L37.237 64.465C36.965 65.128 36.455 66.012 36.03 66.675H32.29L32.783 66.454C32.562 65.876 32.035 65.06 31.508 64.465L29.706 65.179C30.046 65.621 30.403 66.165 30.658 66.675H27.428V68.46H33.429V69.327H28.397V71.027H33.429V71.928H26.901V73.679H33.157C33.123 73.985 33.072 74.291 33.021 74.563H27.292V76.28H32.358C31.559 77.419 29.961 78.184 26.544 78.643C26.935 79.068 27.411 79.918 27.547 80.462C32.086 79.714 33.905 78.371 34.721 76.28H35.333L34.568 77.555C36.761 78.354 39.872 79.663 41.368 80.513L42.32 78.779C40.909 78.031 38.223 76.994 36.183 76.28H41.793ZM49.647 73.152H48.508V72.064H49.647V73.152ZM51.007 70.993H47.216V74.223H51.007V70.993ZM46.162 78.014V67.134H54.373L53.574 67.933C54.016 68.171 54.526 68.528 54.883 68.834H53.047C53.013 68.358 52.996 67.882 52.979 67.389H51.313C51.347 67.882 51.364 68.358 51.398 68.834H46.791V70.262H51.517C51.67 71.945 51.891 73.492 52.248 74.716C51.976 75.022 51.704 75.311 51.398 75.566L51.364 74.716C49.596 74.954 47.828 75.158 46.587 75.294L46.774 76.773C47.896 76.586 49.222 76.399 50.582 76.195C50.412 76.314 50.225 76.433 50.038 76.535C50.378 76.807 50.922 77.453 51.143 77.759C51.789 77.351 52.367 76.858 52.911 76.314C53.251 76.875 53.676 77.266 54.186 77.436C55.308 77.946 56.192 77.3 56.464 75.209C56.124 75.022 55.512 74.563 55.206 74.257C55.138 75.243 55.002 75.906 54.815 75.838C54.509 75.77 54.254 75.447 54.033 74.937C54.798 73.815 55.41 72.523 55.818 71.044L54.271 70.738C54.067 71.503 53.812 72.2 53.472 72.863C53.336 72.098 53.234 71.214 53.149 70.262H56.192V68.834H55.376L56.056 68.12C55.75 67.797 55.172 67.406 54.628 67.134H56.736V78.014H46.162ZM44.241 65.315V80.53H46.162V79.816H56.736V80.53H58.742V65.315H44.241Z" fill="#FBFBFB"/>
<path d="M35.537 140.186V136.531H39.379V140.186H35.537ZM29.57 140.186V136.531H33.395V140.186H29.57ZM35.537 134.542V131.601H33.395V134.542H27.53V143.11H29.57V142.175H33.395V147.479H35.537V142.175H39.379V143.025H41.504V134.542H35.537ZM49.647 140.152H48.508V139.064H49.647V140.152ZM51.007 137.993H47.216V141.223H51.007V137.993ZM46.162 145.014V134.134H54.373L53.574 134.933C54.016 135.171 54.526 135.528 54.883 135.834H53.047C53.013 135.358 52.996 134.882 52.979 134.389H51.313C51.347 134.882 51.364 135.358 51.398 135.834H46.791V137.262H51.517C51.67 138.945 51.891 140.492 52.248 141.716C51.976 142.022 51.704 142.311 51.398 142.566L51.364 141.716C49.596 141.954 47.828 142.158 46.587 142.294L46.774 143.773C47.896 143.586 49.222 143.399 50.582 143.195C50.412 143.314 50.225 143.433 50.038 143.535C50.378 143.807 50.922 144.453 51.143 144.759C51.789 144.351 52.367 143.858 52.911 143.314C53.251 143.875 53.676 144.266 54.186 144.436C55.308 144.946 56.192 144.3 56.464 142.209C56.124 142.022 55.512 141.563 55.206 141.257C55.138 142.243 55.002 142.906 54.815 142.838C54.509 142.77 54.254 142.447 54.033 141.937C54.798 140.815 55.41 139.523 55.818 138.044L54.271 137.738C54.067 138.503 53.812 139.2 53.472 139.863C53.336 139.098 53.234 138.214 53.149 137.262H56.192V135.834H55.376L56.056 135.12C55.75 134.797 55.172 134.406 54.628 134.134H56.736V145.014H46.162ZM44.241 132.315V147.53H46.162V146.816H56.736V147.53H58.742V132.315H44.241Z" fill="#FBFBFB"/>
<path d="M25.354 197.341C25.116 196.525 24.504 195.233 23.926 194.281L22.447 194.876C22.974 195.879 23.569 197.222 23.79 198.038L25.354 197.341ZM18.061 198.718V196.27C18.775 196.083 19.472 195.845 20.084 195.573C20.084 196.627 20.118 197.698 20.152 198.718H18.061ZM23.331 201.047C23.059 201.761 22.753 202.475 22.379 203.121C22.277 202.322 22.209 201.421 22.141 200.469H25.099V198.718H22.056C22.005 197.171 21.988 195.505 22.022 193.856H20.067C20.067 194.417 20.067 194.961 20.084 195.505L18.673 194.009C17.517 194.57 15.715 195.148 13.998 195.539C14.168 195.08 14.321 194.621 14.474 194.196L12.604 193.635C11.873 196.134 10.615 198.599 9.238 200.18C9.561 200.724 10.071 201.88 10.224 202.373C10.564 201.948 10.921 201.489 11.261 200.996V209.462H13.182V197.511C13.386 197.052 13.59 196.593 13.777 196.134C13.93 196.491 14.066 196.899 14.134 197.188C14.797 197.069 15.46 196.933 16.157 196.78V198.718H13.59V200.469H16.157V202.832C15.171 203.053 14.27 203.24 13.539 203.393L13.998 205.331C14.661 205.178 15.392 204.991 16.157 204.787V207.303C16.157 207.558 16.072 207.626 15.817 207.626C15.562 207.643 14.78 207.643 14.015 207.626C14.27 208.136 14.525 208.952 14.593 209.479C15.817 209.479 16.684 209.411 17.262 209.105C17.874 208.799 18.061 208.323 18.061 207.337V204.294C18.724 204.124 19.421 203.954 20.067 203.784L19.863 201.982L18.061 202.407V200.469H20.237C20.339 202.271 20.526 203.937 20.798 205.331C19.999 206.198 19.098 206.963 18.112 207.558C18.503 207.881 19.132 208.595 19.387 208.969C20.067 208.51 20.73 207.966 21.342 207.354C21.835 208.68 22.532 209.496 23.484 209.496C24.827 209.496 25.354 208.799 25.626 206.215C25.167 206.011 24.555 205.569 24.181 205.127C24.13 206.844 23.977 207.575 23.739 207.575C23.365 207.575 23.042 206.878 22.787 205.705C23.739 204.464 24.538 203.036 25.116 201.489L23.331 201.047ZM27.615 205.875C27.479 206.912 27.241 208.051 26.816 208.765C27.241 208.85 27.989 209.003 28.363 209.122C28.703 208.374 29.026 207.201 29.179 206.096L27.615 205.875ZM29.553 206.096C29.791 206.98 29.978 208.136 29.978 208.884L31.525 208.612C31.491 207.864 31.287 206.725 31.015 205.841L29.553 206.096ZM31.593 205.824C32.001 206.64 32.409 207.728 32.579 208.425L34.041 208.068C33.854 207.354 33.412 206.3 32.987 205.518L31.593 205.824ZM36.37 206.385H38.104V207.32H36.37V206.385ZM38.104 202.577H36.37V201.676H38.104V202.577ZM38.104 204.94H36.37V204.022H38.104V204.94ZM33.412 195.607H35.452V196.763H33.412V195.607ZM31.559 196.763H29.57V195.607H31.559V196.763ZM37.288 195.607H39.379V196.763H37.288V195.607ZM42.32 207.32H39.872V206.385H41.64V204.94H39.872V204.022H41.64V202.577H39.872V201.676H42.099V200.078H39.991C39.804 199.5 39.498 198.871 39.192 198.327L37.645 198.786C37.849 199.177 38.036 199.636 38.206 200.078H36.557C36.812 199.585 37.05 199.092 37.237 198.582L35.707 198.208H41.419V194.162H27.632V198.208H29.604C28.975 199.33 28.108 200.418 27.802 200.707C27.445 201.047 27.156 201.268 26.833 201.319C27.054 201.676 27.36 202.322 27.462 202.611C27.751 202.509 28.159 202.424 29.553 202.305C29.043 202.815 28.618 203.189 28.397 203.376C27.853 203.835 27.445 204.141 27.003 204.209C27.224 204.566 27.53 205.212 27.615 205.484C28.057 205.314 28.72 205.195 32.511 204.77C32.596 205.042 32.664 205.314 32.698 205.535L34.109 204.974C33.973 204.226 33.48 203.07 33.004 202.186L31.678 202.662C31.797 202.934 31.933 203.206 32.052 203.512L30.131 203.699C31.372 202.645 32.545 201.421 33.446 200.231L31.933 199.364C31.627 199.891 31.219 200.401 30.811 200.894L29.587 200.962C30.301 200.231 30.981 199.381 31.491 198.582L30.59 198.208H35.435C34.891 199.636 33.956 201.047 32.868 201.965C33.293 202.22 34.024 202.764 34.364 203.087L34.534 202.917V209.496H36.37V208.935H42.32V207.32ZM46.876 202.526H49.154V203.682H46.876V202.526ZM49.154 197.375V198.378H46.876V197.375H49.154ZM46.876 199.925H49.154V200.979H46.876V199.925ZM52.078 203.682H51.007V197.375H52.01V195.607H51.007V193.788H49.154V195.607H46.876V193.788H45.057V195.607H43.765V197.375H45.057V203.682H43.561V205.45H52.078V203.682ZM45.686 205.569C45.227 206.538 44.394 207.575 43.561 208.221C44.02 208.493 44.802 209.071 45.159 209.411C46.026 208.612 47.012 207.337 47.573 206.113L45.686 205.569ZM59.456 199.177H54.509V196.678C56.226 196.253 58.011 195.658 59.422 194.961L57.807 193.516C56.583 194.247 54.526 194.961 52.656 195.437V201.608C52.656 203.767 52.469 205.892 51.228 207.745C50.905 207.133 50.242 206.249 49.732 205.586L48.117 206.334C48.627 207.031 49.273 208.017 49.545 208.629L51.177 207.83C51.007 208.068 50.82 208.306 50.616 208.544C51.075 208.867 51.704 209.411 52.027 209.853C54.152 207.541 54.509 204.736 54.509 201.608V201.047H56.073V209.462H57.994V201.047H59.456V199.177Z" fill="#FBFBFB"/>
<circle cx="1020.5" cy="71.5" r="12.5" fill="#FBFBFB"/>
<circle cx="275.5" cy="138.5" r="12.5" fill="#FBFBFB"/>
<circle cx="280.5" cy="24.5" r="12.5" fill="#FBFBFB"/>
<circle cx="386.5" cy="24.5" r="12.5" fill="#E05778"/>
<circle cx="181.5" cy="200.5" r="12.5" fill="#FBFBFB"/>
<path d="M947.939 69.9393C947.354 70.5251 947.354 71.4749 947.939 72.0607L957.485 81.6066C958.071 82.1924 959.021 82.1924 959.607 81.6066C960.192 81.0208 960.192 80.0711 959.607 79.4853L951.121 71L959.607 62.5147C960.192 61.9289 960.192 60.9792 959.607 60.3934C959.021 59.8076 958.071 59.8076 957.485 60.3934L947.939 69.9393ZM1008 69.5L949 69.5V72.5L1008 72.5V69.5Z" fill="#FBFBFB"/>
<path d="M399.061 141.061C399.646 140.475 399.646 139.525 399.061 138.939L389.515 129.393C388.929 128.808 387.979 128.808 387.393 129.393C386.808 129.979 386.808 130.929 387.393 131.515L395.879 140L387.393 148.485C386.808 149.071 386.808 150.021 387.393 150.607C387.979 151.192 388.929 151.192 389.515 150.607L399.061 141.061ZM272 141.5L398 141.5L398 138.5L272 138.5L272 141.5Z" fill="#FBFBFB"/>
<path d="M526.061 200.061C526.646 199.475 526.646 198.525 526.061 197.939L516.515 188.393C515.929 187.808 514.979 187.808 514.393 188.393C513.808 188.979 513.808 189.929 514.393 190.515L522.879 199L514.393 207.485C513.808 208.071 513.808 209.021 514.393 209.607C514.979 210.192 515.929 210.192 516.515 209.607L526.061 200.061ZM178 200.5L525 200.5V197.5L178 197.5V200.5Z" fill="#FBFBFB"/>
<circle cx="934.5" cy="71.5" r="12.5" fill="#E05778"/>
<circle cx="410.5" cy="138.5" r="12.5" fill="#E05778"/>
<circle cx="537.5" cy="200.5" r="12.5" fill="#E05778"/>
<path d="M119.765 208H127.466V206.81H123.896C123.267 206.81 122.519 206.844 121.856 206.912C124.899 204.056 126.871 201.489 126.871 198.973C126.871 196.763 125.511 195.335 123.301 195.335C121.754 195.335 120.683 196.066 119.68 197.154L120.496 197.936C121.21 197.103 122.111 196.457 123.148 196.457C124.746 196.457 125.511 197.562 125.511 199.024C125.511 201.183 123.743 203.699 119.765 207.167V208ZM132.716 202.22C131.169 202.22 130.421 201.064 130.421 199.347C130.421 197.613 131.356 196.423 132.597 196.423C134.28 196.423 135.266 197.902 135.402 200.503C134.535 201.727 133.566 202.22 132.716 202.22ZM129.333 206.98C130.013 207.694 130.948 208.221 132.257 208.221C134.569 208.221 136.728 206.3 136.728 201.2C136.728 197.307 134.994 195.335 132.597 195.335C130.693 195.335 129.095 196.967 129.095 199.347C129.095 201.914 130.421 203.257 132.495 203.257C133.583 203.257 134.637 202.628 135.419 201.676C135.3 205.688 133.855 207.065 132.223 207.065C131.39 207.065 130.642 206.708 130.098 206.113L129.333 206.98ZM139.938 208.221C140.516 208.221 140.992 207.779 140.992 207.133C140.992 206.453 140.516 206.011 139.938 206.011C139.377 206.011 138.901 206.453 138.901 207.133C138.901 207.779 139.377 208.221 139.938 208.221ZM144.044 203.427L147.053 198.973C147.393 198.378 147.733 197.766 148.039 197.171H148.124C148.073 197.783 148.022 198.769 148.022 199.381V203.427H144.044ZM151.031 203.427H149.331V195.556H147.852L142.565 203.631V204.532H148.022V208H149.331V204.532H151.031V203.427ZM154.972 208H156.417C156.621 203.138 157.165 200.18 160.106 196.389V195.556H152.405V196.746H158.508C156.06 200.146 155.176 203.206 154.972 208Z" fill="white"/>
<path d="M299.9 33H308.96V31.6H304.76C304.02 31.6 303.14 31.64 302.36 31.72C305.94 28.36 308.26 25.34 308.26 22.38C308.26 19.78 306.66 18.1 304.06 18.1C302.24 18.1 300.98 18.96 299.8 20.24L300.76 21.16C301.6 20.18 302.66 19.42 303.88 19.42C305.76 19.42 306.66 20.72 306.66 22.44C306.66 24.98 304.58 27.94 299.9 32.02V33ZM315.477 33.26C318.217 33.26 319.937 30.74 319.937 25.62C319.937 20.56 318.217 18.1 315.477 18.1C312.717 18.1 310.977 20.54 310.977 25.62C310.977 30.74 312.717 33.26 315.477 33.26ZM315.477 31.94C313.737 31.94 312.557 29.98 312.557 25.62C312.557 21.34 313.737 19.42 315.477 19.42C317.197 19.42 318.357 21.34 318.357 25.62C318.357 29.98 317.197 31.94 315.477 31.94ZM326.453 33.26C329.193 33.26 330.913 30.74 330.913 25.62C330.913 20.56 329.193 18.1 326.453 18.1C323.693 18.1 321.953 20.54 321.953 25.62C321.953 30.74 323.693 33.26 326.453 33.26ZM326.453 31.94C324.713 31.94 323.533 29.98 323.533 25.62C323.533 21.34 324.713 19.42 326.453 19.42C328.173 19.42 329.333 21.34 329.333 25.62C329.333 29.98 328.173 31.94 326.453 31.94ZM337.43 33.26C340.17 33.26 341.89 30.74 341.89 25.62C341.89 20.56 340.17 18.1 337.43 18.1C334.67 18.1 332.93 20.54 332.93 25.62C332.93 30.74 334.67 33.26 337.43 33.26ZM337.43 31.94C335.69 31.94 334.51 29.98 334.51 25.62C334.51 21.34 335.69 19.42 337.43 19.42C339.15 19.42 340.31 21.34 340.31 25.62C340.31 29.98 339.15 31.94 337.43 31.94ZM348.586 28.6V24.46H353.226V28.6H348.586ZM361.906 28.6H354.566V24.46H360.546V23.2H354.566V20.02H360.966V18.74H348.966C349.326 18.04 349.646 17.3 349.926 16.56L348.606 16.24C347.606 18.94 345.926 21.54 344.006 23.18C344.366 23.38 344.906 23.82 345.166 24.02C346.286 22.96 347.346 21.58 348.266 20.02H353.226V23.2H347.246V28.6H343.946V29.88H353.226V34.52H354.566V29.88H361.906V28.6Z" fill="white"/>
<path d="M216.454 146.221C218.63 146.221 220.364 144.895 220.364 142.685C220.364 140.968 219.174 139.846 217.712 139.506V139.438C219.038 138.962 219.939 137.959 219.939 136.412C219.939 134.44 218.443 133.335 216.403 133.318C214.975 133.335 213.887 133.964 212.969 134.797L213.734 135.698C214.431 134.984 215.332 134.457 216.352 134.44C217.695 134.457 218.528 135.273 218.528 136.514C218.528 137.908 217.627 138.979 215.026 138.979V140.067C217.916 140.067 218.97 141.104 218.97 142.651C218.97 144.13 217.882 145.065 216.369 145.065C214.89 145.065 213.955 144.368 213.224 143.62L212.51 144.521C213.309 145.388 214.516 146.221 216.454 146.221ZM226.413 145.116C224.764 145.116 223.812 143.62 223.642 140.985C224.492 139.795 225.461 139.336 226.26 139.336C227.858 139.336 228.589 140.475 228.589 142.209C228.589 143.926 227.654 145.116 226.413 145.116ZM229.694 134.576C229.014 133.862 228.096 133.335 226.855 133.335C224.475 133.335 222.299 135.171 222.299 140.084C222.299 144.147 224.016 146.221 226.413 146.221C228.3 146.221 229.915 144.589 229.915 142.209C229.915 139.608 228.589 138.299 226.481 138.299C225.478 138.299 224.39 138.877 223.608 139.812C223.676 135.834 225.155 134.491 226.906 134.491C227.654 134.491 228.402 134.848 228.912 135.443L229.694 134.576ZM232.938 146.221C233.516 146.221 233.992 145.779 233.992 145.133C233.992 144.453 233.516 144.011 232.938 144.011C232.377 144.011 231.901 144.453 231.901 145.133C231.901 145.779 232.377 146.221 232.938 146.221ZM239.951 146.221C242.246 146.221 243.793 144.81 243.793 143.025C243.793 141.325 242.773 140.39 241.685 139.761V139.676C242.416 139.098 243.368 137.959 243.368 136.65C243.368 134.746 242.093 133.369 239.985 133.369C238.081 133.369 236.636 134.644 236.636 136.514C236.636 137.823 237.418 138.758 238.319 139.37V139.438C237.18 140.067 236.007 141.223 236.007 142.906C236.007 144.827 237.673 146.221 239.951 146.221ZM240.801 139.302C239.322 138.724 237.911 138.061 237.911 136.514C237.911 135.273 238.778 134.423 239.951 134.423C241.362 134.423 242.161 135.46 242.161 136.718C242.161 137.67 241.685 138.554 240.801 139.302ZM239.968 145.184C238.421 145.184 237.265 144.164 237.265 142.804C237.265 141.563 238.013 140.543 239.067 139.88C240.869 140.611 242.467 141.257 242.467 142.991C242.467 144.249 241.464 145.184 239.968 145.184ZM246.374 141.427L249.383 136.973C249.723 136.378 250.063 135.766 250.369 135.171H250.454C250.403 135.783 250.352 136.769 250.352 137.381V141.427H246.374ZM253.361 141.427H251.661V133.556H250.182L244.895 141.631V142.532H250.352V146H251.661V142.532H253.361V141.427Z" fill="white"/>
<path d="M1044.39 73.22C1042.84 73.22 1042.09 72.064 1042.09 70.347C1042.09 68.613 1043.03 67.423 1044.27 67.423C1045.95 67.423 1046.94 68.902 1047.07 71.503C1046.21 72.727 1045.24 73.22 1044.39 73.22ZM1041 77.98C1041.68 78.694 1042.62 79.221 1043.93 79.221C1046.24 79.221 1048.4 77.3 1048.4 72.2C1048.4 68.307 1046.66 66.335 1044.27 66.335C1042.36 66.335 1040.77 67.967 1040.77 70.347C1040.77 72.914 1042.09 74.257 1044.17 74.257C1045.25 74.257 1046.31 73.628 1047.09 72.676C1046.97 76.688 1045.53 78.065 1043.89 78.065C1043.06 78.065 1042.31 77.708 1041.77 77.113L1041 77.98ZM1054.04 79.221C1056.33 79.221 1057.88 77.81 1057.88 76.025C1057.88 74.325 1056.86 73.39 1055.77 72.761V72.676C1056.5 72.098 1057.46 70.959 1057.46 69.65C1057.46 67.746 1056.18 66.369 1054.07 66.369C1052.17 66.369 1050.72 67.644 1050.72 69.514C1050.72 70.823 1051.51 71.758 1052.41 72.37V72.438C1051.27 73.067 1050.1 74.223 1050.1 75.906C1050.1 77.827 1051.76 79.221 1054.04 79.221ZM1054.89 72.302C1053.41 71.724 1052 71.061 1052 69.514C1052 68.273 1052.87 67.423 1054.04 67.423C1055.45 67.423 1056.25 68.46 1056.25 69.718C1056.25 70.67 1055.77 71.554 1054.89 72.302ZM1054.06 78.184C1052.51 78.184 1051.35 77.164 1051.35 75.804C1051.35 74.563 1052.1 73.543 1053.16 72.88C1054.96 73.611 1056.56 74.257 1056.56 75.991C1056.56 77.249 1055.55 78.184 1054.06 78.184ZM1060.94 79.221C1061.52 79.221 1061.99 78.779 1061.99 78.133C1061.99 77.453 1061.52 77.011 1060.94 77.011C1060.38 77.011 1059.9 77.453 1059.9 78.133C1059.9 78.779 1060.38 79.221 1060.94 79.221ZM1064.01 79H1071.71V77.81H1068.14C1067.51 77.81 1066.76 77.844 1066.1 77.912C1069.14 75.056 1071.11 72.489 1071.11 69.973C1071.11 67.763 1069.75 66.335 1067.54 66.335C1066 66.335 1064.93 67.066 1063.92 68.154L1064.74 68.936C1065.45 68.103 1066.35 67.457 1067.39 67.457C1068.99 67.457 1069.75 68.562 1069.75 70.024C1069.75 72.183 1067.99 74.699 1064.01 78.167V79ZM1074.09 79H1080.78V77.844H1078.25V66.556H1077.2C1076.55 66.947 1075.75 67.219 1074.68 67.406V68.307H1076.87V77.844H1074.09V79Z" fill="white"/>
<path d="M405.9 33H414.96V31.6H410.76C410.02 31.6 409.14 31.64 408.36 31.72C411.94 28.36 414.26 25.34 414.26 22.38C414.26 19.78 412.66 18.1 410.06 18.1C408.24 18.1 406.98 18.96 405.8 20.24L406.76 21.16C407.6 20.18 408.66 19.42 409.88 19.42C411.76 19.42 412.66 20.72 412.66 22.44C412.66 24.98 410.58 27.94 405.9 32.02V33ZM421.477 33.26C424.217 33.26 425.937 30.74 425.937 25.62C425.937 20.56 424.217 18.1 421.477 18.1C418.717 18.1 416.977 20.54 416.977 25.62C416.977 30.74 418.717 33.26 421.477 33.26ZM421.477 31.94C419.737 31.94 418.557 29.98 418.557 25.62C418.557 21.34 419.737 19.42 421.477 19.42C423.197 19.42 424.357 21.34 424.357 25.62C424.357 29.98 423.197 31.94 421.477 31.94ZM428.733 33H436.613V31.64H433.633V18.36H432.393C431.633 18.82 430.693 19.14 429.433 19.36V20.42H432.013V31.64H428.733V33ZM440.05 27.62L443.59 22.38C443.99 21.68 444.39 20.96 444.75 20.26H444.85C444.79 20.98 444.73 22.14 444.73 22.86V27.62H440.05ZM448.27 27.62H446.27V18.36H444.53L438.31 27.86V28.92H444.73V33H446.27V28.92H448.27V27.62ZM454.586 28.6V24.46H459.226V28.6H454.586ZM467.906 28.6H460.566V24.46H466.546V23.2H460.566V20.02H466.966V18.74H454.966C455.326 18.04 455.646 17.3 455.926 16.56L454.606 16.24C453.606 18.94 451.926 21.54 450.006 23.18C450.366 23.38 450.906 23.82 451.166 24.02C452.286 22.96 453.346 21.58 454.266 20.02H459.226V23.2H453.246V28.6H449.946V29.88H459.226V34.52H460.566V29.88H467.906V28.6Z" fill="#E05778"/>
<path d="M559.403 208.221C561.46 208.221 563.415 206.674 563.415 203.971C563.415 201.217 561.749 199.993 559.692 199.993C558.91 199.993 558.332 200.197 557.754 200.52L558.094 196.746H562.82V195.556H556.87L556.479 201.336L557.244 201.812C557.958 201.336 558.502 201.064 559.352 201.064C560.967 201.064 562.021 202.169 562.021 204.005C562.021 205.875 560.78 207.065 559.284 207.065C557.805 207.065 556.887 206.385 556.173 205.654L555.476 206.572C556.309 207.405 557.465 208.221 559.403 208.221ZM569.039 208.221C571.334 208.221 572.881 206.81 572.881 205.025C572.881 203.325 571.861 202.39 570.773 201.761V201.676C571.504 201.098 572.456 199.959 572.456 198.65C572.456 196.746 571.181 195.369 569.073 195.369C567.169 195.369 565.724 196.644 565.724 198.514C565.724 199.823 566.506 200.758 567.407 201.37V201.438C566.268 202.067 565.095 203.223 565.095 204.906C565.095 206.827 566.761 208.221 569.039 208.221ZM569.889 201.302C568.41 200.724 566.999 200.061 566.999 198.514C566.999 197.273 567.866 196.423 569.039 196.423C570.45 196.423 571.249 197.46 571.249 198.718C571.249 199.67 570.773 200.554 569.889 201.302ZM569.056 207.184C567.509 207.184 566.353 206.164 566.353 204.804C566.353 203.563 567.101 202.543 568.155 201.88C569.957 202.611 571.555 203.257 571.555 204.991C571.555 206.249 570.552 207.184 569.056 207.184ZM575.938 208.221C576.516 208.221 576.992 207.779 576.992 207.133C576.992 206.453 576.516 206.011 575.938 206.011C575.377 206.011 574.901 206.453 574.901 207.133C574.901 207.779 575.377 208.221 575.938 208.221ZM582.628 202.22C581.081 202.22 580.333 201.064 580.333 199.347C580.333 197.613 581.268 196.423 582.509 196.423C584.192 196.423 585.178 197.902 585.314 200.503C584.447 201.727 583.478 202.22 582.628 202.22ZM579.245 206.98C579.925 207.694 580.86 208.221 582.169 208.221C584.481 208.221 586.64 206.3 586.64 201.2C586.64 197.307 584.906 195.335 582.509 195.335C580.605 195.335 579.007 196.967 579.007 199.347C579.007 201.914 580.333 203.257 582.407 203.257C583.495 203.257 584.549 202.628 585.331 201.676C585.212 205.688 583.767 207.065 582.135 207.065C581.302 207.065 580.554 206.708 580.01 206.113L579.245 206.98ZM588.337 208H596.038V206.81H592.468C591.839 206.81 591.091 206.844 590.428 206.912C593.471 204.056 595.443 201.489 595.443 198.973C595.443 196.763 594.083 195.335 591.873 195.335C590.326 195.335 589.255 196.066 588.252 197.154L589.068 197.936C589.782 197.103 590.683 196.457 591.72 196.457C593.318 196.457 594.083 197.562 594.083 199.024C594.083 201.183 592.315 203.699 588.337 207.167V208Z" fill="#E05778"/>
<path d="M433.802 141.427L436.811 136.973C437.151 136.378 437.491 135.766 437.797 135.171H437.882C437.831 135.783 437.78 136.769 437.78 137.381V141.427H433.802ZM440.789 141.427H439.089V133.556H437.61L432.323 141.631V142.532H437.78V146H439.089V142.532H440.789V141.427ZM445.716 140.22C444.169 140.22 443.421 139.064 443.421 137.347C443.421 135.613 444.356 134.423 445.597 134.423C447.28 134.423 448.266 135.902 448.402 138.503C447.535 139.727 446.566 140.22 445.716 140.22ZM442.333 144.98C443.013 145.694 443.948 146.221 445.257 146.221C447.569 146.221 449.728 144.3 449.728 139.2C449.728 135.307 447.994 133.335 445.597 133.335C443.693 133.335 442.095 134.967 442.095 137.347C442.095 139.914 443.421 141.257 445.495 141.257C446.583 141.257 447.637 140.628 448.419 139.676C448.3 143.688 446.855 145.065 445.223 145.065C444.39 145.065 443.642 144.708 443.098 144.113L442.333 144.98ZM452.938 146.221C453.516 146.221 453.992 145.779 453.992 145.133C453.992 144.453 453.516 144.011 452.938 144.011C452.377 144.011 451.901 144.453 451.901 145.133C451.901 145.779 452.377 146.221 452.938 146.221ZM459.951 146.221C462.246 146.221 463.793 144.81 463.793 143.025C463.793 141.325 462.773 140.39 461.685 139.761V139.676C462.416 139.098 463.368 137.959 463.368 136.65C463.368 134.746 462.093 133.369 459.985 133.369C458.081 133.369 456.636 134.644 456.636 136.514C456.636 137.823 457.418 138.758 458.319 139.37V139.438C457.18 140.067 456.007 141.223 456.007 142.906C456.007 144.827 457.673 146.221 459.951 146.221ZM460.801 139.302C459.322 138.724 457.911 138.061 457.911 136.514C457.911 135.273 458.778 134.423 459.951 134.423C461.362 134.423 462.161 135.46 462.161 136.718C462.161 137.67 461.685 138.554 460.801 139.302ZM459.968 145.184C458.421 145.184 457.265 144.164 457.265 142.804C457.265 141.563 458.013 140.543 459.067 139.88C460.869 140.611 462.467 141.257 462.467 142.991C462.467 144.249 461.464 145.184 459.968 145.184ZM469.026 146.221C471.202 146.221 472.936 144.895 472.936 142.685C472.936 140.968 471.746 139.846 470.284 139.506V139.438C471.61 138.962 472.511 137.959 472.511 136.412C472.511 134.44 471.015 133.335 468.975 133.318C467.547 133.335 466.459 133.964 465.541 134.797L466.306 135.698C467.003 134.984 467.904 134.457 468.924 134.44C470.267 134.457 471.1 135.273 471.1 136.514C471.1 137.908 470.199 138.979 467.598 138.979V140.067C470.488 140.067 471.542 141.104 471.542 142.651C471.542 144.13 470.454 145.065 468.941 145.065C467.462 145.065 466.527 144.368 465.796 143.62L465.082 144.521C465.881 145.388 467.088 146.221 469.026 146.221Z" fill="#E05778"/>
<path d="M876.386 73.22C874.839 73.22 874.091 72.064 874.091 70.347C874.091 68.613 875.026 67.423 876.267 67.423C877.95 67.423 878.936 68.902 879.072 71.503C878.205 72.727 877.236 73.22 876.386 73.22ZM873.003 77.98C873.683 78.694 874.618 79.221 875.927 79.221C878.239 79.221 880.398 77.3 880.398 72.2C880.398 68.307 878.664 66.335 876.267 66.335C874.363 66.335 872.765 67.967 872.765 70.347C872.765 72.914 874.091 74.257 876.165 74.257C877.253 74.257 878.307 73.628 879.089 72.676C878.97 76.688 877.525 78.065 875.893 78.065C875.06 78.065 874.312 77.708 873.768 77.113L873.003 77.98ZM882.843 79H889.541V77.844H887.008V66.556H885.954C885.308 66.947 884.509 67.219 883.438 67.406V68.307H885.631V77.844H882.843V79ZM892.938 79.221C893.516 79.221 893.992 78.779 893.992 78.133C893.992 77.453 893.516 77.011 892.938 77.011C892.377 77.011 891.901 77.453 891.901 78.133C891.901 78.779 892.377 79.221 892.938 79.221ZM896.007 79H903.708V77.81H900.138C899.509 77.81 898.761 77.844 898.098 77.912C901.141 75.056 903.113 72.489 903.113 69.973C903.113 67.763 901.753 66.335 899.543 66.335C897.996 66.335 896.925 67.066 895.922 68.154L896.738 68.936C897.452 68.103 898.353 67.457 899.39 67.457C900.988 67.457 901.753 68.562 901.753 70.024C901.753 72.183 899.985 74.699 896.007 78.167V79ZM908.958 73.22C907.411 73.22 906.663 72.064 906.663 70.347C906.663 68.613 907.598 67.423 908.839 67.423C910.522 67.423 911.508 68.902 911.644 71.503C910.777 72.727 909.808 73.22 908.958 73.22ZM905.575 77.98C906.255 78.694 907.19 79.221 908.499 79.221C910.811 79.221 912.97 77.3 912.97 72.2C912.97 68.307 911.236 66.335 908.839 66.335C906.935 66.335 905.337 67.967 905.337 70.347C905.337 72.914 906.663 74.257 908.737 74.257C909.825 74.257 910.879 73.628 911.661 72.676C911.542 76.688 910.097 78.065 908.465 78.065C907.632 78.065 906.884 77.708 906.34 77.113L905.575 77.98Z" fill="#E05778"/>
</svg>
