<svg width="1033" height="213" viewBox="0 0 1033 213" fill="none" xmlns="http://www.w3.org/2000/svg">
<rect width="413" height="50" fill="black" fill-opacity="0.5"/>
<path d="M19.44 16.08C19.36 19.46 19.74 28.42 11.62 32.76C12.42 33.3 13.18 34.06 13.6 34.7C17.76 32.26 19.86 28.64 20.96 25.12C22.12 28.56 24.34 32.46 28.78 34.58C29.1 33.9 29.78 33.1 30.52 32.52C23.54 29.44 22.32 21.9 22.04 19.2C22.12 18 22.16 16.92 22.18 16.08H19.44ZM36.24 27.32V22.92H38.14V20.66H36.24V16.32H34.02V20.66H31.92V22.92H34.02V28.26C33.06 28.62 32.22 28.96 31.52 29.2L32.48 31.6C34.28 30.76 36.5 29.7 38.58 28.66L38.02 26.58L36.24 27.32ZM40.42 29.64H46.52V27.6H40.42V29.64ZM41.4 23.74V25.78H46.08V23.74H41.4ZM50.06 19.06H42.9C43.22 18.24 43.5 17.44 43.74 16.6L41.54 16.06C40.82 18.66 39.62 21.34 38.18 23C38.74 23.28 39.72 23.9 40.16 24.26C40.78 23.42 41.4 22.4 41.96 21.22H47.78C47.6 28.36 47.4 31.56 46.78 32.2C46.54 32.46 46.32 32.52 45.92 32.52C45.34 32.52 44.1 32.52 42.68 32.4C43.12 33.06 43.46 34.08 43.5 34.72C44.7 34.76 46.02 34.78 46.8 34.68C47.64 34.56 48.24 34.32 48.82 33.52C49.62 32.42 49.84 29.28 50.06 20.2V19.06ZM59.18 33.28C61.24 33.28 62.98 32.48 63.98 31.5V24.82H58.72V27.24H61.34V30.16C60.92 30.52 60.2 30.72 59.48 30.72C56.58 30.72 55.1 28.78 55.1 25.56C55.1 22.38 56.82 20.46 59.28 20.46C60.62 20.46 61.46 21 62.18 21.7L63.76 19.82C62.8 18.84 61.32 17.92 59.18 17.92C55.24 17.92 52.08 20.78 52.08 25.66C52.08 30.6 55.14 33.28 59.18 33.28ZM67.1559 33H71.3759C75.7359 33 78.5359 30.52 78.5359 25.54C78.5359 20.54 75.7359 18.2 71.2159 18.2H67.1559V33ZM70.1159 30.62V20.56H71.0359C73.7959 20.56 75.5159 21.92 75.5159 25.54C75.5159 29.14 73.7959 30.62 71.0359 30.62H70.1159ZM81.4333 33H84.3933V27.74H86.3733C89.5533 27.74 92.0933 26.22 92.0933 22.84C92.0933 19.34 89.5733 18.2 86.2933 18.2H81.4333V33ZM84.3933 25.4V20.54H86.0733C88.1133 20.54 89.1933 21.12 89.1933 22.84C89.1933 24.54 88.2133 25.4 86.1733 25.4H84.3933ZM110.153 35L112.053 34.16C110.053 32 108.473 29.24 108.473 25.4C108.473 21.56 110.053 18.8 112.053 16.64L110.153 15.8C107.993 17.92 106.213 21.12 106.213 25.4C106.213 29.68 107.993 32.88 110.153 35ZM120.773 26.12H119.433V24.84H120.773V26.12ZM122.373 23.58H117.913V27.38H122.373V23.58ZM116.673 31.84V19.04H126.333L125.393 19.98C125.913 20.26 126.513 20.68 126.933 21.04H124.773C124.733 20.48 124.713 19.92 124.693 19.34H122.733C122.773 19.92 122.793 20.48 122.833 21.04H117.413V22.72H122.973C123.153 24.7 123.413 26.52 123.833 27.96C123.513 28.32 123.193 28.66 122.833 28.96L122.793 27.96C120.713 28.24 118.633 28.48 117.173 28.64L117.393 30.38C118.713 30.16 120.273 29.94 121.873 29.7C121.673 29.84 121.453 29.98 121.233 30.1C121.633 30.42 122.273 31.18 122.533 31.54C123.293 31.06 123.973 30.48 124.613 29.84C125.013 30.5 125.513 30.96 126.113 31.16C127.433 31.76 128.473 31 128.793 28.54C128.393 28.32 127.673 27.78 127.313 27.42C127.233 28.58 127.073 29.36 126.853 29.28C126.493 29.2 126.193 28.82 125.933 28.22C126.833 26.9 127.553 25.38 128.033 23.64L126.213 23.28C125.973 24.18 125.673 25 125.273 25.78C125.113 24.88 124.993 23.84 124.893 22.72H128.473V21.04H127.513L128.313 20.2C127.953 19.82 127.273 19.36 126.633 19.04H129.113V31.84H116.673ZM114.413 16.9V34.8H116.673V33.96H129.113V34.8H131.473V16.9H114.413ZM142.253 21.9C141.153 22.02 140.293 22.12 139.473 22.18L139.693 23.64C140.453 23.5 141.113 23.38 141.893 23.24C141.233 24 140.533 24.64 139.753 25.08C139.553 24.4 139.213 23.66 138.673 22.88C138.873 22.3 139.093 21.64 139.273 20.98C139.673 21.28 140.133 21.68 140.373 21.92C140.813 21.52 141.213 21.04 141.593 20.5C142.073 20.9 142.593 21.34 142.993 21.72C142.773 22.08 142.533 22.44 142.293 22.74L142.253 21.9ZM144.173 19.06C144.033 19.5 143.873 19.92 143.693 20.3C143.313 19.98 142.853 19.62 142.433 19.3L142.573 19.06H144.173ZM143.773 23.78C144.753 22.48 145.513 20.88 146.033 19.02C146.573 20.8 147.313 22.44 148.273 23.78H143.773ZM149.593 18.68C149.333 19.36 148.993 20.04 148.633 20.62C148.313 20 148.053 19.36 147.833 18.68H149.593ZM142.933 25.66H148.773V24.44C149.473 25.26 150.233 25.98 151.133 26.54C151.433 26.02 152.033 25.26 152.473 24.88C151.393 24.32 150.433 23.42 149.673 22.36C150.613 21.16 151.533 19.4 152.073 17.76L150.793 17L150.413 17.1H147.253L147.233 18.02L146.233 18.26L146.313 17.9L145.133 17.44L144.813 17.52H143.313C143.473 17.18 143.593 16.84 143.713 16.5L141.973 16.1C141.453 17.66 140.613 19.12 139.513 20.2C139.793 19.32 140.053 18.4 140.273 17.58L138.813 16.76L138.493 16.84H134.293V34.7H136.333V18.96H137.793C137.493 20.26 137.133 21.88 136.753 23.1C137.813 24.54 138.013 25.84 138.013 26.8C138.013 27.38 137.913 27.84 137.693 28.02C137.553 28.14 137.373 28.18 137.173 28.18C136.973 28.2 136.713 28.2 136.373 28.16C136.693 28.72 136.873 29.58 136.893 30.12C137.313 30.14 137.753 30.14 138.093 30.1C138.513 30.02 138.873 29.88 139.153 29.64C139.773 29.18 140.013 28.32 140.013 27.04C140.013 26.48 139.953 25.84 139.773 25.14C140.133 25.5 140.653 26.14 140.893 26.54C141.633 26.06 142.313 25.48 142.933 24.8V25.66ZM141.733 29.64C141.133 30.74 140.153 31.96 139.273 32.78C139.793 33.06 140.713 33.62 141.173 34C142.033 33.08 143.133 31.58 143.873 30.34L141.733 29.64ZM150.773 28.94V27.04H141.093V28.94H144.833V34.7H147.073V28.94H150.773ZM147.953 30.44C148.813 31.5 150.033 32.96 150.573 33.84L152.413 32.66C151.813 31.8 150.553 30.4 149.693 29.42L147.953 30.44ZM170.053 17.46H155.853V19.76H170.053V17.46ZM167.393 32.18C166.733 32.18 166.613 32.06 166.613 31.3V25.18H171.893V22.86H154.053V25.18H158.573C158.333 28.5 157.773 31.2 153.613 32.76C154.153 33.22 154.813 34.1 155.093 34.7C159.873 32.76 160.793 29.34 161.153 25.18H164.153V31.3C164.153 33.64 164.733 34.4 166.993 34.4H169.393C171.433 34.4 172.033 33.36 172.273 29.78C171.613 29.62 170.593 29.2 170.073 28.78C169.973 31.66 169.853 32.18 169.193 32.18H167.393ZM175.753 15.8L173.853 16.64C175.853 18.8 177.433 21.56 177.433 25.4C177.433 29.24 175.853 32 173.853 34.16L175.753 35C177.913 32.88 179.693 29.68 179.693 25.4C179.693 21.12 177.913 17.92 175.753 15.8Z" fill="white"/>
<path d="M6 106H1033" stroke="#C4C4C4" stroke-width="0.75"/>
<path d="M6 170H1033" stroke="#C4C4C4" stroke-width="0.75"/>
<path d="M41.793 76.28V74.563H35.163C35.214 74.274 35.265 73.985 35.299 73.679H42.286V71.928H35.52V71.027H40.722V69.327H35.52V68.46H41.538V66.675H38.274C38.648 66.182 39.039 65.621 39.413 65.026L37.237 64.465C36.965 65.128 36.455 66.012 36.03 66.675H32.29L32.783 66.454C32.562 65.876 32.035 65.06 31.508 64.465L29.706 65.179C30.046 65.621 30.403 66.165 30.658 66.675H27.428V68.46H33.429V69.327H28.397V71.027H33.429V71.928H26.901V73.679H33.157C33.123 73.985 33.072 74.291 33.021 74.563H27.292V76.28H32.358C31.559 77.419 29.961 78.184 26.544 78.643C26.935 79.068 27.411 79.918 27.547 80.462C32.086 79.714 33.905 78.371 34.721 76.28H35.333L34.568 77.555C36.761 78.354 39.872 79.663 41.368 80.513L42.32 78.779C40.909 78.031 38.223 76.994 36.183 76.28H41.793ZM49.647 73.152H48.508V72.064H49.647V73.152ZM51.007 70.993H47.216V74.223H51.007V70.993ZM46.162 78.014V67.134H54.373L53.574 67.933C54.016 68.171 54.526 68.528 54.883 68.834H53.047C53.013 68.358 52.996 67.882 52.979 67.389H51.313C51.347 67.882 51.364 68.358 51.398 68.834H46.791V70.262H51.517C51.67 71.945 51.891 73.492 52.248 74.716C51.976 75.022 51.704 75.311 51.398 75.566L51.364 74.716C49.596 74.954 47.828 75.158 46.587 75.294L46.774 76.773C47.896 76.586 49.222 76.399 50.582 76.195C50.412 76.314 50.225 76.433 50.038 76.535C50.378 76.807 50.922 77.453 51.143 77.759C51.789 77.351 52.367 76.858 52.911 76.314C53.251 76.875 53.676 77.266 54.186 77.436C55.308 77.946 56.192 77.3 56.464 75.209C56.124 75.022 55.512 74.563 55.206 74.257C55.138 75.243 55.002 75.906 54.815 75.838C54.509 75.77 54.254 75.447 54.033 74.937C54.798 73.815 55.41 72.523 55.818 71.044L54.271 70.738C54.067 71.503 53.812 72.2 53.472 72.863C53.336 72.098 53.234 71.214 53.149 70.262H56.192V68.834H55.376L56.056 68.12C55.75 67.797 55.172 67.406 54.628 67.134H56.736V78.014H46.162ZM44.241 65.315V80.53H46.162V79.816H56.736V80.53H58.742V65.315H44.241Z" fill="#FBFBFB"/>
<path d="M35.537 140.186V136.531H39.379V140.186H35.537ZM29.57 140.186V136.531H33.395V140.186H29.57ZM35.537 134.542V131.601H33.395V134.542H27.53V143.11H29.57V142.175H33.395V147.479H35.537V142.175H39.379V143.025H41.504V134.542H35.537ZM49.647 140.152H48.508V139.064H49.647V140.152ZM51.007 137.993H47.216V141.223H51.007V137.993ZM46.162 145.014V134.134H54.373L53.574 134.933C54.016 135.171 54.526 135.528 54.883 135.834H53.047C53.013 135.358 52.996 134.882 52.979 134.389H51.313C51.347 134.882 51.364 135.358 51.398 135.834H46.791V137.262H51.517C51.67 138.945 51.891 140.492 52.248 141.716C51.976 142.022 51.704 142.311 51.398 142.566L51.364 141.716C49.596 141.954 47.828 142.158 46.587 142.294L46.774 143.773C47.896 143.586 49.222 143.399 50.582 143.195C50.412 143.314 50.225 143.433 50.038 143.535C50.378 143.807 50.922 144.453 51.143 144.759C51.789 144.351 52.367 143.858 52.911 143.314C53.251 143.875 53.676 144.266 54.186 144.436C55.308 144.946 56.192 144.3 56.464 142.209C56.124 142.022 55.512 141.563 55.206 141.257C55.138 142.243 55.002 142.906 54.815 142.838C54.509 142.77 54.254 142.447 54.033 141.937C54.798 140.815 55.41 139.523 55.818 138.044L54.271 137.738C54.067 138.503 53.812 139.2 53.472 139.863C53.336 139.098 53.234 138.214 53.149 137.262H56.192V135.834H55.376L56.056 135.12C55.75 134.797 55.172 134.406 54.628 134.134H56.736V145.014H46.162ZM44.241 132.315V147.53H46.162V146.816H56.736V147.53H58.742V132.315H44.241Z" fill="#FBFBFB"/>
<path d="M25.354 197.341C25.116 196.525 24.504 195.233 23.926 194.281L22.447 194.876C22.974 195.879 23.569 197.222 23.79 198.038L25.354 197.341ZM18.061 198.718V196.27C18.775 196.083 19.472 195.845 20.084 195.573C20.084 196.627 20.118 197.698 20.152 198.718H18.061ZM23.331 201.047C23.059 201.761 22.753 202.475 22.379 203.121C22.277 202.322 22.209 201.421 22.141 200.469H25.099V198.718H22.056C22.005 197.171 21.988 195.505 22.022 193.856H20.067C20.067 194.417 20.067 194.961 20.084 195.505L18.673 194.009C17.517 194.57 15.715 195.148 13.998 195.539C14.168 195.08 14.321 194.621 14.474 194.196L12.604 193.635C11.873 196.134 10.615 198.599 9.238 200.18C9.561 200.724 10.071 201.88 10.224 202.373C10.564 201.948 10.921 201.489 11.261 200.996V209.462H13.182V197.511C13.386 197.052 13.59 196.593 13.777 196.134C13.93 196.491 14.066 196.899 14.134 197.188C14.797 197.069 15.46 196.933 16.157 196.78V198.718H13.59V200.469H16.157V202.832C15.171 203.053 14.27 203.24 13.539 203.393L13.998 205.331C14.661 205.178 15.392 204.991 16.157 204.787V207.303C16.157 207.558 16.072 207.626 15.817 207.626C15.562 207.643 14.78 207.643 14.015 207.626C14.27 208.136 14.525 208.952 14.593 209.479C15.817 209.479 16.684 209.411 17.262 209.105C17.874 208.799 18.061 208.323 18.061 207.337V204.294C18.724 204.124 19.421 203.954 20.067 203.784L19.863 201.982L18.061 202.407V200.469H20.237C20.339 202.271 20.526 203.937 20.798 205.331C19.999 206.198 19.098 206.963 18.112 207.558C18.503 207.881 19.132 208.595 19.387 208.969C20.067 208.51 20.73 207.966 21.342 207.354C21.835 208.68 22.532 209.496 23.484 209.496C24.827 209.496 25.354 208.799 25.626 206.215C25.167 206.011 24.555 205.569 24.181 205.127C24.13 206.844 23.977 207.575 23.739 207.575C23.365 207.575 23.042 206.878 22.787 205.705C23.739 204.464 24.538 203.036 25.116 201.489L23.331 201.047ZM27.615 205.875C27.479 206.912 27.241 208.051 26.816 208.765C27.241 208.85 27.989 209.003 28.363 209.122C28.703 208.374 29.026 207.201 29.179 206.096L27.615 205.875ZM29.553 206.096C29.791 206.98 29.978 208.136 29.978 208.884L31.525 208.612C31.491 207.864 31.287 206.725 31.015 205.841L29.553 206.096ZM31.593 205.824C32.001 206.64 32.409 207.728 32.579 208.425L34.041 208.068C33.854 207.354 33.412 206.3 32.987 205.518L31.593 205.824ZM36.37 206.385H38.104V207.32H36.37V206.385ZM38.104 202.577H36.37V201.676H38.104V202.577ZM38.104 204.94H36.37V204.022H38.104V204.94ZM33.412 195.607H35.452V196.763H33.412V195.607ZM31.559 196.763H29.57V195.607H31.559V196.763ZM37.288 195.607H39.379V196.763H37.288V195.607ZM42.32 207.32H39.872V206.385H41.64V204.94H39.872V204.022H41.64V202.577H39.872V201.676H42.099V200.078H39.991C39.804 199.5 39.498 198.871 39.192 198.327L37.645 198.786C37.849 199.177 38.036 199.636 38.206 200.078H36.557C36.812 199.585 37.05 199.092 37.237 198.582L35.707 198.208H41.419V194.162H27.632V198.208H29.604C28.975 199.33 28.108 200.418 27.802 200.707C27.445 201.047 27.156 201.268 26.833 201.319C27.054 201.676 27.36 202.322 27.462 202.611C27.751 202.509 28.159 202.424 29.553 202.305C29.043 202.815 28.618 203.189 28.397 203.376C27.853 203.835 27.445 204.141 27.003 204.209C27.224 204.566 27.53 205.212 27.615 205.484C28.057 205.314 28.72 205.195 32.511 204.77C32.596 205.042 32.664 205.314 32.698 205.535L34.109 204.974C33.973 204.226 33.48 203.07 33.004 202.186L31.678 202.662C31.797 202.934 31.933 203.206 32.052 203.512L30.131 203.699C31.372 202.645 32.545 201.421 33.446 200.231L31.933 199.364C31.627 199.891 31.219 200.401 30.811 200.894L29.587 200.962C30.301 200.231 30.981 199.381 31.491 198.582L30.59 198.208H35.435C34.891 199.636 33.956 201.047 32.868 201.965C33.293 202.22 34.024 202.764 34.364 203.087L34.534 202.917V209.496H36.37V208.935H42.32V207.32ZM46.876 202.526H49.154V203.682H46.876V202.526ZM49.154 197.375V198.378H46.876V197.375H49.154ZM46.876 199.925H49.154V200.979H46.876V199.925ZM52.078 203.682H51.007V197.375H52.01V195.607H51.007V193.788H49.154V195.607H46.876V193.788H45.057V195.607H43.765V197.375H45.057V203.682H43.561V205.45H52.078V203.682ZM45.686 205.569C45.227 206.538 44.394 207.575 43.561 208.221C44.02 208.493 44.802 209.071 45.159 209.411C46.026 208.612 47.012 207.337 47.573 206.113L45.686 205.569ZM59.456 199.177H54.509V196.678C56.226 196.253 58.011 195.658 59.422 194.961L57.807 193.516C56.583 194.247 54.526 194.961 52.656 195.437V201.608C52.656 203.767 52.469 205.892 51.228 207.745C50.905 207.133 50.242 206.249 49.732 205.586L48.117 206.334C48.627 207.031 49.273 208.017 49.545 208.629L51.177 207.83C51.007 208.068 50.82 208.306 50.616 208.544C51.075 208.867 51.704 209.411 52.027 209.853C54.152 207.541 54.509 204.736 54.509 201.608V201.047H56.073V209.462H57.994V201.047H59.456V199.177Z" fill="#FBFBFB"/>
<circle cx="655.5" cy="71.5" r="12.5" fill="#C2C2C2"/>
<circle cx="123.5" cy="138.5" r="12.5" fill="#C2C2C2"/>
<circle cx="209.5" cy="24.5" r="12.5" fill="#C2C2C2"/>
<circle cx="315.5" cy="24.5" r="12.5" fill="#F0C860"/>
<circle cx="175.5" cy="200.5" r="12.5" fill="#C2C2C2"/>
<path d="M950.061 72.0607C950.646 71.4749 950.646 70.5251 950.061 69.9393L940.515 60.3934C939.929 59.8076 938.979 59.8076 938.393 60.3934C937.808 60.9792 937.808 61.9289 938.393 62.5147L946.879 71L938.393 79.4853C937.808 80.0711 937.808 81.0208 938.393 81.6066C938.979 82.1924 939.929 82.1924 940.515 81.6066L950.061 72.0607ZM668 72.5L949 72.5L949 69.5L668 69.5L668 72.5Z" fill="#C2C2C2"/>
<path d="M238.061 141.061C238.646 140.475 238.646 139.525 238.061 138.939L228.515 129.393C227.929 128.808 226.979 128.808 226.393 129.393C225.808 129.979 225.808 130.929 226.393 131.515L234.879 140L226.393 148.485C225.808 149.071 225.808 150.021 226.393 150.607C226.979 151.192 227.929 151.192 228.515 150.607L238.061 141.061ZM123 141.5L237 141.5L237 138.5L123 138.5L123 141.5Z" fill="#C2C2C2"/>
<path d="M475.061 201.061C475.646 200.475 475.646 199.525 475.061 198.939L465.515 189.393C464.929 188.808 463.979 188.808 463.393 189.393C462.808 189.979 462.808 190.929 463.393 191.515L471.879 200L463.393 208.485C462.808 209.071 462.808 210.021 463.393 210.607C463.979 211.192 464.929 211.192 465.515 210.607L475.061 201.061ZM178 201.5L474 201.5V198.5L178 198.5V201.5Z" fill="#C2C2C2"/>
<circle cx="961.5" cy="71.5" r="12.5" fill="#F0C860"/>
<circle cx="251.5" cy="138.5" r="12.5" fill="#F0C860"/>
<circle cx="486.5" cy="200.5" r="12.5" fill="#F0C860"/>
<path d="M128.083 207.116C126.434 207.116 125.482 205.62 125.312 202.985C126.162 201.795 127.131 201.336 127.93 201.336C129.528 201.336 130.259 202.475 130.259 204.209C130.259 205.926 129.324 207.116 128.083 207.116ZM131.364 196.576C130.684 195.862 129.766 195.335 128.525 195.335C126.145 195.335 123.969 197.171 123.969 202.084C123.969 206.147 125.686 208.221 128.083 208.221C129.97 208.221 131.585 206.589 131.585 204.209C131.585 201.608 130.259 200.299 128.151 200.299C127.148 200.299 126.06 200.877 125.278 201.812C125.346 197.834 126.825 196.491 128.576 196.491C129.324 196.491 130.072 196.848 130.582 197.443L131.364 196.576ZM137.039 208.221C139.334 208.221 140.881 206.81 140.881 205.025C140.881 203.325 139.861 202.39 138.773 201.761V201.676C139.504 201.098 140.456 199.959 140.456 198.65C140.456 196.746 139.181 195.369 137.073 195.369C135.169 195.369 133.724 196.644 133.724 198.514C133.724 199.823 134.506 200.758 135.407 201.37V201.438C134.268 202.067 133.095 203.223 133.095 204.906C133.095 206.827 134.761 208.221 137.039 208.221ZM137.889 201.302C136.41 200.724 134.999 200.061 134.999 198.514C134.999 197.273 135.866 196.423 137.039 196.423C138.45 196.423 139.249 197.46 139.249 198.718C139.249 199.67 138.773 200.554 137.889 201.302ZM137.056 207.184C135.509 207.184 134.353 206.164 134.353 204.804C134.353 203.563 135.101 202.543 136.155 201.88C137.957 202.611 139.555 203.257 139.555 204.991C139.555 206.249 138.552 207.184 137.056 207.184ZM142.425 208H150.126V206.81H146.556C145.927 206.81 145.179 206.844 144.516 206.912C147.559 204.056 149.531 201.489 149.531 198.973C149.531 196.763 148.171 195.335 145.961 195.335C144.414 195.335 143.343 196.066 142.34 197.154L143.156 197.936C143.87 197.103 144.771 196.457 145.808 196.457C147.406 196.457 148.171 197.562 148.171 199.024C148.171 201.183 146.403 203.699 142.425 207.167V208ZM155.393 208.221C157.45 208.221 159.405 206.674 159.405 203.971C159.405 201.217 157.739 199.993 155.682 199.993C154.9 199.993 154.322 200.197 153.744 200.52L154.084 196.746H158.81V195.556H152.86L152.469 201.336L153.234 201.812C153.948 201.336 154.492 201.064 155.342 201.064C156.957 201.064 158.011 202.169 158.011 204.005C158.011 205.875 156.77 207.065 155.274 207.065C153.795 207.065 152.877 206.385 152.163 205.654L151.466 206.572C152.299 207.405 153.455 208.221 155.393 208.221Z" fill="#C2C2C2"/>
<path d="M228.9 33H237.96V31.6H233.76C233.02 31.6 232.14 31.64 231.36 31.72C234.94 28.36 237.26 25.34 237.26 22.38C237.26 19.78 235.66 18.1 233.06 18.1C231.24 18.1 229.98 18.96 228.8 20.24L229.76 21.16C230.6 20.18 231.66 19.42 232.88 19.42C234.76 19.42 235.66 20.72 235.66 22.44C235.66 24.98 233.58 27.94 228.9 32.02V33ZM244.477 33.26C247.217 33.26 248.937 30.74 248.937 25.62C248.937 20.56 247.217 18.1 244.477 18.1C241.717 18.1 239.977 20.54 239.977 25.62C239.977 30.74 241.717 33.26 244.477 33.26ZM244.477 31.94C242.737 31.94 241.557 29.98 241.557 25.62C241.557 21.34 242.737 19.42 244.477 19.42C246.197 19.42 247.357 21.34 247.357 25.62C247.357 29.98 246.197 31.94 244.477 31.94ZM255.453 33.26C258.193 33.26 259.913 30.74 259.913 25.62C259.913 20.56 258.193 18.1 255.453 18.1C252.693 18.1 250.953 20.54 250.953 25.62C250.953 30.74 252.693 33.26 255.453 33.26ZM255.453 31.94C253.713 31.94 252.533 29.98 252.533 25.62C252.533 21.34 253.713 19.42 255.453 19.42C257.173 19.42 258.333 21.34 258.333 25.62C258.333 29.98 257.173 31.94 255.453 31.94ZM266.43 33.26C269.17 33.26 270.89 30.74 270.89 25.62C270.89 20.56 269.17 18.1 266.43 18.1C263.67 18.1 261.93 20.54 261.93 25.62C261.93 30.74 263.67 33.26 266.43 33.26ZM266.43 31.94C264.69 31.94 263.51 29.98 263.51 25.62C263.51 21.34 264.69 19.42 266.43 19.42C268.15 19.42 269.31 21.34 269.31 25.62C269.31 29.98 268.15 31.94 266.43 31.94ZM277.586 28.6V24.46H282.226V28.6H277.586ZM290.906 28.6H283.566V24.46H289.546V23.2H283.566V20.02H289.966V18.74H277.966C278.326 18.04 278.646 17.3 278.926 16.56L277.606 16.24C276.606 18.94 274.926 21.54 273.006 23.18C273.366 23.38 273.906 23.82 274.166 24.02C275.286 22.96 276.346 21.58 277.266 20.02H282.226V23.2H276.246V28.6H272.946V29.88H282.226V34.52H283.566V29.88H290.906V28.6Z" fill="#C2C2C2"/>
<path d="M70.765 146H78.466V144.81H74.896C74.267 144.81 73.519 144.844 72.856 144.912C75.899 142.056 77.871 139.489 77.871 136.973C77.871 134.763 76.511 133.335 74.301 133.335C72.754 133.335 71.683 134.066 70.68 135.154L71.496 135.936C72.21 135.103 73.111 134.457 74.148 134.457C75.746 134.457 76.511 135.562 76.511 137.024C76.511 139.183 74.743 141.699 70.765 145.167V146ZM83.7161 140.22C82.1691 140.22 81.4211 139.064 81.4211 137.347C81.4211 135.613 82.3561 134.423 83.5971 134.423C85.2801 134.423 86.2661 135.902 86.4021 138.503C85.5351 139.727 84.5661 140.22 83.7161 140.22ZM80.3331 144.98C81.0131 145.694 81.9481 146.221 83.2571 146.221C85.5691 146.221 87.7281 144.3 87.7281 139.2C87.7281 135.307 85.9941 133.335 83.5971 133.335C81.6931 133.335 80.0951 134.967 80.0951 137.347C80.0951 139.914 81.4211 141.257 83.4951 141.257C84.5831 141.257 85.6371 140.628 86.4191 139.676C86.3001 143.688 84.8551 145.065 83.2231 145.065C82.3901 145.065 81.6421 144.708 81.0981 144.113L80.3331 144.98ZM90.1732 146H96.8712V144.844H94.3382V133.556H93.2842C92.6382 133.947 91.8392 134.219 90.7682 134.406V135.307H92.9612V144.844H90.1732V146ZM101.39 146H102.835C103.039 141.138 103.583 138.18 106.524 134.389V133.556H98.8232V134.746H104.926C102.478 138.146 101.594 141.206 101.39 146Z" fill="#C2C2C2"/>
<path d="M593.454 79.221C595.63 79.221 597.364 77.895 597.364 75.685C597.364 73.968 596.174 72.846 594.712 72.506V72.438C596.038 71.962 596.939 70.959 596.939 69.412C596.939 67.44 595.443 66.335 593.403 66.318C591.975 66.335 590.887 66.964 589.969 67.797L590.734 68.698C591.431 67.984 592.332 67.457 593.352 67.44C594.695 67.457 595.528 68.273 595.528 69.514C595.528 70.908 594.627 71.979 592.026 71.979V73.067C594.916 73.067 595.97 74.104 595.97 75.651C595.97 77.13 594.882 78.065 593.369 78.065C591.89 78.065 590.955 77.368 590.224 76.62L589.51 77.521C590.309 78.388 591.516 79.221 593.454 79.221ZM603.413 78.116C601.764 78.116 600.812 76.62 600.642 73.985C601.492 72.795 602.461 72.336 603.26 72.336C604.858 72.336 605.589 73.475 605.589 75.209C605.589 76.926 604.654 78.116 603.413 78.116ZM606.694 67.576C606.014 66.862 605.096 66.335 603.855 66.335C601.475 66.335 599.299 68.171 599.299 73.084C599.299 77.147 601.016 79.221 603.413 79.221C605.3 79.221 606.915 77.589 606.915 75.209C606.915 72.608 605.589 71.299 603.481 71.299C602.478 71.299 601.39 71.877 600.608 72.812C600.676 68.834 602.155 67.491 603.906 67.491C604.654 67.491 605.402 67.848 605.912 68.443L606.694 67.576ZM612.114 79.221C614.29 79.221 616.024 77.895 616.024 75.685C616.024 73.968 614.834 72.846 613.372 72.506V72.438C614.698 71.962 615.599 70.959 615.599 69.412C615.599 67.44 614.103 66.335 612.063 66.318C610.635 66.335 609.547 66.964 608.629 67.797L609.394 68.698C610.091 67.984 610.992 67.457 612.012 67.44C613.355 67.457 614.188 68.273 614.188 69.514C614.188 70.908 613.287 71.979 610.686 71.979V73.067C613.576 73.067 614.63 74.104 614.63 75.651C614.63 77.13 613.542 78.065 612.029 78.065C610.55 78.065 609.615 77.368 608.884 76.62L608.17 77.521C608.969 78.388 610.176 79.221 612.114 79.221ZM621.444 79.221C623.62 79.221 625.354 77.895 625.354 75.685C625.354 73.968 624.164 72.846 622.702 72.506V72.438C624.028 71.962 624.929 70.959 624.929 69.412C624.929 67.44 623.433 66.335 621.393 66.318C619.965 66.335 618.877 66.964 617.959 67.797L618.724 68.698C619.421 67.984 620.322 67.457 621.342 67.44C622.685 67.457 623.518 68.273 623.518 69.514C623.518 70.908 622.617 71.979 620.016 71.979V73.067C622.906 73.067 623.96 74.104 623.96 75.651C623.96 77.13 622.872 78.065 621.359 78.065C619.88 78.065 618.945 77.368 618.214 76.62L617.5 77.521C618.299 78.388 619.506 79.221 621.444 79.221ZM630.995 79.221C633.324 79.221 634.786 77.079 634.786 72.727C634.786 68.426 633.324 66.335 630.995 66.335C628.649 66.335 627.17 68.409 627.17 72.727C627.17 77.079 628.649 79.221 630.995 79.221ZM630.995 78.099C629.516 78.099 628.513 76.433 628.513 72.727C628.513 69.089 629.516 67.457 630.995 67.457C632.457 67.457 633.443 69.089 633.443 72.727C633.443 76.433 632.457 78.099 630.995 78.099Z" fill="#C2C2C2"/>
<path d="M334.9 33H343.96V31.6H339.76C339.02 31.6 338.14 31.64 337.36 31.72C340.94 28.36 343.26 25.34 343.26 22.38C343.26 19.78 341.66 18.1 339.06 18.1C337.24 18.1 335.98 18.96 334.8 20.24L335.76 21.16C336.6 20.18 337.66 19.42 338.88 19.42C340.76 19.42 341.66 20.72 341.66 22.44C341.66 24.98 339.58 27.94 334.9 32.02V33ZM350.477 33.26C353.217 33.26 354.937 30.74 354.937 25.62C354.937 20.56 353.217 18.1 350.477 18.1C347.717 18.1 345.977 20.54 345.977 25.62C345.977 30.74 347.717 33.26 350.477 33.26ZM350.477 31.94C348.737 31.94 347.557 29.98 347.557 25.62C347.557 21.34 348.737 19.42 350.477 19.42C352.197 19.42 353.357 21.34 353.357 25.62C353.357 29.98 352.197 31.94 350.477 31.94ZM357.733 33H365.613V31.64H362.633V18.36H361.393C360.633 18.82 359.693 19.14 358.433 19.36V20.42H361.013V31.64H357.733V33ZM369.05 27.62L372.59 22.38C372.99 21.68 373.39 20.96 373.75 20.26H373.85C373.79 20.98 373.73 22.14 373.73 22.86V27.62H369.05ZM377.27 27.62H375.27V18.36H373.53L367.31 27.86V28.92H373.73V33H375.27V28.92H377.27V27.62ZM383.586 28.6V24.46H388.226V28.6H383.586ZM396.906 28.6H389.566V24.46H395.546V23.2H389.566V20.02H395.966V18.74H383.966C384.326 18.04 384.646 17.3 384.926 16.56L383.606 16.24C382.606 18.94 380.926 21.54 379.006 23.18C379.366 23.38 379.906 23.82 380.166 24.02C381.286 22.96 382.346 21.58 383.266 20.02H388.226V23.2H382.246V28.6H378.946V29.88H388.226V34.52H389.566V29.88H396.906V28.6Z" fill="#F0C860"/>
<path d="M504.765 208H512.466V206.81H508.896C508.267 206.81 507.519 206.844 506.856 206.912C509.899 204.056 511.871 201.489 511.871 198.973C511.871 196.763 510.511 195.335 508.301 195.335C506.754 195.335 505.683 196.066 504.68 197.154L505.496 197.936C506.21 197.103 507.111 196.457 508.148 196.457C509.746 196.457 510.511 197.562 510.511 199.024C510.511 201.183 508.743 203.699 504.765 207.167V208ZM517.733 208.221C519.79 208.221 521.745 206.674 521.745 203.971C521.745 201.217 520.079 199.993 518.022 199.993C517.24 199.993 516.662 200.197 516.084 200.52L516.424 196.746H521.15V195.556H515.2L514.809 201.336L515.574 201.812C516.288 201.336 516.832 201.064 517.682 201.064C519.297 201.064 520.351 202.169 520.351 204.005C520.351 205.875 519.11 207.065 517.614 207.065C516.135 207.065 515.217 206.385 514.503 205.654L513.806 206.572C514.639 207.405 515.795 208.221 517.733 208.221ZM526.06 208H527.505C527.709 203.138 528.253 200.18 531.194 196.389V195.556H523.493V196.746H529.596C527.148 200.146 526.264 203.206 526.06 208ZM537.073 207.116C535.424 207.116 534.472 205.62 534.302 202.985C535.152 201.795 536.121 201.336 536.92 201.336C538.518 201.336 539.249 202.475 539.249 204.209C539.249 205.926 538.314 207.116 537.073 207.116ZM540.354 196.576C539.674 195.862 538.756 195.335 537.515 195.335C535.135 195.335 532.959 197.171 532.959 202.084C532.959 206.147 534.676 208.221 537.073 208.221C538.96 208.221 540.575 206.589 540.575 204.209C540.575 201.608 539.249 200.299 537.141 200.299C536.138 200.299 535.05 200.877 534.268 201.812C534.336 197.834 535.815 196.491 537.566 196.491C538.314 196.491 539.062 196.848 539.572 197.443L540.354 196.576ZM542.085 208H549.786V206.81H546.216C545.587 206.81 544.839 206.844 544.176 206.912C547.219 204.056 549.191 201.489 549.191 198.973C549.191 196.763 547.831 195.335 545.621 195.335C544.074 195.335 543.003 196.066 542 197.154L542.816 197.936C543.53 197.103 544.431 196.457 545.468 196.457C547.066 196.457 547.831 197.562 547.831 199.024C547.831 201.183 546.063 203.699 542.085 207.167V208Z" fill="#F0C860"/>
<path d="M270.513 146H277.211V144.844H274.678V133.556H273.624C272.978 133.947 272.179 134.219 271.108 134.406V135.307H273.301V144.844H270.513V146ZM279.095 146H286.796V144.81H283.226C282.597 144.81 281.849 144.844 281.186 144.912C284.229 142.056 286.201 139.489 286.201 136.973C286.201 134.763 284.841 133.335 282.631 133.335C281.084 133.335 280.013 134.066 279.01 135.154L279.826 135.936C280.54 135.103 281.441 134.457 282.478 134.457C284.076 134.457 284.841 135.562 284.841 137.024C284.841 139.183 283.073 141.699 279.095 145.167V146ZM289.462 141.427L292.471 136.973C292.811 136.378 293.151 135.766 293.457 135.171H293.542C293.491 135.783 293.44 136.769 293.44 137.381V141.427H289.462ZM296.449 141.427H294.749V133.556H293.27L287.983 141.631V142.532H293.44V146H294.749V142.532H296.449V141.427ZM301.699 146.221C303.994 146.221 305.541 144.81 305.541 143.025C305.541 141.325 304.521 140.39 303.433 139.761V139.676C304.164 139.098 305.116 137.959 305.116 136.65C305.116 134.746 303.841 133.369 301.733 133.369C299.829 133.369 298.384 134.644 298.384 136.514C298.384 137.823 299.166 138.758 300.067 139.37V139.438C298.928 140.067 297.755 141.223 297.755 142.906C297.755 144.827 299.421 146.221 301.699 146.221ZM302.549 139.302C301.07 138.724 299.659 138.061 299.659 136.514C299.659 135.273 300.526 134.423 301.699 134.423C303.11 134.423 303.909 135.46 303.909 136.718C303.909 137.67 303.433 138.554 302.549 139.302ZM301.716 145.184C300.169 145.184 299.013 144.164 299.013 142.804C299.013 141.563 299.761 140.543 300.815 139.88C302.617 140.611 304.215 141.257 304.215 142.991C304.215 144.249 303.212 145.184 301.716 145.184ZM310.995 146.221C313.324 146.221 314.786 144.079 314.786 139.727C314.786 135.426 313.324 133.335 310.995 133.335C308.649 133.335 307.17 135.409 307.17 139.727C307.17 144.079 308.649 146.221 310.995 146.221ZM310.995 145.099C309.516 145.099 308.513 143.433 308.513 139.727C308.513 136.089 309.516 134.457 310.995 134.457C312.457 134.457 313.443 136.089 313.443 139.727C313.443 143.433 312.457 145.099 310.995 145.099Z" fill="#F0C860"/>
<path d="M986.403 79.221C988.46 79.221 990.415 77.674 990.415 74.971C990.415 72.217 988.749 70.993 986.692 70.993C985.91 70.993 985.332 71.197 984.754 71.52L985.094 67.746H989.82V66.556H983.87L983.479 72.336L984.244 72.812C984.958 72.336 985.502 72.064 986.352 72.064C987.967 72.064 989.021 73.169 989.021 75.005C989.021 76.875 987.78 78.065 986.284 78.065C984.805 78.065 983.887 77.385 983.173 76.654L982.476 77.572C983.309 78.405 984.465 79.221 986.403 79.221ZM995.733 79.221C997.79 79.221 999.745 77.674 999.745 74.971C999.745 72.217 998.079 70.993 996.022 70.993C995.24 70.993 994.662 71.197 994.084 71.52L994.424 67.746H999.15V66.556H993.2L992.809 72.336L993.574 72.812C994.288 72.336 994.832 72.064 995.682 72.064C997.297 72.064 998.351 73.169 998.351 75.005C998.351 76.875 997.11 78.065 995.614 78.065C994.135 78.065 993.217 77.385 992.503 76.654L991.806 77.572C992.639 78.405 993.795 79.221 995.733 79.221ZM1002.17 79H1008.87V77.844H1006.34V66.556H1005.28C1004.64 66.947 1003.84 67.219 1002.77 67.406V68.307H1004.96V77.844H1002.17V79ZM1010.76 79H1018.46V77.81H1014.89C1014.26 77.81 1013.51 77.844 1012.85 77.912C1015.89 75.056 1017.86 72.489 1017.86 69.973C1017.86 67.763 1016.5 66.335 1014.29 66.335C1012.74 66.335 1011.67 67.066 1010.67 68.154L1011.49 68.936C1012.2 68.103 1013.1 67.457 1014.14 67.457C1015.74 67.457 1016.5 68.562 1016.5 70.024C1016.5 72.183 1014.73 74.699 1010.76 78.167V79ZM1021.12 74.427L1024.13 69.973C1024.47 69.378 1024.81 68.766 1025.12 68.171H1025.2C1025.15 68.783 1025.1 69.769 1025.1 70.381V74.427H1021.12ZM1028.11 74.427H1026.41V66.556H1024.93L1019.64 74.631V75.532H1025.1V79H1026.41V75.532H1028.11V74.427Z" fill="#F0C860"/>
</svg>
