<svg width="68" height="68" viewBox="0 0 68 68" fill="none" xmlns="http://www.w3.org/2000/svg">
<path d="M38.8162 47.9843C39.1362 47.4083 39.2002 46.7203 39.0722 46.0803C39.0082 45.7443 38.8482 45.4243 38.6242 45.1683C38.3682 44.8963 38.0482 44.6883 37.7122 44.5123C36.9922 44.1283 36.1922 43.9043 35.4082 43.6963V49.7763C36.6882 49.6323 38.1602 49.1683 38.8162 47.9843Z" fill="#797979"/>
<path d="M29.9201 38.5115C30.2561 38.7355 30.6401 38.9275 31.0081 39.0715C31.3281 39.1995 31.6801 39.3275 32.0801 39.4395V33.9355C31.1041 34.1435 30.0321 34.5915 29.4561 35.4395C29.2321 35.7595 29.1041 36.1275 29.0561 36.5115C29.0241 36.8955 29.0401 37.3275 29.1841 37.6955C29.3121 38.0475 29.6161 38.3035 29.9201 38.5115Z" fill="#797979"/>
<path d="M28.768 46.3041C28.832 46.4961 28.88 46.6881 28.944 46.8801C29.008 47.0721 29.104 47.2481 29.2 47.4241C29.392 47.7761 29.648 48.0801 29.936 48.3681C30.528 48.9441 31.28 49.3121 32.064 49.5201V42.8961C30.592 42.5121 29.072 42.0321 27.824 41.1201V45.2801C28.272 45.4721 28.624 45.8401 28.768 46.3041Z" fill="#797979"/>
<path d="M37.5681 14.8001C42.7361 10.4481 46.1921 0.672105 44.0641 0.240105C41.2321 -0.335895 35.1041 2.1601 32.1281 2.6081C30.7041 2.7841 29.2481 2.32011 27.8401 1.7281V15.1201C27.8561 15.1361 27.8721 15.1361 27.8881 15.1521C27.8721 15.1681 27.8561 15.1681 27.8401 15.1841V32.3041C29.0401 31.3121 30.5601 30.7521 32.0801 30.5441V30.4001V28.7041C32.0801 28.2241 32.2881 27.7601 32.6401 27.4561C33.1361 27.0241 33.8561 26.9121 34.4481 27.1841C35.0401 27.4561 35.4241 28.0641 35.4241 28.7041V30.4001V30.5281C35.6481 30.5601 35.8561 30.5921 36.0801 30.6241C37.6961 30.9121 39.2641 31.5841 40.4481 32.7361C41.0081 33.2801 41.4561 33.9361 41.7921 34.6561C41.8881 34.8481 41.9681 35.0561 42.0321 35.2641C42.0961 35.4561 42.1601 35.6641 42.1921 35.8561C42.2401 36.1761 42.1921 36.5121 42.0481 36.8161C41.7601 37.4241 41.1361 37.8081 40.4641 37.7761C39.8081 37.7441 39.2161 37.3121 38.9761 36.7041C38.9121 36.5281 38.8641 36.3201 38.8001 36.1441C38.7201 35.9521 38.6401 35.7761 38.5281 35.6161C38.3201 35.2961 38.0481 35.0081 37.7441 34.7841C37.0721 34.2881 36.2561 34.0321 35.4561 33.8881V40.2241C36.4161 40.4481 37.3921 40.7041 38.3201 41.0721C39.7121 41.6161 41.0401 42.4641 41.8081 43.8081C41.6961 43.6001 41.5681 43.3921 41.8081 43.8081C42.0481 44.2241 41.9361 44.0161 41.8081 43.8241C42.4161 44.8961 42.6081 46.1761 42.4801 47.3921C42.3041 49.0081 41.4561 50.4641 40.1761 51.4561C38.8321 52.4961 37.1361 52.9921 35.4561 53.1201V54.8961C35.4561 55.3761 35.2481 55.8401 34.8961 56.1441C34.4001 56.5761 33.6801 56.6881 33.0881 56.4161C32.4961 56.1441 32.1121 55.5361 32.1121 54.8961V52.9441C31.8241 52.8961 31.5361 52.8321 31.2481 52.7521C30.0001 52.4161 28.8321 51.8081 27.8721 50.9601V67.6801C28.1441 67.6961 28.4161 67.7281 28.7041 67.7441C85.5361 71.9041 57.0561 22.8161 37.5681 14.8001Z" fill="#797979"/>
<path d="M27.1201 50.256C26.5921 49.632 26.1601 48.928 25.8561 48.176C25.7761 47.984 25.7121 47.776 25.6481 47.568C25.6001 47.376 25.5361 47.2 25.5201 47.008C25.4881 46.688 25.5521 46.352 25.6961 46.064C26.0001 45.472 26.6561 45.12 27.3281 45.168C27.5041 45.184 27.6801 45.232 27.8241 45.296V41.136C27.7761 41.104 27.7281 41.056 27.6801 41.024C27.0721 40.544 26.5441 39.952 26.1921 39.248C25.8241 38.512 25.6801 37.68 25.6801 36.848C25.6801 36.016 25.8401 35.184 26.1761 34.416C26.4961 33.696 26.9761 33.056 27.5521 32.528C27.6481 32.448 27.7281 32.368 27.8241 32.288V15.168C11.2001 23.424 -12.0639 64.192 27.8401 67.68V50.976C27.5841 50.752 27.3441 50.512 27.1201 50.256Z" fill="#E05778"/>
<path d="M20.7682 0.864C18.6882 3.152 22.2402 11.472 27.8402 15.12V1.728C25.0562 0.576 22.4802 -1.008 20.7682 0.864Z" fill="#E05778"/>
</svg>
