<svg width="68" height="68" viewBox="0 0 68 68" fill="none" xmlns="http://www.w3.org/2000/svg">
<g clip-path="url(#clip0_12_2)">
<path d="M38.6252 45.1706C38.3713 44.8926 38.05 44.6845 37.7179 44.5113C36.995 44.1343 36.2044 43.9056 35.4194 43.6992V49.7821C36.6936 49.6381 38.1564 49.1756 38.8254 47.9861C39.1447 47.418 39.2083 46.7198 39.0782 46.0873C39.0076 45.7446 38.8618 45.43 38.6252 45.1706Z" fill="#797979"/>
<path d="M38.8184 47.9986C38.821 47.9941 38.8226 47.9912 38.8254 47.9863C38.8231 47.9904 38.8207 47.9944 38.8184 47.9986Z" fill="#797979"/>
<path d="M29.4426 35.4477C29.2236 35.7675 29.0861 36.1309 29.0482 36.5172C29.0103 36.9042 29.0316 37.3348 29.1786 37.6991C29.3186 38.0464 29.6119 38.3027 29.9146 38.5091C30.2543 38.7402 30.628 38.9206 31.0085 39.0736C31.3277 39.2021 31.6867 39.325 32.0738 39.4437V33.9395C31.096 34.1481 30.0276 34.5936 29.4426 35.4477Z" fill="#797979"/>
<path d="M38.8507 47.9414C38.8426 47.9559 38.8338 47.971 38.8252 47.9869C38.8353 47.9684 38.8432 47.9547 38.8507 47.9414Z" fill="#797979"/>
<path d="M38.8823 47.8851C38.8853 47.8797 38.8858 47.8792 38.8823 47.8851V47.8851Z" fill="#797979"/>
<path d="M37.5622 14.7957C42.7351 10.4502 46.1916 0.660482 44.0644 0.232302C41.2381 -0.336845 35.1005 2.15879 32.134 2.59849C27.9264 3.10652 23.3438 -1.96412 20.7715 0.862251C18.68 3.16028 22.2709 11.5175 27.889 15.1583C11.1278 23.3961 -12.431 64.7507 28.6687 67.7513C85.5371 71.9033 57.061 22.8233 37.5622 14.7957ZM42.4461 47.4099C42.2712 49.0221 41.4168 50.4801 40.1396 51.4699C38.7911 52.5151 37.0996 53.0012 35.4191 53.1373V54.9187C35.4191 55.3954 35.2109 55.8564 34.8541 56.1719C34.3637 56.6058 33.643 56.7129 33.0478 56.4386C32.46 56.1682 32.0739 55.5655 32.0739 54.9187V52.9717C31.7858 52.917 31.4997 52.8519 31.2169 52.7743C29.6463 52.3427 28.1894 51.5016 27.1252 50.257C26.5951 49.6367 26.163 48.9328 25.8641 48.1729C25.786 47.9744 25.7164 47.7721 25.6554 47.5676C25.6002 47.3825 25.5432 47.1943 25.5236 47.0014C25.4904 46.6777 25.5546 46.3474 25.7055 46.0591C26.0156 45.4659 26.6691 45.1077 27.3363 45.1672C27.993 45.2255 28.5685 45.6812 28.7752 46.3071C28.8389 46.4999 28.8821 46.6975 28.9536 46.8882C29.0245 47.0777 29.1101 47.2619 29.2108 47.4372C29.4095 47.7825 29.6585 48.1009 29.9452 48.3773C30.5363 48.9467 31.2891 49.3168 32.0739 49.537V42.9188C30.5393 42.5215 28.9552 42.0083 27.688 41.023C27.0721 40.5439 26.5495 39.9487 26.2073 39.2442C25.8461 38.5007 25.6965 37.6723 25.6904 36.8495C25.6842 36.0141 25.8429 35.1861 26.1914 34.4249C26.5178 33.7123 26.9878 33.0724 27.564 32.542C28.796 31.408 30.4326 30.7755 32.0741 30.5432V30.3976V28.694C32.0741 28.2175 32.2823 27.7563 32.6391 27.4408C33.1297 27.007 33.85 26.8998 34.4454 27.174C35.033 27.4446 35.4192 28.0472 35.4192 28.694V30.3976V30.5331C35.638 30.5606 35.856 30.5936 36.073 30.6329C37.6849 30.9246 39.2615 31.5903 40.4403 32.7524C40.9987 33.3028 41.4558 33.9587 41.7773 34.6739C41.8671 34.8734 41.9456 35.0776 42.0136 35.2858C42.077 35.4799 42.1407 35.6797 42.1709 35.8823C42.2192 36.2057 42.1699 36.5398 42.0315 36.8356C41.748 37.4417 41.1121 37.8277 40.4431 37.799C39.7858 37.7704 39.1903 37.3424 38.9549 36.7279C38.8848 36.5452 38.8498 36.3518 38.7783 36.1695C38.7061 35.985 38.6127 35.809 38.505 35.6428C38.2957 35.3195 38.0245 35.0424 37.7149 34.8141C37.0444 34.319 36.2313 34.0611 35.4187 33.9169V40.2503C36.3844 40.4815 37.3508 40.7337 38.276 41.0985C39.6743 41.6499 40.9993 42.4954 41.7626 43.8286C41.6442 43.6209 41.5289 43.4185 41.7666 43.8355C41.9999 44.2451 41.8885 44.0499 41.7714 43.8446C42.3786 44.9147 42.5781 46.1943 42.4461 47.4099Z" fill="#797979"/>
<path d="M38.8012 48.0293C38.7913 48.047 38.7827 48.0626 38.7759 48.0744C38.7817 48.0642 38.7905 48.0488 38.8012 48.0293Z" fill="#797979"/>
</g>
<defs>
<clipPath id="clip0_12_2">
<rect width="68" height="68" fill="white"/>
</clipPath>
</defs>
</svg>
